# Blender v2.82 (sub 7) OBJ File: ''
# www.blender.org
mtllib 2market-3.mtl
o Market_3
v 5.800000 10.003000 -1.404000
v 5.800000 10.003000 -8.400000
v 5.800000 11.500000 -4.910000
v -6.545000 4.750000 5.126000
v -6.206000 4.750000 4.010000
v -6.545000 4.000000 5.126000
v -6.206000 4.000000 4.010000
v -4.633000 4.000000 6.399000
v -5.581000 4.000000 7.242000
v -5.581000 4.750000 7.242000
v -4.633000 4.750000 6.399000
v -4.031000 4.000000 7.630000
v -3.399000 4.000000 7.135000
v -3.399000 4.750000 7.135000
v -4.031000 4.750000 7.630000
v -2.200000 10.504260 -8.400000
v -2.200000 10.003000 -8.400000
v -2.200000 11.500000 -4.910000
v -2.726000 4.000000 6.553000
v -2.726000 4.750000 6.553000
v -3.752000 4.000000 5.559000
v 5.800000 10.504260 -8.400000
v 5.800000 10.499690 -1.404000
v -6.170000 4.750000 7.965000
v -4.406000 4.750000 8.000000
v -6.170000 4.000000 7.965000
v -2.200000 10.499690 -1.404000
v -2.200000 10.003000 -1.404000
v -2.300000 4.000000 6.020000
v -2.300000 4.750000 6.020000
v -4.272000 4.000000 3.180000
v -4.229000 4.000000 4.341000
v -5.512000 4.000000 3.395000
v -2.985000 4.000000 3.384000
v -2.574000 4.000000 3.643000
v -3.750000 4.000000 4.538000
v -2.074000 4.000000 5.501000
v -1.998000 4.000000 4.956000
v -1.998000 4.750000 4.956000
v -2.074000 4.750000 5.501000
v -4.975000 4.000000 5.264000
v -4.975000 4.750000 5.264000
v -2.064000 4.000000 4.458000
v -2.064000 4.750000 4.458000
v -4.720000 4.750000 4.544000
v -6.497000 4.750000 8.650000
v -4.229000 4.750000 4.341000
v -4.720000 4.000000 4.544000
v -3.560000 4.000000 5.014000
v -6.660000 4.750000 9.380000
v -1.960000 4.750000 9.380000
v -6.660000 4.000000 9.380000
v -1.960000 4.000000 9.380000
v -2.262000 4.000000 4.010000
v -2.262000 4.750000 4.010000
v -1.960000 4.000000 8.000000
v -4.406000 4.000000 8.000000
v -2.574000 4.750000 3.643000
v -6.497000 4.000000 8.650000
v -2.985000 4.750000 3.384000
v -1.960000 4.750000 8.000000
v -4.272000 4.750000 3.180000
v -5.512000 4.750000 3.395000
v -3.560000 4.750000 5.014000
v -3.750000 4.750000 4.538000
v -3.752000 4.750000 5.559000
vn 1.0000 0.0000 0.0000
vn -0.9568 0.0000 -0.2907
vn -0.6645 0.0000 -0.7473
vn 0.6166 0.0000 0.7873
vn -1.0000 0.0000 0.0000
vn 0.6541 0.0000 0.7564
vn -0.6901 0.0000 -0.7237
vn 0.0000 1.0000 0.0000
vn -0.7753 0.0000 -0.6316
vn 0.7812 0.0000 0.6243
vn 0.0000 -1.0000 0.0000
vn 0.9904 0.0000 0.1381
vn -0.0876 0.0000 0.9962
vn 0.9913 0.0000 -0.1314
vn 0.0000 0.9616 -0.2744
vn 0.3821 0.0000 0.9241
vn 0.0000 0.9616 0.2744
vn 0.0000 0.0000 -1.0000
vn 0.9426 0.0000 0.3338
vn 0.0000 0.0000 1.0000
vn 0.9147 0.0000 -0.4042
vn 0.7619 0.0000 -0.6477
vn -0.9024 0.0000 -0.4308
vn 0.5331 0.0000 -0.8460
vn 0.1566 0.0000 -0.9877
vn -0.1708 0.0000 -0.9853
vn -0.6632 0.0000 -0.7484
vn -0.9760 0.0000 -0.2179
vn 0.9168 0.0000 0.3992
vn -0.9432 0.0000 -0.3323
vn -0.9287 0.0000 0.3707
vn -0.3804 0.0000 0.9248
vn 0.7023 0.0000 0.7118
usemtl None
s off
f 1//1 2//1 3//1
f 4//2 5//2 6//2
f 7//2 6//2 5//2
f 8//3 9//3 10//3
f 8//3 10//3 11//3
f 12//4 13//4 14//4
f 12//4 14//4 15//4
f 16//5 17//5 18//5
f 13//6 19//6 20//6
f 13//6 20//6 14//6
f 21//7 8//7 11//7
f 22//1 3//1 2//1
f 23//1 1//1 3//1
f 24//8 25//8 10//8
f 25//8 15//8 10//8
f 11//8 10//8 15//8
f 9//9 26//9 24//9
f 9//9 24//9 10//9
f 27//5 18//5 28//5
f 19//10 29//10 30//10
f 19//10 30//10 20//10
f 17//5 28//5 18//5
f 31//11 32//11 33//11
f 34//11 32//11 31//11
f 35//11 36//11 34//11
f 37//12 38//12 39//12
f 37//12 39//12 40//12
f 41//13 42//13 4//13
f 41//13 4//13 6//13
f 43//14 44//14 39//14
f 43//14 39//14 38//14
f 45//8 5//8 42//8
f 4//8 42//8 5//8
f 24//8 46//8 25//8
f 22//15 16//15 3//15
f 32//16 47//16 45//16
f 32//16 45//16 48//16
f 3//17 18//17 27//17
f 3//17 27//17 23//17
f 49//11 29//11 21//11
f 21//11 19//11 13//11
f 46//8 50//8 25//8
f 50//8 51//8 25//8
f 3//15 16//15 18//15
f 22//18 2//18 17//18
f 22//18 17//18 16//18
f 48//19 45//19 42//19
f 48//19 42//19 41//19
f 52//20 53//20 50//20
f 51//20 50//20 53//20
f 19//11 21//11 29//11
f 37//11 29//11 49//11
f 54//21 55//21 44//21
f 56//18 57//18 25//18
f 54//22 35//22 58//22
f 54//22 58//22 55//22
f 38//11 49//11 43//11
f 37//11 49//11 38//11
f 32//11 34//11 36//11
f 43//11 49//11 54//11
f 36//11 54//11 49//11
f 52//11 57//11 53//11
f 46//23 24//23 59//23
f 26//23 59//23 24//23
f 35//24 34//24 60//24
f 35//24 60//24 58//24
f 56//1 61//1 53//1
f 51//1 53//1 61//1
f 9//11 8//11 12//11
f 13//11 12//11 8//11
f 21//11 13//11 8//11
f 57//11 9//11 12//11
f 26//11 9//11 57//11
f 34//25 31//25 62//25
f 34//25 62//25 60//25
f 31//26 33//26 63//26
f 31//26 63//26 62//26
f 48//11 33//11 32//11
f 54//11 36//11 35//11
f 33//27 7//27 5//27
f 33//27 5//27 63//27
f 6//11 7//11 41//11
f 48//11 41//11 7//11
f 7//11 33//11 48//11
f 44//8 64//8 39//8
f 39//8 64//8 40//8
f 59//28 52//28 50//28
f 59//28 50//28 46//28
f 56//11 53//11 57//11
f 61//8 25//8 51//8
f 26//11 57//11 59//11
f 59//11 57//11 52//11
f 5//8 45//8 63//8
f 45//8 47//8 63//8
f 62//8 63//8 47//8
f 58//8 60//8 65//8
f 47//8 65//8 60//8
f 62//8 47//8 60//8
f 40//8 64//8 30//8
f 30//8 66//8 20//8
f 14//8 20//8 66//8
f 66//8 11//8 14//8
f 14//8 11//8 15//8
f 66//8 30//8 64//8
f 55//8 58//8 65//8
f 65//8 64//8 55//8
f 44//8 55//8 64//8
f 27//20 28//20 1//20
f 27//20 1//20 23//20
f 28//11 17//11 1//11
f 2//11 1//11 17//11
f 29//29 37//29 40//29
f 29//29 40//29 30//29
f 44//21 43//21 54//21
f 21//7 11//7 66//7
f 49//30 21//30 66//30
f 49//30 66//30 64//30
f 36//31 49//31 64//31
f 36//31 64//31 65//31
f 36//32 65//32 47//32
f 36//32 47//32 32//32
f 25//18 61//18 56//18
f 57//33 12//33 25//33
f 15//33 25//33 12//33
