# Blender v2.82 (sub 7) OBJ File: ''
# www.blender.org
mtllib 3craft-1.mtl
o Craft_1
v 8.749000 3.000000 -4.761000
v 8.862000 3.000000 -4.016000
v 8.862000 0.000000 -4.016000
v 8.749000 0.000000 -4.761000
v -3.691000 4.500000 8.223000
v -3.453000 4.500000 7.578000
v -4.289000 4.500000 8.464000
v -4.852000 4.500000 8.273000
v 5.594000 0.000000 -9.469000
v 6.704000 0.000000 -8.553000
v 2.912000 0.000000 -10.598000
v 4.320000 0.000000 -10.160000
v 7.620000 0.000000 -7.443000
v 8.312000 0.000000 -6.169000
v 2.168000 0.000000 -10.711000
v 1.401000 0.000000 -10.750000
v 8.901000 0.000000 -3.250000
v 0.635000 0.000000 -10.711000
v 8.862000 0.000000 -2.483000
v 8.749000 0.000000 -1.739000
v 8.312000 0.000000 -0.331000
v 7.620000 0.000000 0.943000
v 4.320000 0.000000 3.661000
v 2.912000 0.000000 4.098000
v 5.594000 0.000000 2.969000
v 6.704000 0.000000 2.053000
v 2.168000 0.000000 4.211000
v 1.401000 0.000000 4.250000
v 8.312000 3.000000 -0.331000
v -0.110000 0.000000 -10.598000
v 8.901000 3.000000 -3.250000
v 0.100000 4.500000 6.260000
v 0.077000 4.500000 5.800000
v -1.834000 4.500000 6.783000
v 8.749000 3.000000 -1.739000
v -3.902000 0.000000 -8.553000
v -4.818000 0.000000 -7.443000
v -5.509000 0.000000 -6.169000
v -5.947000 0.000000 -4.761000
v -6.060000 0.000000 -4.016000
v -6.099000 0.000000 -3.250000
v -2.792000 0.000000 -9.469000
v -1.518000 0.000000 -10.160000
v -5.947000 0.000000 -1.739000
v -6.060000 0.000000 -2.483000
v 0.009000 4.500000 7.167000
v 0.077000 4.500000 6.720000
v -0.253000 4.500000 8.011000
v -1.656000 4.500000 7.490000
v -5.509000 0.000000 -0.331000
v 0.635000 0.000000 4.211000
v -0.110000 0.000000 4.098000
v 0.100000 0.000000 6.260000
v 0.077000 0.000000 6.720000
v 0.009000 0.000000 7.167000
v 0.077000 0.000000 5.800000
v -0.550050 0.000000 3.961420
v -0.668000 0.000000 3.744000
v -1.218000 0.000000 3.078000
v -3.493000 0.000000 1.851000
v -4.818000 0.000000 0.943000
v 2.912000 3.000000 -10.598000
v 4.320000 3.000000 -10.160000
v -3.940000 0.000000 1.783000
v 1.401000 3.000000 4.250000
v 2.168000 3.000000 4.211000
v -3.683000 4.500000 6.942000
v -5.179000 4.500000 7.586000
v 5.594000 3.000000 2.969000
v 6.704000 3.000000 2.053000
v -2.409000 0.000000 2.243820
v -2.392110 0.000000 2.253000
v -1.884000 0.000000 2.529000
v -2.410000 0.000000 2.243280
v -2.648000 0.000000 2.114000
v 7.620000 3.000000 0.943000
v 4.320000 3.000000 3.661000
v 2.912000 3.000000 4.098000
v -0.253000 4.500000 4.509000
v -0.253000 0.000000 4.509000
v -0.550050 3.000000 3.961420
v -5.306000 0.000000 10.669000
v -5.306000 4.500000 10.669000
v -6.151000 4.500000 10.406000
v -6.151000 0.000000 10.406000
v -4.860000 0.000000 10.737000
v -4.860000 4.500000 10.737000
v -0.668000 4.500000 3.744000
v -0.668000 3.000000 3.744000
v 0.635000 3.000000 4.211000
v -8.131000 0.000000 8.776000
v -7.582000 0.000000 9.442000
v -7.582000 4.500000 9.442000
v -8.131000 4.500000 8.776000
v -1.884000 4.500000 9.991000
v -2.796000 4.500000 9.207000
v -2.648000 4.500000 10.406000
v -1.218000 4.500000 9.442000
v -2.308000 4.500000 8.897000
v -3.434000 4.500000 9.399000
v -3.493000 4.500000 10.669000
v -5.628000 4.500000 9.274000
v -4.246000 4.500000 9.463000
v -6.916000 4.500000 9.991000
v -4.400000 4.500000 10.760000
v -2.648000 3.000000 2.114000
v -3.493000 3.000000 1.851000
v -3.493000 3.001000 1.851000
v -2.648000 3.001000 2.114000
v -6.916000 0.000000 9.991000
v 0.009000 0.000000 5.353000
v 0.009000 4.500000 5.353000
v -6.460000 4.500000 8.720000
v -6.961000 4.500000 7.804000
v -3.976000 3.997000 5.456000
v -2.901000 3.997000 6.108000
v -3.742000 3.997000 4.969000
v -2.648000 0.000000 10.406000
v -3.493000 0.000000 10.669000
v -0.253000 0.000000 8.011000
v -1.884000 0.000000 9.991000
v -0.110000 3.000000 4.098000
v -2.125000 4.500000 4.275000
v -2.125000 3.997000 4.275000
v -1.985000 3.997000 4.872000
v -1.985000 4.500000 4.872000
v -3.940000 4.500000 10.737000
v -3.940000 0.000000 10.737000
v -3.691000 3.997000 8.223000
v -2.308000 3.997000 8.897000
v -3.453000 3.997000 7.578000
v -4.400000 0.000000 10.760000
v -3.281000 3.997000 3.466000
v -3.917000 3.997000 4.538000
v -2.546000 3.997000 3.789000
v -3.917000 4.500000 4.538000
v -4.399000 4.500000 4.377000
v -3.742000 4.500000 4.969000
v -4.399000 3.997000 4.377000
v -1.884000 4.500000 2.529000
v -2.409000 4.500000 2.253000
v -2.546000 4.500000 3.789000
v -1.218000 0.000000 9.442000
v -2.213000 3.997000 5.565000
v -0.668000 0.000000 8.776000
v -0.668000 4.500000 8.776000
v -2.409000 4.500000 2.243820
v -1.950000 3.997000 8.478000
v -1.950000 4.500000 8.478000
v -1.834000 3.997000 6.783000
v -2.331000 3.997000 6.306000
v -4.307000 3.997000 6.716000
v -3.683000 3.997000 6.942000
v -3.607000 4.500000 2.253000
v -3.281000 4.500000 3.466000
v -2.796000 3.997000 9.207000
v -3.940000 4.500000 1.783000
v -4.364000 4.500000 3.358000
v -3.607000 4.500000 1.833660
v -3.434000 3.997000 9.399000
v -4.561000 3.997000 5.661000
v -4.364000 3.997000 3.358000
v -6.151000 0.000000 2.114000
v -1.218000 4.500000 3.078000
v -2.331000 4.500000 6.306000
v -2.213000 4.500000 5.565000
v -4.132760 0.000000 1.773360
v -3.607000 3.001000 2.253000
v -3.607000 3.001000 1.833660
v -4.246000 3.997000 9.463000
v -2.409000 3.001000 2.253000
v -2.409000 3.001000 2.243820
v -4.885000 4.500000 6.813000
v -5.179000 4.500000 5.166000
v -6.865000 4.500000 4.888000
v -0.110000 3.000000 -10.598000
v -1.518000 3.000000 -10.160000
v -5.628000 3.997000 9.274000
v -6.460000 3.997000 8.720000
v -2.792000 3.000000 -9.469000
v -3.902000 3.000000 -8.553000
v -4.818000 3.000000 -7.443000
v -5.509000 3.000000 -6.169000
v -5.947000 3.000000 -4.761000
v -6.060000 3.000000 -4.016000
v -6.099000 3.000000 -3.250000
v -6.060000 3.000000 -2.483000
v -5.947000 3.000000 -1.739000
v -6.961000 3.997000 7.804000
v -7.582000 4.500000 3.078000
v -7.582000 0.000000 3.078000
v -8.131000 0.000000 3.744000
v -8.131000 4.500000 3.744000
v -4.132760 3.000000 1.773360
v -3.940000 3.000000 1.783000
v -4.818000 3.000000 0.943000
v -5.509000 3.000000 -0.331000
v -4.289000 3.997000 8.464000
v 0.635000 3.000000 -10.711000
v -6.916000 0.000000 2.529000
v -6.916000 4.500000 2.529000
v -4.852000 3.997000 8.273000
v -1.218000 3.000000 3.078000
v -4.400000 4.500000 1.760000
v -4.400000 0.000000 1.760000
v -1.656000 3.997000 7.490000
v -6.151000 4.500000 2.114000
v -5.306000 4.500000 1.851000
v -5.306000 0.000000 1.851000
v -4.860000 0.000000 1.783000
v -4.860000 4.500000 1.783000
v -5.179000 3.997000 5.166000
v -6.865000 3.997000 4.888000
v -6.558000 3.997000 4.234000
v -6.558000 4.500000 4.234000
v -4.911000 4.500000 4.552000
v -4.911000 3.997000 4.552000
v -2.409000 3.000000 2.243820
v -2.410000 3.000000 2.243280
v -2.392110 3.000000 2.253000
v -1.884000 3.000000 2.529000
v -2.901000 4.500000 6.108000
v -4.307000 4.500000 6.716000
v -4.885000 3.997000 6.813000
v -5.179000 3.997000 7.586000
v -4.793000 4.500000 5.641000
v -3.976000 4.500000 5.456000
v -4.561000 4.500000 5.661000
v -4.793000 3.997000 5.641000
v -6.057000 4.500000 3.752000
v -6.057000 3.997000 3.752000
v -5.335000 3.997000 3.457000
v -5.335000 4.500000 3.457000
v -8.546000 0.000000 8.011000
v -8.808000 0.000000 7.167000
v -8.876000 0.000000 6.720000
v -8.900000 0.000000 6.260000
v -8.876000 0.000000 5.800000
v -8.546000 0.000000 4.509000
v -8.808000 0.000000 5.353000
v -8.546000 4.500000 4.509000
v -8.808000 4.500000 5.353000
v -8.876000 4.500000 5.800000
v -8.900000 4.500000 6.260000
v -8.876000 4.500000 6.720000
v -8.808000 4.500000 7.167000
v -8.546000 4.500000 8.011000
v 1.401000 3.000000 -10.750000
v 8.862000 3.000000 -2.483000
v 8.312000 3.000000 -6.169000
v 7.620000 3.000000 -7.443000
v 6.704000 3.000000 -8.553000
v 5.594000 3.000000 -9.469000
v 2.168000 3.000000 -10.711000
vn 0.9887 0.0000 -0.1500
vn 0.0000 1.0000 0.0000
vn 0.0000 -1.0000 0.0000
vn 0.8787 0.0000 0.4773
vn 0.9987 0.0000 -0.0508
vn 0.9551 0.0000 0.2964
vn 0.2970 0.0000 -0.9549
vn 0.0508 0.0000 0.9987
vn 0.6365 0.0000 0.7713
vn 0.7713 0.0000 0.6365
vn 0.4773 0.0000 0.8787
vn 0.2964 0.0000 0.9551
vn 0.8790 0.0000 -0.4768
vn -0.2972 0.0000 0.9548
vn -0.1507 0.0000 0.9886
vn 0.1502 0.0000 0.9887
vn -0.0508 0.0000 0.9987
vn -0.7716 0.0000 0.6361
vn 0.2972 0.0000 -0.9548
vn -0.6361 0.0000 0.7716
vn 0.9550 0.0000 -0.2965
vn 0.2972 0.0000 0.9548
vn 0.9550 0.0000 0.2965
vn -0.4768 0.0000 0.8790
vn -0.1500 0.0000 0.9887
vn -0.9736 0.0000 0.2283
vn 0.1504 0.0000 0.9886
vn 0.9988 0.0000 -0.0499
vn -0.0499 0.0000 0.9988
vn 0.9886 0.0000 0.1504
vn 0.0499 0.0000 0.9988
vn 0.3168 0.0000 -0.9485
vn 0.6361 0.0000 0.7716
vn 0.7711 0.0000 0.6368
vn -0.9585 0.0000 -0.2852
vn -0.7603 0.0000 -0.6496
vn -0.5362 0.0000 -0.8441
vn -0.2882 0.0000 -0.9576
vn -0.0786 0.0000 -0.9969
vn 0.1355 0.0000 -0.9908
vn 0.5542 0.0000 -0.8324
vn 1.0000 0.0000 0.0000
vn 0.9886 0.0000 -0.1504
vn 0.9988 0.0000 0.0499
vn 0.1214 0.0000 0.9926
vn -0.7716 0.0000 -0.6361
vn 0.3738 0.0000 0.9275
vn 0.8790 0.0000 0.4768
vn -0.1500 0.0000 -0.9887
vn -0.9549 0.0000 -0.2970
vn -0.6361 0.0000 -0.7716
vn 0.8773 0.0000 -0.4799
vn -0.9887 0.0000 -0.1500
vn -0.2970 0.0000 -0.9549
vn -0.7713 0.0000 0.6365
vn -0.3213 0.0000 0.9470
vn -0.4768 0.0000 -0.8790
vn -0.6365 0.0000 -0.7713
vn -0.2964 0.0000 0.9551
vn -0.7713 0.0000 -0.6365
vn -0.9549 0.0000 0.2970
vn 0.7711 0.0000 -0.6368
vn 0.0499 0.0000 -0.9988
vn -0.8790 0.0000 -0.4768
vn -0.9887 0.0000 0.1502
vn -0.2972 0.0000 -0.9548
vn -0.9987 0.0000 -0.0508
vn -0.9987 0.0000 0.0508
vn -0.1507 0.0000 -0.9886
vn -0.8790 0.0000 0.4768
vn -0.0499 0.0000 -0.9988
vn 0.1627 0.0000 -0.9867
vn 0.9052 0.0000 0.4249
vn 0.1503 0.0000 -0.9886
vn 0.1504 0.0000 -0.9886
vn 0.1504 0.0024 -0.9886
vn -0.9165 0.0000 -0.4000
vn 0.0000 1.0000 -0.0011
vn 0.0000 1.0000 0.0001
vn -0.3234 0.0000 -0.9463
vn 0.4773 -0.0000 -0.8787
vn -0.3281 0.0000 0.9446
vn -0.6195 0.0000 -0.7850
vn -0.1655 0.0000 -0.9862
vn 0.4774 0.0000 -0.8787
vn -0.6924 0.0000 0.7215
vn 0.4773 -0.0028 -0.8788
vn 0.4752 0.0000 -0.8799
vn 0.3405 0.0000 -0.9402
vn 0.4775 0.0000 -0.8786
vn -0.9029 0.0000 0.4298
vn -0.9697 0.0000 0.2441
vn 0.6361 0.0000 -0.7716
vn -0.9499 0.0000 -0.3125
vn 0.3307 0.0000 0.9437
vn 0.9969 0.0000 0.0783
vn -0.0859 0.0000 0.9963
vn 0.9265 0.0000 -0.3762
vn 0.6933 0.0000 0.7206
vn 0.3782 0.0000 0.9257
vn 0.1014 0.0000 0.9948
vn 0.9404 0.0000 -0.3401
vn -0.0992 0.0000 0.9951
vn 0.9382 0.0000 0.3462
vn 0.9013 0.0000 0.4331
vn -0.4023 0.0000 0.9155
vn -0.7558 0.0000 0.6548
vn -1.0000 0.0000 0.0000
vn 0.0000 0.0000 -1.0000
vn 0.0508 0.0000 -0.9987
vn -0.9986 0.0000 -0.0521
vn 0.1502 0.0000 -0.9887
vn -0.9886 0.0000 -0.1504
vn -0.0508 0.0000 -0.9987
vn -0.9986 0.0000 0.0521
vn -0.9550 0.0000 0.2965
vn 0.4768 0.0000 -0.8790
vn 0.6365 0.0000 -0.7713
vn -0.9886 0.0000 0.1504
vn -0.9550 0.0000 -0.2965
vn 0.7713 0.0000 -0.6365
vn 0.9987 0.0000 0.0508
vn 0.8787 0.0000 -0.4773
vn 0.9887 0.0000 0.1502
vn 0.9551 0.0000 -0.2964
usemtl None
s off
f 1//1 2//1 3//1
f 1//1 3//1 4//1
f 5//2 6//2 7//2
f 7//2 6//2 8//2
f 9//3 10//3 11//3
f 12//3 9//3 11//3
f 10//3 13//3 11//3
f 13//3 14//3 11//3
f 14//3 4//3 11//3
f 4//3 3//3 11//3
f 15//3 11//3 3//3
f 16//3 15//3 3//3
f 3//3 17//3 16//3
f 18//3 16//3 17//3
f 18//3 17//3 19//3
f 18//3 19//3 20//3
f 18//3 20//3 21//3
f 18//3 21//3 22//3
f 23//3 24//3 25//3
f 26//3 25//3 24//3
f 22//3 26//3 24//3
f 22//3 24//3 27//3
f 28//3 22//3 27//3
f 21//4 29//4 22//4
f 30//3 18//3 22//3
f 2//5 31//5 17//5
f 2//5 17//5 3//5
f 32//2 33//2 34//2
f 35//6 29//6 21//6
f 35//6 21//6 20//6
f 36//3 22//3 37//3
f 37//3 22//3 38//3
f 39//3 38//3 22//3
f 40//3 39//3 22//3
f 41//3 40//3 22//3
f 42//3 22//3 36//3
f 43//3 22//3 42//3
f 30//3 22//3 43//3
f 44//3 45//3 22//3
f 45//3 41//3 22//3
f 46//2 47//2 34//2
f 48//2 46//2 49//2
f 50//3 44//3 22//3
f 28//3 51//3 22//3
f 52//3 22//3 51//3
f 53//3 54//3 55//3
f 53//3 55//3 56//3
f 57//3 58//3 52//3
f 59//3 22//3 58//3
f 22//3 60//3 61//3
f 52//3 58//3 22//3
f 12//7 11//7 62//7
f 12//7 62//7 63//7
f 64//3 61//3 60//3
f 65//8 28//8 27//8
f 65//8 27//8 66//8
f 67//2 68//2 6//2
f 69//9 25//9 26//9
f 69//9 26//9 70//9
f 71//3 22//3 72//3
f 73//3 72//3 22//3
f 74//3 22//3 71//3
f 75//3 22//3 74//3
f 29//4 76//4 22//4
f 76//10 70//10 26//10
f 76//10 26//10 22//10
f 69//11 77//11 23//11
f 69//11 23//11 25//11
f 77//12 78//12 24//12
f 77//12 24//12 23//12
f 79//13 80//13 81//13
f 82//14 83//14 84//14
f 82//14 84//14 85//14
f 86//15 87//15 83//15
f 86//15 83//15 82//15
f 79//13 81//13 88//13
f 88//13 81//13 89//13
f 78//16 66//16 27//16
f 78//16 27//16 24//16
f 57//13 81//13 80//13
f 28//17 65//17 90//17
f 28//17 90//17 51//17
f 91//18 92//18 93//18
f 91//18 93//18 94//18
f 95//2 96//2 97//2
f 98//2 99//2 95//2
f 96//2 100//2 97//2
f 101//2 97//2 100//2
f 102//2 83//2 103//2
f 104//2 84//2 102//2
f 83//2 102//2 84//2
f 87//2 103//2 83//2
f 105//2 103//2 87//2
f 106//19 107//19 108//19
f 106//19 108//19 109//19
f 110//20 104//20 92//20
f 92//20 104//20 93//20
f 111//21 80//21 112//21
f 113//2 114//2 93//2
f 115//2 116//2 117//2
f 118//22 97//22 101//22
f 118//22 101//22 119//22
f 79//21 112//21 80//21
f 55//23 46//23 120//23
f 48//23 120//23 46//23
f 121//11 95//11 97//11
f 121//11 97//11 118//11
f 84//24 104//24 110//24
f 84//24 110//24 85//24
f 52//25 51//25 122//25
f 90//25 122//25 51//25
f 123//26 124//26 125//26
f 123//26 125//26 126//26
f 101//27 127//27 128//27
f 101//27 128//27 119//27
f 56//28 33//28 32//28
f 56//28 32//28 53//28
f 129//2 130//2 131//2
f 132//29 105//29 87//29
f 132//29 87//29 86//29
f 55//30 54//30 47//30
f 55//30 47//30 46//30
f 127//31 105//31 132//31
f 127//31 132//31 128//31
f 133//2 134//2 135//2
f 136//2 137//2 138//2
f 139//32 136//32 134//32
f 59//3 73//3 22//3
f 133//2 139//2 134//2
f 140//2 141//2 142//2
f 95//33 121//33 98//33
f 143//33 98//33 121//33
f 60//3 22//3 75//3
f 144//2 125//2 117//2
f 134//2 117//2 135//2
f 143//34 145//34 98//34
f 146//34 98//34 145//34
f 74//3 55//3 75//3
f 147//2 141//2 140//2
f 49//35 148//35 149//35
f 150//2 151//2 131//2
f 152//2 153//2 115//2
f 154//2 155//2 141//2
f 155//2 142//2 141//2
f 149//36 148//36 130//36
f 149//36 130//36 99//36
f 156//37 96//37 99//37
f 156//37 99//37 130//37
f 157//2 158//2 154//2
f 159//2 157//2 154//2
f 160//38 100//38 96//38
f 160//38 96//38 156//38
f 71//3 55//3 74//3
f 60//3 75//3 55//3
f 55//3 71//3 72//3
f 55//3 72//3 73//3
f 55//3 73//3 59//3
f 55//3 59//3 58//3
f 55//3 58//3 57//3
f 55//3 57//3 80//3
f 55//3 80//3 111//3
f 111//3 56//3 55//3
f 152//2 115//2 161//2
f 139//2 133//2 162//2
f 60//3 55//3 64//3
f 120//3 145//3 163//3
f 140//2 142//2 164//2
f 47//2 32//2 34//2
f 165//2 34//2 33//2
f 166//2 165//2 33//2
f 126//2 166//2 112//2
f 164//2 123//2 88//2
f 61//3 50//3 22//3
f 167//3 61//3 64//3
f 108//2 168//2 109//2
f 169//2 168//2 108//2
f 170//39 103//39 160//39
f 100//39 160//39 103//39
f 168//2 171//2 109//2
f 172//2 109//2 171//2
f 68//2 173//2 114//2
f 114//2 174//2 175//2
f 176//2 177//2 29//2
f 103//40 170//40 178//40
f 103//40 178//40 102//40
f 179//41 102//41 178//41
f 168//42 169//42 159//42
f 180//2 29//2 177//2
f 181//2 29//2 180//2
f 182//2 29//2 181//2
f 183//2 29//2 182//2
f 184//2 29//2 183//2
f 185//2 29//2 184//2
f 186//2 29//2 185//2
f 187//2 29//2 186//2
f 188//2 29//2 187//2
f 112//43 33//43 56//43
f 112//43 56//43 111//43
f 54//44 53//44 32//44
f 54//44 32//44 47//44
f 189//45 68//45 114//45
f 190//46 191//46 192//46
f 190//46 192//46 193//46
f 194//2 195//2 196//2
f 195//2 107//2 196//2
f 197//2 196//2 107//2
f 129//47 5//47 7//47
f 129//47 7//47 198//47
f 146//48 145//48 48//48
f 199//49 18//49 176//49
f 102//41 179//41 113//41
f 120//48 48//48 145//48
f 183//50 38//50 39//50
f 183//50 39//50 184//50
f 191//51 190//51 200//51
f 201//51 200//51 190//51
f 189//52 114//52 113//52
f 189//52 113//52 179//52
f 39//53 40//53 185//53
f 39//53 185//53 184//53
f 176//54 30//54 43//54
f 176//54 43//54 177//54
f 194//55 61//55 167//55
f 198//56 7//56 8//56
f 198//56 8//56 202//56
f 43//57 42//57 180//57
f 43//57 180//57 177//57
f 90//2 89//2 122//2
f 66//2 78//2 203//2
f 90//2 65//2 203//2
f 203//2 89//2 90//2
f 81//2 122//2 89//2
f 42//58 36//58 181//58
f 42//58 181//58 180//58
f 81//59 57//59 52//59
f 81//59 52//59 122//59
f 36//60 37//60 182//60
f 36//60 182//60 181//60
f 188//61 44//61 50//61
f 188//61 50//61 197//61
f 203//62 164//62 88//62
f 204//63 194//63 205//63
f 167//63 205//63 194//63
f 203//62 88//62 89//62
f 37//64 38//64 183//64
f 37//64 183//64 182//64
f 160//2 156//2 129//2
f 129//2 156//2 130//2
f 148//2 206//2 131//2
f 130//2 148//2 131//2
f 187//65 45//65 44//65
f 187//65 44//65 188//65
f 163//57 200//57 207//57
f 201//57 207//57 200//57
f 107//2 106//2 197//2
f 198//2 202//2 178//2
f 178//2 170//2 198//2
f 170//2 160//2 198//2
f 129//2 198//2 160//2
f 208//66 209//66 207//66
f 40//67 41//67 186//67
f 40//67 186//67 185//67
f 207//66 209//66 163//66
f 186//68 41//68 45//68
f 186//68 45//68 187//68
f 209//69 208//69 210//69
f 211//69 210//69 208//69
f 195//63 194//63 157//63
f 204//63 157//63 194//63
f 18//49 30//49 176//49
f 179//2 178//2 202//2
f 196//70 197//70 61//70
f 50//70 61//70 197//70
f 106//2 69//2 197//2
f 194//55 196//55 61//55
f 204//71 210//71 211//71
f 174//72 212//72 213//72
f 174//72 213//72 175//72
f 204//71 205//71 210//71
f 79//2 88//2 126//2
f 112//2 79//2 126//2
f 123//2 126//2 88//2
f 33//2 112//2 166//2
f 214//73 215//73 175//73
f 214//73 175//73 213//73
f 107//74 169//74 108//74
f 157//75 159//75 169//75
f 107//76 195//76 169//76
f 157//75 169//75 195//75
f 216//77 217//77 212//77
f 216//77 212//77 174//77
f 218//78 69//78 219//78
f 220//79 69//79 218//79
f 221//2 69//2 220//2
f 65//2 66//2 203//2
f 219//2 69//2 106//2
f 34//2 49//2 46//2
f 123//2 164//2 142//2
f 137//80 139//80 217//80
f 137//80 217//80 216//80
f 140//81 220//81 147//81
f 166//2 222//2 165//2
f 151//82 165//82 222//82
f 151//82 222//82 116//82
f 136//32 139//32 137//32
f 221//81 220//81 140//81
f 116//83 222//83 144//83
f 166//83 144//83 222//83
f 223//84 152//84 224//84
f 223//84 224//84 173//84
f 109//85 219//85 106//85
f 150//86 34//86 165//86
f 150//86 165//86 151//86
f 219//87 109//87 172//87
f 219//88 172//88 218//88
f 152//89 223//89 153//89
f 67//89 153//89 223//89
f 218//90 172//90 220//90
f 68//91 202//91 8//91
f 172//90 147//90 220//90
f 173//2 68//2 223//2
f 68//2 67//2 223//2
f 8//2 6//2 68//2
f 225//45 68//45 189//45
f 34//92 150//92 206//92
f 34//92 206//92 49//92
f 203//93 140//93 164//93
f 202//91 68//91 225//91
f 173//2 226//2 114//2
f 144//94 166//94 125//94
f 126//94 125//94 166//94
f 203//93 221//93 140//93
f 161//95 227//95 228//95
f 174//2 114//2 226//2
f 148//35 49//35 206//35
f 173//96 224//96 226//96
f 229//96 226//96 224//96
f 209//3 55//3 163//3
f 55//3 120//3 163//3
f 210//3 55//3 209//3
f 205//3 55//3 210//3
f 167//3 55//3 205//3
f 64//3 55//3 167//3
f 174//2 226//2 216//2
f 226//2 228//2 216//2
f 137//2 216//2 228//2
f 228//2 227//2 137//2
f 227//2 138//2 137//2
f 161//97 228//97 226//97
f 161//97 226//97 229//97
f 134//98 138//98 117//98
f 191//3 92//3 192//3
f 215//99 214//99 230//99
f 231//99 230//99 214//99
f 138//98 134//98 136//98
f 201//2 190//2 230//2
f 215//2 230//2 190//2
f 232//100 233//100 230//100
f 232//100 230//100 231//100
f 204//2 211//2 158//2
f 162//101 158//101 233//101
f 162//101 233//101 232//101
f 91//3 234//3 235//3
f 236//3 92//3 235//3
f 237//3 92//3 236//3
f 238//3 92//3 237//3
f 192//3 92//3 239//3
f 240//3 92//3 238//3
f 204//2 158//2 157//2
f 6//102 131//102 67//102
f 153//102 67//102 131//102
f 162//103 155//103 158//103
f 110//3 92//3 191//3
f 143//3 121//3 191//3
f 200//3 163//3 145//3
f 145//3 143//3 200//3
f 191//3 200//3 143//3
f 5//104 129//104 6//104
f 131//104 6//104 129//104
f 201//2 230//2 207//2
f 230//2 233//2 207//2
f 208//2 207//2 233//2
f 233//2 158//2 208//2
f 211//2 208//2 158//2
f 155//2 154//2 158//2
f 117//105 138//105 227//105
f 117//105 227//105 115//105
f 217//2 214//2 212//2
f 213//2 212//2 214//2
f 175//2 215//2 193//2
f 190//2 193//2 215//2
f 193//2 241//2 175//2
f 115//95 227//95 161//95
f 121//3 118//3 191//3
f 118//3 119//3 191//3
f 110//3 191//3 85//3
f 119//3 128//3 191//3
f 128//3 132//3 191//3
f 132//3 86//3 191//3
f 86//3 82//3 191//3
f 85//3 191//3 82//3
f 162//2 232//2 139//2
f 162//103 133//103 155//103
f 91//3 235//3 92//3
f 240//3 239//3 92//3
f 242//2 175//2 241//2
f 243//2 244//2 175//2
f 244//2 245//2 175//2
f 114//2 175//2 245//2
f 246//2 114//2 245//2
f 247//2 114//2 246//2
f 94//2 114//2 247//2
f 242//2 243//2 175//2
f 135//106 142//106 155//106
f 135//106 155//106 133//106
f 149//2 146//2 49//2
f 161//2 224//2 152//2
f 124//107 123//107 142//107
f 124//107 142//107 135//107
f 99//2 98//2 149//2
f 171//108 141//108 147//108
f 171//108 147//108 172//108
f 96//2 95//2 99//2
f 48//2 49//2 146//2
f 141//109 171//109 154//109
f 168//109 154//109 171//109
f 127//2 101//2 103//2
f 146//2 149//2 98//2
f 199//2 176//2 29//2
f 248//2 199//2 29//2
f 248//2 29//2 35//2
f 248//2 35//2 249//2
f 248//2 249//2 31//2
f 248//2 31//2 2//2
f 1//2 62//2 2//2
f 250//2 62//2 1//2
f 251//2 62//2 250//2
f 252//2 62//2 251//2
f 253//2 62//2 252//2
f 63//2 62//2 253//2
f 254//2 2//2 62//2
f 248//2 2//2 254//2
f 159//42 154//42 168//42
f 189//2 179//2 225//2
f 202//2 225//2 179//2
f 100//2 103//2 101//2
f 161//2 229//2 224//2
f 105//2 127//2 103//2
f 124//2 117//2 125//2
f 135//2 117//2 124//2
f 29//2 188//2 76//2
f 76//2 188//2 70//2
f 77//2 69//2 203//2
f 188//2 197//2 69//2
f 78//2 77//2 203//2
f 221//2 203//2 69//2
f 70//2 188//2 69//2
f 254//110 15//110 16//110
f 254//110 16//110 248//110
f 231//2 217//2 232//2
f 214//2 217//2 231//2
f 217//2 139//2 232//2
f 113//2 93//2 104//2
f 243//111 238//111 237//111
f 243//111 237//111 244//111
f 62//112 11//112 15//112
f 62//112 15//112 254//112
f 102//2 113//2 104//2
f 116//2 153//2 151//2
f 116//2 115//2 153//2
f 153//2 131//2 151//2
f 150//2 131//2 206//2
f 242//113 240//113 238//113
f 242//113 238//113 243//113
f 16//114 18//114 199//114
f 16//114 199//114 248//114
f 244//115 237//115 236//115
f 244//115 236//115 245//115
f 144//2 117//2 116//2
f 94//2 93//2 114//2
f 246//116 235//116 234//116
f 246//116 234//116 247//116
f 253//117 9//117 12//117
f 253//117 12//117 63//117
f 241//64 193//64 239//64
f 192//64 239//64 193//64
f 252//118 10//118 9//118
f 252//118 9//118 253//118
f 94//70 247//70 91//70
f 234//70 91//70 247//70
f 236//119 235//119 246//119
f 236//119 246//119 245//119
f 239//120 240//120 242//120
f 239//120 242//120 241//120
f 252//121 251//121 13//121
f 252//121 13//121 10//121
f 249//122 19//122 17//122
f 249//122 17//122 31//122
f 251//123 250//123 14//123
f 251//123 14//123 13//123
f 249//124 35//124 20//124
f 249//124 20//124 19//124
f 250//125 1//125 4//125
f 250//125 4//125 14//125
