# Blender v2.82 (sub 7) OBJ File: ''
# www.blender.org
mtllib 5bank-3.mtl
o Bank_3
v -3.750000 4.000000 6.579000
v -2.462000 4.000000 5.843000
v -3.586000 4.000000 6.900000
v -1.925000 4.000000 7.213000
v -3.531000 4.000000 7.364000
v -2.462000 4.750000 5.843000
v -2.059000 4.000000 6.457000
v -3.080000 4.750000 5.434000
v -2.201000 4.000000 8.330000
v -2.201000 4.750000 8.330000
v -2.535000 4.750000 8.803000
v -2.535000 4.000000 8.803000
v -4.334000 4.000000 6.329000
v -3.860000 4.000000 5.298000
v -4.006000 4.000000 6.392000
v -3.080000 4.000000 5.434000
v -4.812000 4.000000 8.205000
v -6.406000 4.000000 8.477000
v -5.086000 4.000000 7.589000
v -6.492000 4.000000 6.554000
v -4.902000 4.000000 5.560000
v -5.133000 4.000000 6.759000
v -4.780000 4.000000 6.448000
v -4.375000 4.000000 5.364000
v -6.699000 4.000000 7.774000
v -5.945000 4.000000 8.983000
v -4.283000 4.000000 9.430000
v -5.256000 4.000000 9.318000
v -4.298000 4.000000 8.416000
v -3.995000 4.000000 8.350000
v -3.748000 4.000000 8.152000
v -2.985000 4.000000 9.148000
v -3.563000 4.000000 9.360000
v -3.585000 4.000000 7.823000
v -1.994000 4.000000 7.783000
v -1.994000 4.750000 7.783000
v -3.585000 4.750000 7.823000
v -3.748000 4.750000 8.152000
v -2.199000 4.750000 3.330000
v -2.199000 4.750000 4.660000
v -2.199000 4.000000 4.660000
v -2.199000 4.000000 3.330000
v -3.586000 4.750000 6.900000
v -3.750000 4.750000 6.579000
v -1.925000 4.750000 7.213000
v -3.531000 4.750000 7.364000
v -3.860000 4.750000 5.298000
v -4.006000 4.750000 6.392000
v -2.059000 4.750000 6.457000
v -5.086000 4.750000 7.589000
v -6.699000 4.750000 7.774000
v -6.406000 4.750000 8.477000
v -4.334000 4.750000 6.329000
v -4.764000 4.750000 4.660000
v -5.986000 4.750000 3.330000
v -4.902000 4.750000 5.560000
v -4.375000 4.750000 5.364000
v -6.492000 4.750000 6.554000
v -5.133000 4.750000 6.759000
v -4.780000 4.750000 6.448000
v -4.812000 4.750000 8.205000
v -5.945000 4.750000 8.983000
v -5.256000 4.750000 9.318000
v -4.283000 4.750000 9.430000
v -4.298000 4.750000 8.416000
v -1.002000 15.344980 0.700000
v -2.798000 15.058000 0.700000
v -1.002000 14.802000 0.700000
v -2.985000 4.750000 9.148000
v -3.563000 4.750000 9.360000
v -3.995000 4.750000 8.350000
v -4.764000 4.000000 4.660000
v -1.002000 14.802000 0.123000
v 5.599000 15.158000 -8.597000
v 3.903000 15.402560 -8.597000
v 2.557000 18.200001 -8.597000
v 3.903000 14.802000 -8.597000
v 2.108680 17.202000 -8.597000
v -1.002000 15.344980 0.123000
v 0.849510 17.202000 0.123000
v 3.903000 14.802000 0.123000
v 3.903000 15.402560 -8.073000
v -2.798000 15.058000 -8.597000
v -2.798000 14.003000 0.700000
v -2.798000 14.003000 -8.597000
v 0.344000 18.200001 -8.597000
v 0.849510 17.202000 -8.597000
v -1.002000 15.344980 -8.597000
v -1.002000 14.802000 -8.597000
v -1.918710 14.200000 -8.597000
v -1.981290 14.200000 -8.597000
v 5.599000 14.003000 0.700000
v 4.768710 14.003000 -8.597000
v -1.918710 14.003000 -8.597000
v -5.986000 4.000000 3.330000
v -1.002000 15.344980 -8.073000
v 0.344000 18.200001 0.700000
v -1.950000 14.200000 -8.600000
v 3.903000 14.802000 -8.073000
v -1.002000 14.802000 -8.073000
v 0.849510 17.202000 -8.073000
v 2.108680 17.202000 -8.073000
v 2.557000 18.200001 0.700000
v 3.903000 15.402560 0.700000
v 3.903000 15.402560 0.123000
v -1.981290 14.003000 -8.597000
v -1.950000 14.003000 -8.600000
v 5.599000 14.003000 -8.597000
v 5.599000 15.158000 0.700000
v 4.831290 14.003000 -8.597000
v 4.831290 14.200000 -8.597000
v 4.768710 14.200000 -8.597000
v 2.108680 17.202000 0.123000
v 4.800000 14.200000 -8.600000
v 3.903000 14.802000 0.700000
v 0.849510 17.202000 0.700000
v 4.800000 14.003000 -8.600000
v 2.108680 17.202000 0.700000
vn 0.0000 -1.0000 0.0000
vn 0.8360 0.0000 -0.5487
vn 0.5519 0.0000 -0.8339
vn 0.8169 0.0000 0.5768
vn 0.0000 1.0000 0.0000
vn 1.0000 0.0000 0.0000
vn 0.9353 0.0000 0.3539
vn 0.9928 0.0000 0.1202
vn 0.9847 0.0000 -0.1745
vn 0.0000 0.0000 1.0000
vn -0.6255 0.0000 -0.7803
vn -0.8961 0.0000 -0.4439
vn -0.9932 0.0000 -0.1168
vn -0.9930 0.0000 0.1177
vn -0.8905 0.0000 0.4550
vn -0.5899 0.0000 0.8075
vn -0.1886 0.0000 0.9820
vn 0.1718 0.0000 -0.9851
vn -0.1139 0.0000 -0.9935
vn 0.9137 0.0000 -0.4064
vn -0.9230 0.0000 0.3847
vn -0.1492 0.0000 0.9888
vn 0.2578 0.0000 0.9662
vn 0.6611 0.0000 0.7503
vn 0.9884 0.0000 0.1516
vn -0.1271 0.0000 -0.9919
vn -0.3486 0.0000 -0.9373
vn 0.3798 0.0000 -0.9251
vn -0.7392 0.0000 0.6735
vn -0.2128 0.0000 -0.9771
vn -0.4373 0.0000 0.8993
vn -0.1144 0.0000 0.9934
vn 0.0000 0.0000 -1.0000
vn 0.0968 0.0000 0.9953
vn 0.3443 0.0000 0.9388
vn 0.6084 0.0000 0.7936
vn 0.7082 -0.7061 0.0000
vn -1.0000 0.0000 0.0000
vn -0.7081 -0.7061 0.0000
vn -0.7071 0.7071 0.0000
vn -0.9879 0.0000 -0.1550
vn 0.0000 1.0000 0.0003
vn -0.0954 0.0000 -0.9954
vn 0.0954 0.0000 -0.9954
vn 0.7071 0.7071 0.0000
usemtl None
s off
f 1//1 2//1 3//1
f 3//1 4//1 5//1
f 2//2 6//2 7//2
f 8//3 6//3 2//3
f 9//4 10//4 11//4
f 9//4 11//4 12//4
f 13//1 14//1 15//1
f 16//1 15//1 14//1
f 1//1 15//1 16//1
f 1//1 16//1 2//1
f 17//1 18//1 19//1
f 20//1 21//1 22//1
f 23//1 22//1 21//1
f 13//1 23//1 21//1
f 13//1 21//1 24//1
f 13//1 24//1 14//1
f 25//1 19//1 18//1
f 26//1 18//1 17//1
f 27//1 28//1 29//1
f 26//1 17//1 28//1
f 17//1 29//1 28//1
f 30//1 31//1 32//1
f 33//1 30//1 32//1
f 27//1 29//1 33//1
f 30//1 33//1 29//1
f 12//1 32//1 31//1
f 31//1 34//1 12//1
f 5//1 35//1 34//1
f 10//5 36//5 37//5
f 37//5 38//5 11//5
f 39//6 40//6 41//6
f 39//6 41//6 42//6
f 43//5 6//5 44//5
f 35//1 5//1 4//1
f 45//5 46//5 36//5
f 8//5 47//5 48//5
f 48//5 44//5 8//5
f 6//5 43//5 49//5
f 50//5 51//5 52//5
f 36//7 10//7 35//7
f 47//5 53//5 48//5
f 35//8 4//8 45//8
f 35//8 45//8 36//8
f 40//5 39//5 54//5
f 7//9 49//9 45//9
f 7//9 45//9 4//9
f 7//2 6//2 49//2
f 54//5 55//5 56//5
f 57//5 56//5 53//5
f 47//5 57//5 53//5
f 58//5 59//5 56//5
f 60//5 53//5 56//5
f 60//5 56//5 59//5
f 61//5 50//5 52//5
f 52//5 62//5 61//5
f 63//5 64//5 65//5
f 65//5 61//5 63//5
f 62//5 63//5 61//5
f 66//10 67//10 68//10
f 69//5 11//5 38//5
f 70//5 69//5 71//5
f 64//5 70//5 65//5
f 71//5 65//5 70//5
f 38//5 71//5 69//5
f 31//11 71//11 38//11
f 34//12 31//12 38//12
f 34//12 38//12 37//12
f 5//13 34//13 37//13
f 5//13 37//13 46//13
f 3//14 5//14 46//14
f 3//14 46//14 43//14
f 1//15 3//15 43//15
f 1//15 43//15 44//15
f 15//16 1//16 44//16
f 15//16 44//16 48//16
f 13//17 15//17 48//17
f 72//10 41//10 40//10
f 73//6 66//6 68//6
f 40//10 54//10 72//10
f 8//3 2//3 16//3
f 16//18 14//18 47//18
f 16//18 47//18 8//18
f 19//19 25//19 51//19
f 19//20 50//20 61//20
f 19//20 61//20 17//20
f 19//19 51//19 50//19
f 52//21 51//21 25//21
f 58//22 20//22 59//22
f 22//22 59//22 20//22
f 48//17 53//17 13//17
f 13//23 53//23 60//23
f 13//23 60//23 23//23
f 23//24 60//24 59//24
f 23//24 59//24 22//24
f 72//25 54//25 21//25
f 57//26 47//26 24//26
f 14//26 24//26 47//26
f 54//25 56//25 21//25
f 24//27 21//27 56//27
f 24//27 56//27 57//27
f 29//28 17//28 61//28
f 29//28 61//28 65//28
f 25//21 18//21 52//21
f 18//29 26//29 52//29
f 30//30 29//30 65//30
f 30//30 65//30 71//30
f 26//29 62//29 52//29
f 28//31 63//31 62//31
f 28//31 62//31 26//31
f 63//32 28//32 27//32
f 74//33 75//33 76//33
f 31//11 30//11 71//11
f 27//32 64//32 63//32
f 64//34 27//34 33//34
f 64//34 33//34 70//34
f 77//33 75//33 74//33
f 78//33 76//33 75//33
f 33//35 32//35 69//35
f 33//35 69//35 70//35
f 11//36 69//36 12//36
f 32//36 12//36 69//36
f 79//37 80//37 66//37
f 73//10 81//10 79//10
f 82//38 75//38 77//38
f 79//6 66//6 73//6
f 67//38 83//38 84//38
f 85//38 84//38 83//38
f 86//33 76//33 87//33
f 78//33 87//33 76//33
f 88//33 89//33 90//33
f 90//33 91//33 88//33
f 91//33 83//33 88//33
f 92//10 68//10 84//10
f 67//10 84//10 68//10
f 77//33 93//33 89//33
f 88//33 86//33 87//33
f 89//33 94//33 90//33
f 82//39 78//39 75//39
f 42//1 72//1 95//1
f 72//1 21//1 95//1
f 20//1 95//1 21//1
f 96//37 88//37 87//37
f 88//6 96//6 89//6
f 95//33 55//33 39//33
f 95//33 39//33 42//33
f 39//5 55//5 54//5
f 58//5 56//5 55//5
f 97//40 83//40 67//40
f 20//41 58//41 95//41
f 90//42 98//42 91//42
f 55//41 95//41 58//41
f 86//33 88//33 83//33
f 9//1 34//1 35//1
f 7//1 4//1 3//1
f 99//5 77//5 100//5
f 72//1 42//1 41//1
f 7//1 3//1 2//1
f 12//1 34//1 9//1
f 83//33 91//33 85//33
f 46//5 37//5 36//5
f 83//40 97//40 86//40
f 43//5 46//5 45//5
f 101//33 102//33 96//33
f 100//33 96//33 99//33
f 82//33 96//33 102//33
f 100//5 77//5 89//5
f 87//1 78//1 101//1
f 102//1 101//1 78//1
f 87//37 101//37 96//37
f 96//6 100//6 89//6
f 8//5 44//5 6//5
f 45//5 49//5 43//5
f 97//5 103//5 86//5
f 10//5 37//5 11//5
f 35//7 10//7 9//7
f 104//38 105//38 81//38
f 106//33 85//33 91//33
f 102//39 78//39 82//39
f 82//38 77//38 99//38
f 98//43 107//43 106//43
f 98//43 106//43 91//43
f 90//44 94//44 107//44
f 90//44 107//44 98//44
f 99//33 96//33 82//33
f 92//6 108//6 109//6
f 74//6 109//6 108//6
f 108//1 92//1 110//1
f 84//1 85//1 106//1
f 108//33 111//33 74//33
f 94//1 84//1 107//1
f 103//45 74//45 76//45
f 76//5 86//5 103//5
f 74//33 111//33 112//33
f 74//33 112//33 77//33
f 105//10 113//10 79//10
f 80//10 79//10 113//10
f 84//1 94//1 92//1
f 111//42 114//42 112//42
f 112//33 93//33 77//33
f 115//10 68//10 92//10
f 67//10 66//10 97//10
f 81//5 73//5 115//5
f 80//37 116//37 66//37
f 94//33 89//33 93//33
f 93//1 92//1 94//1
f 68//5 115//5 73//5
f 114//43 117//43 93//43
f 114//43 93//43 112//43
f 111//33 108//33 110//33
f 81//10 105//10 79//10
f 106//1 107//1 84//1
f 111//44 110//44 117//44
f 111//44 117//44 114//44
f 109//10 103//10 104//10
f 66//10 116//10 97//10
f 103//10 97//10 116//10
f 103//10 116//10 118//10
f 92//10 109//10 115//10
f 104//10 115//10 109//10
f 118//10 104//10 103//10
f 117//1 92//1 93//1
f 110//1 92//1 117//1
f 105//39 104//39 113//39
f 118//39 113//39 104//39
f 118//1 116//1 113//1
f 80//1 113//1 116//1
f 104//38 81//38 115//38
f 109//45 74//45 103//45
