# Blender v2.82 (sub 7) OBJ File: ''
# www.blender.org
mtllib 6commercialcenter-3.mtl
o Commercial_Center_3
v -3.649000 4.000000 7.878000
v -3.816000 4.000000 8.191000
v -3.816000 4.750000 8.191000
v -3.649000 4.750000 7.878000
v -2.279000 4.000000 8.488000
v -2.279000 4.750000 8.488000
v -2.617000 4.750000 8.923000
v -2.617000 4.000000 8.923000
v -2.123000 4.000000 4.704000
v -3.800000 4.000000 4.910000
v -2.545000 4.000000 3.896000
v -4.021000 4.000000 4.415000
v -3.593000 4.000000 7.441000
v -3.593000 4.750000 7.441000
v -2.066000 4.750000 7.968000
v -1.995000 4.750000 7.396000
v -3.651000 4.000000 6.991000
v -3.651000 4.750000 6.991000
v -2.135000 4.750000 6.587000
v -2.556000 4.750000 5.932000
v -3.243000 4.000000 3.407000
v -3.825000 4.000000 6.662000
v -3.825000 4.750000 6.662000
v -3.179000 4.750000 5.499000
v -4.084000 4.750000 6.461000
v -4.084000 4.000000 6.461000
v -4.371000 4.000000 8.443000
v -4.703000 4.000000 8.373000
v -4.703000 4.750000 8.373000
v -4.371000 4.750000 8.443000
v -4.400000 4.000000 6.394000
v -4.404000 4.750000 4.271000
v -4.387000 4.750000 3.240000
v -4.768000 4.750000 4.374000
v -6.304000 4.750000 4.001000
v -5.041000 4.750000 4.683000
v -5.479000 4.750000 3.430000
v -4.067000 4.000000 8.380000
v -4.067000 4.750000 8.380000
v -4.387000 4.000000 3.240000
v -5.479000 4.000000 3.430000
v -6.304000 4.000000 4.001000
v -6.822000 4.750000 4.980000
v -5.286000 4.750000 5.953000
v -1.875000 20.249001 -3.501280
v -1.875000 17.500000 -5.450000
v -1.875000 20.249001 -2.898720
v -1.875000 17.500000 -0.950000
v -6.822000 4.000000 4.980000
v -4.723000 4.750000 6.459000
v -4.665000 4.750000 5.501000
v -4.400000 4.750000 6.394000
v -6.995000 4.000000 6.398000
v -5.166000 4.750000 7.833000
v -5.228000 4.750000 7.396000
v -6.666000 4.750000 8.193000
v 4.625000 20.249001 -3.501280
v 4.625000 20.249001 -2.898720
v 4.625000 17.500000 -5.450000
v 4.625000 17.500000 -0.950000
v -4.404000 4.000000 4.271000
v -3.928000 4.750000 5.355000
v -4.768000 4.000000 4.374000
v -4.990000 4.750000 6.654000
v -5.041000 4.000000 4.683000
v 3.385000 18.799999 -1.871550
v 3.265000 18.995001 -2.009780
v 2.977000 19.219999 -1.200000
v 2.825000 19.235001 -1.200000
v 3.129000 19.129999 -1.200000
v 3.265000 18.995001 -1.200000
v 2.665000 19.219999 -1.200000
v 2.513000 19.129999 -1.200000
v 2.377000 18.995001 -1.200000
v 3.385000 18.799999 -1.200000
v 2.257000 18.799999 -1.200000
v 2.153000 18.575001 -1.200000
v 3.489000 18.575001 -1.200000
v 3.561000 18.319000 -1.200000
v 2.081000 18.319000 -1.200000
v 3.609000 18.034000 -1.200000
v 2.033000 18.034000 -1.200000
v 2.027910 17.852671 -1.200000
v 3.619180 17.852671 -1.200000
v 0.229000 19.129999 -2.105480
v 0.229000 19.129999 -1.200000
v 0.365000 18.995001 -2.009780
v 0.365000 18.995001 -1.200000
v -6.913000 4.750000 7.405000
v -5.168000 4.750000 6.969000
v -6.995000 4.750000 6.398000
v 0.485000 18.799999 -1.200000
v 0.485000 18.799999 -1.871550
v -0.867000 18.034000 -5.071460
v -0.819000 18.319000 -4.869420
v -0.819000 18.319000 -5.200000
v -0.867000 18.034000 -5.200000
v -4.979000 4.750000 8.165000
v -5.786000 4.750000 9.181000
v -6.281000 4.750000 8.779000
v 0.589000 18.575001 -1.200000
v 0.589000 18.575001 -1.712050
v -0.747000 18.575001 -5.200000
v -0.747000 18.575001 -4.687950
v 0.077000 19.219999 -1.200000
v -0.075000 19.235001 -1.200000
v -0.235000 19.219999 -1.200000
v -0.387000 19.129999 -1.200000
v -0.523000 18.995001 -1.200000
v -0.643000 18.799999 -1.200000
v -0.747000 18.575001 -1.200000
v 0.661000 18.319000 -1.200000
v -0.819000 18.319000 -1.200000
v 0.709000 18.034000 -1.200000
v -0.867000 18.034000 -1.200000
v -0.872090 17.852671 -1.200000
v 0.719180 17.852671 -1.200000
v 0.661000 18.319000 -1.530580
v -5.146000 4.750000 9.413000
v 2.033000 18.034000 -1.328540
v -3.928000 4.000000 5.355000
v -4.665000 4.000000 5.501000
v 0.709000 18.034000 -1.328540
v 2.081000 18.319000 -1.530580
v -0.867000 18.034000 -1.328540
v -0.819000 18.319000 -1.530580
v 3.609000 18.034000 -1.328540
v -5.286000 4.000000 5.953000
v 2.257000 18.799999 -1.871550
v -0.747000 18.575001 -1.712050
v -0.643000 18.799999 -5.200000
v -0.643000 18.799999 -4.528450
v -0.643000 18.799999 -1.871550
v -4.325000 4.750000 9.490000
v -3.631000 4.750000 9.427000
v -3.065000 4.750000 9.237000
v 2.153000 18.575001 -1.712050
v -2.545000 4.750000 3.896000
v -2.123000 4.750000 4.704000
v -3.243000 4.750000 3.407000
v -0.387000 19.129999 -2.105480
v -0.235000 19.219999 -2.169280
v -6.913000 4.000000 7.405000
v 2.377000 18.995001 -2.009780
v -0.523000 18.995001 -5.200000
v -0.523000 18.995001 -4.390220
v 2.513000 19.129999 -2.105480
v -0.075000 19.235001 -2.179910
v -0.276190 20.249001 -2.898720
v 2.665000 19.219999 -2.169280
v -2.556000 4.000000 5.932000
v 0.077000 19.219999 -2.169280
v -3.800000 4.750000 4.910000
v -4.021000 4.750000 4.415000
v -5.166000 4.000000 7.833000
v -5.228000 4.000000 7.396000
v 2.825000 19.235001 -2.179910
v -4.979000 4.000000 8.165000
v 2.977000 19.219999 -2.169280
v 3.129000 19.129999 -2.105480
v -3.179000 4.000000 5.499000
v -0.523000 18.995001 -2.009780
v -4.723000 4.000000 6.459000
v -1.995000 4.000000 7.396000
v -2.066000 4.000000 7.968000
v 3.489000 18.575001 -1.712050
v -4.990000 4.000000 6.654000
v 3.561000 18.319000 -1.530580
v -5.168000 4.000000 6.969000
v -2.135000 4.000000 6.587000
v -6.666000 4.000000 8.193000
v -6.281000 4.000000 8.779000
v -5.786000 4.000000 9.181000
v 3.609000 18.034000 -5.071460
v 3.619180 17.852671 -5.200000
v 2.027910 17.852671 -5.200000
v 0.719180 17.852671 -5.200000
v 2.033000 18.034000 -5.071460
v -5.146000 4.000000 9.413000
v -4.325000 4.000000 9.490000
v 3.265000 18.995001 -4.390220
v 3.385000 18.799999 -4.528450
v -3.631000 4.000000 9.427000
v 2.081000 18.319000 -4.869420
v 0.589000 18.575001 -4.687950
v 2.153000 18.575001 -4.687950
v -3.065000 4.000000 9.237000
v -0.387000 19.129999 -5.200000
v -0.387000 19.129999 -4.294520
v 2.257000 18.799999 -4.528450
v 0.365000 18.995001 -4.390220
v 2.377000 18.995001 -4.390220
v 2.377000 18.995001 -5.200000
v 2.513000 19.129999 -5.200000
v 2.825000 19.235001 -5.200000
v 2.665000 19.219999 -5.200000
v 2.977000 19.219999 -5.200000
v 3.129000 19.129999 -5.200000
v 3.265000 18.995001 -5.200000
v 3.385000 18.799999 -5.200000
v 2.257000 18.799999 -5.200000
v 2.153000 18.575001 -5.200000
v 3.489000 18.575001 -5.200000
v 2.081000 18.319000 -5.200000
v 3.561000 18.319000 -5.200000
v 2.033000 18.034000 -5.200000
v 3.609000 18.034000 -5.200000
v -0.235000 19.219999 -5.200000
v -0.235000 19.219999 -4.230720
v 2.513000 19.129999 -4.294520
v 2.926760 20.249001 -3.501280
v 2.665000 19.219999 -4.230720
v -0.075000 19.235001 -5.200000
v -0.075000 19.235001 -4.220090
v 0.077000 19.219999 -4.230720
v 0.077000 19.219999 -5.200000
v 2.825000 19.235001 -4.220090
v 0.229000 19.129999 -4.294520
v 0.229000 19.129999 -5.200000
v 2.977000 19.219999 -4.230720
v 0.365000 18.995001 -5.200000
v 0.485000 18.799999 -5.200000
v 0.485000 18.799999 -4.528450
v 0.589000 18.575001 -5.200000
v 3.489000 18.575001 -4.687950
v 0.661000 18.319000 -5.200000
v 0.661000 18.319000 -4.869420
v 3.561000 18.319000 -4.869420
v 0.709000 18.034000 -5.200000
v 0.709000 18.034000 -5.071460
v -0.872090 17.852671 -5.200000
v 3.129000 19.129999 -4.294520
vn -0.8823 0.0000 -0.4707
vn 0.7896 0.0000 0.6136
vn 0.0000 -1.0000 0.0000
vn -0.9919 0.0000 -0.1271
vn 0.0000 1.0000 0.0000
vn -0.9918 0.0000 0.1278
vn -0.8840 0.0000 0.4675
vn -0.6131 0.0000 0.7900
vn 0.2063 0.0000 -0.9785
vn -0.2074 0.0000 0.9783
vn -0.2029 0.0000 -0.9792
vn 0.1444 0.0000 -0.9895
vn -0.1714 0.0000 -0.9852
vn -0.5691 0.0000 -0.8223
vn -0.6015 0.0000 -0.7989
vn -1.0000 0.0000 0.0000
vn -0.8839 0.0000 -0.4677
vn -0.9926 0.0000 -0.1211
vn 1.0000 0.0000 0.0000
vn -0.3519 0.0000 0.9360
vn 0.2723 0.0000 0.9622
vn 0.7494 0.0000 0.6621
vn 0.0000 0.5783 0.8158
vn 0.0000 0.0000 1.0000
vn 0.7045 0.7097 0.0000
vn 0.8517 0.5241 0.0000
vn -0.9861 0.1661 0.0000
vn 0.9077 0.4196 0.0000
vn -0.9627 0.2707 0.0000
vn 0.9819 0.0000 0.1894
vn 0.9627 0.2707 0.0000
vn -0.9996 0.0281 0.0000
vn -0.1943 0.0000 -0.9809
vn 0.9861 0.1661 0.0000
vn 0.9984 0.0561 0.0000
vn -0.9077 0.4196 0.0000
vn -0.5885 0.0000 -0.8085
vn 0.8864 0.0000 -0.4629
vn 0.5738 0.0000 -0.8190
vn -0.9967 0.0000 0.0812
vn -0.8517 0.5241 0.0000
vn -0.7045 0.7097 0.0000
vn -0.9542 0.0000 0.2991
vn -0.5095 0.8605 0.0000
vn 0.8412 0.0000 -0.5407
vn -0.9131 0.0000 0.4077
vn 0.9901 0.0000 -0.1405
vn -0.0933 0.9956 0.0000
vn 0.1219 0.0000 0.9925
vn 0.8713 0.0000 -0.4908
vn 0.0982 0.9952 0.0000
vn 0.5095 0.8605 0.0000
vn 0.6019 0.0000 -0.7986
vn 0.5707 0.0000 -0.8211
vn 0.1888 0.0000 -0.9820
vn 0.1973 0.0000 0.9803
vn 0.9254 0.0000 0.3790
vn 0.5898 0.0000 0.8076
vn 0.8706 0.0000 0.4920
vn 0.9924 0.0000 0.1232
vn 0.9903 0.0000 0.1391
vn 0.9854 0.0000 -0.1705
vn -0.8358 0.0000 0.5491
vn -0.6304 0.0000 0.7763
vn 0.0000 0.5783 -0.8158
vn -0.3408 0.0000 0.9401
vn -0.0934 0.0000 0.9956
vn 0.0904 0.0000 0.9959
vn 0.3182 0.0000 0.9480
vn 0.5740 0.0000 0.8189
vn 0.0000 0.0000 -1.0000
usemtl None
s off
f 1//1 2//1 3//1
f 1//1 3//1 4//1
f 5//2 6//2 7//2
f 5//2 7//2 8//2
f 9//3 10//3 11//3
f 12//3 11//3 10//3
f 13//4 1//4 4//4
f 13//4 4//4 14//4
f 15//5 16//5 14//5
f 17//6 13//6 14//6
f 17//6 14//6 18//6
f 19//5 20//5 18//5
f 16//5 19//5 18//5
f 18//5 14//5 16//5
f 11//3 12//3 21//3
f 22//7 17//7 18//7
f 22//7 18//7 23//7
f 23//5 18//5 20//5
f 20//5 24//5 23//5
f 22//8 23//8 25//8
f 22//8 25//8 26//8
f 27//9 28//9 29//9
f 27//9 29//9 30//9
f 26//10 25//10 31//10
f 32//5 33//5 34//5
f 35//5 36//5 37//5
f 38//11 27//11 30//11
f 38//11 30//11 39//11
f 21//12 40//12 33//12
f 34//5 37//5 36//5
f 40//13 41//13 37//13
f 40//13 37//13 33//13
f 41//14 42//14 35//14
f 41//14 35//14 37//14
f 2//15 38//15 39//15
f 35//5 43//5 36//5
f 44//5 36//5 43//5
f 45//16 46//16 47//16
f 48//16 47//16 46//16
f 42//17 49//17 43//17
f 42//17 43//17 35//17
f 44//5 50//5 51//5
f 50//5 52//5 51//5
f 53//18 43//18 49//18
f 54//5 55//5 56//5
f 57//19 58//19 59//19
f 60//19 59//19 58//19
f 32//20 61//20 12//20
f 62//5 51//5 52//5
f 52//5 25//5 62//5
f 61//21 32//21 34//21
f 61//21 34//21 63//21
f 50//5 44//5 64//5
f 63//22 34//22 36//22
f 63//22 36//22 65//22
f 66//23 58//23 67//23
f 68//24 69//24 70//24
f 71//24 70//24 69//24
f 69//24 72//24 71//24
f 72//24 73//24 71//24
f 73//24 74//24 71//24
f 75//24 71//24 74//24
f 74//24 76//24 75//24
f 76//24 77//24 75//24
f 78//24 75//24 77//24
f 79//24 78//24 77//24
f 77//24 80//24 79//24
f 81//24 79//24 80//24
f 80//24 82//24 81//24
f 82//24 83//24 81//24
f 84//24 81//24 83//24
f 85//25 86//25 87//25
f 88//25 87//25 86//25
f 89//5 56//5 55//5
f 89//5 55//5 90//5
f 44//5 91//5 64//5
f 90//5 64//5 91//5
f 43//5 91//5 44//5
f 89//5 90//5 91//5
f 88//26 92//26 93//26
f 88//26 93//26 87//26
f 94//27 95//27 96//27
f 94//27 96//27 97//27
f 29//5 98//5 99//5
f 98//5 54//5 100//5
f 92//28 101//28 102//28
f 92//28 102//28 93//28
f 96//29 95//29 103//29
f 104//29 103//29 95//29
f 100//5 99//5 98//5
f 100//5 54//5 56//5
f 105//24 106//24 86//24
f 88//24 86//24 106//24
f 106//24 107//24 88//24
f 107//24 108//24 88//24
f 108//24 109//24 88//24
f 92//24 88//24 109//24
f 109//24 110//24 92//24
f 101//24 92//24 110//24
f 110//24 111//24 101//24
f 112//24 101//24 111//24
f 111//24 113//24 112//24
f 114//24 112//24 113//24
f 113//24 115//24 114//24
f 115//24 116//24 114//24
f 117//24 114//24 116//24
f 65//30 36//30 44//30
f 101//31 112//31 118//31
f 101//31 118//31 102//31
f 30//5 29//5 119//5
f 119//5 29//5 99//5
f 82//32 120//32 83//32
f 121//33 122//33 51//33
f 112//34 114//34 123//34
f 112//34 123//34 118//34
f 120//23 124//23 118//23
f 117//23 120//23 123//23
f 125//23 126//23 48//23
f 127//35 81//35 84//35
f 44//30 128//30 65//30
f 87//23 93//23 129//23
f 126//23 130//23 47//23
f 47//23 48//23 126//23
f 80//27 124//27 120//27
f 80//27 120//27 82//27
f 103//36 104//36 131//36
f 132//36 131//36 104//36
f 133//23 47//23 130//23
f 15//5 4//5 6//5
f 6//5 4//5 7//5
f 119//5 134//5 30//5
f 39//5 30//5 134//5
f 134//5 135//5 39//5
f 135//5 136//5 39//5
f 7//5 3//5 136//5
f 77//29 137//29 124//29
f 77//29 124//29 80//29
f 122//37 128//37 44//37
f 122//37 44//37 51//37
f 11//38 138//38 139//38
f 53//18 91//18 43//18
f 76//36 129//36 137//36
f 76//36 137//36 77//36
f 11//39 21//39 140//39
f 11//39 140//39 138//39
f 141//23 142//23 47//23
f 91//40 53//40 143//40
f 91//40 143//40 89//40
f 21//12 33//12 140//12
f 74//41 144//41 129//41
f 74//41 129//41 76//41
f 139//38 9//38 11//38
f 131//41 132//41 145//41
f 146//41 145//41 132//41
f 73//42 147//42 144//42
f 73//42 144//42 74//42
f 148//23 149//23 142//23
f 143//43 56//43 89//43
f 72//44 150//44 147//44
f 72//44 147//44 73//44
f 19//45 151//45 20//45
f 85//23 149//23 152//23
f 12//46 10//46 153//46
f 12//46 153//46 154//46
f 55//47 54//47 155//47
f 55//47 155//47 156//47
f 69//48 157//48 150//48
f 69//48 150//48 72//48
f 139//49 153//49 10//49
f 139//49 10//49 9//49
f 137//23 129//23 102//23
f 93//23 102//23 129//23
f 155//50 54//50 98//50
f 155//50 98//50 158//50
f 157//51 69//51 159//51
f 68//51 159//51 69//51
f 32//20 12//20 154//20
f 124//23 137//23 102//23
f 159//52 68//52 160//52
f 70//52 160//52 68//52
f 98//53 29//53 158//53
f 28//53 158//53 29//53
f 151//54 161//54 24//54
f 151//54 24//54 20//54
f 162//23 141//23 47//23
f 133//23 162//23 47//23
f 161//55 121//55 62//55
f 161//55 62//55 24//55
f 160//25 70//25 67//25
f 71//25 67//25 70//25
f 25//10 52//10 31//10
f 121//33 51//33 62//33
f 71//26 75//26 66//26
f 71//26 66//26 67//26
f 47//23 142//23 149//23
f 31//56 52//56 50//56
f 31//56 50//56 163//56
f 17//3 164//3 13//3
f 13//3 165//3 1//3
f 15//57 6//57 5//57
f 75//28 78//28 166//28
f 75//28 166//28 66//28
f 163//58 50//58 64//58
f 163//58 64//58 167//58
f 15//57 5//57 165//57
f 22//3 151//3 17//3
f 78//31 79//31 168//31
f 78//31 168//31 166//31
f 167//59 64//59 90//59
f 167//59 90//59 169//59
f 165//60 164//60 16//60
f 165//60 16//60 15//60
f 118//23 123//23 120//23
f 152//23 149//23 148//23
f 169//61 90//61 55//61
f 169//61 55//61 156//61
f 116//23 125//23 48//23
f 79//34 81//34 127//34
f 79//34 127//34 168//34
f 16//62 164//62 19//62
f 170//62 19//62 164//62
f 115//32 125//32 116//32
f 143//43 171//43 56//43
f 117//23 48//23 83//23
f 48//23 60//23 83//23
f 116//23 48//23 117//23
f 84//23 83//23 60//23
f 58//23 168//23 60//23
f 19//45 170//45 151//45
f 123//35 114//35 117//35
f 102//23 118//23 124//23
f 120//23 117//23 83//23
f 171//63 172//63 100//63
f 171//63 100//63 56//63
f 113//27 126//27 125//27
f 113//27 125//27 115//27
f 2//15 39//15 3//15
f 111//29 130//29 126//29
f 111//29 126//29 113//29
f 173//64 99//64 172//64
f 100//64 172//64 99//64
f 174//65 59//65 175//65
f 59//65 176//65 175//65
f 26//3 161//3 22//3
f 164//3 165//3 13//3
f 5//3 1//3 165//3
f 166//23 58//23 66//23
f 168//23 58//23 166//23
f 127//23 60//23 168//23
f 84//23 60//23 127//23
f 110//36 133//36 130//36
f 110//36 130//36 111//36
f 173//66 119//66 99//66
f 176//65 177//65 178//65
f 85//23 87//23 144//23
f 129//23 144//23 87//23
f 122//3 121//3 31//3
f 164//3 17//3 170//3
f 151//3 170//3 17//3
f 109//41 162//41 133//41
f 109//41 133//41 110//41
f 119//66 173//66 179//66
f 144//23 147//23 149//23
f 149//23 85//23 144//23
f 179//67 180//67 134//67
f 179//67 134//67 119//67
f 108//42 141//42 162//42
f 108//42 162//42 109//42
f 40//3 63//3 41//3
f 21//3 61//3 40//3
f 63//3 65//3 41//3
f 181//65 57//65 182//65
f 134//68 180//68 183//68
f 134//68 183//68 135//68
f 107//44 142//44 141//44
f 107//44 141//44 108//44
f 147//23 150//23 149//23
f 184//65 185//65 186//65
f 183//69 187//69 136//69
f 183//69 136//69 135//69
f 150//23 157//23 149//23
f 187//70 8//70 7//70
f 187//70 7//70 136//70
f 145//42 146//42 188//42
f 189//42 188//42 146//42
f 58//23 149//23 157//23
f 63//3 40//3 61//3
f 12//3 61//3 21//3
f 190//65 191//65 192//65
f 106//48 148//48 142//48
f 106//48 142//48 107//48
f 157//23 159//23 58//23
f 193//71 194//71 195//71
f 196//71 195//71 194//71
f 195//71 197//71 193//71
f 197//71 198//71 193//71
f 198//71 199//71 193//71
f 199//71 200//71 193//71
f 201//71 193//71 200//71
f 202//71 201//71 200//71
f 200//71 203//71 202//71
f 204//71 202//71 203//71
f 204//71 203//71 205//71
f 176//71 206//71 207//71
f 175//71 176//71 207//71
f 206//71 204//71 207//71
f 205//71 207//71 204//71
f 148//51 106//51 152//51
f 105//51 152//51 106//51
f 188//44 189//44 208//44
f 209//44 208//44 189//44
f 160//23 67//23 58//23
f 159//23 160//23 58//23
f 176//32 178//32 206//32
f 210//65 211//65 212//65
f 152//52 105//52 85//52
f 86//52 85//52 105//52
f 208//48 209//48 213//48
f 214//48 213//48 209//48
f 207//35 174//35 175//35
f 215//51 216//51 213//51
f 215//51 213//51 214//51
f 212//65 211//65 217//65
f 178//27 184//27 204//27
f 178//27 204//27 206//27
f 218//52 219//52 216//52
f 218//52 216//52 215//52
f 204//29 184//29 202//29
f 186//29 202//29 184//29
f 217//65 211//65 220//65
f 191//25 221//25 219//25
f 191//25 219//25 218//25
f 202//36 186//36 201//36
f 190//36 201//36 186//36
f 222//26 221//26 223//26
f 191//26 223//26 221//26
f 201//41 190//41 193//41
f 192//41 193//41 190//41
f 224//28 222//28 185//28
f 223//28 185//28 222//28
f 193//42 192//42 194//42
f 210//42 194//42 192//42
f 182//65 57//65 225//65
f 226//31 224//31 227//31
f 185//31 227//31 224//31
f 194//44 210//44 196//44
f 212//44 196//44 210//44
f 225//65 57//65 228//65
f 229//34 226//34 230//34
f 227//34 230//34 226//34
f 196//48 212//48 195//48
f 217//48 195//48 212//48
f 220//51 197//51 195//51
f 220//51 195//51 217//51
f 231//65 46//65 94//65
f 232//52 198//52 197//52
f 232//52 197//52 220//52
f 181//25 199//25 198//25
f 181//25 198//25 232//25
f 232//65 220//65 57//65
f 181//65 232//65 57//65
f 177//65 230//65 178//65
f 230//65 227//65 178//65
f 200//26 199//26 182//26
f 181//26 182//26 199//26
f 94//65 46//65 95//65
f 186//65 185//65 190//65
f 104//65 45//65 132//65
f 203//28 200//28 225//28
f 182//28 225//28 200//28
f 192//65 191//65 210//65
f 205//31 203//31 228//31
f 225//31 228//31 203//31
f 207//34 205//34 174//34
f 228//34 174//34 205//34
f 57//65 220//65 211//65
f 145//71 188//71 213//71
f 208//71 213//71 188//71
f 213//71 216//71 145//71
f 216//71 219//71 145//71
f 219//71 221//71 145//71
f 131//71 145//71 221//71
f 221//71 222//71 131//71
f 103//71 131//71 222//71
f 222//71 224//71 103//71
f 96//71 103//71 224//71
f 96//71 224//71 226//71
f 231//71 97//71 229//71
f 177//71 231//71 229//71
f 226//71 229//71 97//71
f 96//71 226//71 97//71
f 231//32 94//32 97//32
f 215//65 211//65 218//65
f 229//35 230//35 177//35
f 178//65 227//65 184//65
f 211//65 210//65 191//65
f 191//65 190//65 223//65
f 132//65 45//65 146//65
f 223//65 190//65 185//65
f 185//65 184//65 227//65
f 214//65 209//65 45//65
f 146//65 45//65 189//65
f 215//65 214//65 211//65
f 46//3 59//3 48//3
f 189//65 45//65 209//65
f 48//3 59//3 60//3
f 45//65 211//65 214//65
f 191//65 218//65 211//65
f 45//65 95//65 46//65
f 104//65 95//65 45//65
f 231//65 177//65 46//65
f 177//65 176//65 46//65
f 59//65 46//65 176//65
f 45//5 47//5 149//5
f 57//5 211//5 58//5
f 149//5 58//5 211//5
f 211//5 45//5 149//5
f 65//3 128//3 49//3
f 49//3 42//3 65//3
f 42//3 41//3 65//3
f 59//65 228//65 57//65
f 174//65 228//65 59//65
f 53//3 49//3 128//3
f 121//3 161//3 26//3
f 26//3 31//3 121//3
f 151//3 22//3 161//3
f 128//3 122//3 163//3
f 167//3 128//3 163//3
f 31//3 163//3 122//3
f 169//3 53//3 167//3
f 128//3 167//3 53//3
f 143//3 53//3 169//3
f 143//3 169//3 156//3
f 155//3 171//3 156//3
f 171//3 155//3 172//3
f 158//3 172//3 155//3
f 28//3 173//3 158//3
f 27//3 179//3 28//3
f 143//3 156//3 171//3
f 38//3 180//3 27//3
f 172//3 158//3 173//3
f 38//3 2//3 187//3
f 183//3 38//3 187//3
f 180//3 38//3 183//3
f 179//3 27//3 180//3
f 173//3 28//3 179//3
f 8//3 187//3 2//3
f 2//3 1//3 8//3
f 5//3 8//3 1//3
f 37//5 34//5 33//5
f 138//5 140//5 154//5
f 33//5 32//5 140//5
f 154//5 153//5 138//5
f 139//5 138//5 153//5
f 154//5 140//5 32//5
f 62//5 25//5 24//5
f 25//5 23//5 24//5
f 3//5 7//5 4//5
f 39//5 136//5 3//5
f 14//5 4//5 15//5
