# Blender v2.82 (sub 7) OBJ File: ''
# www.blender.org
mtllib base-3.mtl
o Trading_3
v -14.047999 3.000000 -2.620000
v -14.657000 3.000000 -3.293000
v 28.161530 3.000000 -4.995000
v 8.803000 3.000000 -22.500999
v 25.788630 3.000000 -8.000000
v 8.758000 3.000000 -21.594000
v -14.047999 4.000000 -2.620000
v -5.903350 4.000000 -4.995000
v -14.657000 4.000000 -3.293000
v -13.507000 3.000000 -1.890000
v 31.049999 4.000000 0.000000
v 31.049999 3.000000 0.000000
v 28.161440 3.156110 -4.995000
v 28.161440 4.000000 -4.995000
v -13.507000 4.000000 -1.890000
v 8.404000 3.000000 -19.815001
v 8.098001 3.000000 -18.959999
v 25.788630 4.000000 -8.000000
v 12.891670 3.000000 -30.747000
v 12.891670 4.000000 -30.747000
v 7.710000 3.000000 -18.139000
v 7.243000 3.000000 -17.361000
v 3.912000 3.000000 -30.660000
v 3.727910 3.000000 -30.747000
v -11.992000 3.000000 4.157000
v -13.040000 4.000000 -1.112000
v 4.691000 3.000000 -30.193001
v -0.982000 3.000000 -9.720000
v -0.982000 4.000000 -9.720000
v -0.673000 4.000000 -10.236000
v -0.673000 3.000000 -10.236000
v 5.420000 3.000000 -29.652000
v -15.330000 4.000000 -3.902000
v -15.330000 3.000000 -3.902000
v 6.093000 3.000000 -29.042999
v -1.340000 3.000000 -9.237000
v -1.340000 4.000000 -9.237000
v -12.651999 4.000000 -0.291000
v -1.744000 3.000000 -8.792000
v -1.744000 4.000000 -8.792000
v 6.702001 3.000000 -28.370001
v 27.725760 3.000000 5.750000
v -11.948000 3.000000 3.250000
v 7.710000 3.000000 -26.862000
v 7.243000 3.000000 -27.641001
v -12.651999 3.000000 -0.291000
v -13.040000 3.000000 -1.112000
v 6.702001 4.000000 -16.631001
v 6.702001 3.000000 -16.631001
v -12.299340 3.000000 5.750000
v -12.125000 3.000000 5.055000
v -11.992000 3.000000 2.343000
v -12.125000 3.000000 1.445000
v 6.093000 3.000000 -15.959000
v 6.093000 4.000000 -15.959000
v 8.404000 3.000000 -25.186001
v 8.098001 3.000000 -26.041000
v 5.420000 3.000000 -15.349000
v 5.420000 4.000000 -15.349000
v -2.697000 3.000000 -8.000000
v -2.697000 3.000000 -8.015030
v -2.672000 3.000000 -8.030001
v 4.691000 3.000000 -14.808000
v 4.691000 4.000000 -14.808000
v -0.067000 3.000000 -11.929000
v 2.236000 3.000000 -13.647000
v 0.457000 3.000000 -13.293000
v 1.355000 3.000000 -13.427000
v 0.021000 3.000000 -12.523000
v 3.091000 3.000000 -13.953000
v 3.912000 3.000000 -14.341000
v 8.625000 3.000000 -20.695999
v 8.758000 3.000000 -23.407000
v 3.912000 4.000000 -14.341000
v 3.091000 4.000000 -13.953000
v -0.416000 3.000000 -10.779000
v -0.213000 3.000000 -11.345000
v 0.050000 3.000000 -13.124000
v 2.236000 4.000000 -13.647000
v -2.697000 4.000000 -8.015030
v -2.697000 4.000000 -8.000000
v -2.672000 4.000000 -8.030001
v -2.189000 3.000000 -8.388000
v 1.355000 4.000000 -13.427000
v 0.457000 4.000000 -13.293000
v 0.042800 3.000000 -13.272910
v 0.042800 4.000000 -13.272910
v 8.404000 4.000000 -19.815001
v 8.625000 4.000000 -20.695999
v 8.758000 4.000000 -21.594000
v 8.625000 4.000000 -24.306000
v 8.625000 3.000000 -24.306000
v -2.189000 4.000000 -8.388000
v 8.098001 4.000000 -18.959999
v 8.758000 4.000000 -23.407000
v 7.710000 4.000000 -18.139000
v -17.017860 4.000000 -4.995000
v -17.017860 3.000000 -4.995000
v 7.243000 4.000000 -17.361000
v 8.803000 4.000000 -22.500999
v 0.021000 4.000000 -12.523000
v -38.808002 3.000000 -1.103000
v -35.775002 3.000000 -1.817000
v -36.462002 3.000000 0.768000
v -33.037998 3.000000 -2.072000
v -34.148998 3.000000 2.110000
v -34.576000 3.000000 -4.614000
v -29.950001 3.000000 -1.930000
v -32.032001 3.000000 0.355000
v -31.323000 3.000000 3.239000
v -36.798000 3.000000 3.750000
v 4.691000 4.000000 -30.193001
v 3.912000 4.000000 -30.660000
v 3.727910 4.000000 -30.747000
v -12.346000 3.000000 0.564000
v 5.420000 4.000000 -29.652000
v 6.093000 4.000000 -29.042999
v 6.702001 4.000000 -28.370001
v 7.243000 4.000000 -27.641001
v 7.710000 4.000000 -26.862000
v 8.098001 4.000000 -26.041000
v 8.404000 4.000000 -25.186001
v -16.837999 3.000000 -4.910000
v -16.059999 3.000000 -4.443000
v -34.291000 4.000000 -0.131000
v -0.067000 4.000000 -11.929000
v -0.213000 4.000000 -11.345000
v -0.416000 4.000000 -10.779000
v 27.725760 4.000000 5.750000
v -12.125000 4.000000 5.055000
v -12.299340 4.000000 5.750000
v -11.992000 4.000000 4.157000
v -12.125000 4.000000 1.445000
v 0.050000 4.000000 -13.124000
v -12.346000 4.000000 0.564000
v -11.992000 4.000000 2.343000
v -11.948000 4.000000 3.250000
v -16.059999 4.000000 -4.443000
v -16.837999 4.000000 -4.910000
vn 0.0000 -1.0000 0.0000
vn 0.0000 1.0000 0.0000
vn 0.8657 0.0000 -0.5006
vn 0.8657 0.0005 -0.5006
vn 0.8699 0.0000 -0.4932
vn -0.8579 0.0000 -0.5138
vn -0.6710 0.0000 0.7415
vn -0.8034 0.0000 -0.5955
vn -0.7415 0.0000 0.6710
vn -0.7404 0.0000 -0.6722
vn -0.8034 0.0000 0.5954
vn -0.8034 0.0000 -0.5954
vn -0.8574 0.0000 0.5147
vn -0.7410 0.0000 -0.6715
vn -0.6716 0.0000 -0.7409
vn -0.9041 0.0000 0.4273
vn -0.5959 0.0000 -0.8030
vn -0.5142 0.0000 -0.8577
vn -0.4273 0.0000 -0.9041
vn -0.3370 0.0000 -0.9415
vn -0.2423 0.0000 -0.9702
vn 0.0000 0.0000 -1.0000
vn -0.1476 0.0000 -0.9890
vn -0.0484 0.0000 -0.9988
vn -0.9699 0.0000 0.2436
vn -0.9892 0.0000 0.1463
vn -0.9988 0.0000 0.0496
vn -0.9988 0.0000 -0.0496
vn -0.9892 0.0000 -0.1465
vn -0.9699 0.0000 -0.2433
vn -0.9415 0.0000 -0.3370
vn -0.9041 0.0000 -0.4273
vn -0.8574 0.0000 -0.5147
vn -0.4273 0.0000 0.9041
vn -0.5142 0.0000 0.8577
vn -0.5959 0.0000 0.8030
vn 0.4212 0.9011 -0.1035
vn 0.3310 0.8942 0.3015
vn -0.8030 0.0000 0.5959
vn 0.2373 0.8926 0.3833
vn -0.8577 0.0000 0.5142
vn -0.1640 0.8969 0.4106
vn -0.2727 0.8993 0.3419
vn -0.9415 0.0000 0.3370
vn 0.8657 0.0000 0.5005
vn 0.0000 0.0000 1.0000
vn -0.4345 0.8993 -0.0490
vn -0.4064 0.8969 -0.1742
vn -0.1033 0.8927 -0.4386
vn 0.0206 0.8941 -0.4474
vn 0.3712 0.9010 -0.2246
vn -1.0000 0.0000 0.0000
vn -0.5138 0.0000 -0.8579
vn -0.9699 0.0000 0.2433
vn -0.6722 0.0000 -0.7404
vn -0.9892 0.0000 0.1465
vn -0.5955 0.0000 -0.8034
vn -0.9988 0.0000 0.0485
vn -0.9988 0.0000 0.0483
vn -0.9988 0.0000 -0.0485
vn -0.5147 0.0000 0.8574
vn -0.9988 0.0000 -0.0482
vn -0.5954 0.0000 0.8034
vn -0.9701 0.0000 -0.2425
vn -0.9413 0.0000 -0.3376
vn -0.9039 0.0000 -0.4278
usemtl None
s off
f 1//1 2//1 3//1
f 4//1 5//1 6//1
f 7//2 8//2 9//2
f 10//1 1//1 3//1
f 11//3 12//3 13//3
f 11//3 13//3 14//3
f 15//2 8//2 7//2
f 3//4 13//4 12//4
f 16//1 5//1 17//1
f 18//5 5//5 19//5
f 18//5 19//5 20//5
f 21//1 5//1 22//1
f 19//1 23//1 24//1
f 3//1 12//1 25//1
f 26//2 8//2 15//2
f 23//1 19//1 27//1
f 28//6 29//6 30//6
f 28//6 30//6 31//6
f 32//1 27//1 19//1
f 2//7 9//7 33//7
f 2//7 33//7 34//7
f 35//1 32//1 19//1
f 36//8 37//8 29//8
f 36//8 29//8 28//8
f 38//2 8//2 26//2
f 1//9 7//9 9//9
f 1//9 9//9 2//9
f 39//10 40//10 37//10
f 39//10 37//10 36//10
f 41//1 35//1 19//1
f 12//1 42//1 25//1
f 25//1 43//1 3//1
f 44//1 45//1 19//1
f 45//1 41//1 19//1
f 10//11 15//11 7//11
f 10//11 7//11 1//11
f 46//1 47//1 3//1
f 47//1 10//1 3//1
f 48//12 22//12 49//12
f 50//1 51//1 42//1
f 51//1 25//1 42//1
f 52//1 53//1 3//1
f 47//13 26//13 15//13
f 47//13 15//13 10//13
f 48//14 49//14 54//14
f 48//14 54//14 55//14
f 56//1 57//1 19//1
f 57//1 44//1 19//1
f 55//15 54//15 58//15
f 55//15 58//15 59//15
f 46//16 38//16 26//16
f 46//16 26//16 47//16
f 60//1 61//1 62//1
f 59//17 58//17 63//17
f 59//17 63//17 64//17
f 5//1 65//1 66//1
f 67//1 68//1 69//1
f 66//1 70//1 5//1
f 71//1 63//1 5//1
f 58//1 54//1 5//1
f 21//1 17//1 5//1
f 5//1 16//1 72//1
f 5//1 72//1 6//1
f 4//1 73//1 5//1
f 5//1 73//1 19//1
f 64//18 63//18 71//18
f 64//18 71//18 74//18
f 74//19 71//19 70//19
f 74//19 70//19 75//19
f 76//1 5//1 31//1
f 77//1 5//1 76//1
f 77//1 65//1 5//1
f 78//1 67//1 69//1
f 66//20 79//20 75//20
f 66//20 75//20 70//20
f 80//2 81//2 82//2
f 83//1 5//1 62//1
f 39//1 5//1 83//1
f 60//1 62//1 5//1
f 68//21 84//21 79//21
f 68//21 79//21 66//21
f 14//22 13//22 8//22
f 3//22 8//22 13//22
f 67//23 85//23 84//23
f 67//23 84//23 68//23
f 85//24 67//24 86//24
f 85//24 86//24 87//24
f 88//2 18//2 89//2
f 90//2 89//2 18//2
f 91//25 56//25 92//25
f 82//2 18//2 93//2
f 81//2 18//2 82//2
f 94//2 18//2 88//2
f 91//26 92//26 73//26
f 91//26 73//26 95//26
f 96//2 18//2 94//2
f 97//22 8//22 98//22
f 3//22 98//22 8//22
f 99//2 18//2 96//2
f 95//27 73//27 4//27
f 95//27 4//27 100//27
f 84//2 85//2 101//2
f 6//28 90//28 100//28
f 6//28 100//28 4//28
f 48//2 18//2 99//2
f 102//1 103//1 104//1
f 105//1 106//1 103//1
f 107//1 105//1 103//1
f 104//1 103//1 106//1
f 108//1 109//1 105//1
f 109//1 106//1 105//1
f 110//1 106//1 109//1
f 111//1 104//1 106//1
f 72//29 89//29 90//29
f 72//29 90//29 6//29
f 68//1 65//1 69//1
f 16//30 88//30 89//30
f 16//30 89//30 72//30
f 112//2 20//2 113//2
f 114//2 113//2 20//2
f 68//1 66//1 65//1
f 17//31 94//31 88//31
f 17//31 88//31 16//31
f 115//1 46//1 3//1
f 116//2 20//2 112//2
f 21//32 96//32 94//32
f 21//32 94//32 17//32
f 53//1 115//1 3//1
f 117//2 20//2 116//2
f 22//33 99//33 96//33
f 22//33 96//33 21//33
f 118//2 20//2 117//2
f 119//2 20//2 118//2
f 43//1 52//1 3//1
f 22//12 48//12 99//12
f 36//1 28//1 5//1
f 31//1 5//1 28//1
f 120//2 20//2 119//2
f 23//34 113//34 114//34
f 23//34 114//34 24//34
f 121//2 20//2 120//2
f 39//1 36//1 5//1
f 91//2 20//2 122//2
f 27//35 112//35 113//35
f 27//35 113//35 23//35
f 3//1 123//1 98//1
f 49//1 22//1 5//1
f 32//36 116//36 112//36
f 32//36 112//36 27//36
f 121//2 122//2 20//2
f 18//2 20//2 95//2
f 124//1 123//1 3//1
f 54//1 49//1 5//1
f 125//37 110//37 109//37
f 35//7 117//7 116//7
f 35//7 116//7 32//7
f 34//1 124//1 3//1
f 41//9 118//9 117//9
f 41//9 117//9 35//9
f 2//1 34//1 3//1
f 108//38 125//38 109//38
f 45//39 119//39 118//39
f 45//39 118//39 41//39
f 58//1 5//1 63//1
f 125//40 111//40 106//40
f 44//41 120//41 119//41
f 44//41 119//41 45//41
f 71//1 5//1 70//1
f 57//16 121//16 120//16
f 57//16 120//16 44//16
f 125//42 106//42 110//42
f 100//2 18//2 95//2
f 90//2 18//2 100//2
f 126//2 18//2 79//2
f 91//2 95//2 20//2
f 125//43 102//43 104//43
f 56//44 122//44 121//44
f 56//44 121//44 57//44
f 78//1 86//1 67//1
f 56//25 91//25 122//25
f 75//2 79//2 18//2
f 18//2 126//2 127//2
f 18//2 127//2 128//2
f 128//2 30//2 18//2
f 40//2 18//2 37//2
f 29//2 18//2 30//2
f 12//45 11//45 42//45
f 129//45 42//45 11//45
f 56//1 19//1 92//1
f 92//1 19//1 73//1
f 93//2 18//2 40//2
f 29//2 37//2 18//2
f 129//2 130//2 131//2
f 59//2 18//2 55//2
f 130//2 129//2 132//2
f 64//2 18//2 59//2
f 74//2 18//2 64//2
f 55//2 18//2 48//2
f 50//46 42//46 131//46
f 79//2 84//2 126//2
f 11//2 14//2 129//2
f 8//2 129//2 14//2
f 8//2 133//2 129//2
f 101//2 126//2 84//2
f 75//2 18//2 74//2
f 134//2 101//2 85//2
f 60//46 18//46 81//46
f 135//2 8//2 38//2
f 87//2 134//2 85//2
f 133//2 8//2 135//2
f 5//46 18//46 60//46
f 136//2 129//2 133//2
f 137//2 129//2 136//2
f 132//2 129//2 137//2
f 114//22 20//22 24//22
f 138//2 8//2 139//2
f 97//2 139//2 8//2
f 33//2 8//2 138//2
f 9//2 8//2 33//2
f 125//47 104//47 111//47
f 125//48 107//48 103//48
f 19//22 24//22 20//22
f 125//49 103//49 102//49
f 108//50 105//50 125//50
f 125//51 105//51 107//51
f 80//52 61//52 60//52
f 80//52 60//52 81//52
f 115//44 135//44 46//44
f 38//44 46//44 135//44
f 82//53 62//53 61//53
f 82//53 61//53 80//53
f 135//54 115//54 53//54
f 135//54 53//54 133//54
f 83//55 93//55 39//55
f 40//55 39//55 93//55
f 133//56 53//56 52//56
f 133//56 52//56 136//56
f 62//57 82//57 83//57
f 93//57 83//57 82//57
f 136//58 52//58 43//58
f 136//58 43//58 137//58
f 87//59 86//59 134//59
f 43//60 132//60 137//60
f 134//59 86//59 78//59
f 123//34 139//34 97//34
f 123//34 97//34 98//34
f 124//61 138//61 139//61
f 124//61 139//61 123//61
f 69//62 101//62 134//62
f 69//62 134//62 78//62
f 34//63 33//63 138//63
f 34//63 138//63 124//63
f 65//29 126//29 101//29
f 65//29 101//29 69//29
f 77//64 127//64 126//64
f 77//64 126//64 65//64
f 76//65 128//65 127//65
f 76//65 127//65 77//65
f 31//66 30//66 128//66
f 31//66 128//66 76//66
f 129//46 131//46 42//46
f 25//60 132//60 43//60
f 132//29 25//29 130//29
f 51//29 130//29 25//29
f 51//30 50//30 130//30
f 131//30 130//30 50//30
