<?xml version="1.0" encoding="UTF-8" standalone="no"?>
<svg
   xmlns:dc="http://purl.org/dc/elements/1.1/"
   xmlns:cc="http://creativecommons.org/ns#"
   xmlns:rdf="http://www.w3.org/1999/02/22-rdf-syntax-ns#"
   xmlns:svg="http://www.w3.org/2000/svg"
   xmlns="http://www.w3.org/2000/svg"
   id="svg8"
   version="1.1"
   viewBox="0 0 67.733332 67.733335"
   height="256"
   width="256">
  <defs
     id="defs2" />
  <metadata
     id="metadata5">
    <rdf:RDF>
      <cc:Work
         rdf:about="">
        <dc:format>image/svg+xml</dc:format>
        <dc:type
           rdf:resource="http://purl.org/dc/dcmitype/StillImage" />
        <dc:title></dc:title>
      </cc:Work>
    </rdf:RDF>
  </metadata>
  <g
     id="layer1">
    <path
       transform="matrix(0.74611422,0.42576083,-0.42635101,0.75670816,27.451371,2.6891912)"
       d="M 25.531608,29.633331 8.4666657,29.557347 -5.8716662e-7,14.740681 8.5982751,2.1153729e-8 25.663217,0.07598472 34.129883,14.89265 Z"
       id="path851"
       style="fill:#ffffff;fill-opacity:1;stroke:#000000;stroke-width:1.53154518;stroke-miterlimit:4;stroke-dasharray:none;stroke-dashoffset:0;stroke-opacity:1;paint-order:normal" />
    <path
       style="fill:#ffffff;fill-opacity:1;stroke:#000000;stroke-width:1.53154519;stroke-miterlimit:4;stroke-dasharray:none;stroke-dashoffset:0;stroke-opacity:1;paint-order:normal"
       id="path851-3"
       d="M 25.531608,29.633331 8.4666657,29.557347 -5.8716662e-7,14.740681 8.5982751,2.1153729e-8 25.663217,0.07598472 34.129883,14.89265 Z"
       transform="matrix(0.74611421,0.42576084,-0.42635102,0.75670815,42.268039,28.089191)" />
    <path
       style="fill:#ffffff;fill-opacity:1;stroke:#000000;stroke-width:1.53154518;stroke-miterlimit:4;stroke-dasharray:none;stroke-dashoffset:0;stroke-opacity:1;paint-order:normal"
       id="path851-6"
       d="M 25.531608,29.633331 8.4666657,29.557347 -5.8716662e-7,14.740681 8.5982751,2.1153729e-8 25.663217,0.07598472 34.129883,14.89265 Z"
       transform="matrix(0.74611421,0.42576085,-0.42635102,0.75670815,12.634705,28.089191)" />
  </g>
</svg>
