# Blender v2.82 (sub 7) OBJ File: ''
# www.blender.org
mtllib 3for1.mtl
o Harbor_3_For_1
v 5.885000 0.000000 -1.171000
v 5.885000 0.547000 -1.171000
v 6.000000 0.547000 0.000000
v -4.157000 1.447000 -2.778000
v -4.619000 1.447000 -1.913000
v -3.087000 1.447000 -1.995000
v -2.728000 1.447000 -2.852000
v -2.614000 1.447000 3.026000
v -3.200000 1.447000 1.826000
v -3.536000 1.447000 3.536000
v -5.000000 1.447000 0.000000
v -4.904000 1.447000 -0.975000
v -4.619000 1.447000 1.913000
v -4.904000 1.447000 0.975000
v 4.904000 0.997000 -0.975000
v 5.394000 0.997000 -1.073000
v 4.619000 0.997000 -1.913000
v 5.081000 0.997000 -2.105000
v 4.573000 0.997000 -3.056000
v 4.157000 0.997000 -2.778000
v 0.000000 0.997000 5.000000
v 0.000000 0.997000 5.500000
v 0.975000 0.997000 4.904000
v 0.975000 1.447000 4.904000
v 0.000000 1.447000 5.000000
v 5.081000 0.547000 -2.105000
v 4.573000 0.547000 -3.056000
v 2.778000 1.447000 4.157000
v 1.913000 1.447000 4.619000
v 1.913000 0.997000 4.619000
v 5.543000 0.547000 -2.296000
v 5.394000 0.547000 -1.073000
v -4.157000 1.447000 2.778000
v 4.989000 0.547000 -3.333000
v 5.543000 0.000000 -2.296000
v -3.889000 0.547000 -3.889000
v -3.056000 0.547000 -4.573000
v -4.243000 0.547000 -4.243000
v 6.000000 0.000000 0.000000
v 4.904000 1.447000 -0.975000
v -3.536000 1.447000 -3.536000
v -2.778000 0.997000 -4.157000
v -3.536000 0.997000 -3.536000
v -3.056000 0.997000 -4.573000
v 5.000000 0.997000 0.000000
v -4.157000 0.997000 -2.778000
v -4.573000 0.997000 -3.056000
v 5.500000 0.997000 0.000000
v -3.889000 0.997000 -3.889000
v 4.904000 0.997000 0.975000
v -4.989000 0.547000 -3.333000
v -4.573000 0.547000 -3.056000
v 5.911221 0.000000 0.904000
v -4.243000 0.000000 -4.243000
v -4.989000 0.000000 -3.333000
v -0.975000 0.997000 4.904000
v -0.975000 1.447000 4.904000
v -3.333000 0.547000 -4.989000
v -3.333000 0.000000 -4.989000
v -1.913000 1.447000 4.619000
v -1.913000 0.997000 4.619000
v 5.500000 0.547000 0.000000
v -2.778000 1.447000 4.157000
v 5.394000 0.997000 1.073000
v -4.619000 0.997000 -1.913000
v -2.105000 0.997000 5.081000
v -1.073000 0.997000 5.394000
v -3.333000 0.000000 4.989000
v -2.778000 0.997000 4.157000
v 5.000000 1.447000 0.000000
v -4.157000 0.997000 2.778000
v 4.904000 1.447000 0.975000
v 4.619000 0.997000 1.913000
v -3.536000 0.997000 3.536000
v 5.081000 0.997000 2.105000
v -4.573000 0.997000 3.056000
v 5.885000 0.000000 1.171000
v 5.885000 0.547000 1.171000
v -3.889000 0.997000 3.889000
v -3.889000 0.547000 3.889000
v -3.056000 0.997000 4.573000
v -4.573000 0.547000 3.056000
v 5.394000 0.547000 1.073000
v -4.243000 0.547000 4.243000
v -4.904000 0.997000 -0.975000
v 5.543000 0.547000 2.296000
v 5.543000 0.000000 2.296000
v -5.081000 0.997000 -2.105000
v -5.394000 0.997000 -1.073000
v 5.081000 0.547000 2.105000
v 4.573000 0.997000 3.056000
v -5.081000 0.547000 -2.105000
v 4.157000 0.997000 2.778000
v -2.105000 0.547000 5.081000
v -3.056000 0.547000 4.573000
v -5.885000 0.547000 -1.171000
v -5.543000 0.547000 -2.296000
v -3.333000 0.547000 4.989000
v 4.989000 0.547000 3.333000
v 5.192543 0.000000 2.952000
v -5.543000 0.000000 -2.296000
v -5.885000 0.000000 -1.171000
v 4.000000 0.000000 -4.442206
v 1.171000 0.547000 5.885000
v 2.296000 0.547000 5.543000
v 2.105000 0.547000 5.081000
v 4.573000 0.547000 3.056000
v 2.296000 0.000000 5.543000
v 2.105000 0.997000 5.081000
v 3.056000 0.997000 4.573000
v 1.073000 0.547000 5.394000
v 3.536000 0.997000 3.536000
v 3.889000 0.997000 3.889000
v 1.073000 0.997000 5.394000
v 2.778000 0.997000 4.157000
v 0.000000 0.547000 5.500000
v 4.243000 0.547000 4.243000
v 4.243000 0.000000 4.243000
v 4.989000 0.000000 3.333000
v 2.452000 1.447000 -2.798000
v 2.452000 2.698000 -2.798000
v 2.616000 2.698000 -2.016000
v 2.616000 1.447000 -2.016000
v 3.333000 0.000000 4.989000
v -0.096000 0.000000 -5.990572
v -2.105000 0.547000 -5.081000
v -2.296000 0.547000 -5.543000
v 1.961000 2.698000 -3.436000
v 1.961000 1.447000 -3.436000
v -0.205000 1.447000 -2.665000
v -0.804000 1.447000 -2.435000
v -0.394000 1.447000 -0.982000
v -0.666000 1.447000 -1.008000
v -1.116000 1.447000 -1.631000
v -0.666000 2.698000 -1.008000
v -0.394000 2.698000 -0.982000
v -2.296000 0.000000 -5.543000
v 2.778000 0.997000 -4.157000
v 1.913000 0.997000 -4.619000
v 1.913000 1.447000 -4.619000
v -1.913000 1.447000 -4.619000
v -1.913000 0.997000 -4.619000
v -2.778000 1.447000 -4.157000
v -0.773000 1.447000 0.528000
v -0.773000 2.698000 0.528000
v -0.097000 1.447000 0.401000
v -0.097000 2.698000 0.401000
v 0.358000 2.698000 -2.454000
v -0.205000 2.698000 -2.665000
v 1.102000 2.698000 -3.859000
v -0.164000 2.698000 -4.000000
v -1.299000 2.698000 -3.871000
v -0.804000 2.698000 -2.435000
v -1.116000 2.698000 -1.631000
v 0.632000 2.698000 0.697000
v 0.289000 2.698000 -1.251000
v 0.901000 2.698000 1.530000
v 2.211000 2.698000 -0.137000
v 1.546000 2.698000 -0.396000
v -1.073000 0.547000 5.394000
v 3.333000 0.000000 -4.989000
v 2.296000 0.000000 -5.543000
v 2.296000 0.547000 -5.543000
v 0.000000 0.547000 6.000000
v 2.105000 0.547000 -5.081000
v 3.333000 0.547000 -4.989000
v 3.056000 0.547000 -4.573000
v 2.350000 2.698000 -1.108000
v 0.563000 2.698000 -1.889000
v 1.171000 0.000000 5.885000
v 0.000000 0.000000 6.000000
v -5.000000 0.997000 0.000000
v -1.171000 0.000000 5.885000
v -5.500000 0.997000 0.000000
v -2.143000 2.698000 -3.483000
v -2.728000 2.698000 -2.852000
v -3.087000 2.698000 -1.995000
v -5.394000 0.547000 -1.073000
v -5.500000 0.547000 0.000000
v -2.296000 0.547000 5.543000
v -1.171000 0.547000 5.885000
v -2.614000 2.698000 3.026000
v -1.641000 2.698000 3.752000
v -0.735000 2.698000 2.441000
v -1.116000 2.698000 1.541000
v -3.200000 2.698000 1.826000
v -5.885000 0.547000 1.171000
v -5.394000 0.547000 1.073000
v -6.000000 0.547000 0.000000
v -0.026000 2.698000 4.000000
v 0.923000 2.698000 3.916000
v -0.077000 2.698000 2.691000
v 1.669000 2.698000 3.665000
v 0.622000 2.698000 2.375000
v -2.296000 0.000000 5.543000
v -6.000000 0.000000 0.000000
v 2.793000 2.698000 0.488000
v 2.657000 2.698000 2.710000
v 2.238000 2.698000 3.258000
v 3.000000 2.698000 1.414000
v -5.885000 0.000000 1.171000
v -4.243000 0.000000 4.243000
v -4.989000 0.000000 3.333000
v 2.778000 1.447000 -4.157000
v 4.157000 1.447000 -2.778000
v 4.243000 0.547000 -4.243000
v 3.889000 0.547000 -3.889000
v 4.243000 0.000000 -4.243000
v 1.102000 1.447000 -3.859000
v -0.164000 1.447000 -4.000000
v -0.975000 1.447000 -4.904000
v -1.299000 1.447000 -3.871000
v 3.536000 0.997000 -3.536000
v 3.889000 0.997000 -3.889000
v 3.056000 0.997000 -4.573000
v -4.619000 0.997000 1.913000
v -4.904000 0.997000 0.975000
v 3.889000 0.547000 3.889000
v -2.143000 1.447000 -3.483000
v 4.989000 0.000000 -3.333000
v -5.081000 0.997000 2.105000
v -5.394000 0.997000 1.073000
v 3.333000 0.547000 4.989000
v 3.056000 0.547000 4.573000
v -5.081000 0.547000 2.105000
v 0.289000 1.447000 -1.251000
v 0.563000 1.447000 -1.889000
v 0.358000 1.447000 -2.454000
v -5.543000 0.547000 2.296000
v 0.901000 1.447000 1.530000
v 0.632000 1.447000 0.697000
v -5.543000 0.000000 2.296000
v 4.619000 1.447000 -1.913000
v 2.350000 1.447000 -1.108000
v 2.105000 0.997000 -5.081000
v 2.793000 1.447000 0.488000
v 1.546000 1.447000 -0.396000
v 2.211000 1.447000 -0.137000
v 4.619000 1.447000 1.913000
v 3.000000 1.447000 1.414000
v 4.157000 1.447000 2.778000
v 3.536000 1.447000 -3.536000
v 3.536000 1.447000 3.536000
v 2.657000 1.447000 2.710000
v 0.000000 0.547000 -6.000000
v 1.073000 0.547000 -5.394000
v 1.171000 0.547000 -5.885000
v 0.000000 0.000000 -6.000000
v 1.171000 0.000000 -5.885000
v 1.073000 0.997000 -5.394000
v 0.000000 0.547000 -5.500000
v 0.000000 0.997000 -5.500000
v 0.000000 1.447000 -5.000000
v -0.975000 0.997000 -4.904000
v 0.000000 0.997000 -5.000000
v 0.975000 1.447000 -4.904000
v 0.975000 0.997000 -4.904000
v -0.077000 1.447000 2.691000
v -0.735000 1.447000 2.441000
v 0.622000 1.447000 2.375000
v -1.116000 1.447000 1.541000
v -2.105000 0.997000 -5.081000
v -1.073000 0.997000 -5.394000
v -1.073000 0.547000 -5.394000
v -1.171000 0.547000 -5.885000
v -4.989000 0.547000 3.333000
v -1.641000 1.447000 3.752000
v -1.171000 0.000000 -5.885000
v 0.923000 1.447000 3.916000
v -0.026000 1.447000 4.000000
v 1.669000 1.447000 3.665000
v 2.238000 1.447000 3.258000
vn 0.9952 0.0000 -0.0977
vn 0.0000 1.0000 0.0000
vn 0.0980 0.0000 0.9952
vn 0.8820 0.0000 -0.4712
vn 0.4711 0.0000 0.8821
vn 0.9568 0.0000 -0.2909
vn 0.0000 -1.0000 0.0000
vn 0.9568 0.0000 -0.2907
vn -0.6337 0.0000 -0.7735
vn 0.9952 0.0000 -0.0980
vn 0.2907 0.0000 0.9568
vn -0.7728 0.0000 -0.6346
vn 0.9952 0.0000 0.0977
vn -0.7734 0.0000 -0.6340
vn -0.0980 0.0000 0.9952
vn 0.9570 0.0000 -0.2902
vn -0.6340 0.0000 -0.7734
vn -0.2907 0.0000 0.9568
vn 0.9952 0.0000 -0.0983
vn -0.4711 0.0000 0.8821
vn 0.9952 0.0000 0.0983
vn -0.8821 0.0000 -0.4711
vn -0.7735 0.0000 -0.6337
vn 0.9952 0.0000 0.0980
vn -0.7735 0.0000 0.6337
vn 0.9568 0.0000 0.2907
vn -0.6346 0.0000 0.7728
vn -0.7728 0.0000 0.6346
vn 0.9570 0.0000 0.2902
vn -0.9568 0.0000 -0.2907
vn 0.9568 0.0000 0.2909
vn 0.8820 0.0000 0.4712
vn -0.8820 0.0000 -0.4712
vn -0.4712 0.0000 0.8820
vn -0.9568 0.0000 -0.2909
vn 0.2909 0.0000 0.9568
vn 0.4712 0.0000 0.8820
vn 0.2902 0.0000 0.9570
vn 0.7728 0.0000 0.6346
vn 0.0983 0.0000 0.9952
vn -0.6346 0.0000 -0.7728
vn 0.7734 0.0000 0.6340
vn 0.9787 0.0000 -0.2053
vn 0.7925 0.0000 -0.6099
vn 0.0952 0.0000 -0.9955
vn -0.4712 0.0000 -0.8820
vn 0.4711 0.0000 -0.8821
vn -0.4711 0.0000 -0.8821
vn -0.9976 0.0000 -0.0695
vn 0.1846 0.0000 0.9828
vn -0.3509 0.0000 0.9364
vn 0.3585 0.0000 0.9335
vn 0.9323 0.0000 0.3618
vn -0.0983 0.0000 0.9952
vn 0.4712 0.0000 -0.8820
vn 0.0977 0.0000 0.9952
vn -0.9952 0.0000 -0.0980
vn -0.9952 0.0000 0.0980
vn -0.2902 0.0000 0.9570
vn -0.9952 0.0000 -0.0983
vn -0.9570 0.0000 -0.2902
vn -0.0977 0.0000 0.9952
vn -0.9952 0.0000 -0.0977
vn -0.2909 0.0000 0.9568
vn -0.9952 0.0000 0.0977
vn 0.6340 -0.0000 -0.7734
vn 0.7728 0.0000 -0.6346
vn 0.4418 0.0000 -0.8971
vn 0.1107 0.0000 -0.9939
vn -0.8821 0.0000 0.4711
vn -0.1129 0.0000 -0.9936
vn -0.9568 0.0000 0.2907
vn -0.4177 0.0000 -0.9086
vn 0.7734 0.0000 -0.6340
vn -0.9570 0.0000 0.2902
vn -0.7333 0.0000 -0.6799
vn -0.9952 0.0000 0.0983
vn -0.3665 0.0000 -0.9304
vn -0.9188 0.0000 -0.3946
vn -0.6337 0.0000 0.7735
vn -0.9516 0.0000 0.3073
vn -0.3762 0.0000 0.9265
vn -0.9568 0.0000 0.2909
vn -0.9400 0.0000 0.3411
vn 0.6346 0.0000 -0.7728
vn 0.6630 0.0000 0.7486
vn 0.7318 0.0000 -0.6815
vn 0.3629 0.0000 -0.9318
vn 0.9597 0.0000 0.2811
vn 0.8821 0.0000 -0.4711
vn -0.0977 0.0000 -0.9952
vn 0.0977 0.0000 -0.9952
vn 0.2909 0.0000 -0.9568
vn 0.8821 0.0000 0.4711
vn 0.0983 0.0000 -0.9952
vn 0.7735 0.0000 0.6337
vn 0.6337 0.0000 -0.7735
vn 0.2902 0.0000 -0.9570
vn -0.0980 0.0000 -0.9952
vn 0.0980 0.0000 -0.9952
vn -0.9223 0.0000 -0.3864
vn 0.2907 0.0000 -0.9568
vn -0.1816 0.0000 0.9834
vn 0.9209 0.0000 -0.3898
vn 0.3552 0.0000 -0.9348
vn -0.1355 0.0000 -0.9908
vn -0.2902 0.0000 -0.9570
vn -0.8820 0.0000 0.4712
vn -0.8986 0.0000 0.4388
vn -0.5980 0.0000 0.8015
vn -0.4119 0.0000 -0.9112
vn -0.6340 0.0000 0.7734
vn -0.2909 0.0000 -0.9568
vn -0.7734 0.0000 0.6340
vn 0.7735 0.0000 -0.6337
vn -0.2907 0.0000 -0.9568
vn -0.0983 0.0000 -0.9952
vn 0.6337 0.0000 0.7735
vn -0.1518 0.0000 0.9884
vn -0.9496 0.0000 -0.3135
vn 0.0882 0.0000 0.9961
vn 0.6346 0.0000 0.7728
vn 0.3189 0.0000 0.9478
vn 0.5818 0.0000 0.8133
vn 0.7944 0.0000 0.6074
vn 0.9667 0.0000 0.2559
vn 0.9759 0.0000 -0.2182
vn 0.6340 0.0000 0.7734
usemtl None
s off
f 1//1 2//1 3//1
f 4//2 5//2 6//2
f 6//2 7//2 4//2
f 8//2 9//2 10//2
f 11//2 6//2 12//2
f 13//2 9//2 14//2
f 14//2 9//2 11//2
f 5//2 12//2 6//2
f 15//2 16//2 17//2
f 18//2 19//2 20//2
f 21//2 22//2 23//2
f 18//2 20//2 17//2
f 23//3 24//3 25//3
f 23//3 25//3 21//3
f 19//4 18//4 26//4
f 19//4 26//4 27//4
f 28//5 29//5 30//5
f 2//2 31//2 26//2
f 26//2 32//2 2//2
f 33//2 9//2 13//2
f 31//2 34//2 26//2
f 31//4 35//4 34//4
f 2//6 1//6 35//6
f 2//6 35//6 31//6
f 36//2 37//2 38//2
f 1//7 39//7 35//7
f 3//1 39//1 1//1
f 17//8 40//8 15//8
f 41//9 42//9 43//9
f 42//2 44//2 43//2
f 40//10 45//10 15//10
f 46//2 43//2 47//2
f 29//11 24//11 23//11
f 29//11 23//11 30//11
f 48//2 16//2 15//2
f 18//2 17//2 16//2
f 49//12 36//12 47//12
f 15//2 45//2 48//2
f 45//2 50//2 48//2
f 51//2 52//2 38//2
f 3//13 53//13 39//13
f 38//14 54//14 55//14
f 38//14 55//14 51//14
f 56//15 21//15 57//15
f 25//15 57//15 21//15
f 26//16 18//16 16//16
f 26//16 16//16 32//16
f 38//17 58//17 54//17
f 59//17 54//17 58//17
f 57//18 60//18 61//18
f 57//18 61//18 56//18
f 16//19 48//19 62//19
f 16//19 62//19 32//19
f 60//20 63//20 61//20
f 64//21 62//21 48//21
f 32//2 62//2 3//2
f 3//2 2//2 32//2
f 4//22 46//22 65//22
f 21//2 56//2 22//2
f 4//23 41//23 43//23
f 4//23 43//23 46//23
f 66//2 67//2 61//2
f 49//2 47//2 43//2
f 53//7 35//7 39//7
f 59//7 68//7 54//7
f 63//20 69//20 61//20
f 45//24 70//24 50//24
f 10//25 33//25 71//25
f 72//26 73//26 50//26
f 50//2 73//2 64//2
f 64//2 48//2 50//2
f 10//25 71//25 74//25
f 75//2 64//2 73//2
f 71//2 76//2 74//2
f 77//13 53//13 78//13
f 3//13 78//13 53//13
f 79//27 80//27 81//27
f 79//28 82//28 80//28
f 62//21 64//21 83//21
f 82//2 84//2 80//2
f 64//29 75//29 83//29
f 62//2 83//2 3//2
f 78//2 3//2 83//2
f 65//30 85//30 5//30
f 12//30 5//30 85//30
f 5//22 4//22 65//22
f 78//31 86//31 87//31
f 78//31 87//31 77//31
f 88//2 89//2 65//2
f 65//2 46//2 88//2
f 75//29 90//29 83//29
f 47//2 88//2 46//2
f 75//32 91//32 90//32
f 47//33 52//33 92//33
f 47//33 92//33 88//33
f 81//2 66//2 69//2
f 61//2 69//2 66//2
f 47//12 36//12 52//12
f 91//2 75//2 93//2
f 73//2 93//2 75//2
f 94//34 66//34 95//34
f 81//34 95//34 66//34
f 96//2 92//2 97//2
f 51//2 97//2 92//2
f 81//27 80//27 95//27
f 51//2 92//2 52//2
f 86//2 78//2 90//2
f 83//2 90//2 78//2
f 80//2 84//2 95//2
f 94//2 95//2 98//2
f 36//2 38//2 52//2
f 99//2 86//2 90//2
f 86//32 100//32 87//32
f 97//35 101//35 102//35
f 97//35 102//35 96//35
f 87//7 103//7 77//7
f 55//33 101//33 97//33
f 55//33 97//33 51//33
f 100//7 103//7 87//7
f 104//2 105//2 106//2
f 91//32 107//32 90//32
f 104//36 108//36 105//36
f 109//37 106//37 110//37
f 109//38 111//38 106//38
f 106//2 111//2 104//2
f 93//2 112//2 91//2
f 113//39 107//39 91//39
f 23//2 114//2 30//2
f 22//2 114//2 23//2
f 110//2 115//2 109//2
f 114//2 109//2 30//2
f 114//38 111//38 109//38
f 22//40 116//40 111//40
f 22//40 111//40 114//40
f 90//2 107//2 99//2
f 117//2 99//2 107//2
f 49//41 44//41 36//41
f 37//41 36//41 44//41
f 99//42 118//42 119//42
f 49//2 43//2 44//2
f 86//32 99//32 100//32
f 119//32 100//32 99//32
f 120//43 121//43 122//43
f 120//43 122//43 123//43
f 124//7 125//7 118//7
f 37//2 126//2 58//2
f 127//2 58//2 126//2
f 128//44 121//44 120//44
f 128//44 120//44 129//44
f 58//2 38//2 37//2
f 130//2 131//2 132//2
f 133//2 132//2 131//2
f 134//2 133//2 131//2
f 132//45 133//45 135//45
f 132//45 135//45 136//45
f 58//46 127//46 59//46
f 137//46 59//46 127//46
f 138//47 139//47 140//47
f 141//48 142//48 143//48
f 41//9 143//9 42//9
f 133//49 144//49 145//49
f 133//49 145//49 135//49
f 144//50 146//50 147//50
f 144//50 147//50 145//50
f 148//51 149//51 130//51
f 150//2 151//2 149//2
f 152//2 149//2 151//2
f 131//52 130//52 149//52
f 131//52 149//52 153//52
f 54//7 68//7 55//7
f 55//7 68//7 101//7
f 154//53 134//53 131//53
f 154//53 131//53 153//53
f 147//2 155//2 156//2
f 157//2 158//2 155//2
f 156//2 155//2 159//2
f 22//54 160//54 116//54
f 161//55 162//55 163//55
f 111//2 164//2 104//2
f 111//2 116//2 164//2
f 163//2 165//2 166//2
f 165//2 167//2 166//2
f 116//2 160//2 164//2
f 168//2 122//2 169//2
f 108//36 104//36 170//36
f 169//2 159//2 168//2
f 169//2 156//2 159//2
f 137//7 68//7 59//7
f 164//56 171//56 170//56
f 164//56 170//56 104//56
f 159//2 155//2 158//2
f 172//57 11//57 12//57
f 172//57 12//57 85//57
f 121//2 128//2 148//2
f 150//2 148//2 128//2
f 148//2 169//2 121//2
f 122//2 121//2 169//2
f 14//58 11//58 172//58
f 173//7 125//7 171//7
f 56//2 61//2 67//2
f 22//2 56//2 67//2
f 156//2 136//2 147//2
f 145//2 147//2 136//2
f 145//2 136//2 135//2
f 172//2 85//2 174//2
f 89//2 174//2 85//2
f 85//2 65//2 89//2
f 160//54 22//54 67//54
f 148//2 150//2 149//2
f 175//2 153//2 152//2
f 67//59 66//59 94//59
f 67//59 94//59 160//59
f 153//2 176//2 154//2
f 149//2 152//2 153//2
f 175//2 176//2 153//2
f 177//2 154//2 176//2
f 89//60 178//60 179//60
f 89//60 179//60 174//60
f 178//61 89//61 92//61
f 88//61 92//61 89//61
f 180//2 181//2 94//2
f 180//2 94//2 98//2
f 182//2 183//2 184//2
f 184//2 185//2 182//2
f 186//2 182//2 185//2
f 164//2 160//2 181//2
f 187//2 188//2 189//2
f 179//2 178//2 189//2
f 96//2 189//2 178//2
f 190//2 191//2 192//2
f 192//2 184//2 183//2
f 190//2 192//2 183//2
f 160//2 94//2 181//2
f 96//2 178//2 92//2
f 191//2 193//2 194//2
f 194//2 192//2 191//2
f 98//34 195//34 180//34
f 171//62 181//62 173//62
f 164//62 181//62 171//62
f 102//63 196//63 189//63
f 102//63 189//63 96//63
f 181//64 180//64 195//64
f 181//64 195//64 173//64
f 158//2 157//2 197//2
f 157//2 194//2 198//2
f 193//2 199//2 194//2
f 199//2 198//2 194//2
f 198//2 200//2 157//2
f 200//2 197//2 157//2
f 201//65 187//65 196//65
f 189//65 196//65 187//65
f 101//7 68//7 102//7
f 102//7 68//7 196//7
f 202//7 203//7 68//7
f 120//2 204//2 129//2
f 123//2 205//2 120//2
f 166//55 161//55 163//55
f 206//66 103//66 166//66
f 19//67 27//67 207//67
f 34//2 206//2 27//2
f 27//2 26//2 34//2
f 207//2 27//2 206//2
f 204//2 140//2 129//2
f 206//66 208//66 103//66
f 129//68 209//68 150//68
f 129//68 150//68 128//68
f 209//69 210//69 151//69
f 209//69 151//69 150//69
f 210//2 211//2 212//2
f 143//2 41//2 7//2
f 20//2 19//2 213//2
f 214//2 215//2 213//2
f 138//2 213//2 215//2
f 113//2 91//2 112//2
f 33//70 13//70 216//70
f 33//70 216//70 71//70
f 210//71 212//71 152//71
f 210//71 152//71 151//71
f 13//72 14//72 217//72
f 13//72 217//72 216//72
f 107//39 113//39 218//39
f 14//58 172//58 217//58
f 219//2 143//2 7//2
f 212//73 219//73 175//73
f 212//73 175//73 152//73
f 34//74 220//74 208//74
f 34//74 208//74 206//74
f 107//2 218//2 117//2
f 71//2 216//2 221//2
f 222//2 221//2 216//2
f 216//2 217//2 222//2
f 34//4 35//4 220//4
f 223//2 117//2 224//2
f 174//2 222//2 217//2
f 103//7 208//7 53//7
f 208//7 220//7 53//7
f 35//7 53//7 220//7
f 174//2 217//2 172//2
f 171//7 125//7 170//7
f 222//75 188//75 225//75
f 222//75 225//75 221//75
f 219//76 7//76 175//76
f 174//77 179//77 188//77
f 174//77 188//77 222//77
f 100//7 119//7 125//7
f 132//2 226//2 227//2
f 132//2 227//2 228//2
f 132//2 228//2 130//2
f 119//7 118//7 125//7
f 226//78 132//78 136//78
f 226//78 136//78 156//78
f 227//79 226//79 156//79
f 227//79 156//79 169//79
f 74//80 69//80 63//80
f 229//2 225//2 187//2
f 187//2 225//2 188//2
f 230//2 231//2 146//2
f 79//2 81//2 74//2
f 179//2 189//2 188//2
f 231//81 230//81 155//81
f 155//82 147//82 231//82
f 146//82 231//82 147//82
f 69//2 74//2 81//2
f 187//83 201//83 232//83
f 187//83 232//83 229//83
f 169//84 148//84 227//84
f 228//84 227//84 148//84
f 173//7 195//7 125//7
f 214//2 213//2 19//2
f 233//2 234//2 40//2
f 205//2 123//2 233//2
f 215//55 167//55 165//55
f 215//55 165//55 235//55
f 40//2 236//2 70//2
f 70//2 236//2 72//2
f 214//85 207//85 167//85
f 214//85 167//85 215//85
f 237//2 238//2 234//2
f 236//2 40//2 238//2
f 19//67 207//67 214//67
f 239//2 240//2 241//2
f 234//86 168//86 237//86
f 167//2 207//2 206//2
f 206//2 166//2 167//2
f 238//2 40//2 234//2
f 204//2 120//2 242//2
f 236//87 238//87 158//87
f 236//87 158//87 197//87
f 242//2 120//2 205//2
f 161//66 166//66 103//66
f 168//86 159//86 237//86
f 240//2 72//2 236//2
f 239//2 72//2 240//2
f 238//88 237//88 159//88
f 238//88 159//88 158//88
f 243//2 241//2 244//2
f 130//51 228//51 148//51
f 234//2 233//2 123//2
f 53//7 77//7 103//7
f 162//7 161//7 100//7
f 103//7 100//7 161//7
f 168//89 234//89 122//89
f 123//89 122//89 234//89
f 17//90 20//90 233//90
f 205//90 233//90 20//90
f 245//2 246//2 247//2
f 246//2 165//2 247//2
f 17//8 233//8 40//8
f 245//91 248//91 125//91
f 45//10 40//10 70//10
f 247//92 249//92 248//92
f 247//92 248//92 245//92
f 72//24 50//24 70//24
f 163//93 162//93 249//93
f 163//93 249//93 247//93
f 73//26 72//26 239//26
f 239//94 241//94 93//94
f 93//94 73//94 239//94
f 250//95 246//95 251//95
f 250//95 251//95 252//95
f 241//96 243//96 93//96
f 245//2 251//2 246//2
f 163//2 247//2 165//2
f 213//97 138//97 242//97
f 204//97 242//97 138//97
f 165//98 246//98 235//98
f 250//98 235//98 246//98
f 41//2 4//2 7//2
f 7//76 176//76 175//76
f 211//99 253//99 254//99
f 255//100 256//100 257//100
f 7//101 6//101 177//101
f 7//101 177//101 176//101
f 256//102 140//102 139//102
f 256//102 139//102 257//102
f 6//2 11//2 9//2
f 154//103 177//103 6//103
f 154//103 6//103 134//103
f 252//2 254//2 255//2
f 255//2 257//2 252//2
f 250//2 252//2 257//2
f 257//2 139//2 250//2
f 250//2 139//2 235//2
f 258//2 146//2 259//2
f 260//2 146//2 258//2
f 261//2 259//2 146//2
f 230//2 146//2 260//2
f 146//2 144//2 261//2
f 134//2 9//2 133//2
f 139//2 138//2 235//2
f 215//2 235//2 138//2
f 261//104 185//104 184//104
f 261//104 184//104 259//104
f 144//2 133//2 9//2
f 261//2 144//2 9//2
f 134//2 6//2 9//2
f 162//7 100//7 249//7
f 258//105 259//105 184//105
f 258//105 184//105 192//105
f 248//7 249//7 100//7
f 261//106 9//106 186//106
f 261//106 186//106 185//106
f 100//7 125//7 248//7
f 201//7 68//7 232//7
f 196//7 68//7 201//7
f 79//28 76//28 82//28
f 44//2 42//2 262//2
f 263//2 262//2 142//2
f 142//2 262//2 42//2
f 142//2 254//2 263//2
f 10//2 63//2 8//2
f 33//2 10//2 9//2
f 262//46 126//46 44//46
f 221//2 76//2 71//2
f 79//2 74//2 76//2
f 263//107 264//107 126//107
f 263//107 126//107 262//107
f 82//108 76//108 225//108
f 221//108 225//108 76//108
f 63//80 10//80 74//80
f 186//109 9//109 8//109
f 186//109 8//109 182//109
f 126//2 264//2 265//2
f 126//2 265//2 127//2
f 98//2 95//2 84//2
f 266//2 84//2 82//2
f 82//2 225//2 266//2
f 229//2 266//2 225//2
f 182//110 8//110 267//110
f 251//2 245//2 264//2
f 260//111 258//111 192//111
f 260//111 192//111 194//111
f 232//108 203//108 266//108
f 232//108 266//108 229//108
f 265//2 264//2 245//2
f 84//112 202//112 68//112
f 84//112 68//112 98//112
f 265//113 268//113 137//113
f 265//113 137//113 127//113
f 203//114 202//114 84//114
f 203//114 84//114 266//114
f 242//115 205//115 213//115
f 20//115 213//115 205//115
f 125//91 268//91 265//91
f 125//91 265//91 245//91
f 93//96 243//96 112//96
f 232//7 68//7 203//7
f 42//48 143//48 142//48
f 256//2 209//2 140//2
f 209//2 129//2 140//2
f 98//34 68//34 195//34
f 254//116 142//116 211//116
f 141//116 211//116 142//116
f 195//7 68//7 125//7
f 253//2 210//2 256//2
f 211//2 210//2 253//2
f 219//2 212//2 141//2
f 143//2 219//2 141//2
f 211//2 141//2 212//2
f 209//2 256//2 210//2
f 252//2 263//2 254//2
f 24//2 29//2 269//2
f 25//2 24//2 270//2
f 25//2 270//2 57//2
f 264//117 263//117 251//117
f 252//117 251//117 263//117
f 140//47 204//47 138//47
f 60//2 267//2 63//2
f 268//7 68//7 137//7
f 125//7 68//7 268//7
f 255//99 254//99 253//99
f 37//46 44//46 126//46
f 253//100 256//100 255//100
f 8//2 63//2 267//2
f 117//42 118//42 99//42
f 267//110 183//110 182//110
f 112//118 243//118 115//118
f 60//2 57//2 267//2
f 270//2 267//2 57//2
f 30//5 115//5 28//5
f 267//119 270//119 190//119
f 267//119 190//119 183//119
f 230//120 260//120 194//120
f 230//120 194//120 157//120
f 112//2 115//2 110//2
f 113//2 112//2 110//2
f 30//2 109//2 115//2
f 269//2 270//2 24//2
f 269//121 191//121 190//121
f 269//121 190//121 270//121
f 110//122 224//122 218//122
f 110//122 218//122 113//122
f 230//81 157//81 155//81
f 110//37 106//37 224//37
f 269//2 29//2 271//2
f 28//2 271//2 29//2
f 28//118 115//118 243//118
f 218//2 224//2 117//2
f 269//123 271//123 193//123
f 269//123 193//123 191//123
f 271//2 28//2 272//2
f 28//2 243//2 272//2
f 271//124 272//124 199//124
f 271//124 199//124 193//124
f 224//2 106//2 223//2
f 272//2 243//2 244//2
f 272//125 244//125 198//125
f 272//125 198//125 199//125
f 105//2 223//2 106//2
f 244//2 241//2 240//2
f 244//126 240//126 200//126
f 244//126 200//126 198//126
f 124//37 223//37 108//37
f 105//37 108//37 223//37
f 240//127 236//127 200//127
f 197//127 200//127 236//127
f 117//128 223//128 118//128
f 124//128 118//128 223//128
f 108//7 125//7 124//7
f 170//7 125//7 108//7
