# Blender v2.82 (sub 7) OBJ File: ''
# www.blender.org
mtllib brick.mtl
o Harbor_Brick
v -4.619000 1.447000 -1.912999
v -4.904000 1.447000 -0.974999
v -4.179000 1.447000 -1.801000
v -5.000000 1.447000 0.000000
v -4.904000 1.447000 0.975000
v -4.619000 1.447000 1.913000
v -4.243000 0.000000 -4.243000
v -4.989000 0.000000 -3.332999
v -4.989000 0.547000 -3.332999
v -4.243000 0.547000 -4.243000
v -3.889000 0.547000 -3.889000
v -4.573000 0.547000 -3.056000
v -4.619000 0.997000 -1.912999
v -4.157000 0.997000 -2.778000
v -5.081000 0.997000 -2.105000
v -4.573000 0.997000 -3.056000
v 0.933000 5.897000 -3.370999
v 0.933000 3.598000 -3.370999
v -1.910000 5.897000 -2.999000
v 2.105000 0.997000 5.081000
v 1.913000 0.997000 4.619000
v 1.073000 0.997000 5.394001
v 2.105000 0.547000 5.081000
v 3.056000 0.997000 4.573000
v 3.056000 0.547000 4.573000
v -1.910000 3.598000 -2.999000
v 3.333000 0.547000 4.989000
v 2.296000 0.547000 5.543000
v 1.171000 0.547000 5.885000
v 2.296000 0.000000 5.543000
v 3.333000 0.000000 4.989000
v 1.171000 0.000000 5.885000
v 0.975000 0.997000 4.904000
v 0.975000 1.447000 4.904000
v 0.000000 1.447000 5.000000
v 0.000000 0.997000 5.000000
v -0.975000 1.447000 4.904000
v 1.913000 1.447000 4.619000
v -1.115000 5.897000 3.451000
v 0.000000 0.997000 5.500000
v -1.115000 3.598000 3.451000
v 1.073000 0.547000 5.394001
v 0.000000 0.547000 5.500000
v 0.000000 0.547000 6.000000
v 1.728000 3.598000 3.078000
v 1.728000 5.897000 3.078000
v 0.000000 0.000000 6.000000
v -0.975000 0.997000 4.904000
v -1.913000 1.447000 4.619000
v -1.073000 0.997000 5.394001
v -1.913000 0.997000 4.619000
v -1.073000 0.547000 5.394001
v -1.171000 0.547000 5.885000
v -2.105000 0.547000 5.081000
v -1.171000 0.000000 5.885000
v -1.249000 1.447000 -2.415999
v 1.534000 3.596000 3.415000
v -1.249000 3.596000 -2.415999
v 4.105000 3.596000 2.107000
v 1.321000 3.596000 -3.723999
v 3.889000 0.547000 3.889000
v 4.243000 0.547000 4.243000
v 4.573000 0.547000 3.056001
v 2.778000 1.447000 4.157001
v 2.778000 0.997000 4.157001
v -1.609000 3.596000 -3.108999
v -4.179000 3.596000 -1.801000
v 1.174000 3.596000 2.722000
v 5.543000 0.000000 -2.296000
v 4.989000 0.547000 -3.332999
v 4.243000 0.000000 -4.243000
v 4.243000 0.547000 -4.243000
v -5.885000 0.547000 1.171000
v -5.885000 0.000000 1.171000
v -5.543000 0.000000 2.296000
v -5.543000 0.547000 2.296000
v -5.081000 0.547000 -2.105000
v -4.573000 0.997000 3.056001
v -5.081000 0.547000 2.105000
v -4.573000 0.547000 3.056001
v -4.989000 0.547000 3.333000
v -4.989000 0.000000 3.333000
v -5.543000 0.547000 -2.296000
v -5.543000 0.000000 -2.296000
v -2.778000 1.447000 4.157001
v -2.778000 0.997000 4.157001
v -3.333000 0.000000 -4.989000
v 2.296000 0.000000 -5.542999
v -3.536000 0.997000 3.536000
v -3.056000 0.997000 4.573000
v -5.000000 0.997000 0.000000
v -4.904000 0.997000 -0.974999
v -5.500000 0.997000 0.000000
v -5.394000 0.997000 -1.073000
v -5.394000 0.547000 -1.073000
v -5.500000 0.547000 0.000000
v -2.105000 0.997000 5.081000
v -5.394000 0.547000 1.073000
v -6.000000 0.547000 0.000000
v -5.885000 0.547000 -1.171000
v -2.296000 0.547000 5.543000
v -5.885000 0.000000 -1.171000
v -6.000000 0.000000 0.000000
v -2.296000 0.000000 5.543000
v -3.056000 0.547000 4.573000
v -4.243000 0.547000 4.243000
v -3.333000 0.547000 4.989000
v -3.333000 0.000000 4.989000
v -4.243000 0.000000 4.243000
v -3.889000 0.547000 3.889000
v -3.889000 0.997000 3.889000
v -3.333000 0.547000 -4.989000
v -2.105000 0.547000 -5.080999
v -2.296000 0.547000 -5.542999
v -2.296000 0.000000 -5.542999
v -4.904000 0.997000 0.975000
v -4.619000 0.997000 1.913000
v -4.157000 0.997000 2.778001
v -5.081000 0.997000 2.105000
v -5.394000 0.997000 1.073000
v -3.889000 0.997000 -3.889000
v -3.056000 0.997000 -4.573000
v -3.056000 0.547000 -4.573000
v -1.913000 0.997000 -4.618999
v -2.105000 0.997000 -5.080999
v -2.778000 0.997000 -4.157000
v 1.913000 0.997000 -4.618999
v 2.778000 0.997000 -4.157000
v 2.105000 0.997000 -5.080999
v 3.056000 0.997000 -4.573000
v 3.536000 0.997000 -3.535999
v 1.073000 0.547000 -5.393999
v 2.105000 0.547000 -5.080999
v 3.056000 0.547000 -4.573000
v 3.889000 0.547000 -3.889000
v 3.889000 0.997000 -3.889000
v 0.975000 1.447000 -4.903999
v 1.913000 1.447000 -4.618999
v 2.296000 0.547000 -5.542999
v 1.171000 0.547000 -5.885000
v 3.333000 0.547000 -4.989000
v 3.333000 0.000000 -4.989000
v 0.000000 1.447000 -5.000000
v -0.975000 1.447000 -4.903999
v -1.609000 1.447000 -3.108999
v 1.321000 1.447000 -3.723999
v 0.975000 0.997000 -4.903999
v 0.000000 0.997000 -5.000000
v 0.000000 0.997000 -5.500000
v -0.975000 0.997000 -4.903999
v 1.073000 0.997000 -5.393999
v 0.000000 0.547000 -6.000000
v 1.171000 0.000000 -5.885000
v 0.000000 0.000000 -6.000000
v 0.000000 0.547000 -5.500000
v 1.174000 1.447000 2.722000
v -1.171000 0.547000 -5.885000
v -1.171000 0.000000 -5.885000
v 3.536000 1.447000 3.536000
v 1.534000 1.447000 3.415000
v -1.073000 0.997000 -5.393999
v -1.073000 0.547000 -5.393999
v 4.105000 1.447000 2.107000
v 4.157000 1.447000 2.778001
v 4.904000 1.447000 0.975000
v 4.619000 1.447000 1.913000
v 6.000000 0.547000 0.000000
v 6.000000 0.000000 0.000000
v 5.885000 0.000000 -1.171000
v 5.885000 0.547000 -1.171000
v 5.394000 0.997000 1.073000
v 5.500000 0.997000 0.000000
v 4.904000 0.997000 0.975000
v 5.000000 1.447000 0.000000
v 5.000000 0.997000 0.000000
v 4.619000 0.997000 1.913000
v 4.157000 0.997000 2.778001
v -1.396000 1.447000 4.030001
v 5.081000 0.997000 2.105000
v -1.396000 3.596000 4.030001
v 4.573000 0.997000 3.056001
v 2.778000 1.447000 -4.157000
v 3.536000 1.447000 -3.535999
v 5.543000 0.547000 2.296000
v 5.885000 0.547000 1.171000
v 5.081000 0.547000 2.105000
v 5.543000 0.000000 2.296000
v 5.885000 0.000000 1.171000
v 4.157000 1.447000 -2.778000
v 4.157000 0.997000 -2.778000
v 4.989000 0.000000 3.333000
v 5.394000 0.547000 1.073000
v 5.500000 0.547000 0.000000
v 4.904000 1.447000 -0.974999
v 4.619000 1.447000 -1.912999
v 4.989000 0.547000 3.333000
v 4.904000 0.997000 -0.974999
v 4.243000 0.000000 4.243000
v 3.889000 0.997000 3.889000
v 4.619000 0.997000 -1.912999
v -4.157000 1.447000 -2.778000
v -3.536000 0.997000 -3.535999
v 3.536000 0.997000 3.536000
v -3.536000 1.447000 3.536000
v -4.157000 1.447000 2.778001
v -1.913000 1.447000 -4.618999
v -2.778000 1.447000 -4.157000
v 4.573000 0.997000 -3.056000
v 5.081000 0.997000 -2.105000
v 5.394000 0.997000 -1.073000
v 5.081000 0.547000 -2.105000
v 4.573000 0.547000 -3.056000
v 5.543000 0.547000 -2.296000
v 4.989000 0.000000 -3.332999
v 5.394000 0.547000 -1.073000
v -3.536000 1.447000 -3.535999
vn 0.0000 1.0000 0.0000
vn -0.7734 0.0000 -0.6340
vn -0.9568 0.0000 -0.2907
vn -0.8821 0.0000 -0.4711
vn -0.1297 0.0000 -0.9915
vn 0.2902 0.0000 0.9570
vn 0.4712 0.0000 0.8820
vn 0.2909 0.0000 0.9568
vn 0.0980 0.0000 0.9952
vn -0.0980 0.0000 0.9952
vn 0.2907 0.0000 0.9568
vn -0.9925 0.0000 0.1223
vn 0.0983 0.0000 0.9952
vn 0.1301 0.0000 0.9915
vn 0.0977 0.0000 0.9952
vn -0.2907 0.0000 0.9568
vn -0.0983 0.0000 0.9952
vn -0.0977 0.0000 0.9952
vn -0.9025 0.0000 0.4307
vn 0.4711 0.0000 0.8821
vn 0.0000 -1.0000 0.0000
vn 0.7734 0.0000 -0.6340
vn -0.9568 0.0000 0.2909
vn -0.8820 0.0000 -0.4712
vn -0.8820 0.0000 0.4712
vn -0.4711 0.0000 0.8821
vn -0.9952 0.0000 -0.0980
vn -0.9952 0.0000 0.0980
vn -0.9952 0.0000 -0.0983
vn -0.9570 0.0000 -0.2902
vn -0.2902 0.0000 0.9570
vn -0.9952 0.0000 -0.0977
vn -0.9568 0.0000 -0.2909
vn -0.2909 0.0000 0.9568
vn -0.9952 0.0000 0.0977
vn -0.4712 0.0000 0.8820
vn -0.6340 0.0000 0.7734
vn -0.7728 0.0000 0.6346
vn -0.7734 0.0000 0.6340
vn -0.4712 0.0000 -0.8820
vn -0.9568 0.0000 0.2907
vn -0.6346 0.0000 -0.7728
vn -0.9570 0.0000 0.2902
vn -0.9952 0.0000 0.0983
vn -0.6340 0.0000 -0.7734
vn 0.2902 0.0000 -0.9570
vn 0.4712 0.0000 -0.8820
vn 0.6346 0.0000 -0.7728
vn 0.2907 0.0000 -0.9568
vn 0.6340 0.0000 -0.7734
vn 0.0980 0.0000 -0.9952
vn 0.0977 0.0000 -0.9952
vn 0.2909 0.0000 -0.9568
vn 0.9925 0.0000 -0.1223
vn -0.0980 0.0000 -0.9952
vn -0.4536 0.0000 -0.8912
vn 0.0983 0.0000 -0.9952
vn 0.9025 0.0000 -0.4307
vn -0.0977 0.0000 -0.9952
vn -0.2902 0.0000 -0.9570
vn 0.6337 0.0000 0.7735
vn -0.2909 0.0000 -0.9568
vn 0.9952 0.0000 -0.0977
vn 0.4534 0.0000 0.8913
vn 0.9952 0.0000 0.0980
vn 0.8821 0.0000 0.4711
vn 0.4536 0.0000 0.8912
vn 0.9568 0.0000 0.2909
vn 0.7735 0.0000 -0.6337
vn 0.6337 0.0000 -0.7735
vn 0.8820 0.0000 0.4712
vn 0.9024 0.0000 -0.4309
vn 0.9570 0.0000 0.2902
vn 0.9952 0.0000 0.0977
vn 0.9568 0.0000 -0.2907
vn 0.9952 0.0000 -0.0980
vn 0.9568 0.0000 0.2907
vn 0.7728 0.0000 0.6346
vn 0.8821 0.0000 -0.4711
vn -0.7735 0.0000 -0.6337
vn 0.7735 0.0000 0.6337
vn 0.6346 0.0000 0.7728
vn -0.7728 0.0000 -0.6346
vn -0.6337 0.0000 0.7735
vn -0.7735 0.0000 0.6337
vn -0.8821 0.0000 0.4711
vn -0.6346 0.0000 0.7728
vn 0.4711 0.0000 -0.8821
vn -0.2907 0.0000 -0.9568
vn -0.0983 0.0000 -0.9952
vn 0.8820 0.0000 -0.4712
vn 0.9568 0.0000 -0.2909
vn 0.7728 0.0000 -0.6346
vn 0.9570 0.0000 -0.2902
vn 0.9952 0.0000 -0.0983
vn 0.9952 0.0000 0.0983
vn -0.4711 0.0000 -0.8821
vn -0.6337 0.0000 -0.7735
vn 0.7734 0.0000 0.6340
vn 0.6340 0.0000 0.7734
usemtl None
s off
f 1//1 2//1 3//1
f 4//1 3//1 2//1
f 5//1 3//1 4//1
f 6//1 3//1 5//1
f 7//2 8//2 9//2
f 7//2 9//2 10//2
f 11//1 10//1 12//1
f 2//3 1//3 13//3
f 1//4 14//4 13//4
f 13//1 14//1 15//1
f 16//1 15//1 14//1
f 17//5 18//5 19//5
f 20//1 21//1 22//1
f 22//6 23//6 20//6
f 24//7 20//7 23//7
f 24//7 23//7 25//7
f 26//5 19//5 18//5
f 25//1 23//1 27//1
f 28//1 27//1 23//1
f 29//1 28//1 23//1
f 28//7 30//7 31//7
f 28//7 31//7 27//7
f 29//8 32//8 30//8
f 29//8 30//8 28//8
f 33//9 34//9 35//9
f 33//9 35//9 36//9
f 35//10 37//10 36//10
f 33//11 21//11 34//11
f 38//11 34//11 21//11
f 39//12 19//12 26//12
f 36//1 40//1 33//1
f 40//1 22//1 33//1
f 21//1 33//1 22//1
f 26//12 41//12 39//12
f 23//6 22//6 42//6
f 40//13 43//13 42//13
f 40//13 42//13 22//13
f 44//1 29//1 42//1
f 23//1 42//1 29//1
f 42//1 43//1 44//1
f 39//14 45//14 46//14
f 44//15 47//15 32//15
f 44//15 32//15 29//15
f 41//14 45//14 39//14
f 37//10 48//10 36//10
f 37//16 49//16 48//16
f 50//1 40//1 48//1
f 36//1 48//1 40//1
f 48//1 51//1 50//1
f 43//17 40//17 50//17
f 43//17 50//17 52//17
f 53//1 44//1 52//1
f 43//1 52//1 44//1
f 52//1 54//1 53//1
f 47//18 53//18 55//18
f 44//18 53//18 47//18
f 56//19 57//19 58//19
f 57//1 59//1 58//1
f 60//1 58//1 59//1
f 61//1 62//1 63//1
f 64//20 21//20 65//20
f 66//1 67//1 68//1
f 21//1 20//1 65//1
f 55//21 69//21 47//21
f 70//22 71//22 72//22
f 73//23 74//23 75//23
f 73//23 75//23 76//23
f 16//24 12//24 77//24
f 16//24 77//24 15//24
f 78//25 79//25 80//25
f 80//1 79//1 81//1
f 76//1 81//1 79//1
f 75//25 82//25 81//25
f 75//25 81//25 76//25
f 83//1 77//1 9//1
f 77//1 12//1 9//1
f 9//24 8//24 84//24
f 9//24 84//24 83//24
f 85//26 86//26 51//26
f 7//21 87//21 8//21
f 8//21 88//21 84//21
f 86//1 89//1 90//1
f 91//27 4//27 2//27
f 91//27 2//27 92//27
f 13//3 92//3 2//3
f 5//28 4//28 91//28
f 91//1 92//1 93//1
f 94//1 93//1 92//1
f 92//1 13//1 94//1
f 15//1 94//1 13//1
f 48//16 49//16 51//16
f 94//29 95//29 96//29
f 94//29 96//29 93//29
f 49//26 85//26 51//26
f 15//30 77//30 95//30
f 15//30 95//30 94//30
f 97//1 50//1 51//1
f 90//1 97//1 86//1
f 98//1 96//1 99//1
f 73//1 98//1 99//1
f 96//1 95//1 99//1
f 100//1 99//1 95//1
f 95//1 77//1 100//1
f 97//31 54//31 50//31
f 52//31 50//31 54//31
f 83//1 100//1 77//1
f 101//1 53//1 54//1
f 100//32 102//32 103//32
f 100//32 103//32 99//32
f 84//33 102//33 100//33
f 84//33 100//33 83//33
f 53//34 101//34 55//34
f 104//34 55//34 101//34
f 99//35 103//35 74//35
f 99//35 74//35 73//35
f 104//21 69//21 55//21
f 97//36 90//36 105//36
f 97//36 105//36 54//36
f 84//21 88//21 102//21
f 103//21 102//21 88//21
f 51//1 86//1 97//1
f 106//1 107//1 105//1
f 54//1 105//1 107//1
f 54//1 107//1 101//1
f 107//36 108//36 104//36
f 107//36 104//36 101//36
f 108//37 107//37 109//37
f 106//37 109//37 107//37
f 82//21 69//21 109//21
f 110//38 111//38 80//38
f 78//38 80//38 111//38
f 81//1 106//1 80//1
f 112//1 113//1 114//1
f 106//39 81//39 109//39
f 82//39 109//39 81//39
f 114//40 115//40 112//40
f 75//21 69//21 82//21
f 6//41 5//41 116//41
f 6//41 116//41 117//41
f 5//28 91//28 116//28
f 78//1 118//1 119//1
f 120//1 119//1 117//1
f 117//1 116//1 120//1
f 91//1 93//1 116//1
f 115//40 87//40 112//40
f 120//1 116//1 93//1
f 119//25 79//25 78//25
f 121//42 122//42 123//42
f 121//42 123//42 11//42
f 120//43 98//43 79//43
f 120//43 79//43 119//43
f 124//1 125//1 126//1
f 125//1 122//1 126//1
f 98//44 120//44 96//44
f 93//44 96//44 120//44
f 123//40 122//40 113//40
f 125//40 113//40 122//40
f 79//1 98//1 73//1
f 79//1 73//1 76//1
f 11//1 123//1 10//1
f 112//1 10//1 123//1
f 123//1 113//1 112//1
f 127//1 128//1 129//1
f 87//45 7//45 10//45
f 87//45 10//45 112//45
f 130//1 129//1 128//1
f 128//1 131//1 130//1
f 115//21 8//21 87//21
f 132//46 129//46 133//46
f 130//47 134//47 133//47
f 130//47 133//47 129//47
f 134//48 130//48 135//48
f 136//48 135//48 130//48
f 137//49 138//49 127//49
f 139//1 140//1 133//1
f 141//1 139//1 133//1
f 133//1 134//1 141//1
f 135//1 72//1 134//1
f 141//1 134//1 72//1
f 141//50 72//50 142//50
f 71//50 142//50 72//50
f 143//1 144//1 145//1
f 143//1 145//1 146//1
f 142//47 88//47 139//47
f 142//47 139//47 141//47
f 147//51 148//51 137//51
f 143//51 137//51 148//51
f 45//21 26//21 18//21
f 137//49 127//49 147//49
f 148//1 147//1 149//1
f 150//1 148//1 149//1
f 151//1 149//1 147//1
f 147//1 127//1 151//1
f 129//1 151//1 127//1
f 41//21 26//21 45//21
f 152//52 140//52 153//52
f 152//52 153//52 154//52
f 46//1 17//1 19//1
f 46//1 19//1 39//1
f 88//53 153//53 140//53
f 88//53 140//53 139//53
f 18//54 17//54 45//54
f 46//54 45//54 17//54
f 155//1 132//1 152//1
f 150//55 144//55 148//55
f 56//56 58//56 60//56
f 146//56 56//56 60//56
f 132//46 151//46 129//46
f 156//1 56//1 145//1
f 149//57 151//57 132//57
f 149//57 132//57 155//57
f 140//1 152//1 132//1
f 132//1 133//1 140//1
f 66//58 68//58 145//58
f 88//21 8//21 153//21
f 145//56 3//56 66//56
f 157//59 152//59 158//59
f 154//59 158//59 152//59
f 64//1 159//1 160//1
f 161//60 162//60 125//60
f 113//60 125//60 162//60
f 65//61 159//61 64//61
f 162//1 157//1 113//1
f 114//1 113//1 157//1
f 162//1 152//1 157//1
f 158//62 115//62 114//62
f 158//62 114//62 157//62
f 163//1 160//1 164//1
f 165//1 146//1 166//1
f 167//63 168//63 169//63
f 167//63 169//63 170//63
f 56//1 156//1 160//1
f 160//19 57//19 56//19
f 171//1 172//1 173//1
f 159//1 164//1 160//1
f 166//1 163//1 164//1
f 160//64 163//64 57//64
f 59//64 57//64 163//64
f 174//65 173//65 175//65
f 156//58 145//58 68//58
f 176//66 166//66 177//66
f 156//1 178//1 160//1
f 173//1 176//1 171//1
f 179//1 171//1 176//1
f 176//1 177//1 179//1
f 180//67 178//67 68//67
f 178//67 156//67 68//67
f 181//1 179//1 177//1
f 182//1 146//1 183//1
f 184//1 185//1 186//1
f 184//68 187//68 188//68
f 184//68 188//68 185//68
f 189//69 190//69 183//69
f 191//21 47//21 187//21
f 183//70 131//70 128//70
f 181//71 186//71 179//71
f 163//72 146//72 60//72
f 171//73 179//73 186//73
f 171//73 186//73 192//73
f 193//1 192//1 167//1
f 185//1 167//1 192//1
f 194//1 146//1 174//1
f 185//1 192//1 186//1
f 168//74 167//74 188//74
f 185//74 188//74 167//74
f 195//1 146//1 194//1
f 174//1 146//1 165//1
f 168//21 188//21 47//21
f 187//21 47//21 188//21
f 184//1 186//1 196//1
f 186//1 63//1 196//1
f 187//71 184//71 191//71
f 196//71 191//71 184//71
f 197//75 195//75 194//75
f 198//21 47//21 191//21
f 194//76 174//76 175//76
f 194//76 175//76 197//76
f 181//71 63//71 186//71
f 177//66 166//66 164//66
f 174//65 165//65 173//65
f 166//77 176//77 173//77
f 165//77 166//77 173//77
f 60//72 59//72 163//72
f 183//1 146//1 189//1
f 189//1 146//1 195//1
f 199//78 61//78 63//78
f 199//78 63//78 181//78
f 190//79 195//79 200//79
f 169//21 168//21 47//21
f 201//80 202//80 14//80
f 203//81 177//81 159//81
f 177//81 164//81 159//81
f 159//61 65//61 203//61
f 65//1 24//1 203//1
f 177//1 203//1 181//1
f 199//1 181//1 203//1
f 121//1 16//1 202//1
f 14//1 202//1 16//1
f 199//1 203//1 24//1
f 121//1 202//1 122//1
f 126//1 122//1 202//1
f 199//82 25//82 61//82
f 12//83 16//83 11//83
f 121//83 11//83 16//83
f 25//1 27//1 62//1
f 61//1 25//1 62//1
f 9//1 12//1 10//1
f 169//21 47//21 69//21
f 74//21 103//21 88//21
f 104//21 108//21 69//21
f 75//21 74//21 88//21
f 88//21 142//21 75//21
f 142//21 71//21 75//21
f 86//84 85//84 89//84
f 89//85 204//85 118//85
f 118//86 205//86 117//86
f 144//1 206//1 145//1
f 56//1 146//1 145//1
f 90//1 89//1 111//1
f 118//1 78//1 89//1
f 138//1 137//1 146//1
f 143//1 146//1 137//1
f 111//1 89//1 78//1
f 117//1 119//1 118//1
f 182//1 138//1 146//1
f 105//87 90//87 110//87
f 111//87 110//87 90//87
f 163//1 166//1 146//1
f 106//1 105//1 110//1
f 110//1 80//1 106//1
f 138//88 182//88 128//88
f 138//88 128//88 127//88
f 108//21 109//21 69//21
f 182//70 183//70 128//70
f 206//1 207//1 145//1
f 153//21 8//21 154//21
f 144//89 150//89 206//89
f 124//89 206//89 150//89
f 143//55 148//55 144//55
f 150//1 161//1 124//1
f 125//1 124//1 161//1
f 149//1 161//1 150//1
f 161//90 149//90 162//90
f 155//90 162//90 149//90
f 162//1 155//1 152//1
f 158//21 8//21 115//21
f 154//21 8//21 158//21
f 208//1 190//1 209//1
f 197//1 210//1 200//1
f 209//91 211//91 212//91
f 209//91 212//91 208//91
f 212//1 211//1 70//1
f 72//1 212//1 70//1
f 213//1 70//1 211//1
f 170//1 213//1 211//1
f 71//22 70//22 214//22
f 170//92 169//92 69//92
f 170//92 69//92 213//92
f 70//91 213//91 69//91
f 70//91 69//91 214//91
f 69//21 75//21 214//21
f 200//75 195//75 197//75
f 131//69 183//69 190//69
f 189//79 195//79 190//79
f 190//1 208//1 131//1
f 130//1 131//1 136//1
f 208//1 136//1 131//1
f 200//1 209//1 190//1
f 136//93 208//93 135//93
f 212//93 135//93 208//93
f 135//1 212//1 72//1
f 71//21 214//21 75//21
f 209//1 200//1 210//1
f 172//1 210//1 197//1
f 197//1 175//1 172//1
f 175//1 173//1 172//1
f 211//94 209//94 215//94
f 210//94 215//94 209//94
f 172//95 193//95 215//95
f 172//95 215//95 210//95
f 171//96 192//96 193//96
f 171//96 193//96 172//96
f 170//1 215//1 167//1
f 211//1 215//1 170//1
f 215//1 193//1 167//1
f 207//1 216//1 145//1
f 3//1 145//1 201//1
f 1//1 3//1 201//1
f 216//1 201//1 145//1
f 207//97 206//97 126//97
f 124//97 126//97 206//97
f 14//4 1//4 201//4
f 202//80 201//80 216//80
f 126//98 202//98 207//98
f 216//98 207//98 202//98
f 67//56 66//56 3//56
f 3//1 6//1 205//1
f 6//86 117//86 205//86
f 3//19 178//19 67//19
f 180//1 68//1 67//1
f 205//1 204//1 3//1
f 178//1 3//1 204//1
f 178//1 204//1 85//1
f 204//84 89//84 85//84
f 205//85 118//85 204//85
f 180//19 67//19 178//19
f 178//1 35//1 160//1
f 64//1 160//1 38//1
f 38//1 160//1 34//1
f 34//1 160//1 35//1
f 37//1 35//1 178//1
f 85//1 49//1 178//1
f 37//1 178//1 49//1
f 196//1 63//1 62//1
f 196//99 62//99 191//99
f 198//99 191//99 62//99
f 30//21 47//21 31//21
f 64//20 38//20 21//20
f 24//1 65//1 20//1
f 24//82 25//82 199//82
f 30//21 32//21 47//21
f 31//100 198//100 27//100
f 62//100 27//100 198//100
f 198//21 31//21 47//21
