# Blender v2.82 (sub 7) OBJ File: ''
# www.blender.org
mtllib 2abbey-1.mtl
o Abbey_1
v 8.835000 3.000000 -2.458000
v 8.835000 0.000000 -2.458000
v 8.874000 0.000000 -3.225000
v 8.874000 3.000000 -3.225000
v -6.087000 3.000000 -2.458000
v -6.087000 0.000000 -2.458000
v -5.974000 0.000000 -1.714000
v -5.974000 3.000000 -1.714000
v -4.380000 4.500000 1.730000
v -4.840000 4.500000 1.753000
v -4.281000 4.500000 3.178000
v 7.593000 3.000000 -7.418000
v 8.285000 3.000000 -6.144000
v 8.285000 0.000000 -6.144000
v 7.593000 0.000000 -7.418000
v -6.087000 0.000000 -3.991000
v -6.126000 0.000000 -3.225000
v -6.126000 3.000000 -3.225000
v -6.087000 3.000000 -3.991000
v -8.857000 0.000000 6.689000
v -8.789000 0.000000 7.136000
v -8.789000 4.500000 7.136000
v -8.857000 4.500000 6.689000
v 8.722000 3.000000 -1.714000
v 8.722000 0.000000 -1.714000
v -8.527000 0.000000 4.478000
v -8.789000 0.000000 5.323000
v -8.789000 4.500000 5.323000
v -8.527000 4.500000 4.478000
v 8.722000 3.000000 -4.736000
v 8.722000 0.000000 -4.736000
v -3.920000 4.500000 1.753000
v -3.473000 4.500000 1.821000
v -3.473000 3.000000 1.821000
v -3.920000 3.000000 1.753000
v -4.840000 0.000000 1.753000
v -4.380000 0.000000 1.730000
v -4.845000 0.000000 0.968000
v -4.209130 0.000000 1.738540
v -4.845000 3.000000 0.968000
v 8.835000 3.000000 -3.991000
v 8.835000 0.000000 -3.991000
v -2.734000 3.997000 6.553000
v -2.734000 4.500000 6.553000
v -2.308000 4.500000 6.020000
v -2.308000 3.997000 6.020000
v -6.132000 4.500000 2.083000
v -5.523000 4.500000 3.392000
v -5.287000 4.500000 1.821000
v 0.028000 4.500000 5.323000
v -0.234000 4.500000 4.478000
v -2.005000 4.500000 4.954000
v -2.071000 4.500000 4.456000
v 0.096000 4.500000 5.770000
v -2.081000 4.500000 5.500000
v 0.120000 4.500000 6.230000
v -5.287000 0.000000 10.638000
v -5.287000 4.500000 10.638000
v -6.132000 4.500000 10.376000
v -6.132000 0.000000 10.376000
v -4.840000 0.000000 10.706000
v -4.840000 4.500000 10.706000
v 5.567000 0.000000 -9.444000
v 6.677000 0.000000 -8.528000
v 2.885000 0.000000 -10.573000
v 4.293000 0.000000 -10.135000
v 2.141000 0.000000 -10.686000
v 1.374000 0.000000 -10.725000
v 0.608000 0.000000 -10.686000
v 8.285000 0.000000 -0.306000
v 8.285000 3.000000 -0.306000
v -3.759000 4.500000 4.536000
v -4.986000 4.500000 5.262000
v -3.569000 4.500000 5.013000
v -8.112000 0.000000 8.745000
v -7.562000 0.000000 9.411000
v -7.562000 4.500000 9.411000
v -8.112000 4.500000 8.745000
v -2.629000 4.500000 2.083000
v -1.864000 4.500000 2.498000
v -2.629000 3.000000 2.083000
v -1.864000 3.000000 2.498000
v -6.896000 0.000000 9.961000
v -6.896000 4.500000 9.961000
v -4.729000 4.500000 4.542000
v -4.729000 3.997000 4.542000
v -4.986000 3.997000 5.262000
v 2.885000 3.000000 -10.573000
v 4.293000 3.000000 -10.135000
v 4.293000 0.000000 3.686000
v 2.885000 0.000000 4.123000
v 5.567000 0.000000 2.994000
v 6.677000 0.000000 2.078000
v 7.593000 0.000000 0.968000
v 2.141000 0.000000 4.236000
v 1.374000 0.000000 4.275000
v 0.608000 0.000000 4.236000
v -4.239000 4.500000 4.339000
v -4.239000 3.997000 4.339000
v -0.649000 4.500000 3.714000
v -2.269000 4.500000 4.008000
v 1.374000 3.000000 4.275000
v 2.141000 3.000000 4.236000
v -0.137000 0.000000 -10.573000
v -1.198000 4.500000 3.048000
v -1.198000 3.000000 3.048000
v -2.629000 0.000000 10.376000
v -2.629000 4.500000 10.376000
v -3.473000 4.500000 10.638000
v -3.473000 0.000000 10.638000
v 5.567000 3.000000 2.994000
v 6.677000 3.000000 2.078000
v -1.864000 0.000000 9.961000
v -1.864000 4.500000 9.961000
v 7.593000 3.000000 0.968000
v -6.557000 3.997000 5.125000
v -6.557000 4.500000 5.125000
v -6.509000 4.500000 8.652000
v -6.181000 3.997000 7.966000
v -6.181000 4.500000 7.966000
v -3.929000 0.000000 -8.528000
v -4.845000 0.000000 -7.418000
v -5.536000 0.000000 -6.144000
v -5.974000 0.000000 -4.736000
v -2.819000 0.000000 -9.444000
v -1.545000 0.000000 -10.135000
v 4.293000 3.000000 3.686000
v -3.920000 4.500000 10.706000
v -3.920000 0.000000 10.706000
v -0.485610 3.000000 4.014800
v -1.967000 4.500000 8.001000
v -0.649000 4.500000 8.745000
v -0.234000 4.500000 7.981000
v 2.885000 3.000000 4.123000
v -5.591000 3.997000 7.242000
v -4.380000 0.000000 10.730000
v -4.380000 4.500000 10.730000
v -3.407000 4.500000 7.135000
v -5.536000 0.000000 -0.306000
v -3.473000 0.000000 1.821000
v -4.643000 3.997000 6.399000
v -3.761000 4.500000 5.558000
v -4.643000 4.500000 6.399000
v -0.234000 0.000000 4.478000
v -0.649000 3.000000 3.714000
v -0.649000 0.000000 3.714000
v -0.137000 0.000000 4.123000
v -1.198000 0.000000 9.411000
v -1.198000 4.500000 9.411000
v -4.040000 4.500000 7.630000
v -4.416000 4.500000 8.001000
v -5.591000 4.500000 7.242000
v 0.608000 3.000000 4.236000
v -0.485610 0.000000 4.014800
v -3.407000 3.997000 7.135000
v -0.649000 0.000000 8.745000
v -2.582000 4.500000 3.640000
v -4.040000 3.997000 7.630000
v -4.416000 3.997000 8.001000
v -2.993000 3.997000 3.381000
v -2.993000 4.500000 3.381000
v -4.281000 3.997000 3.178000
v -6.509000 3.997000 8.652000
v -6.672000 4.500000 9.383000
v -6.672000 3.997000 9.383000
v -6.218000 4.500000 4.008000
v -6.218000 3.997000 4.008000
v -2.582000 3.997000 3.640000
v -1.545000 3.000000 -10.135000
v -2.819000 3.000000 -9.444000
v -0.137000 3.000000 -10.573000
v -3.929000 3.000000 -8.528000
v -4.845000 3.000000 -7.418000
v -5.536000 3.000000 -6.144000
v -5.974000 3.000000 -4.736000
v -5.536000 3.000000 -0.306000
v 0.028000 0.000000 5.323000
v -5.523000 3.997000 3.392000
v 0.028000 0.000000 7.136000
v -6.132000 0.000000 2.083000
v 0.096000 0.000000 6.689000
v 0.096000 0.000000 5.770000
v 0.120000 0.000000 6.230000
v -1.967000 3.997000 8.001000
v -4.209130 3.000000 1.738540
v -2.269000 3.997000 4.008000
v -3.759000 3.997000 4.536000
v -1.967000 3.997000 9.383000
v 0.608000 3.000000 -10.686000
v 0.028000 4.500000 7.136000
v 0.096000 4.500000 6.689000
v -1.967000 4.500000 9.383000
v -8.112000 4.500000 3.714000
v -1.198000 0.000000 3.048000
v -3.569000 3.997000 5.013000
v -3.920000 0.000000 1.753000
v -2.629000 0.000000 2.083000
v -3.761000 3.997000 5.558000
v -1.864000 0.000000 2.498000
v -2.071000 3.997000 4.456000
v -2.005000 3.997000 4.954000
v -8.857000 4.500000 5.770000
v -2.081000 3.997000 5.500000
v -0.234000 0.000000 7.981000
v -7.562000 4.500000 3.048000
v -8.857000 0.000000 5.770000
v -8.880000 0.000000 6.230000
v -8.880000 4.500000 6.230000
v -8.527000 0.000000 7.981000
v -8.527000 4.500000 7.981000
v -5.287000 0.000000 1.821000
v -6.896000 4.500000 2.498000
v -7.562000 0.000000 3.048000
v -6.896000 0.000000 2.498000
v -8.112000 0.000000 3.714000
v 1.374000 3.000000 -10.725000
v 6.677000 3.000000 -8.528000
v 5.567000 3.000000 -9.444000
v 2.141000 3.000000 -10.686000
v -0.137000 3.000000 4.123000
vn 0.9987 0.0000 0.0508
vn -0.9887 0.0000 0.1502
vn 0.0000 1.0000 0.0000
vn 0.8787 0.0000 -0.4773
vn -0.9987 0.0000 -0.0508
vn -0.9886 0.0000 0.1504
vn -0.9987 0.0000 0.0508
vn 0.9887 0.0000 0.1502
vn -0.9551 0.0000 -0.2961
vn 0.9551 0.0000 -0.2964
vn 0.1504 0.0000 -0.9886
vn -0.0499 0.0000 -0.9988
vn -0.7713 0.0000 0.6365
vn 0.9887 0.0000 -0.1500
vn -0.7812 0.0000 -0.6243
vn -0.2961 0.0000 0.9551
vn -0.2962 0.0000 0.9551
vn 0.9987 0.0000 -0.0508
vn -0.1504 0.0000 0.9886
vn 0.0000 -1.0000 0.0000
vn 0.9551 0.0000 0.2964
vn -0.7711 0.0000 0.6368
vn 0.4768 0.0000 -0.8790
vn -0.6368 0.0000 0.7711
vn -0.9418 0.0000 -0.3362
vn 0.2970 0.0000 -0.9549
vn -0.3827 0.0000 -0.9239
vn 0.0508 0.0000 0.9987
vn 0.6368 0.0000 -0.7711
vn 0.2965 0.0000 0.9550
vn 0.6365 0.0000 0.7713
vn 0.4768 0.0000 0.8790
vn 0.8787 0.0000 0.4773
vn 0.0869 0.0000 -0.9962
vn 0.7713 0.0000 0.6365
vn -0.4773 0.0000 0.8787
vn 0.9022 0.0000 0.4314
vn 0.4773 0.0000 0.8787
vn 0.1504 0.0000 0.9886
vn 0.2964 0.0000 0.9551
vn 0.7752 0.0000 0.6317
vn -0.0521 0.0000 0.9986
vn 0.0521 0.0000 0.9986
vn 0.6901 0.0000 0.7237
vn 0.1502 0.0000 0.9887
vn 0.6368 0.0000 0.7711
vn 0.7716 0.0000 0.6361
vn -0.0508 0.0000 0.9987
vn 0.6645 0.0000 0.7473
vn -0.6541 0.0000 -0.7564
vn -0.6160 0.0000 -0.7877
vn 0.2965 0.0000 -0.9550
vn -0.7024 0.0000 -0.7118
vn -0.1557 0.0000 0.9878
vn 0.9760 0.0000 0.2176
vn 0.9569 0.0000 0.2904
vn -0.5331 0.0000 0.8460
vn 0.9551 0.0000 -0.2962
vn 0.6633 0.0000 0.7484
vn 0.1698 0.0000 0.9855
vn 0.0000 0.0000 1.0000
vn -0.7617 0.0000 0.6479
vn 0.3797 0.0000 -0.9251
vn -0.9147 0.0000 0.4042
vn -0.1500 0.0000 -0.9887
vn 0.0000 0.0000 -1.0000
vn -0.9549 0.0000 -0.2970
vn 0.9290 0.0000 -0.3700
vn -0.9887 0.0000 -0.1500
vn 0.9432 0.0000 0.3323
vn -0.2970 0.0000 -0.9549
vn -0.4768 0.0000 -0.8790
vn -0.6365 0.0000 -0.7713
vn -0.7713 0.0000 -0.6365
vn -0.9549 0.0000 0.2970
vn -0.9913 0.0000 0.1314
vn -0.8790 0.0000 0.4768
vn -0.9905 0.0000 -0.1379
vn -0.8790 0.0000 -0.4768
vn -0.9165 0.0000 -0.4001
vn -0.9988 0.0000 -0.0499
vn -0.9886 0.0000 -0.1504
vn -0.9987 0.0000 0.0500
vn -0.9551 0.0000 0.2961
vn -0.8787 0.0000 0.4773
vn -1.0000 0.0000 0.0000
vn 0.9551 0.0000 0.2961
vn 0.9986 0.0000 -0.0521
vn -0.1500 0.0000 0.9887
vn 0.0508 0.0000 -0.9987
vn 0.1502 0.0000 -0.9887
vn -0.0508 0.0000 -0.9987
vn 0.9886 0.0000 0.1504
vn 0.6365 0.0000 -0.7713
vn 0.9886 0.0000 -0.1504
vn 0.7713 0.0000 -0.6365
vn 0.9986 0.0000 0.0522
vn 0.9551 0.0000 0.2962
vn -0.8787 0.0000 -0.4773
vn -0.7711 0.0000 -0.6368
vn -0.2964 0.0000 0.9551
vn -0.6368 0.0000 -0.7711
vn 0.7716 0.0000 -0.6361
vn 0.0499 0.0000 -0.9988
vn -0.4773 0.0000 -0.8787
vn -0.2962 0.0000 -0.9551
vn -0.1504 0.0000 -0.9886
usemtl None
s off
f 1//1 2//1 3//1
f 1//1 3//1 4//1
f 5//2 6//2 7//2
f 5//2 7//2 8//2
f 9//3 10//3 11//3
f 12//4 13//4 14//4
f 12//4 14//4 15//4
f 16//5 17//5 18//5
f 16//5 18//5 19//5
f 20//6 21//6 22//6
f 20//6 22//6 23//6
f 18//7 17//7 6//7
f 18//7 6//7 5//7
f 1//8 24//8 25//8
f 1//8 25//8 2//8
f 26//9 27//9 28//9
f 26//9 28//9 29//9
f 13//10 30//10 31//10
f 13//10 31//10 14//10
f 32//11 33//11 34//11
f 32//11 34//11 35//11
f 10//12 9//12 36//12
f 37//12 36//12 9//12
f 38//13 39//13 40//13
f 30//14 41//14 42//14
f 30//14 42//14 31//14
f 43//15 44//15 45//15
f 43//15 45//15 46//15
f 47//3 48//3 49//3
f 48//3 11//3 49//3
f 10//3 49//3 11//3
f 50//3 51//3 52//3
f 53//3 52//3 51//3
f 54//3 50//3 55//3
f 56//3 54//3 55//3
f 57//16 58//16 59//16
f 57//17 59//17 60//17
f 41//18 4//18 3//18
f 41//18 3//18 42//18
f 61//19 62//19 58//19
f 61//19 58//19 57//19
f 63//20 64//20 65//20
f 66//20 63//20 65//20
f 64//20 15//20 65//20
f 15//20 14//20 65//20
f 14//20 31//20 65//20
f 31//20 42//20 65//20
f 67//20 65//20 42//20
f 68//20 67//20 42//20
f 42//20 3//20 68//20
f 69//20 68//20 3//20
f 69//20 3//20 2//20
f 69//20 2//20 25//20
f 69//20 25//20 70//20
f 24//21 71//21 70//21
f 24//21 70//21 25//21
f 72//3 73//3 74//3
f 75//22 76//22 77//22
f 75//22 77//22 78//22
f 79//23 80//23 81//23
f 82//23 81//23 80//23
f 83//24 84//24 77//24
f 83//24 77//24 76//24
f 85//25 86//25 87//25
f 85//25 87//25 73//25
f 66//26 65//26 88//26
f 66//26 88//26 89//26
f 90//20 91//20 92//20
f 93//20 92//20 91//20
f 94//20 93//20 91//20
f 94//20 91//20 95//20
f 96//20 94//20 95//20
f 97//20 94//20 96//20
f 98//27 99//27 86//27
f 98//27 86//27 85//27
f 53//3 100//3 101//3
f 102//28 96//28 95//28
f 102//28 95//28 103//28
f 69//20 70//20 94//20
f 104//20 69//20 94//20
f 80//29 105//29 82//29
f 106//29 82//29 105//29
f 107//30 108//30 109//30
f 107//30 109//30 110//30
f 111//31 92//31 93//31
f 111//31 93//31 112//31
f 113//32 114//32 108//32
f 113//32 108//32 107//32
f 94//33 70//33 115//33
f 71//33 115//33 70//33
f 73//34 87//34 116//34
f 73//34 116//34 117//34
f 115//35 112//35 93//35
f 115//35 93//35 94//35
f 84//36 83//36 59//36
f 60//36 59//36 83//36
f 118//37 119//37 120//37
f 121//20 94//20 122//20
f 122//20 94//20 123//20
f 124//20 123//20 94//20
f 16//20 124//20 94//20
f 17//20 16//20 94//20
f 125//20 94//20 121//20
f 126//20 94//20 125//20
f 104//20 94//20 126//20
f 6//20 17//20 94//20
f 6//20 94//20 7//20
f 111//38 127//38 90//38
f 111//38 90//38 92//38
f 109//39 128//39 129//39
f 109//39 129//39 110//39
f 51//4 130//4 100//4
f 44//3 131//3 45//3
f 132//3 133//3 131//3
f 127//40 134//40 91//40
f 127//40 91//40 90//40
f 135//41 120//41 119//41
f 136//42 137//42 62//42
f 136//42 62//42 61//42
f 138//3 131//3 44//3
f 139//20 140//20 38//20
f 128//43 137//43 136//43
f 128//43 136//43 129//43
f 141//44 142//44 143//44
f 51//4 144//4 130//4
f 145//4 100//4 130//4
f 146//20 94//20 147//20
f 139//20 7//20 94//20
f 134//45 103//45 95//45
f 134//45 95//45 91//45
f 148//46 149//46 114//46
f 148//46 114//46 113//46
f 138//3 150//3 131//3
f 151//3 131//3 150//3
f 120//41 135//41 152//41
f 132//47 149//47 148//47
f 96//48 102//48 153//48
f 96//48 153//48 97//48
f 154//4 130//4 144//4
f 141//49 143//49 152//49
f 141//49 152//49 135//49
f 155//50 138//50 44//50
f 155//50 44//50 43//50
f 148//47 156//47 132//47
f 101//3 105//3 157//3
f 158//51 150//51 138//51
f 158//51 138//51 155//51
f 33//52 79//52 34//52
f 81//52 34//52 79//52
f 159//53 151//53 158//53
f 150//53 158//53 151//53
f 160//54 161//54 162//54
f 163//55 118//55 164//55
f 163//55 164//55 165//55
f 117//56 116//56 166//56
f 167//56 166//56 116//56
f 168//57 157//57 161//57
f 168//57 161//57 160//57
f 169//3 170//3 171//3
f 170//3 172//3 171//3
f 171//3 172//3 173//3
f 171//3 173//3 174//3
f 171//3 174//3 175//3
f 171//3 175//3 19//3
f 18//3 171//3 19//3
f 5//3 171//3 18//3
f 8//3 171//3 5//3
f 176//3 171//3 8//3
f 40//3 171//3 176//3
f 119//37 118//37 163//37
f 144//58 51//58 177//58
f 178//59 48//59 166//59
f 178//59 166//59 167//59
f 80//3 79//3 161//3
f 105//3 80//3 157//3
f 79//3 33//3 161//3
f 11//3 161//3 33//3
f 11//3 33//3 32//3
f 11//3 32//3 9//3
f 179//20 180//20 181//20
f 182//20 183//20 180//20
f 181//20 180//20 183//20
f 162//60 11//60 48//60
f 162//60 48//60 178//60
f 184//61 131//61 151//61
f 184//61 151//61 159//61
f 40//3 185//3 171//3
f 81//3 82//3 171//3
f 186//62 101//62 157//62
f 186//62 157//62 168//62
f 161//54 11//54 162//54
f 72//63 187//63 99//63
f 72//63 99//63 98//63
f 186//64 53//64 101//64
f 188//3 159//3 165//3
f 163//3 165//3 159//3
f 189//65 69//65 104//65
f 189//65 104//65 171//65
f 161//3 157//3 80//3
f 52//3 55//3 50//3
f 190//3 191//3 45//3
f 45//3 131//3 133//3
f 192//3 149//3 131//3
f 133//3 190//3 45//3
f 191//3 56//3 45//3
f 55//3 45//3 56//3
f 100//3 53//3 51//3
f 105//3 101//3 100//3
f 192//66 188//66 165//66
f 192//66 165//66 164//66
f 117//3 166//3 193//3
f 28//3 117//3 29//3
f 174//67 123//67 124//67
f 174//67 124//67 175//67
f 154//20 146//20 147//20
f 194//20 94//20 146//20
f 97//20 147//20 94//20
f 187//68 72//68 74//68
f 187//68 74//68 195//68
f 124//69 16//69 19//69
f 124//69 19//69 175//69
f 39//20 38//20 196//20
f 140//20 139//20 197//20
f 195//70 74//70 142//70
f 195//70 142//70 198//70
f 171//71 104//71 126//71
f 171//71 126//71 169//71
f 196//20 38//20 140//20
f 119//3 163//3 159//3
f 72//3 98//3 73//3
f 85//3 73//3 98//3
f 197//20 94//20 199//20
f 194//20 199//20 94//20
f 126//72 125//72 170//72
f 126//72 170//72 169//72
f 86//3 167//3 87//3
f 198//44 142//44 141//44
f 125//73 121//73 172//73
f 125//73 172//73 170//73
f 121//74 122//74 173//74
f 121//74 173//74 172//74
f 94//20 197//20 139//20
f 53//64 186//64 200//64
f 162//3 178//3 99//3
f 120//3 152//3 22//3
f 8//75 7//75 139//75
f 8//75 139//75 176//75
f 53//76 200//76 201//76
f 53//76 201//76 52//76
f 117//3 202//3 152//3
f 40//77 176//77 38//77
f 139//77 38//77 176//77
f 203//78 52//78 201//78
f 122//79 123//79 174//79
f 122//79 174//79 173//79
f 177//20 39//20 196//20
f 177//20 196//20 140//20
f 177//20 140//20 197//20
f 177//20 197//20 199//20
f 177//20 199//20 194//20
f 146//20 154//20 194//20
f 177//20 194//20 154//20
f 177//20 154//20 144//20
f 204//20 180//20 179//20
f 156//20 180//20 204//20
f 119//3 159//3 135//3
f 159//3 158//3 135//3
f 141//3 135//3 158//3
f 52//78 203//78 55//78
f 23//3 22//3 152//3
f 193//3 29//3 117//3
f 152//3 143//3 117//3
f 73//3 117//3 143//3
f 143//3 142//3 73//3
f 142//3 74//3 73//3
f 55//80 203//80 45//80
f 46//80 45//80 203//80
f 167//3 86//3 178//3
f 86//3 99//3 178//3
f 116//3 87//3 167//3
f 205//3 193//3 166//3
f 202//81 206//81 207//81
f 202//81 207//81 208//81
f 28//82 27//82 206//82
f 28//82 206//82 202//82
f 208//83 207//83 20//83
f 208//83 20//83 23//83
f 22//84 21//84 209//84
f 22//84 209//84 210//84
f 36//20 177//20 211//20
f 37//20 177//20 36//20
f 39//20 177//20 37//20
f 180//20 211//20 177//20
f 212//3 205//3 166//3
f 78//85 210//85 75//85
f 209//85 75//85 210//85
f 202//3 117//3 28//3
f 208//3 152//3 202//3
f 23//3 152//3 208//3
f 78//3 118//3 210//3
f 47//3 212//3 48//3
f 166//3 48//3 212//3
f 118//3 120//3 210//3
f 76//20 75//20 213//20
f 214//20 76//20 213//20
f 180//20 76//20 214//20
f 132//3 131//3 149//3
f 75//20 209//20 21//20
f 75//20 21//20 20//20
f 75//20 20//20 207//20
f 75//20 207//20 206//20
f 26//20 75//20 27//20
f 206//20 27//20 75//20
f 177//20 182//20 180//20
f 148//20 180//20 156//20
f 114//3 192//3 108//3
f 109//3 108//3 192//3
f 192//3 164//3 109//3
f 149//3 192//3 114//3
f 128//3 109//3 164//3
f 137//3 128//3 164//3
f 59//3 58//3 164//3
f 62//3 164//3 58//3
f 137//3 164//3 62//3
f 22//3 210//3 120//3
f 78//3 77//3 118//3
f 164//3 118//3 77//3
f 77//3 84//3 164//3
f 59//3 164//3 84//3
f 107//20 110//20 180//20
f 110//20 129//20 180//20
f 129//20 136//20 180//20
f 136//20 61//20 180//20
f 61//20 57//20 180//20
f 57//20 60//20 180//20
f 83//20 180//20 60//20
f 188//86 192//86 184//86
f 131//86 184//86 192//86
f 190//87 133//87 179//87
f 113//20 107//20 180//20
f 76//20 180//20 83//20
f 148//20 113//20 180//20
f 26//20 215//20 75//20
f 215//20 213//20 75//20
f 188//3 184//3 159//3
f 171//3 153//3 189//3
f 24//3 189//3 71//3
f 1//3 189//3 24//3
f 4//3 189//3 1//3
f 41//3 216//3 4//3
f 189//3 4//3 216//3
f 30//3 88//3 41//3
f 13//3 88//3 30//3
f 12//3 88//3 13//3
f 217//3 88//3 12//3
f 218//3 88//3 217//3
f 89//3 88//3 218//3
f 219//3 41//3 88//3
f 216//3 41//3 219//3
f 182//88 54//88 56//88
f 182//88 56//88 183//88
f 201//3 200//3 195//3
f 200//3 186//3 195//3
f 187//3 195//3 186//3
f 186//3 168//3 187//3
f 187//3 160//3 99//3
f 71//3 189//3 115//3
f 115//3 189//3 112//3
f 106//3 145//3 171//3
f 102//3 189//3 153//3
f 103//3 189//3 102//3
f 134//3 189//3 103//3
f 127//3 189//3 134//3
f 111//3 189//3 127//3
f 112//3 189//3 111//3
f 147//89 97//89 153//89
f 219//90 67//90 68//90
f 219//90 68//90 216//90
f 88//91 65//91 67//91
f 88//91 67//91 219//91
f 46//3 203//3 195//3
f 203//3 201//3 195//3
f 50//58 177//58 51//58
f 68//92 69//92 189//92
f 68//92 189//92 216//92
f 179//93 181//93 191//93
f 179//93 191//93 190//93
f 218//23 63//23 66//23
f 218//23 66//23 89//23
f 217//94 64//94 63//94
f 217//94 63//94 218//94
f 50//95 54//95 182//95
f 50//95 182//95 177//95
f 195//3 198//3 46//3
f 198//3 141//3 155//3
f 158//3 155//3 141//3
f 217//96 12//96 15//96
f 217//96 15//96 64//96
f 181//97 183//97 56//97
f 181//97 56//97 191//97
f 156//33 204//33 132//33
f 133//33 132//33 204//33
f 46//3 198//3 43//3
f 155//3 43//3 198//3
f 179//98 133//98 204//98
f 168//3 160//3 187//3
f 162//3 99//3 160//3
f 26//99 29//99 215//99
f 193//99 215//99 29//99
f 153//3 171//3 220//3
f 145//3 220//3 171//3
f 106//3 171//3 82//3
f 130//3 220//3 145//3
f 205//100 213//100 215//100
f 205//100 215//100 193//100
f 130//101 154//101 147//101
f 130//101 147//101 220//101
f 212//102 214//102 213//102
f 212//102 213//102 205//102
f 147//89 153//89 220//89
f 35//3 171//3 185//3
f 100//103 145//103 105//103
f 40//13 39//13 185//13
f 105//103 145//103 106//103
f 81//3 171//3 34//3
f 34//3 171//3 35//3
f 9//104 32//104 185//104
f 185//104 39//104 37//104
f 185//104 37//104 9//104
f 35//104 185//104 32//104
f 212//105 47//105 180//105
f 180//105 214//105 212//105
f 49//106 211//106 47//106
f 47//106 211//106 180//106
f 10//107 211//107 49//107
f 211//107 10//107 36//107
