# Blender v2.82 (sub 7) OBJ File: ''
# www.blender.org
mtllib 3library-1.mtl
o Library_1
v 4.320000 0.000000 -10.135000
v 2.912000 0.000000 -10.573000
v 2.912000 3.000000 -10.573000
v 4.320000 3.000000 -10.135000
v -5.510000 3.000000 -6.144000
v -5.510000 0.000000 -6.144000
v -5.947000 0.000000 -4.736000
v -5.947000 3.000000 -4.736000
v -6.060000 0.000000 -3.991000
v -6.060000 3.000000 -3.991000
v -0.111000 3.000000 -10.573000
v -0.111000 0.000000 -10.573000
v -1.518000 0.000000 -10.135000
v -1.518000 3.000000 -10.135000
v -2.793000 0.000000 -9.444000
v -2.793000 3.000000 -9.444000
v -5.307000 0.000000 10.625000
v -5.307000 4.500000 10.625000
v -6.152000 0.000000 10.363000
v -3.903000 0.000000 -8.528000
v -3.903000 3.000000 -8.528000
v -4.861000 0.000000 10.693000
v -4.861000 4.500000 10.693000
v -4.818000 0.000000 -7.418000
v -4.818000 3.000000 -7.418000
v -2.649000 0.000000 10.363000
v -2.649000 4.500000 10.363000
v -3.494000 4.500000 10.625000
v -3.494000 0.000000 10.625000
v -5.947000 3.000000 -1.714000
v -5.947000 0.000000 -1.714000
v -5.510000 0.000000 -0.306000
v -5.510000 3.000000 -0.306000
v -1.885000 0.000000 9.948000
v -1.885000 4.500000 9.948000
v -6.876000 3.998000 4.845000
v -5.190000 3.998000 5.122000
v -6.569000 3.998000 4.190000
v -6.060000 3.000000 -2.458000
v -6.060000 0.000000 -2.458000
v -6.099000 0.000000 -3.225000
v -6.099000 3.000000 -3.225000
v -8.877000 4.500000 5.756000
v -8.877000 0.000000 5.756000
v -8.901000 0.000000 6.216000
v -8.901000 4.500000 6.216000
v -8.809000 4.500000 5.310000
v -8.809000 0.000000 5.310000
v -8.877000 0.000000 6.676000
v -8.877000 4.500000 6.676000
v -8.809000 4.500000 7.123000
v -8.809000 0.000000 7.123000
v -8.547000 0.000000 7.968000
v -8.547000 4.500000 7.968000
v -8.547000 0.000000 4.465000
v -8.547000 4.500000 4.465000
v -6.152000 4.500000 10.363000
v -8.132000 4.500000 8.732000
v -8.132000 0.000000 8.732000
v -7.583000 0.000000 9.398000
v -7.583000 4.500000 9.398000
v -6.917000 0.000000 9.948000
v -6.917000 4.500000 9.948000
v -6.973000 3.998000 7.760000
v -6.471000 4.500000 8.676000
v -6.471000 3.998000 8.676000
v 0.099000 0.000000 6.216000
v -1.518000 0.000000 3.686000
v 0.076000 0.000000 5.756000
v 0.076000 0.000000 6.676000
v 0.008000 0.000000 7.123000
v -0.506100 0.000000 4.000290
v -0.506100 3.000000 4.000290
v -0.254000 0.000000 4.465000
v 0.008000 0.000000 5.310000
v -0.254000 0.000000 7.968000
v -0.669000 0.000000 8.732000
v -2.793000 0.000000 2.994000
v -0.111000 0.000000 4.123000
v -0.111000 3.000000 4.123000
v 1.401000 3.000000 4.275000
v 1.401000 0.000000 4.275000
v 2.167000 0.000000 4.236000
v 2.167000 3.000000 4.236000
v -8.132000 0.000000 3.700000
v -1.219000 0.000000 9.398000
v 5.594000 3.000000 2.994000
v 5.594000 0.000000 2.994000
v 6.704000 0.000000 2.078000
v 6.704000 3.000000 2.078000
v -3.941000 0.000000 10.693000
v -4.401000 0.000000 10.716000
v 0.008000 4.500000 5.310000
v -1.845000 4.500000 6.739000
v 0.076000 4.500000 5.756000
v 0.099000 4.500000 6.216000
v 0.008000 4.500000 7.123000
v 0.076000 4.500000 6.676000
v -4.818000 3.000000 0.968000
v -4.818000 0.000000 0.968000
v -4.192440 3.000000 1.726880
v -4.192440 0.000000 1.726880
v -4.401000 0.000000 1.716000
v -2.912000 4.500000 6.065000
v -2.342000 4.500000 6.262000
v -2.224000 4.500000 5.521000
v -1.996000 4.500000 4.828000
v -1.668000 4.500000 7.446000
v -3.694000 4.500000 6.898000
v -4.318000 4.500000 6.673000
v -3.464000 4.500000 7.535000
v -3.702000 4.500000 8.179000
v -3.928000 4.500000 4.494000
v -4.410000 4.500000 4.333000
v -3.753000 4.500000 4.925000
v 7.620000 3.000000 0.968000
v 7.620000 0.000000 0.968000
v 4.320000 3.000000 3.686000
v 4.320000 0.000000 3.686000
v 2.912000 3.000000 4.123000
v 2.912000 0.000000 4.123000
v -0.254000 4.500000 7.968000
v -0.254000 4.500000 4.465000
v 0.634000 0.000000 4.236000
v 0.634000 3.000000 4.236000
v -4.896000 4.500000 6.769000
v -5.190000 4.500000 7.543000
v -1.668000 3.998000 7.446000
v -1.961000 4.500000 8.435000
v -3.753000 3.998000 4.925000
v -3.928000 3.998000 4.494000
v -3.694000 3.998000 6.898000
v -3.464000 3.998000 7.535000
v -3.702000 3.998000 8.179000
v -3.987000 4.500000 5.412000
v -3.987000 3.998000 5.412000
v -4.572000 3.998000 5.618000
v -2.136000 3.998000 4.231000
v -2.557000 3.998000 3.745000
v -2.912000 3.998000 6.065000
v -2.342000 3.998000 6.262000
v -1.845000 3.998000 6.739000
v -2.224000 3.998000 5.521000
v -1.996000 3.998000 4.828000
v -4.318000 3.998000 6.673000
v -2.319000 3.998000 8.853000
v -5.190000 4.500000 5.122000
v -6.876000 4.500000 4.845000
v -4.922000 4.500000 4.508000
v -4.922000 3.998000 4.508000
v -4.410000 3.998000 4.333000
v -4.896000 3.998000 6.769000
v -4.804000 3.998000 5.598000
v -4.863000 4.500000 8.229000
v -5.190000 3.998000 7.543000
v -4.572000 4.500000 5.618000
v -4.804000 4.500000 5.598000
v -5.346000 3.998000 3.413000
v -6.068000 3.998000 3.709000
v -6.152000 0.000000 2.070000
v -6.917000 0.000000 2.485000
v -7.583000 0.000000 3.034000
v -7.583000 4.500000 3.034000
v -8.132000 4.500000 3.700000
v -6.569000 4.500000 4.190000
v -6.917000 4.500000 2.485000
v -6.068000 4.500000 3.709000
v -6.973000 4.500000 7.760000
v -5.639000 4.500000 9.230000
v -6.152000 4.500000 2.070000
v -5.307000 4.500000 1.808000
v -4.861000 4.500000 1.740000
v -4.861000 0.000000 1.740000
v -5.307000 0.000000 1.808000
v -4.401000 4.500000 1.716000
v -5.346000 4.500000 3.413000
v -2.319000 4.500000 8.853000
v -1.219000 4.500000 9.398000
v -0.669000 4.500000 8.732000
v -4.375000 3.998000 3.314000
v -4.375000 4.500000 3.314000
v -3.941000 4.500000 10.693000
v -4.257000 4.500000 9.419000
v -3.292000 3.998000 3.422000
v -4.300000 4.500000 8.421000
v -2.807000 4.500000 9.164000
v -3.445000 4.500000 9.355000
v 8.748000 3.000000 -1.714000
v 8.862000 3.000000 -2.458000
v 0.634000 3.000000 -10.686000
v 8.901000 3.000000 -3.225000
v 1.401000 3.000000 -10.725000
v 8.862000 3.000000 -3.991000
v 8.748000 3.000000 -4.736000
v 8.311000 3.000000 -6.144000
v 7.620000 3.000000 -7.418000
v 6.704000 3.000000 -8.528000
v 5.594000 3.000000 -9.444000
v 2.167000 3.000000 -10.686000
v -4.401000 4.500000 10.716000
v 8.311000 3.000000 -0.306000
v -0.669000 4.500000 3.700000
v -4.096000 3.000000 1.731910
v -3.941000 3.000000 1.740000
v -3.494000 3.000000 1.808000
v -2.649000 3.000000 2.070000
v -1.885000 3.000000 2.485000
v -1.219000 3.000000 3.034000
v -0.669000 3.000000 3.700000
v 2.167000 0.000000 -10.686000
v 1.401000 0.000000 -10.725000
v 0.634000 0.000000 -10.686000
v 5.594000 0.000000 -9.444000
v 6.704000 0.000000 -8.528000
v 7.620000 0.000000 -7.418000
v 8.862000 0.000000 -2.458000
v 8.901000 0.000000 -3.225000
v 8.311000 0.000000 -6.144000
v 8.748000 0.000000 -1.714000
v 8.748000 0.000000 -4.736000
v 8.862000 0.000000 -3.991000
v 8.311000 0.000000 -0.306000
v -2.136000 4.500000 4.231000
v -1.219000 4.500000 3.034000
v -2.557000 4.500000 3.745000
v -1.885000 4.500000 2.485000
v -2.649000 4.500000 2.070000
v -3.494000 4.500000 1.808000
v -3.292000 4.500000 3.422000
v -3.941000 4.500000 1.740000
v -1.961000 3.998000 8.435000
v -2.807000 3.998000 9.164000
v -3.445000 3.998000 9.355000
v -4.257000 3.998000 9.419000
v -5.639000 3.998000 9.230000
v -4.300000 3.998000 8.421000
v -4.863000 3.998000 8.229000
v -3.903000 0.000000 2.078000
v -4.096000 0.000000 1.843870
vn 0.2970 0.0000 -0.9549
vn -0.9551 0.0000 -0.2964
vn -0.9887 0.0000 -0.1500
vn -0.2972 0.0000 -0.9548
vn -0.4765 0.0000 -0.8792
vn -0.2962 0.0000 0.9551
vn -0.6365 0.0000 -0.7713
vn -0.1507 0.0000 0.9886
vn -0.7716 0.0000 -0.6361
vn 0.2962 0.0000 0.9551
vn -0.9551 0.0000 0.2964
vn 0.4773 0.0000 0.8787
vn 0.0000 1.0000 0.0000
vn -0.8787 0.0000 -0.4773
vn -0.9887 0.0000 0.1502
vn -0.9987 0.0000 -0.0508
vn -0.9986 0.0000 -0.0521
vn -0.9987 0.0000 0.0508
vn -0.9886 0.0000 -0.1507
vn -0.9986 0.0000 0.0521
vn -0.9551 0.0000 0.2962
vn -0.9886 0.0000 0.1504
vn -0.9551 0.0000 -0.2962
vn -0.8787 0.0000 0.4773
vn -0.7716 0.0000 0.6361
vn -0.6368 0.0000 0.7711
vn -0.4768 0.0000 0.8790
vn 0.8769 0.0000 -0.4806
vn 0.0000 -1.0000 0.0000
vn 0.8790 0.0000 -0.4768
vn -0.2966 0.0000 0.9550
vn 0.0508 0.0000 0.9987
vn 0.6365 0.0000 0.7713
vn 0.0521 0.0000 -0.9986
vn 0.7713 0.0000 0.6365
vn 0.2964 0.0000 0.9551
vn -0.1500 0.0000 0.9887
vn 0.1500 0.0000 0.9887
vn -0.0508 0.0000 0.9987
vn -0.9588 0.0000 -0.2841
vn 0.9265 0.0000 -0.3762
vn 0.3392 0.0000 -0.9407
vn 0.9406 0.0000 -0.3396
vn 0.9380 0.0000 0.3466
vn 0.9013 0.0000 0.4331
vn 0.3321 0.0000 0.9432
vn 0.1621 0.0000 -0.9868
vn -0.9165 0.0000 -0.4000
vn -0.3234 0.0000 -0.9463
vn 0.3168 0.0000 -0.9485
vn -0.1638 0.0000 -0.9865
vn 0.9969 0.0000 0.0783
vn -0.9027 0.0000 0.4303
vn -0.0859 0.0000 0.9963
vn -0.8790 0.0000 -0.4768
vn -0.6361 0.0000 -0.7716
vn -0.4768 0.0000 -0.8790
vn 0.1208 0.0000 0.9927
vn 0.9055 0.0000 0.4244
vn 0.6926 0.0000 0.7214
vn -0.1507 0.0000 -0.9886
vn -0.0521 0.0000 -0.9986
vn 0.3793 0.0000 0.9253
vn 0.1014 0.0000 0.9948
vn 0.9988 0.0000 -0.0499
vn 0.9886 0.0000 0.1504
vn 0.9886 0.0000 -0.1507
vn 0.9988 0.0000 0.0499
vn 0.8787 0.0000 0.4773
vn 0.9551 0.0000 0.2962
vn 0.9551 0.0000 -0.2962
vn -0.9736 0.0000 0.2283
vn -0.9499 0.0000 -0.3125
vn -0.3267 0.0000 0.9451
vn -0.6924 0.0000 0.7215
vn -0.6202 0.0000 -0.7844
vn -0.9701 0.0000 0.2429
vn 0.0508 0.0000 -0.9987
vn 0.1500 0.0000 -0.9887
vn -0.0508 0.0000 -0.9987
vn 0.4768 0.0000 -0.8790
vn 0.6365 0.0000 -0.7713
vn 0.7713 0.0000 -0.6365
vn 0.9987 0.0000 0.0508
vn 0.9885 0.0000 0.1515
vn 0.9551 0.0000 -0.2964
vn 0.9885 0.0000 -0.1513
vn 0.8790 0.0000 0.4768
vn 0.9987 0.0000 -0.0508
vn 0.9551 0.0000 0.2964
vn -0.1500 0.0000 -0.9887
vn 0.7711 0.0000 -0.6368
vn 0.1504 0.0000 -0.9886
vn 0.4773 0.0000 -0.8787
vn 0.6361 0.0000 -0.7716
vn 0.2962 0.0000 -0.9551
vn -0.7558 0.0000 0.6548
vn -0.0992 0.0000 0.9951
vn -0.4023 0.0000 0.9155
vn -0.2962 0.0000 -0.9551
vn 0.1504 0.0000 0.9886
vn -0.0499 0.0000 0.9988
vn 0.0499 0.0000 0.9988
vn 0.6368 0.0000 0.7711
vn 0.7711 0.0000 0.6368
vn -0.7595 0.0000 -0.6505
vn -0.5374 0.0000 -0.8433
vn -0.2868 0.0000 -0.9580
vn -0.0786 0.0000 -0.9969
vn 0.1355 0.0000 -0.9908
vn 0.3751 0.0000 0.9270
vn 0.5542 0.0000 -0.8324
vn -0.3228 0.0000 0.9465
usemtl None
s off
f 1//1 2//1 3//1
f 1//1 3//1 4//1
f 5//2 6//2 7//2
f 5//2 7//2 8//2
f 7//3 9//3 10//3
f 7//3 10//3 8//3
f 11//4 12//4 13//4
f 11//4 13//4 14//4
f 13//5 15//5 16//5
f 13//5 16//5 14//5
f 17//6 18//6 19//6
f 15//7 20//7 21//7
f 15//7 21//7 16//7
f 22//8 23//8 18//8
f 22//8 18//8 17//8
f 20//9 24//9 25//9
f 20//9 25//9 21//9
f 26//10 27//10 28//10
f 26//10 28//10 29//10
f 30//11 31//11 32//11
f 30//11 32//11 33//11
f 34//12 35//12 27//12
f 34//12 27//12 26//12
f 36//13 37//13 38//13
f 24//14 6//14 5//14
f 24//14 5//14 25//14
f 39//15 40//15 31//15
f 39//15 31//15 30//15
f 9//16 41//16 42//16
f 9//16 42//16 10//16
f 43//17 44//17 45//17
f 43//17 45//17 46//17
f 42//18 41//18 40//18
f 42//18 40//18 39//18
f 47//19 48//19 44//19
f 47//19 44//19 43//19
f 46//20 45//20 49//20
f 46//20 49//20 50//20
f 51//21 52//21 53//21
f 51//21 53//21 54//21
f 49//22 52//22 51//22
f 49//22 51//22 50//22
f 55//23 48//23 47//23
f 55//23 47//23 56//23
f 19//6 18//6 57//6
f 58//24 54//24 59//24
f 53//24 59//24 54//24
f 59//25 60//25 61//25
f 59//25 61//25 58//25
f 62//26 63//26 60//26
f 60//26 63//26 61//26
f 57//27 63//27 62//27
f 57//27 62//27 19//27
f 64//28 65//28 66//28
f 67//29 68//29 69//29
f 70//29 68//29 67//29
f 71//29 68//29 70//29
f 72//30 73//30 74//30
f 69//29 68//29 75//29
f 76//29 68//29 71//29
f 77//29 78//29 76//29
f 79//31 80//31 72//31
f 73//31 72//31 80//31
f 81//32 82//32 83//32
f 81//32 83//32 84//32
f 34//29 85//29 86//29
f 87//33 88//33 89//33
f 87//33 89//33 90//33
f 29//29 19//29 26//29
f 29//29 91//29 92//29
f 29//29 92//29 22//29
f 29//29 22//29 17//29
f 29//29 17//29 19//29
f 93//13 94//13 95//13
f 96//13 95//13 94//13
f 97//13 98//13 94//13
f 98//13 96//13 94//13
f 99//24 33//24 100//24
f 32//24 100//24 33//24
f 101//34 102//34 103//34
f 104//13 105//13 106//13
f 94//13 93//13 105//13
f 106//13 105//13 93//13
f 106//13 93//13 107//13
f 108//13 97//13 94//13
f 109//13 110//13 111//13
f 112//13 111//13 110//13
f 102//25 101//25 100//25
f 99//25 100//25 101//25
f 113//13 114//13 115//13
f 116//35 90//35 89//35
f 116//35 89//35 117//35
f 87//12 118//12 119//12
f 87//12 119//12 88//12
f 118//36 120//36 121//36
f 118//36 121//36 119//36
f 122//13 97//13 108//13
f 123//13 107//13 93//13
f 79//37 124//37 80//37
f 125//37 80//37 124//37
f 120//38 84//38 83//38
f 120//38 83//38 121//38
f 126//13 127//13 110//13
f 82//39 81//39 125//39
f 82//39 125//39 124//39
f 128//40 129//40 108//40
f 115//41 130//41 113//41
f 131//41 113//41 130//41
f 109//42 132//42 110//42
f 132//43 109//43 111//43
f 132//43 111//43 133//43
f 133//44 111//44 112//44
f 133//44 112//44 134//44
f 130//45 115//45 135//45
f 130//45 135//45 136//45
f 136//46 135//46 137//46
f 138//13 139//13 130//13
f 131//13 130//13 139//13
f 140//13 132//13 141//13
f 128//13 142//13 133//13
f 141//13 133//13 142//13
f 140//13 143//13 130//13
f 143//13 144//13 130//13
f 144//13 138//13 130//13
f 130//13 136//13 140//13
f 137//13 145//13 136//13
f 140//13 136//13 132//13
f 133//13 141//13 132//13
f 134//13 146//13 133//13
f 147//47 37//47 148//47
f 149//48 150//48 37//48
f 149//48 37//48 147//48
f 114//49 151//49 150//49
f 114//49 150//49 149//49
f 113//50 151//50 114//50
f 110//51 145//51 152//51
f 110//51 152//51 126//51
f 110//42 132//42 145//42
f 153//52 126//52 152//52
f 154//53 127//53 155//53
f 137//46 135//46 156//46
f 153//52 157//52 126//52
f 137//54 156//54 157//54
f 137//54 157//54 153//54
f 151//13 158//13 150//13
f 159//13 38//13 150//13
f 153//13 152//13 137//13
f 152//13 145//13 137//13
f 132//13 136//13 145//13
f 160//29 77//29 161//29
f 161//29 86//29 162//29
f 162//29 86//29 85//29
f 49//29 34//29 52//29
f 45//29 34//29 49//29
f 44//29 34//29 45//29
f 55//29 34//29 48//29
f 48//29 34//29 44//29
f 60//29 59//29 34//29
f 26//29 19//29 34//29
f 62//29 34//29 19//29
f 60//29 34//29 62//29
f 85//29 34//29 55//29
f 52//29 34//29 53//29
f 59//29 53//29 34//29
f 163//13 164//13 165//13
f 166//13 163//13 167//13
f 165//13 167//13 163//13
f 148//13 165//13 164//13
f 164//13 56//13 148//13
f 56//13 47//13 148//13
f 47//13 43//13 148//13
f 43//13 46//13 148//13
f 46//13 50//13 148//13
f 168//13 148//13 50//13
f 51//13 168//13 50//13
f 54//13 168//13 51//13
f 58//13 61//13 168//13
f 54//13 58//13 168//13
f 169//13 65//13 63//13
f 57//13 169//13 63//13
f 55//55 56//55 85//55
f 164//55 85//55 56//55
f 163//9 162//9 85//9
f 163//9 85//9 164//9
f 161//56 162//56 166//56
f 162//56 163//56 166//56
f 170//57 160//57 166//57
f 166//57 160//57 161//57
f 65//28 64//28 168//28
f 64//58 127//58 168//58
f 148//47 37//47 36//47
f 38//59 165//59 148//59
f 38//59 148//59 36//59
f 159//60 165//60 38//60
f 155//58 127//58 64//58
f 154//13 110//13 127//13
f 168//13 127//13 126//13
f 126//13 157//13 168//13
f 171//61 172//61 173//61
f 171//61 173//61 174//61
f 147//13 168//13 157//13
f 172//62 175//62 173//62
f 103//62 173//62 175//62
f 135//13 114//13 156//13
f 114//13 149//13 156//13
f 135//13 115//13 114//13
f 157//13 156//13 149//13
f 147//13 157//13 149//13
f 148//13 168//13 147//13
f 165//60 159//60 167//60
f 158//63 176//63 167//63
f 158//63 167//63 159//63
f 177//13 178//13 129//13
f 178//13 179//13 129//13
f 180//64 181//64 176//64
f 180//64 176//64 158//64
f 182//13 28//13 183//13
f 183//13 169//13 18//13
f 131//13 184//13 151//13
f 37//13 150//13 38//13
f 57//13 18//13 169//13
f 61//13 63//13 65//13
f 65//13 168//13 61//13
f 159//13 150//13 158//13
f 158//13 151//13 180//13
f 112//13 110//13 185//13
f 154//13 185//13 110//13
f 186//13 35//13 177//13
f 28//13 27//13 187//13
f 122//13 108//13 179//13
f 129//13 179//13 108//13
f 188//13 189//13 190//13
f 84//13 120//13 188//13
f 189//13 191//13 190//13
f 192//13 190//13 191//13
f 192//13 191//13 193//13
f 192//13 193//13 194//13
f 195//13 3//13 194//13
f 196//13 3//13 195//13
f 197//13 3//13 196//13
f 198//13 3//13 197//13
f 4//13 3//13 198//13
f 199//13 194//13 3//13
f 192//13 194//13 199//13
f 35//13 186//13 27//13
f 186//13 187//13 27//13
f 187//13 183//13 28//13
f 178//13 177//13 35//13
f 200//13 182//13 183//13
f 18//13 23//13 183//13
f 200//13 183//13 23//13
f 11//13 14//13 188//13
f 190//13 11//13 188//13
f 69//65 95//65 96//65
f 69//65 96//65 67//65
f 71//66 70//66 98//66
f 71//66 98//66 97//66
f 93//67 95//67 69//67
f 93//67 69//67 75//67
f 70//68 67//68 96//68
f 70//68 96//68 98//68
f 16//13 188//13 14//13
f 21//13 188//13 16//13
f 25//13 188//13 21//13
f 5//13 188//13 25//13
f 8//13 188//13 5//13
f 10//13 188//13 8//13
f 42//13 188//13 10//13
f 39//13 188//13 42//13
f 30//13 188//13 39//13
f 179//69 77//69 122//69
f 76//69 122//69 77//69
f 76//70 71//70 122//70
f 71//70 97//70 122//70
f 201//13 188//13 120//13
f 81//13 84//13 188//13
f 116//13 201//13 120//13
f 90//13 116//13 120//13
f 118//13 87//13 120//13
f 90//13 120//13 87//13
f 73//30 202//30 123//30
f 123//30 74//30 73//30
f 75//71 123//71 93//71
f 203//13 204//13 99//13
f 204//13 205//13 99//13
f 205//13 188//13 99//13
f 206//13 188//13 205//13
f 125//13 81//13 188//13
f 123//71 75//71 74//71
f 125//13 188//13 80//13
f 107//72 138//72 144//72
f 107//73 144//73 143//73
f 151//50 113//50 131//50
f 207//13 188//13 206//13
f 30//13 33//13 188//13
f 208//13 209//13 188//13
f 209//13 73//13 188//13
f 141//74 105//74 104//74
f 141//74 104//74 140//74
f 142//75 94//75 105//75
f 142//75 105//75 141//75
f 208//13 188//13 207//13
f 106//76 143//76 140//76
f 106//76 140//76 104//76
f 94//77 142//77 128//77
f 94//77 128//77 108//77
f 80//13 188//13 73//13
f 107//73 143//73 106//73
f 33//13 99//13 188//13
f 99//13 101//13 203//13
f 199//78 210//78 211//78
f 199//78 211//78 192//78
f 3//79 2//79 210//79
f 3//79 210//79 199//79
f 211//80 212//80 190//80
f 211//80 190//80 192//80
f 198//81 213//81 1//81
f 198//81 1//81 4//81
f 197//82 214//82 213//82
f 197//82 213//82 198//82
f 197//83 196//83 215//83
f 197//83 215//83 214//83
f 189//84 216//84 217//84
f 189//84 217//84 191//84
f 196//30 195//30 218//30
f 196//30 218//30 215//30
f 189//85 188//85 219//85
f 189//85 219//85 216//85
f 195//86 194//86 220//86
f 195//86 220//86 218//86
f 194//87 193//87 221//87
f 194//87 221//87 220//87
f 116//88 117//88 201//88
f 222//88 201//88 117//88
f 193//89 191//89 217//89
f 193//89 217//89 221//89
f 188//90 201//90 222//90
f 188//90 222//90 219//90
f 11//91 190//91 12//91
f 212//91 12//91 190//91
f 123//13 202//13 107//13
f 223//13 107//13 202//13
f 223//13 224//13 225//13
f 226//13 227//13 225//13
f 228//13 229//13 227//13
f 225//13 227//13 229//13
f 230//13 181//13 228//13
f 224//13 226//13 225//13
f 224//13 223//13 202//13
f 176//13 170//13 167//13
f 172//13 171//13 181//13
f 170//13 166//13 167//13
f 170//13 176//13 171//13
f 176//13 181//13 171//13
f 175//13 172//13 181//13
f 229//13 228//13 181//13
f 175//13 181//13 230//13
f 208//92 224//92 209//92
f 202//92 209//92 224//92
f 230//34 204//34 203//34
f 205//93 204//93 228//93
f 230//93 228//93 204//93
f 206//94 227//94 207//94
f 226//94 207//94 227//94
f 207//95 226//95 208//95
f 226//95 224//95 208//95
f 202//30 73//30 209//30
f 206//96 228//96 227//96
f 206//96 205//96 228//96
f 223//97 139//97 138//97
f 223//72 138//72 107//72
f 181//98 180//98 229//98
f 184//98 229//98 180//98
f 139//99 225//99 229//99
f 139//99 229//99 184//99
f 139//97 223//97 225//97
f 139//13 184//13 131//13
f 180//13 151//13 184//13
f 103//34 175//34 101//34
f 175//34 230//34 101//34
f 203//34 101//34 230//34
f 171//100 160//100 170//100
f 174//100 160//100 171//100
f 28//101 182//101 91//101
f 28//101 91//101 29//101
f 92//102 200//102 23//102
f 92//102 23//102 22//102
f 182//103 200//103 92//103
f 182//103 92//103 91//103
f 34//104 178//104 35//104
f 86//104 178//104 34//104
f 86//105 77//105 178//105
f 179//105 178//105 77//105
f 129//40 128//40 231//40
f 129//106 231//106 146//106
f 129//106 146//106 177//106
f 232//107 186//107 177//107
f 232//107 177//107 146//107
f 233//108 187//108 186//108
f 233//108 186//108 232//108
f 187//109 233//109 234//109
f 187//109 234//109 183//109
f 235//110 169//110 183//110
f 235//110 183//110 234//110
f 134//111 112//111 185//111
f 134//111 185//111 236//111
f 66//112 65//112 235//112
f 169//112 235//112 65//112
f 236//113 185//113 154//113
f 236//113 154//113 237//113
f 154//53 155//53 237//53
f 235//13 234//13 236//13
f 234//13 233//13 236//13
f 134//13 236//13 233//13
f 134//13 233//13 232//13
f 146//13 231//13 133//13
f 128//13 133//13 231//13
f 232//13 146//13 134//13
f 64//13 66//13 155//13
f 236//13 237//13 235//13
f 155//13 66//13 237//13
f 235//13 237//13 66//13
f 213//29 214//29 2//29
f 1//29 213//29 2//29
f 214//29 215//29 2//29
f 215//29 218//29 2//29
f 218//29 220//29 2//29
f 210//29 2//29 220//29
f 211//29 210//29 220//29
f 220//29 221//29 211//29
f 221//29 217//29 211//29
f 212//29 211//29 217//29
f 217//29 216//29 212//29
f 216//29 219//29 212//29
f 219//29 222//29 212//29
f 222//29 117//29 212//29
f 117//29 89//29 212//29
f 9//29 12//29 41//29
f 7//29 12//29 9//29
f 6//29 12//29 7//29
f 24//29 12//29 6//29
f 20//29 12//29 24//29
f 15//29 12//29 20//29
f 13//29 12//29 15//29
f 40//29 41//29 12//29
f 32//29 31//29 12//29
f 40//29 12//29 31//29
f 68//29 76//29 78//29
f 173//29 77//29 174//29
f 160//29 174//29 77//29
f 86//29 161//29 77//29
f 74//29 75//29 68//29
f 72//29 74//29 68//29
f 103//29 238//29 173//29
f 102//29 239//29 103//29
f 239//29 238//29 103//29
f 77//29 173//29 238//29
f 77//29 238//29 78//29
f 239//29 12//29 238//29
f 102//29 12//29 239//29
f 100//29 12//29 102//29
f 32//29 12//29 100//29
f 78//29 238//29 12//29
f 89//29 88//29 212//29
f 88//29 119//29 212//29
f 119//29 121//29 212//29
f 121//29 83//29 212//29
f 83//29 82//29 212//29
f 82//29 124//29 212//29
f 12//29 212//29 124//29
f 124//29 79//29 12//29
f 72//29 12//29 79//29
f 72//29 68//29 12//29
f 78//29 12//29 68//29
