# Blender v2.82 (sub 7) OBJ File: ''
# www.blender.org
mtllib 4aqueduct-3.mtl
o Aqueduct_3_Aqueduct_3.001
v 8.300000 16.000000 -5.500000
v 8.300000 15.003000 -4.503000
v 8.300000 15.003000 -5.500000
v 8.300000 16.000000 -0.750000
v 8.300000 15.003000 -0.750000
v 8.300000 16.000000 -1.748000
v -2.880000 4.750000 3.296000
v -2.880000 4.000000 3.296000
v -4.294000 4.000000 3.296000
v -4.294000 4.750000 3.296000
v 8.300000 15.003000 -1.748000
v 8.300000 16.000000 -4.503000
v -7.248000 4.750000 6.846000
v -7.248000 4.000000 6.846000
v -7.248000 4.750000 8.194000
v -7.248000 4.000000 8.194000
v -2.148000 4.750000 6.922000
v -2.880000 4.750000 6.922000
v -2.880000 4.750000 8.194000
v -2.148000 4.750000 8.194000
v -4.294000 4.750000 6.922000
v -4.294000 4.750000 8.194000
v -2.880000 4.750000 9.296000
v -4.294000 4.750000 9.296000
v -4.294000 4.750000 5.065000
v -4.294000 4.000000 8.194000
v -5.855000 4.000000 6.922000
v -5.855000 4.750000 6.922000
v -4.294000 4.000000 5.065000
v -4.294000 4.000000 6.922000
v -4.294000 4.000000 9.296000
v -2.880000 4.000000 8.194000
v -2.148000 4.000000 8.194000
v -2.148000 4.000000 6.922000
v -2.880000 4.000000 6.922000
v -5.700000 16.000000 -4.503000
v -5.700000 16.000000 -5.500000
v -5.700000 15.003000 -5.500000
v -5.700000 15.003000 -4.503000
v -2.880000 4.000000 9.296000
v -5.700000 15.003000 -0.750000
v -5.700000 16.000000 -0.750000
v -5.700000 15.003000 -1.748000
v -5.700000 16.000000 -1.748000
vn 1.0000 0.0000 0.0000
vn 0.0000 0.0000 -1.0000
vn -1.0000 0.0000 0.0000
vn 0.0000 1.0000 0.0000
vn 0.0000 -1.0000 0.0000
vn -0.7687 0.0000 -0.6396
vn 0.7655 0.0000 0.6435
vn 0.0000 0.0000 1.0000
usemtl None
s off
f 1//1 2//1 3//1
f 4//1 5//1 6//1
f 7//2 8//2 9//2
f 7//2 9//2 10//2
f 6//1 5//1 11//1
f 12//1 2//1 1//1
f 13//3 14//3 15//3
f 16//3 15//3 14//3
f 17//4 18//4 19//4
f 17//4 19//4 20//4
f 21//4 22//4 19//4
f 23//4 19//4 22//4
f 24//4 23//4 22//4
f 19//4 18//4 21//4
f 25//4 21//4 18//4
f 18//4 7//4 25//4
f 10//4 25//4 7//4
f 26//5 16//5 27//5
f 14//5 27//5 16//5
f 9//6 14//6 10//6
f 28//4 25//4 13//4
f 10//4 13//4 25//4
f 13//4 15//4 28//4
f 15//4 22//4 28//4
f 21//4 28//4 22//4
f 25//7 27//7 29//7
f 10//6 14//6 13//6
f 15//8 16//8 22//8
f 26//8 22//8 16//8
f 30//2 27//2 21//2
f 22//3 26//3 31//3
f 22//3 31//3 24//3
f 25//3 29//3 30//3
f 25//3 30//3 21//3
f 27//7 25//7 28//7
f 32//8 33//8 20//8
f 32//8 20//8 19//8
f 21//2 27//2 28//2
f 34//2 35//2 18//2
f 34//2 18//2 17//2
f 36//3 37//3 38//3
f 36//3 38//3 39//3
f 23//1 40//1 32//1
f 23//1 32//1 19//1
f 18//1 35//1 8//1
f 18//1 8//1 7//1
f 41//3 42//3 43//3
f 44//3 43//3 42//3
f 38//2 1//2 3//2
f 37//2 1//2 38//2
f 6//4 44//4 42//4
f 6//4 42//4 4//4
f 6//2 11//2 43//2
f 6//2 43//2 44//2
f 12//4 1//4 37//4
f 36//4 12//4 37//4
f 40//8 23//8 24//8
f 40//8 24//8 31//8
f 14//5 9//5 29//5
f 14//5 29//5 27//5
f 27//5 30//5 26//5
f 33//5 32//5 35//5
f 33//5 35//5 34//5
f 30//5 29//5 35//5
f 8//5 35//5 29//5
f 9//5 8//5 29//5
f 26//5 30//5 35//5
f 35//5 32//5 26//5
f 31//5 26//5 32//5
f 31//5 32//5 40//5
f 34//1 17//1 20//1
f 34//1 20//1 33//1
f 5//8 4//8 41//8
f 42//8 41//8 4//8
f 11//5 5//5 41//5
f 11//5 41//5 43//5
f 36//8 39//8 2//8
f 36//8 2//8 12//8
f 3//5 39//5 38//5
f 3//5 2//5 39//5
