# Blender v2.82 (sub 7) OBJ File: ''
# www.blender.org
mtllib 6university-3.mtl
o University_3
v -1.500000 10.500000 -2.500000
v 4.300000 10.500000 -2.500000
v -0.820860 10.500000 1.010000
v 3.717860 10.500000 1.010000
v 1.448000 11.825000 1.256000
v -0.820860 10.500000 1.500000
v 3.717860 10.500000 1.254890
v 2.585000 11.161000 1.010000
v 2.598820 11.152940 1.500000
v 3.717860 10.500000 1.257120
v 3.717860 10.500000 1.500000
v 3.717860 10.500000 1.256000
v 1.448000 11.825000 1.010000
v 2.571190 11.169060 1.500000
v 1.448000 11.825000 1.500000
v -3.805000 4.000000 4.920000
v -4.026000 4.000000 4.425000
v -2.550000 4.000000 3.906000
v -2.128000 4.000000 4.714000
v -4.392000 4.000000 3.250000
v -3.248000 4.000000 3.417000
v -4.409000 4.000000 4.281000
v -5.173000 4.000000 6.979000
v -7.000000 4.000000 6.408000
v -4.995000 4.000000 6.664000
v -5.291000 4.000000 5.963000
v -4.670000 4.000000 5.511000
v -4.728000 4.000000 6.469000
v -2.561000 4.000000 5.942000
v -3.830000 4.000000 6.672000
v -3.184000 4.000000 5.509000
v -6.918000 4.000000 7.415000
v -5.233000 4.000000 7.406000
v -5.171000 4.000000 7.843000
v -6.671000 4.000000 8.203000
v -3.598000 4.000000 7.451000
v -2.071000 4.000000 7.978000
v -3.654000 4.000000 7.888000
v -4.708000 4.000000 8.383000
v -5.791000 4.000000 9.191000
v -4.984000 4.000000 8.175000
v -3.656000 4.000000 7.001000
v -2.000000 4.000000 7.406000
v -4.330000 4.000000 9.500000
v -5.151000 4.000000 9.423000
v -4.376000 4.000000 8.453000
v -6.286000 4.000000 8.789000
v -2.284000 4.000000 8.498000
v -4.072000 4.000000 8.390000
v -4.089000 4.000000 6.471000
v -3.933000 4.000000 5.365000
v -4.405000 4.000000 6.404000
v -2.140000 4.000000 6.597000
v -4.773000 4.000000 4.384000
v -3.821000 4.000000 8.201000
v -3.070000 4.000000 9.247000
v -3.636000 4.000000 9.437000
v -2.622000 4.000000 8.933000
v -2.550000 4.750000 3.906000
v -3.248000 4.750000 3.417000
v -4.026000 4.750000 4.425000
v -5.046000 4.000000 4.693000
v -5.484000 4.000000 3.440000
v -2.128000 4.750000 4.714000
v -3.805000 4.750000 4.920000
v -6.827000 4.000000 4.990000
v -6.309000 4.000000 4.011000
v -2.284000 4.750000 8.498000
v -2.071000 4.750000 7.978000
v -3.654000 4.750000 7.888000
v -2.000000 4.750000 7.406000
v -3.598000 4.750000 7.451000
v -2.140000 4.750000 6.597000
v -2.561000 4.750000 5.942000
v -3.656000 4.750000 7.001000
v -5.171000 4.750000 7.843000
v -4.984000 4.750000 8.175000
v -4.089000 4.750000 6.471000
v -4.405000 4.750000 6.404000
v -4.728000 4.750000 6.469000
v -4.995000 4.750000 6.664000
v -5.173000 4.750000 6.979000
v -5.233000 4.750000 7.406000
v -6.671000 4.750000 8.203000
v -6.286000 4.750000 8.789000
v -5.791000 4.750000 9.191000
v -5.151000 4.750000 9.423000
v -4.330000 4.750000 9.500000
v -3.636000 4.750000 9.437000
v -3.070000 4.750000 9.247000
v -2.622000 4.750000 8.933000
v -4.708000 4.750000 8.383000
v -3.830000 4.750000 6.672000
v -3.184000 4.750000 5.509000
v -6.309000 4.750000 4.011000
v -5.046000 4.750000 4.693000
v -5.484000 4.750000 3.440000
v -4.773000 4.750000 4.384000
v -4.392000 4.750000 3.250000
v -4.409000 4.750000 4.281000
v -6.827000 4.750000 4.990000
v -5.291000 4.750000 5.963000
v -7.000000 4.750000 6.408000
v -4.670000 4.750000 5.511000
v -3.933000 4.750000 5.365000
v -6.918000 4.750000 7.415000
v -4.376000 4.750000 8.453000
v -4.072000 4.750000 8.390000
v -3.821000 4.750000 8.201000
v -1.500000 10.500000 1.500000
v 1.400000 12.250000 1.500000
v 4.300000 10.500000 1.500000
v 1.400000 12.250000 -2.500000
vn 0.0000 -1.0000 0.0000
vn 0.5043 -0.8635 0.0000
vn -0.5040 -0.8637 0.0000
vn -0.5041 -0.8636 0.0010
vn -0.5043 -0.8635 0.0000
vn -0.5041 -0.8636 -0.0010
vn -0.5039 -0.8637 0.0000
vn 0.0000 0.0000 1.0000
vn 0.0000 1.0000 0.0000
vn 0.8713 0.0000 -0.4908
vn -0.2074 0.0000 0.9783
vn 0.1973 0.0000 0.9803
vn 0.5898 0.0000 0.8076
vn 0.8706 0.0000 0.4920
vn 0.9903 0.0000 0.1391
vn -0.9542 0.0000 0.2991
vn -0.8358 0.0000 0.5491
vn -0.6304 0.0000 0.7763
vn -0.3408 0.0000 0.9401
vn -0.0934 0.0000 0.9956
vn 0.0904 0.0000 0.9959
vn 0.3182 0.0000 0.9480
vn 0.5740 0.0000 0.8189
vn 0.7896 0.0000 0.6136
vn 0.6019 0.0000 -0.7986
vn -0.8840 0.0000 0.4675
vn -0.6131 0.0000 0.7900
vn 0.1444 0.0000 -0.9895
vn -0.1714 0.0000 -0.9852
vn -0.5691 0.0000 -0.8223
vn -0.8839 0.0000 -0.4677
vn -0.9926 0.0000 -0.1211
vn -0.3519 0.0000 0.9360
vn 0.2723 0.0000 0.9622
vn 0.7494 0.0000 0.6621
vn 0.9819 0.0000 0.1894
vn -0.1943 0.0000 -0.9809
vn -0.5885 0.0000 -0.8085
vn -0.9967 0.0000 0.0812
vn 0.9901 0.0000 -0.1405
vn 0.8864 0.0000 -0.4629
vn 0.5738 0.0000 -0.8190
vn 0.8412 0.0000 -0.5407
vn -0.9131 0.0000 0.4077
vn 0.1219 0.0000 0.9925
vn 0.5707 0.0000 -0.8211
vn 0.1888 0.0000 -0.9820
vn 0.9254 0.0000 0.3790
vn 0.9924 0.0000 0.1232
vn 0.9854 0.0000 -0.1705
vn -0.9919 0.0000 -0.1271
vn -0.9918 0.0000 0.1278
vn 0.2063 0.0000 -0.9785
vn -0.2029 0.0000 -0.9792
vn -0.6015 0.0000 -0.7989
vn -0.8823 0.0000 -0.4707
vn 0.0000 0.0000 -1.0000
vn 0.5167 0.8562 0.0000
vn -0.5167 0.8562 0.0000
usemtl None
s off
f 1//1 2//1 3//1
f 4//1 3//1 2//1
f 3//2 5//2 6//2
f 7//3 8//3 4//3
f 9//3 10//3 11//3
f 7//3 12//3 8//3
f 5//4 8//4 12//4
f 13//2 5//2 3//2
f 8//5 5//5 13//5
f 14//6 5//6 12//6
f 10//3 9//3 12//3
f 14//7 12//7 9//7
f 5//2 15//2 6//2
f 15//5 5//5 14//5
f 4//8 8//8 3//8
f 8//8 13//8 3//8
f 16//1 17//1 18//1
f 19//1 16//1 18//1
f 20//1 21//1 22//1
f 23//1 24//1 25//1
f 26//1 27//1 28//1
f 29//1 30//1 31//1
f 24//1 26//1 25//1
f 32//1 24//1 23//1
f 32//1 23//1 33//1
f 34//1 35//1 33//1
f 36//1 37//1 38//1
f 39//1 40//1 41//1
f 42//1 43//1 36//1
f 44//1 45//1 46//1
f 35//1 34//1 47//1
f 41//1 47//1 34//1
f 32//1 33//1 35//1
f 30//1 29//1 42//1
f 48//1 38//1 37//1
f 49//1 44//1 46//1
f 47//1 41//1 40//1
f 50//1 31//1 30//1
f 37//1 36//1 43//1
f 39//1 46//1 45//1
f 40//1 39//1 45//1
f 27//1 51//1 52//1
f 29//1 53//1 42//1
f 43//1 42//1 53//1
f 18//1 17//1 21//1
f 17//1 22//1 21//1
f 22//1 54//1 20//1
f 49//1 55//1 56//1
f 57//1 49//1 56//1
f 44//1 49//1 57//1
f 58//1 56//1 55//1
f 55//1 38//1 58//1
f 48//1 58//1 38//1
f 59//9 60//9 61//9
f 54//1 62//1 63//1
f 63//1 20//1 54//1
f 64//9 59//9 65//9
f 62//1 26//1 66//1
f 66//1 67//1 62//1
f 67//1 63//1 62//1
f 61//9 65//9 59//9
f 68//9 69//9 70//9
f 69//9 71//9 72//9
f 72//9 70//9 69//9
f 73//9 74//9 75//9
f 71//9 73//9 75//9
f 75//9 72//9 71//9
f 34//10 76//10 77//10
f 34//10 77//10 41//10
f 78//11 79//11 52//11
f 52//12 79//12 80//12
f 52//12 80//12 28//12
f 28//13 80//13 81//13
f 28//13 81//13 25//13
f 25//14 81//14 82//14
f 25//14 82//14 23//14
f 23//15 82//15 83//15
f 23//15 83//15 33//15
f 32//16 35//16 84//16
f 35//17 47//17 85//17
f 35//17 85//17 84//17
f 40//18 86//18 47//18
f 85//18 47//18 86//18
f 86//19 40//19 45//19
f 86//19 45//19 87//19
f 45//20 44//20 87//20
f 87//20 44//20 88//20
f 88//21 44//21 57//21
f 88//21 57//21 89//21
f 57//22 56//22 90//22
f 57//22 90//22 89//22
f 56//23 58//23 91//23
f 56//23 91//23 90//23
f 48//24 68//24 91//24
f 48//24 91//24 58//24
f 39//25 41//25 77//25
f 39//25 77//25 92//25
f 93//9 75//9 74//9
f 74//9 94//9 93//9
f 95//9 96//9 97//9
f 97//9 98//9 99//9
f 100//9 99//9 98//9
f 61//9 60//9 100//9
f 99//9 100//9 60//9
f 98//9 97//9 96//9
f 95//9 101//9 96//9
f 96//9 101//9 102//9
f 101//9 103//9 102//9
f 102//9 80//9 104//9
f 80//9 79//9 104//9
f 105//9 78//9 94//9
f 106//9 84//9 83//9
f 78//9 93//9 94//9
f 105//9 104//9 79//9
f 79//9 78//9 105//9
f 80//9 102//9 81//9
f 102//9 103//9 81//9
f 82//9 106//9 83//9
f 82//9 81//9 103//9
f 103//9 106//9 82//9
f 76//9 83//9 84//9
f 84//9 85//9 76//9
f 85//9 86//9 77//9
f 77//9 76//9 85//9
f 92//9 77//9 86//9
f 107//9 92//9 87//9
f 86//9 87//9 92//9
f 108//9 107//9 88//9
f 87//9 88//9 107//9
f 68//9 70//9 91//9
f 91//9 70//9 109//9
f 89//9 90//9 108//9
f 88//9 89//9 108//9
f 109//9 108//9 90//9
f 91//9 109//9 90//9
f 26//1 24//1 66//1
f 51//1 31//1 50//1
f 50//1 52//1 51//1
f 52//1 28//1 27//1
f 28//1 25//1 26//1
f 30//26 42//26 75//26
f 30//26 75//26 93//26
f 30//27 93//27 78//27
f 30//27 78//27 50//27
f 50//11 78//11 52//11
f 99//28 60//28 20//28
f 21//28 20//28 60//28
f 20//29 63//29 97//29
f 20//29 97//29 99//29
f 63//30 67//30 95//30
f 63//30 95//30 97//30
f 101//31 95//31 66//31
f 67//31 66//31 95//31
f 24//32 101//32 66//32
f 61//33 100//33 22//33
f 22//34 100//34 98//34
f 22//34 98//34 54//34
f 54//35 98//35 96//35
f 54//35 96//35 62//35
f 62//36 96//36 26//36
f 51//37 27//37 104//37
f 96//36 102//36 26//36
f 27//38 26//38 102//38
f 27//38 102//38 104//38
f 24//32 103//32 101//32
f 103//39 24//39 32//39
f 103//39 32//39 106//39
f 32//16 84//16 106//16
f 83//40 76//40 34//40
f 83//40 34//40 33//40
f 18//41 59//41 64//41
f 18//42 21//42 60//42
f 18//42 60//42 59//42
f 64//41 19//41 18//41
f 73//43 29//43 74//43
f 17//44 16//44 65//44
f 17//44 65//44 61//44
f 64//45 65//45 16//45
f 64//45 16//45 19//45
f 17//33 61//33 22//33
f 29//46 31//46 94//46
f 29//46 94//46 74//46
f 31//47 51//47 105//47
f 31//47 105//47 94//47
f 51//37 104//37 105//37
f 68//48 48//48 69//48
f 37//48 69//48 48//48
f 37//49 43//49 71//49
f 37//49 71//49 69//49
f 43//50 73//50 71//50
f 53//50 73//50 43//50
f 73//43 53//43 29//43
f 36//51 38//51 70//51
f 36//51 70//51 72//51
f 42//52 36//52 72//52
f 42//52 72//52 75//52
f 46//53 39//53 92//53
f 46//53 92//53 107//53
f 49//54 46//54 107//54
f 49//54 107//54 108//54
f 55//55 49//55 108//55
f 55//55 108//55 109//55
f 109//56 70//56 55//56
f 38//56 55//56 70//56
f 110//8 6//8 111//8
f 15//8 111//8 6//8
f 111//8 15//8 14//8
f 112//8 111//8 9//8
f 11//8 112//8 9//8
f 14//8 9//8 111//8
f 2//57 1//57 113//57
f 2//58 111//58 112//58
f 113//58 111//58 2//58
f 113//59 1//59 111//59
f 110//59 111//59 1//59
f 3//1 6//1 110//1
f 3//1 110//1 1//1
f 12//1 7//1 112//1
f 2//1 112//1 4//1
f 112//1 11//1 10//1
f 112//1 10//1 12//1
f 7//1 4//1 112//1
