# Blender v2.82 (sub 7) OBJ File: ''
# www.blender.org
mtllib base-3.mtl
o Counter_Science_2
v 33.221527 3.000000 -4.993002
v 33.221439 3.156113 -4.993002
v 36.110001 3.000000 0.001999
v 36.110001 4.000000 0.001999
v 33.221439 4.000000 -4.993002
v -8.446997 3.000000 -1.888000
v -8.987997 3.000000 -2.618000
v -8.446997 4.000000 -1.888000
v -0.843344 4.000000 -4.993000
v -8.987997 4.000000 -2.618000
v 17.951677 3.000000 -30.745003
v 17.951677 4.000000 -30.745003
v 30.848629 4.000000 -7.998001
v 30.848629 3.000000 -7.998001
v -7.591997 3.000000 -0.289001
v -7.979998 3.000000 -1.110001
v 13.464003 3.000000 -19.813004
v 13.158003 3.000000 -18.958000
v -7.979998 4.000000 -1.110001
v -6.931997 3.000000 2.344999
v -7.064997 3.000000 1.446999
v -7.591997 4.000000 -0.289001
v -9.596998 4.000000 -3.291000
v -9.596998 3.000000 -3.291000
v 3.720003 3.000000 -9.235001
v 3.720003 4.000000 -9.235001
v 4.078003 4.000000 -9.718002
v 4.078003 3.000000 -9.718002
v 13.464003 4.000000 -19.813004
v 13.685002 4.000000 -20.694000
v 13.818003 4.000000 -21.592003
v 2.363003 3.000000 -7.998001
v 2.363003 3.000000 -8.013031
v 2.388002 3.000000 -8.028002
v 13.158003 4.000000 -18.958000
v 3.316002 3.000000 -8.790001
v 3.316002 4.000000 -8.790001
v 12.770002 4.000000 -18.137001
v -11.957857 4.000000 -4.993000
v -11.957857 3.000000 -4.993000
v 12.303002 4.000000 -17.359001
v 2.363003 4.000000 -8.013031
v 2.363003 4.000000 -7.998001
v 2.388002 4.000000 -8.028002
v 11.762003 4.000000 -16.629002
v -7.064997 3.000000 5.056999
v -6.931997 3.000000 4.158998
v 32.785767 3.000000 5.751999
v -6.887999 3.000000 3.251999
v 12.770002 3.000000 -18.137001
v 12.303002 3.000000 -17.359001
v 11.762003 3.000000 -16.629002
v 2.871002 3.000000 -8.386002
v 9.751001 4.000000 -30.191002
v 8.972002 4.000000 -30.658001
v 8.787912 4.000000 -30.745003
v 2.871002 4.000000 -8.386002
v 11.153002 3.000000 -15.957001
v 11.153002 4.000000 -15.957001
v 10.480001 4.000000 -29.650002
v -7.239340 3.000000 5.751999
v 8.972002 3.000000 -30.658001
v 8.787912 3.000000 -30.745003
v 10.480001 3.000000 -15.347000
v 10.480001 4.000000 -15.347000
v 11.153002 4.000000 -29.041000
v 9.751001 3.000000 -30.191002
v 9.751001 3.000000 -14.806000
v 9.751001 4.000000 -14.806000
v 11.762003 4.000000 -28.368004
v 10.480001 3.000000 -29.650002
v 8.972002 3.000000 -14.339001
v 8.972002 4.000000 -14.339001
v 12.303002 4.000000 -27.639000
v 11.153002 3.000000 -29.041000
v 5.081003 3.000000 -12.521000
v 6.415003 3.000000 -13.425003
v 4.993002 3.000000 -11.927002
v 12.770002 4.000000 -26.860001
v 8.151003 3.000000 -13.951000
v 8.151003 4.000000 -13.951000
v -29.230997 4.000000 -0.129002
v -26.262999 3.000000 3.240999
v -26.971998 3.000000 0.356998
v 13.158003 4.000000 -26.039001
v 11.762003 3.000000 -28.368004
v 7.296001 3.000000 -13.645000
v 7.296001 4.000000 -13.645000
v 13.464003 4.000000 -25.184002
v 12.303002 3.000000 -27.639000
v 6.415003 4.000000 -13.425003
v 13.158003 3.000000 -26.039001
v 12.770002 3.000000 -26.860001
v 13.685002 4.000000 -24.304001
v 13.818003 4.000000 -23.404999
v -24.889997 3.000000 -1.928001
v 5.517002 3.000000 -13.291000
v 5.517002 4.000000 -13.291000
v 13.464003 3.000000 -25.184002
v -33.748001 3.000000 -1.101002
v -30.714998 3.000000 -1.815001
v -31.401999 3.000000 0.769999
v -27.977995 3.000000 -2.070002
v -29.088995 3.000000 2.112000
v -29.515997 3.000000 -4.612001
v -31.737997 3.000000 3.751999
v 4.387003 3.000000 -10.234001
v 4.387003 4.000000 -10.234001
v 5.102806 3.000000 -13.270908
v 5.102806 4.000000 -13.270908
v 13.863003 4.000000 -22.499001
v -7.285997 3.000000 0.565998
v 13.685002 3.000000 -20.694000
v 13.818003 3.000000 -21.592003
v 13.863003 3.000000 -22.499001
v 13.818003 3.000000 -23.404999
v 13.685002 3.000000 -24.304001
v 4.993002 4.000000 -11.927002
v 4.847002 4.000000 -11.343002
v 4.644003 4.000000 -10.777000
v 4.644003 3.000000 -10.777000
v 4.847002 3.000000 -11.343002
v 5.110003 3.000000 -13.122002
v 32.785767 4.000000 5.751999
v -11.777998 3.000000 -4.908001
v -10.999998 3.000000 -4.441000
v -10.269999 3.000000 -3.900002
v 5.081003 4.000000 -12.521000
v -7.064997 4.000000 5.056999
v -7.239340 4.000000 5.751999
v -7.285997 4.000000 0.565998
v -7.064997 4.000000 1.446999
v 5.110003 4.000000 -13.122002
v -6.931997 4.000000 2.344999
v -6.887999 4.000000 3.251999
v -6.931997 4.000000 4.158998
v -11.777998 4.000000 -4.908001
v -10.999998 4.000000 -4.441000
v -10.269999 4.000000 -3.900002
vn 0.8657 0.0005 -0.5006
vn 0.8657 0.0000 -0.5006
vn 0.0000 -1.0000 0.0000
vn 0.0000 1.0000 0.0000
vn 0.8699 0.0000 -0.4932
vn -0.7415 0.0000 0.6710
vn -0.8034 0.0000 -0.5955
vn -0.7404 0.0000 -0.6722
vn -0.8034 0.0000 0.5954
vn 0.0000 0.0000 -1.0000
vn -0.8574 0.0000 0.5147
vn -0.9041 0.0000 0.4273
vn -0.7410 0.0000 -0.6715
vn -0.6716 0.0000 -0.7409
vn -0.5959 0.0000 -0.8030
vn -0.5142 0.0000 -0.8577
vn -0.4273 0.0000 -0.9041
vn 0.4212 0.9011 -0.1035
vn -0.3370 0.0000 -0.9415
vn -0.2423 0.0000 -0.9702
vn 0.3310 0.8942 0.3015
vn -0.1476 0.0000 -0.9890
vn 0.2373 0.8926 0.3833
vn -0.0485 0.0000 -0.9988
vn -0.1640 0.8969 0.4106
vn -0.2727 0.8993 0.3419
vn -0.9699 0.0000 0.2436
vn -0.4345 0.8993 -0.0490
vn -0.9892 0.0000 0.1463
vn 0.8657 0.0000 0.5005
vn -0.4064 0.8969 -0.1742
vn -0.9988 0.0000 0.0496
vn -0.9988 0.0000 -0.0496
vn -0.1033 0.8927 -0.4386
vn -0.9892 0.0000 -0.1465
vn 0.0206 0.8941 -0.4474
vn 0.3712 0.9010 -0.2246
vn -0.9699 0.0000 -0.2433
vn -0.9415 0.0000 -0.3370
vn -0.9415 0.0000 0.3370
vn -0.9041 0.0000 -0.4273
vn -0.9699 0.0000 0.2433
vn -0.9892 0.0000 0.1465
vn -0.8574 0.0000 -0.5147
vn -0.9988 0.0000 0.0485
vn -0.9988 0.0000 -0.0485
vn -0.8034 0.0000 -0.5954
vn -0.4273 0.0000 0.9041
vn -0.5147 0.0000 0.8574
vn 0.0000 0.0000 1.0000
vn -0.5954 0.0000 0.8034
vn -0.5142 0.0000 0.8577
vn -0.6710 0.0000 0.7415
vn -0.5959 0.0000 0.8030
vn -0.8030 0.0000 0.5959
vn -0.8577 0.0000 0.5142
vn -1.0000 0.0000 0.0000
vn -0.5138 0.0000 -0.8579
vn -0.6722 0.0000 -0.7404
vn -0.5955 0.0000 -0.8034
vn -0.9988 0.0000 0.0483
vn -0.9988 0.0000 -0.0482
vn -0.9892 0.0000 -0.1466
vn -0.9701 0.0000 -0.2425
vn -0.9413 0.0000 -0.3376
vn -0.9039 0.0000 -0.4278
vn -0.8579 0.0000 -0.5138
usemtl None
s off
f 1//1 2//1 3//1
f 4//2 3//2 2//2
f 4//2 2//2 5//2
f 6//3 7//3 1//3
f 8//4 9//4 10//4
f 11//5 12//5 13//5
f 11//5 13//5 14//5
f 1//3 15//3 16//3
f 16//3 6//3 1//3
f 17//3 14//3 18//3
f 19//4 9//4 8//4
f 20//3 21//3 1//3
f 22//4 9//4 19//4
f 7//6 10//6 23//6
f 7//6 23//6 24//6
f 25//7 26//7 27//7
f 25//7 27//7 28//7
f 1//3 3//3 20//3
f 29//4 13//4 30//4
f 31//4 30//4 13//4
f 32//3 33//3 34//3
f 35//4 13//4 29//4
f 36//8 37//8 26//8
f 36//8 26//8 25//8
f 6//9 8//9 10//9
f 6//9 10//9 7//9
f 38//4 13//4 35//4
f 39//10 9//10 40//10
f 16//11 19//11 8//11
f 16//11 8//11 6//11
f 41//4 13//4 38//4
f 42//4 43//4 44//4
f 1//10 40//10 9//10
f 15//12 22//12 19//12
f 15//12 19//12 16//12
f 45//4 13//4 41//4
f 46//3 47//3 48//3
f 47//3 49//3 48//3
f 49//3 20//3 48//3
f 50//3 14//3 51//3
f 52//3 51//3 14//3
f 53//3 14//3 34//3
f 36//3 14//3 53//3
f 32//3 34//3 14//3
f 54//4 12//4 55//4
f 56//4 55//4 12//4
f 43//4 13//4 44//4
f 57//4 44//4 13//4
f 45//13 52//13 58//13
f 45//13 58//13 59//13
f 60//4 12//4 54//4
f 61//3 46//3 48//3
f 48//3 20//3 3//3
f 11//3 62//3 63//3
f 59//14 58//14 64//14
f 59//14 64//14 65//14
f 66//4 12//4 60//4
f 62//3 11//3 67//3
f 65//15 64//15 68//15
f 65//15 68//15 69//15
f 70//4 12//4 66//4
f 71//3 67//3 11//3
f 69//16 68//16 72//16
f 69//16 72//16 73//16
f 74//4 12//4 70//4
f 75//3 71//3 11//3
f 76//3 77//3 78//3
f 79//4 12//4 74//4
f 73//17 72//17 80//17
f 73//17 80//17 81//17
f 82//18 83//18 84//18
f 85//4 12//4 79//4
f 86//3 75//3 11//3
f 87//19 88//19 81//19
f 87//19 81//19 80//19
f 89//4 12//4 85//4
f 90//3 86//3 11//3
f 77//20 91//20 88//20
f 77//20 88//20 87//20
f 92//3 93//3 11//3
f 93//3 90//3 11//3
f 94//4 95//4 12//4
f 96//21 82//21 84//21
f 97//22 98//22 91//22
f 97//22 91//22 77//22
f 99//3 92//3 11//3
f 100//3 101//3 102//3
f 103//3 104//3 101//3
f 105//3 103//3 101//3
f 102//3 101//3 104//3
f 96//3 84//3 103//3
f 84//3 104//3 103//3
f 83//3 104//3 84//3
f 106//3 102//3 104//3
f 25//3 28//3 14//3
f 107//3 14//3 28//3
f 82//23 106//23 104//23
f 27//4 13//4 108//4
f 109//24 110//24 97//24
f 98//24 97//24 110//24
f 36//3 25//3 14//3
f 111//4 31//4 13//4
f 89//4 94//4 12//4
f 82//25 104//25 83//25
f 26//4 13//4 27//4
f 15//3 1//3 112//3
f 87//3 80//3 14//3
f 50//3 18//3 14//3
f 14//3 17//3 113//3
f 14//3 113//3 114//3
f 115//3 116//3 14//3
f 14//3 116//3 11//3
f 82//26 100//26 102//26
f 94//27 99//27 117//27
f 21//3 112//3 1//3
f 57//4 13//4 37//4
f 26//4 37//4 13//4
f 88//4 91//4 118//4
f 119//4 13//4 118//4
f 81//4 88//4 13//4
f 13//4 119//4 120//4
f 120//4 108//4 13//4
f 82//28 102//28 106//28
f 14//3 107//3 121//3
f 14//3 121//3 122//3
f 14//3 122//3 78//3
f 123//3 97//3 76//3
f 109//3 97//3 123//3
f 77//3 87//3 78//3
f 14//3 78//3 87//3
f 94//29 117//29 116//29
f 94//29 116//29 95//29
f 124//30 48//30 3//30
f 124//30 3//30 4//30
f 82//31 105//31 101//31
f 52//3 14//3 58//3
f 64//3 58//3 14//3
f 95//32 116//32 115//32
f 95//32 115//32 111//32
f 65//4 13//4 59//4
f 68//3 64//3 14//3
f 114//33 31//33 111//33
f 114//33 111//33 115//33
f 72//3 68//3 14//3
f 80//3 72//3 14//3
f 40//3 1//3 125//3
f 69//4 13//4 65//4
f 59//4 13//4 45//4
f 82//34 101//34 100//34
f 113//35 30//35 31//35
f 113//35 31//35 114//35
f 126//3 125//3 1//3
f 96//36 103//36 82//36
f 81//4 13//4 73//4
f 82//37 103//37 105//37
f 17//38 29//38 30//38
f 17//38 30//38 113//38
f 77//3 76//3 97//3
f 127//3 126//3 1//3
f 128//4 118//4 91//4
f 69//4 73//4 13//4
f 18//39 35//39 29//39
f 18//39 29//39 17//39
f 129//4 130//4 124//4
f 131//40 15//40 112//40
f 7//3 24//3 1//3
f 24//3 127//3 1//3
f 98//4 128//4 91//4
f 99//3 11//3 117//3
f 50//41 38//41 35//41
f 50//41 35//41 18//41
f 131//42 112//42 21//42
f 131//42 21//42 132//42
f 15//40 131//40 22//40
f 116//3 117//3 11//3
f 110//4 133//4 98//4
f 133//4 128//4 98//4
f 88//4 118//4 13//4
f 132//43 21//43 20//43
f 132//43 20//43 134//43
f 51//44 41//44 38//44
f 51//44 38//44 50//44
f 115//3 14//3 114//3
f 134//45 20//45 49//45
f 134//45 49//45 135//45
f 130//38 129//38 61//38
f 136//46 135//46 49//46
f 52//47 45//47 41//47
f 52//47 41//47 51//47
f 13//4 12//4 95//4
f 111//4 13//4 95//4
f 125//48 137//48 39//48
f 125//48 39//48 40//48
f 62//48 55//48 56//48
f 62//48 56//48 63//48
f 126//49 138//49 137//49
f 126//49 137//49 125//49
f 14//50 13//50 32//50
f 127//51 139//51 138//51
f 127//51 138//51 126//51
f 130//50 61//50 124//50
f 67//52 54//52 55//52
f 67//52 55//52 62//52
f 43//50 32//50 13//50
f 124//50 61//50 48//50
f 24//53 23//53 139//53
f 24//53 139//53 127//53
f 71//54 60//54 54//54
f 71//54 54//54 67//54
f 129//4 124//4 136//4
f 47//46 136//46 49//46
f 75//53 66//53 60//53
f 75//53 60//53 71//53
f 4//4 5//4 124//4
f 9//4 124//4 5//4
f 9//4 132//4 124//4
f 136//35 47//35 129//35
f 46//35 129//35 47//35
f 86//6 70//6 66//6
f 86//6 66//6 75//6
f 131//4 9//4 22//4
f 56//10 12//10 63//10
f 134//4 124//4 132//4
f 132//4 9//4 131//4
f 61//38 129//38 46//38
f 135//4 124//4 134//4
f 90//55 74//55 70//55
f 90//55 70//55 86//55
f 136//4 124//4 135//4
f 5//10 2//10 9//10
f 9//10 2//10 1//10
f 93//56 79//56 74//56
f 93//56 74//56 90//56
f 138//4 9//4 137//4
f 39//4 137//4 9//4
f 139//4 9//4 138//4
f 92//12 85//12 79//12
f 92//12 79//12 93//12
f 23//4 9//4 139//4
f 10//4 9//4 23//4
f 99//40 89//40 85//40
f 99//40 85//40 92//40
f 99//27 94//27 89//27
f 11//10 63//10 12//10
f 42//57 33//57 32//57
f 42//57 32//57 43//57
f 44//58 34//58 33//58
f 44//58 33//58 42//58
f 53//59 57//59 36//59
f 37//59 36//59 57//59
f 34//60 44//60 53//60
f 57//60 53//60 44//60
f 110//61 109//61 133//61
f 133//61 109//61 123//61
f 76//62 128//62 133//62
f 76//62 133//62 123//62
f 78//63 118//63 128//63
f 78//63 128//63 76//63
f 122//64 119//64 118//64
f 122//64 118//64 78//64
f 121//65 120//65 119//65
f 121//65 119//65 122//65
f 107//66 108//66 120//66
f 107//66 120//66 121//66
f 28//67 27//67 108//67
f 28//67 108//67 107//67
