# Blender v2.82 (sub 7) OBJ File: ''
# www.blender.org
mtllib 3church-3.mtl
o Church_3
v -2.514000 4.000000 3.834000
v -3.883000 4.000000 4.582000
v -3.248000 4.000000 3.511000
v -4.365000 4.000000 4.421000
v -4.330000 4.000000 3.403000
v -6.424000 4.750000 8.761001
v -5.592000 4.750000 9.314000
v -4.818000 4.750000 8.314000
v -5.144000 4.750000 7.628000
v -3.658000 4.750000 8.264000
v -4.255000 4.750000 8.505000
v -3.401000 4.750000 9.439000
v -4.212000 4.750000 9.503000
v -2.276000 4.000000 8.938000
v -1.918000 4.000000 8.519000
v -1.918000 4.750000 8.519000
v -2.276000 4.750000 8.938000
v -3.942000 4.000000 5.500000
v -4.273000 4.000000 6.759000
v -4.527000 4.000000 5.705000
v -4.851000 4.000000 6.856000
v -4.759000 4.000000 5.685000
v -3.420000 4.750000 7.620000
v -1.625000 4.750000 7.531000
v -2.093000 4.000000 4.320000
v -2.093000 4.750000 4.320000
v -1.953000 4.750000 4.916000
v -1.953000 4.000000 4.916000
v 3.925000 13.750000 -1.650000
v 3.925000 13.750000 1.350000
v -1.075000 13.750000 1.350000
v -1.075000 13.750000 -1.650000
v -3.708000 4.000000 5.013000
v -2.868000 4.000000 6.151000
v -3.883000 4.750000 4.582000
v -3.708000 4.750000 5.013000
v -2.514000 4.750000 3.834000
v -4.365000 4.750000 4.421000
v -4.877000 4.000000 4.596000
v -6.925000 4.000000 7.845000
v -6.925000 4.750000 7.845000
v 1.425000 15.250000 1.350000
v -3.420000 4.000000 7.620000
v -3.248000 4.750000 3.511000
v -3.649000 4.000000 6.984000
v -3.649000 4.750000 6.984000
v -2.763000 4.750000 9.248000
v -2.299000 4.000000 6.349000
v -2.868000 4.750000 6.151000
v -2.299000 4.750000 6.349000
v -4.818000 4.000000 8.314000
v -5.144000 4.000000 7.628000
v 1.425000 15.250000 -1.650000
v -1.625000 4.000000 7.531000
v -4.330000 4.750000 3.403000
v -4.255000 4.000000 8.505000
v -1.802000 4.750000 6.825000
v -4.759000 4.750000 5.685000
v -4.273000 4.750000 6.759000
v 1.425000 10.729000 -1.650000
v -1.075000 8.093000 -1.650000
v 3.925000 8.093000 -1.650000
v -6.424000 4.000000 8.761001
v 3.925000 8.093000 -7.650000
v -1.075000 8.093000 -7.650000
v 1.425000 10.729000 -7.650000
v -5.592000 4.000000 9.314000
v -4.527000 4.750000 5.705000
v -1.802000 4.000000 6.825000
v -3.658000 4.000000 8.264000
v -3.942000 4.750000 5.500000
v -5.144000 4.000000 5.210000
v -6.829000 4.000000 4.932000
v -6.522000 4.000000 4.278000
v -6.021000 4.000000 3.797000
v -5.300000 4.000000 3.502000
v -2.181000 4.750000 5.608000
v -2.181000 4.000000 5.608000
v -3.401000 4.000000 9.439000
v -4.212000 4.000000 9.503000
v -4.851000 4.750000 6.856000
v -5.300000 4.750000 3.502000
v -2.763000 4.000000 9.248000
v -5.144000 4.750000 5.210000
v -4.877000 4.750000 4.596000
v -6.522000 4.750000 4.278000
v -6.021000 4.750000 3.797000
v -6.829000 4.750000 4.932000
vn 0.0000 -1.0000 0.0000
vn 0.0000 1.0000 0.0000
vn 0.7603 0.0000 0.6496
vn 0.9735 0.0000 -0.2287
vn 0.7558 0.0000 -0.6548
vn 0.3234 0.0000 0.9463
vn -0.1209 0.0000 -0.9927
vn 0.0000 0.0000 1.0000
vn -0.9380 0.0000 -0.3467
vn -0.9409 0.0000 0.3388
vn 0.4028 0.0000 -0.9153
vn 0.3287 0.0000 -0.9445
vn 0.9032 0.0000 -0.4292
vn 0.5145 0.8575 0.0000
vn 0.9587 0.0000 0.2843
vn -0.5145 0.8575 0.0000
vn 0.0993 0.0000 -0.9951
vn 0.3213 0.0000 -0.9470
vn 0.0000 0.0000 -1.0000
vn 0.0859 0.0000 -0.9963
vn -0.3392 0.0000 0.9407
vn -0.8773 0.0000 0.4799
vn 0.7256 0.6881 0.0000
vn -0.5535 0.0000 0.8328
vn -0.7256 0.6881 0.0000
vn 0.9700 0.0000 -0.2432
vn -0.3743 0.0000 -0.9273
vn -0.3307 0.0000 -0.9437
vn 0.6917 0.0000 -0.7222
vn 0.1655 0.0000 0.9862
vn -0.9013 0.0000 -0.4331
vn 0.6201 0.0000 0.7845
vn -0.9265 0.0000 0.3762
vn 0.9498 0.0000 0.3129
vn -0.3168 0.0000 0.9485
vn -0.9969 0.0000 -0.0783
vn -0.1357 0.0000 0.9908
vn 0.0787 0.0000 0.9969
vn 0.9170 0.0000 0.3988
vn 0.2868 0.0000 0.9580
vn 0.5370 0.0000 0.8436
vn -0.1015 0.0000 -0.9948
vn -0.3787 0.0000 -0.9255
vn -0.6926 0.0000 -0.7214
vn -0.9052 0.0000 -0.4249
vn -0.1628 0.0000 0.9867
usemtl None
s off
f 1//1 2//1 3//1
f 2//1 4//1 3//1
f 5//1 3//1 4//1
f 6//2 7//2 8//2
f 8//2 9//2 6//2
f 10//2 11//2 12//2
f 13//2 12//2 11//2
f 11//2 8//2 7//2
f 13//2 11//2 7//2
f 14//3 15//3 16//3
f 14//3 16//3 17//3
f 18//1 19//1 20//1
f 21//1 22//1 20//1
f 17//2 16//2 23//2
f 24//2 23//2 16//2
f 25//4 26//4 27//4
f 25//4 27//4 28//4
f 29//1 30//1 31//1
f 29//1 31//1 32//1
f 33//1 34//1 18//1
f 35//2 36//2 37//2
f 26//2 37//2 36//2
f 26//5 25//5 1//5
f 4//6 38//6 39//6
f 40//7 41//7 9//7
f 1//5 37//5 26//5
f 42//8 31//8 30//8
f 43//9 10//9 23//9
f 35//2 44//2 38//2
f 45//10 43//10 23//10
f 45//10 23//10 46//10
f 12//2 47//2 10//2
f 1//11 3//11 44//11
f 1//11 44//11 37//11
f 48//12 34//12 49//12
f 48//12 49//12 50//12
f 8//13 51//13 52//13
f 53//14 42//14 30//14
f 53//14 30//14 29//14
f 24//15 16//15 15//15
f 24//15 15//15 54//15
f 53//16 32//16 31//16
f 53//16 31//16 42//16
f 3//17 5//17 55//17
f 3//17 55//17 44//17
f 56//18 51//18 8//18
f 56//18 8//18 11//18
f 24//2 57//2 23//2
f 10//2 17//2 23//2
f 47//2 17//2 10//2
f 53//19 29//19 32//19
f 20//20 22//20 58//20
f 19//21 45//21 46//21
f 19//21 46//21 59//21
f 60//8 61//8 62//8
f 6//22 41//22 63//22
f 40//22 63//22 41//22
f 64//19 65//19 66//19
f 66//23 60//23 62//23
f 66//23 62//23 64//23
f 52//13 9//13 8//13
f 46//2 23//2 50//2
f 57//2 50//2 23//2
f 6//24 63//24 67//24
f 65//25 61//25 60//25
f 65//25 60//25 66//25
f 52//7 40//7 9//7
f 62//1 61//1 65//1
f 62//1 65//1 64//1
f 20//20 58//20 68//20
f 69//26 57//26 24//26
f 69//26 24//26 54//26
f 70//27 56//27 11//27
f 70//27 11//27 10//27
f 18//28 20//28 68//28
f 18//28 68//28 71//28
f 69//29 50//29 57//29
f 6//24 67//24 7//24
f 72//1 73//1 74//1
f 75//1 39//1 74//1
f 76//1 39//1 75//1
f 72//1 74//1 39//1
f 49//2 77//2 36//2
f 21//30 19//30 59//30
f 78//1 34//1 33//1
f 28//1 78//1 33//1
f 2//1 1//1 33//1
f 33//31 18//31 71//31
f 33//31 71//31 36//31
f 77//32 49//32 34//32
f 67//1 63//1 51//1
f 2//33 33//33 36//33
f 2//33 36//33 35//33
f 49//2 71//2 46//2
f 59//2 46//2 71//2
f 36//2 71//2 49//2
f 50//2 49//2 46//2
f 28//1 33//1 25//1
f 1//1 25//1 33//1
f 78//32 77//32 34//32
f 63//1 40//1 52//1
f 52//1 51//1 63//1
f 79//1 80//1 56//1
f 69//29 48//29 50//29
f 39//1 76//1 4//1
f 76//1 5//1 4//1
f 27//34 77//34 78//34
f 27//34 78//34 28//34
f 51//1 56//1 67//1
f 80//1 67//1 56//1
f 70//1 79//1 56//1
f 59//2 68//2 81//2
f 4//35 2//35 35//35
f 4//35 35//35 38//35
f 45//1 48//1 43//1
f 43//1 54//1 15//1
f 55//2 82//2 38//2
f 83//1 70//1 14//1
f 79//1 70//1 83//1
f 70//1 43//1 14//1
f 15//1 14//1 43//1
f 44//2 35//2 37//2
f 55//2 38//2 44//2
f 54//1 43//1 69//1
f 58//2 81//2 68//2
f 34//1 45//1 18//1
f 22//36 21//36 81//36
f 22//36 81//36 58//36
f 69//1 43//1 48//1
f 48//1 45//1 34//1
f 19//1 18//1 45//1
f 21//1 20//1 19//1
f 68//2 59//2 71//2
f 84//2 85//2 86//2
f 87//2 86//2 85//2
f 88//2 84//2 86//2
f 82//2 87//2 85//2
f 85//2 38//2 82//2
f 59//30 81//30 21//30
f 80//37 13//37 7//37
f 80//37 7//37 67//37
f 80//38 79//38 13//38
f 12//38 13//38 79//38
f 41//2 6//2 9//2
f 38//6 85//6 39//6
f 43//9 70//9 10//9
f 27//2 26//2 36//2
f 77//2 27//2 36//2
f 39//39 85//39 84//39
f 39//39 84//39 72//39
f 79//40 83//40 47//40
f 79//40 47//40 12//40
f 83//41 14//41 17//41
f 83//41 17//41 47//41
f 82//42 55//42 76//42
f 5//42 76//42 55//42
f 76//43 75//43 87//43
f 76//43 87//43 82//43
f 75//44 74//44 86//44
f 75//44 86//44 87//44
f 74//45 73//45 88//45
f 74//45 88//45 86//45
f 84//46 88//46 73//46
f 84//46 73//46 72//46
