# Blender v2.82 (sub 7) OBJ File: ''
# www.blender.org
mtllib 5cathedral-1.mtl
o Cathedral_1
v 8.723000 3.000000 -1.689000
v 8.286000 3.000000 -0.281000
v 8.286000 0.000000 -0.281000
v 8.723000 0.000000 -1.689000
v 4.295000 0.000000 -10.110000
v 2.887000 0.000000 -10.548000
v 2.887000 3.000000 -10.548000
v 4.295000 3.000000 -10.110000
v -5.535000 3.000000 -6.119000
v -5.535000 0.000000 -6.119000
v -5.972000 0.000000 -4.711000
v -5.972000 3.000000 -4.711000
v -6.085000 0.000000 -3.966000
v -6.085000 3.000000 -3.966000
v -0.136000 3.000000 -10.548000
v -0.136000 0.000000 -10.548000
v -1.543000 0.000000 -10.110000
v -1.543000 3.000000 -10.110000
v -2.818000 0.000000 -9.419000
v -2.818000 3.000000 -9.419000
v 5.569000 0.000000 -9.419000
v 6.679000 0.000000 -8.503000
v 7.595000 0.000000 -7.393000
v 8.286000 0.000000 -6.119000
v 8.723000 0.000000 -4.711000
v 2.142000 0.000000 -10.661000
v 1.376000 0.000000 -10.700000
v 8.837000 0.000000 -3.966000
v 8.876000 0.000000 -3.200000
v 8.837000 0.000000 -2.433000
v -6.894000 0.000000 2.472000
v -6.894000 0.000000 9.934000
v -7.560000 0.000000 3.021000
v -6.085000 0.000000 -2.433000
v -6.124000 0.000000 -3.200000
v -4.843000 0.000000 -7.393000
v -3.928000 0.000000 -8.503000
v 0.609000 0.000000 -10.661000
v -4.843000 0.000000 0.993000
v -5.535000 0.000000 -0.281000
v -5.972000 0.000000 -1.689000
v -1.543000 0.000000 3.711000
v -0.646000 0.000000 8.719000
v -2.818000 0.000000 3.019000
v -5.117000 4.500000 7.563000
v -5.117000 3.998000 7.563000
v -4.843000 3.998000 8.180000
v -4.843000 4.500000 8.180000
v -4.812000 3.998000 6.421000
v -4.365000 3.998000 6.302000
v -4.933000 3.998000 5.532000
v -4.406000 3.998000 5.336000
v -3.928000 0.000000 2.103000
v -4.096000 0.000000 1.899200
v -5.164000 3.998000 6.732000
v -4.252560 0.000000 1.709270
v -4.378000 0.000000 1.703000
v -4.838000 0.000000 1.726000
v 7.595000 0.000000 0.993000
v 6.679000 0.000000 2.103000
v 5.569000 0.000000 3.019000
v 4.295000 0.000000 3.711000
v 2.887000 0.000000 4.148000
v 2.142000 0.000000 4.261000
v 1.376000 0.000000 4.300000
v 0.609000 0.000000 4.261000
v -0.136000 0.000000 4.148000
v -0.449150 0.000000 4.050740
v -4.838000 0.000000 10.680000
v -4.838000 4.500000 10.680000
v -5.285000 4.500000 10.612000
v -5.285000 0.000000 10.612000
v -2.626000 0.000000 10.349000
v -2.626000 4.500000 10.349000
v -3.471000 4.500000 10.612000
v -3.471000 0.000000 10.612000
v -1.862000 0.000000 9.934000
v -1.862000 4.500000 9.934000
v -3.918000 4.500000 10.680000
v -3.918000 0.000000 10.680000
v -4.378000 0.000000 10.703000
v -4.378000 4.500000 10.703000
v -0.232000 4.500000 4.452000
v -0.646000 4.500000 3.687000
v -2.228000 4.500000 4.632000
v 0.122000 4.500000 6.203000
v 0.099000 4.500000 5.743000
v -2.088000 4.500000 6.430000
v -1.954000 4.500000 7.187000
v -2.023000 4.500000 7.757000
v -0.232000 4.500000 7.954000
v -4.796000 4.500000 4.632000
v -4.933000 4.500000 5.532000
v -4.406000 4.500000 5.336000
v -1.196000 4.500000 9.385000
v -1.196000 0.000000 9.385000
v -5.164000 4.500000 6.732000
v -4.812000 4.500000 6.421000
v -4.365000 4.500000 6.302000
v -0.646000 4.500000 8.719000
v -2.228000 4.500000 3.301000
v -2.228000 3.998000 4.632000
v -6.525000 4.500000 6.528000
v -6.733000 4.500000 7.748000
v -4.796000 3.998000 4.632000
v -4.329000 4.500000 8.391000
v -2.230000 4.500000 8.305000
v -2.230000 3.998000 8.305000
v -2.564000 3.998000 8.778000
v -2.564000 4.500000 8.778000
v -4.036000 3.998000 6.365000
v -4.036000 4.500000 6.365000
v -2.088000 3.998000 6.430000
v -1.954000 3.998000 7.187000
v -3.014000 3.998000 9.123000
v -3.014000 4.500000 9.123000
v -2.023000 3.998000 7.757000
v -3.593000 3.998000 9.335000
v -3.593000 4.500000 9.335000
v -4.314000 3.998000 9.406000
v -4.314000 4.500000 9.406000
v -3.780000 4.500000 6.552000
v -3.780000 3.998000 6.552000
v -3.616000 4.500000 6.874000
v -3.616000 3.998000 6.874000
v -5.288000 3.998000 9.293000
v -5.288000 4.500000 9.293000
v -3.561000 4.500000 7.338000
v -3.561000 3.998000 7.338000
v -5.978000 4.500000 8.958000
v -6.129000 4.500000 10.349000
v -5.978000 3.998000 8.958000
v -3.615000 4.500000 7.797000
v -3.615000 3.998000 7.797000
v -3.778000 4.500000 8.126000
v -3.778000 3.998000 8.126000
v -4.025000 4.500000 8.325000
v -4.025000 3.998000 8.325000
v -4.329000 3.998000 8.391000
v 0.031000 4.500000 7.110000
v 0.031000 0.000000 7.110000
v -0.232000 0.000000 7.954000
v 0.099000 0.000000 5.743000
v 0.122000 0.000000 6.203000
v 0.099000 0.000000 6.663000
v 0.099000 4.500000 6.663000
v -8.524000 0.000000 7.954000
v -8.786000 0.000000 7.110000
v -8.854000 0.000000 6.663000
v -8.878000 0.000000 6.203000
v -8.854000 0.000000 5.743000
v -8.786000 0.000000 5.296000
v -8.524000 0.000000 4.452000
v -8.109000 0.000000 3.687000
v -8.109000 0.000000 8.719000
v 0.031000 4.500000 5.296000
v 0.031000 0.000000 5.296000
v -6.129000 0.000000 2.057000
v -8.854000 4.500000 5.743000
v -8.878000 4.500000 6.203000
v -8.786000 4.500000 5.296000
v -6.129000 0.000000 10.349000
v -8.854000 4.500000 6.663000
v -8.786000 4.500000 7.110000
v -8.524000 4.500000 7.954000
v -7.560000 0.000000 9.385000
v -3.928000 3.000000 -8.503000
v -2.626000 4.500000 2.057000
v -3.471000 4.500000 1.794000
v -3.918000 4.500000 1.726000
v -6.019000 4.500000 3.301000
v -4.843000 3.000000 -7.393000
v -2.491000 3.998000 5.815000
v -3.109000 3.998000 5.407000
v -3.890000 3.998000 5.270000
v -5.972000 3.000000 -1.689000
v -5.535000 3.000000 -0.281000
v -1.862000 4.500000 2.472000
v -1.196000 4.500000 3.021000
v -5.285000 4.500000 1.794000
v -4.838000 4.500000 1.726000
v -5.285000 0.000000 1.794000
v -7.560000 4.500000 3.021000
v -6.085000 3.000000 -2.433000
v -6.129000 4.500000 2.057000
v -4.378000 4.500000 1.703000
v -6.124000 3.000000 -3.200000
v -0.646000 3.000000 3.687000
v -1.196000 3.000000 3.021000
v -6.019000 3.998000 3.301000
v -6.525000 3.998000 6.528000
v -3.918000 3.000000 1.726000
v -4.252560 3.000000 1.709270
v 0.609000 3.000000 -10.661000
v -6.894000 4.500000 2.472000
v -8.109000 4.500000 3.687000
v -8.524000 4.500000 4.452000
v -3.471000 3.000000 1.794000
v -6.439000 4.500000 8.452000
v -7.560000 4.500000 9.385000
v -8.109000 4.500000 8.719000
v -0.136000 3.000000 4.148000
v -0.449150 3.000000 4.050740
v -0.232000 0.000000 4.452000
v 1.376000 3.000000 4.300000
v 2.142000 3.000000 4.261000
v -6.894000 4.500000 9.934000
v 5.569000 3.000000 3.019000
v 6.679000 3.000000 2.103000
v -3.890000 4.500000 5.270000
v -3.109000 4.500000 5.407000
v -2.491000 4.500000 5.815000
v -1.862000 3.000000 2.472000
v -2.626000 3.000000 2.057000
v -6.733000 3.998000 7.748000
v -6.439000 3.998000 8.452000
v -2.228000 3.998000 3.301000
v -4.843000 3.000000 0.993000
v 7.595000 3.000000 0.993000
v 4.295000 3.000000 3.711000
v 2.887000 3.000000 4.148000
v 0.609000 3.000000 4.261000
v 1.376000 3.000000 -10.700000
v 8.837000 3.000000 -2.433000
v 8.876000 3.000000 -3.200000
v 8.837000 3.000000 -3.966000
v 8.723000 3.000000 -4.711000
v 8.286000 3.000000 -6.119000
v 7.595000 3.000000 -7.393000
v 6.679000 3.000000 -8.503000
v 5.569000 3.000000 -9.419000
v 2.142000 3.000000 -10.661000
vn 0.9551 0.0000 0.2964
vn 0.2970 0.0000 -0.9549
vn -0.9551 0.0000 -0.2964
vn -0.9887 0.0000 -0.1500
vn -0.2972 0.0000 -0.9548
vn -0.4765 0.0000 -0.8792
vn 0.0000 -1.0000 0.0000
vn -0.9139 0.0000 0.4059
vn 0.0000 1.0000 0.0000
vn -0.1504 0.0000 0.9886
vn 0.2972 0.0000 0.9548
vn 0.4773 0.0000 0.8787
vn 0.1504 0.0000 0.9886
vn -0.0499 0.0000 0.9988
vn 0.0499 0.0000 0.9988
vn 0.6361 0.0000 0.7716
vn 0.7711 0.0000 0.6368
vn -1.0000 0.0000 0.0000
vn 0.0000 0.0000 -1.0000
vn -0.8169 0.0000 -0.5768
vn 0.1881 0.0000 -0.9822
vn -0.9847 0.0000 0.1743
vn -0.6084 0.0000 -0.7936
vn -0.9928 0.0000 -0.1202
vn -0.3438 0.0000 -0.9390
vn -0.0980 0.0000 -0.9952
vn 0.5899 0.0000 -0.8075
vn -0.9355 0.0000 -0.3534
vn 0.8911 0.0000 -0.4538
vn 0.1152 0.0000 -0.9933
vn 0.9930 0.0000 -0.1177
vn 0.4368 0.0000 -0.8996
vn 0.9932 0.0000 0.1168
vn 0.8961 0.0000 0.4439
vn 0.6274 0.0000 0.7787
vn 0.2122 0.0000 0.9772
vn 0.9547 0.0000 0.2975
vn 0.9988 0.0000 -0.0499
vn 0.9886 0.0000 0.1504
vn 0.9886 0.0000 -0.1504
vn 0.9988 0.0000 0.0499
vn -0.9986 0.0000 -0.0521
vn 0.8795 0.0000 0.4760
vn -0.9886 0.0000 -0.1504
vn -0.9986 0.0000 0.0521
vn 0.8795 0.0000 0.4759
vn -0.9550 0.0000 0.2965
vn -0.6365 0.0000 -0.7713
vn -0.7716 0.0000 -0.6361
vn -0.9551 0.0000 0.2964
vn -0.8787 0.0000 0.4773
vn -0.8787 0.0000 -0.4773
vn -0.1504 0.0000 -0.9886
vn -0.9887 0.0000 0.1502
vn -0.9987 0.0000 -0.0508
vn 0.7711 0.0000 -0.6368
vn -0.9987 0.0000 0.0508
vn 0.9879 0.0000 0.1549
vn 0.0499 0.0000 -0.9988
vn -0.1500 0.0000 -0.9887
vn 0.0000 0.0000 1.0000
vn 0.1504 0.0000 -0.9886
vn 0.3486 0.0000 0.9373
vn -0.9886 0.0000 -0.1505
vn -0.2966 0.0000 0.9550
vn 0.8795 0.0000 -0.4759
vn 0.0508 0.0000 0.9987
vn 0.9547 0.0000 -0.2975
vn 0.6365 0.0000 0.7713
vn 0.1269 0.0000 0.9919
vn -0.8790 0.0000 -0.4768
vn -0.1728 0.0000 0.9850
vn -0.6361 0.0000 -0.7716
vn -0.5510 0.0000 0.8345
vn -0.9886 0.0000 0.1504
vn -0.4768 0.0000 -0.8790
vn -0.9550 0.0000 -0.2965
vn -0.8364 0.0000 0.5481
vn -0.2975 0.0000 0.9547
vn -0.8790 0.0000 0.4768
vn -0.7716 0.0000 0.6361
vn -0.2975 0.0000 -0.9547
vn -0.6361 0.0000 0.7716
vn 0.4773 0.0000 -0.8787
vn -0.4768 0.0000 0.8790
vn 0.1482 0.0000 -0.9890
vn 0.6361 0.0000 -0.7716
vn 0.1137 0.0000 0.9935
vn 0.7392 0.0000 -0.6735
vn 0.9228 0.0000 -0.3854
vn 0.8795 0.0000 -0.4760
vn 0.2972 0.0000 -0.9548
vn -0.0499 0.0000 -0.9988
vn 0.8790 0.0000 0.4768
vn 0.7713 0.0000 0.6365
vn -0.6621 0.0000 -0.7494
vn -0.2573 0.0000 -0.9663
vn 0.2964 0.0000 0.9551
vn -0.1500 0.0000 0.9887
vn 0.1500 0.0000 0.9887
vn -0.0508 0.0000 0.9987
vn -0.3798 0.0000 0.9251
vn 0.0508 0.0000 -0.9987
vn 0.1500 0.0000 -0.9887
vn -0.0508 0.0000 -0.9987
vn 0.4768 0.0000 -0.8790
vn 0.6365 0.0000 -0.7713
vn 0.7713 0.0000 -0.6365
vn 0.9987 0.0000 0.0508
vn 0.8790 0.0000 -0.4768
vn 0.9885 0.0000 0.1515
vn 0.9551 0.0000 -0.2964
vn 0.9885 0.0000 -0.1513
vn 0.9987 0.0000 -0.0508
usemtl None
s off
f 1//1 2//1 3//1
f 1//1 3//1 4//1
f 5//2 6//2 7//2
f 5//2 7//2 8//2
f 9//3 10//3 11//3
f 9//3 11//3 12//3
f 11//4 13//4 14//4
f 11//4 14//4 12//4
f 15//5 16//5 17//5
f 15//5 17//5 18//5
f 17//6 19//6 20//6
f 17//6 20//6 18//6
f 5//7 21//7 6//7
f 21//7 22//7 6//7
f 22//7 23//7 6//7
f 23//7 24//7 6//7
f 24//7 25//7 6//7
f 26//7 6//7 25//7
f 27//7 26//7 25//7
f 27//7 25//7 28//7
f 27//7 28//7 29//7
f 27//7 29//7 30//7
f 27//7 30//7 4//7
f 27//7 4//7 3//7
f 31//7 32//7 33//7
f 34//7 35//7 13//7
f 34//7 13//7 11//7
f 34//7 11//7 10//7
f 34//7 10//7 36//7
f 34//7 36//7 37//7
f 34//7 37//7 19//7
f 34//7 19//7 17//7
f 34//7 17//7 16//7
f 27//7 34//7 38//7
f 16//7 38//7 34//7
f 39//7 40//7 27//7
f 40//7 41//7 27//7
f 34//7 27//7 41//7
f 42//7 43//7 44//7
f 45//8 46//8 47//8
f 45//8 47//8 48//8
f 49//9 50//9 51//9
f 52//9 51//9 50//9
f 53//7 32//7 54//7
f 55//9 49//9 51//9
f 54//7 32//7 56//7
f 57//7 56//7 32//7
f 58//7 57//7 32//7
f 44//7 32//7 53//7
f 54//7 27//7 53//7
f 56//7 27//7 54//7
f 39//7 27//7 56//7
f 44//7 53//7 27//7
f 3//7 59//7 27//7
f 59//7 60//7 27//7
f 60//7 61//7 27//7
f 61//7 62//7 27//7
f 62//7 63//7 27//7
f 63//7 64//7 27//7
f 64//7 65//7 27//7
f 65//7 66//7 27//7
f 66//7 67//7 27//7
f 68//7 27//7 67//7
f 68//7 42//7 27//7
f 44//7 27//7 42//7
f 69//10 70//10 71//10
f 69//10 71//10 72//10
f 73//11 74//11 75//11
f 73//11 75//11 76//11
f 77//12 78//12 74//12
f 77//12 74//12 73//12
f 75//13 79//13 80//13
f 75//13 80//13 76//13
f 81//14 82//14 70//14
f 81//14 70//14 69//14
f 83//9 84//9 85//9
f 86//9 87//9 88//9
f 89//9 90//9 91//9
f 79//15 82//15 81//15
f 79//15 81//15 80//15
f 92//9 93//9 94//9
f 95//16 78//16 96//16
f 77//16 96//16 78//16
f 97//9 45//9 98//9
f 99//9 98//9 45//9
f 100//17 95//17 96//17
f 100//17 96//17 43//17
f 101//18 102//18 85//18
f 103//9 104//9 97//9
f 105//19 92//19 102//19
f 45//9 48//9 99//9
f 106//9 99//9 48//9
f 107//20 108//20 109//20
f 107//20 109//20 110//20
f 111//21 99//21 112//21
f 88//22 113//22 114//22
f 88//22 114//22 89//22
f 115//23 116//23 110//23
f 115//23 110//23 109//23
f 117//24 90//24 89//24
f 117//24 89//24 114//24
f 118//25 119//25 116//25
f 118//25 116//25 115//25
f 119//26 118//26 120//26
f 119//26 120//26 121//26
f 119//9 121//9 79//9
f 116//9 78//9 110//9
f 111//27 112//27 122//27
f 111//27 122//27 123//27
f 82//9 79//9 121//9
f 108//28 107//28 117//28
f 90//28 117//28 107//28
f 123//29 122//29 124//29
f 123//29 124//29 125//29
f 126//30 127//30 120//30
f 121//30 120//30 127//30
f 125//31 124//31 128//31
f 125//31 128//31 129//31
f 130//9 131//9 127//9
f 127//32 126//32 132//32
f 127//32 132//32 130//32
f 129//33 128//33 133//33
f 129//33 133//33 134//33
f 134//34 133//34 135//34
f 134//34 135//34 136//34
f 137//35 138//35 135//35
f 136//35 135//35 138//35
f 138//36 137//36 106//36
f 138//36 106//36 139//36
f 107//9 110//9 95//9
f 78//9 116//9 74//9
f 95//9 110//9 78//9
f 116//9 119//9 74//9
f 75//9 74//9 119//9
f 79//9 75//9 119//9
f 71//9 70//9 127//9
f 121//9 127//9 70//9
f 82//9 121//9 70//9
f 140//37 91//37 141//37
f 142//37 141//37 91//37
f 138//9 139//9 118//9
f 118//9 115//9 138//9
f 109//9 136//9 115//9
f 108//9 134//9 109//9
f 143//38 87//38 86//38
f 143//38 86//38 144//38
f 141//39 145//39 146//39
f 141//39 146//39 140//39
f 147//7 148//7 149//7
f 147//7 149//7 150//7
f 147//7 150//7 151//7
f 147//7 151//7 152//7
f 147//7 152//7 153//7
f 154//7 155//7 153//7
f 156//40 87//40 143//40
f 156//40 143//40 157//40
f 145//41 144//41 86//41
f 145//41 86//41 146//41
f 158//7 32//7 31//7
f 159//42 151//42 150//42
f 159//42 150//42 160//42
f 100//43 43//43 91//43
f 161//44 152//44 151//44
f 161//44 151//44 159//44
f 32//7 44//7 162//7
f 160//45 150//45 149//45
f 160//45 149//45 163//45
f 142//46 91//46 43//46
f 164//47 148//47 147//47
f 164//47 147//47 165//47
f 166//7 33//7 32//7
f 155//7 33//7 166//7
f 147//7 153//7 155//7
f 154//7 33//7 155//7
f 19//48 37//48 167//48
f 19//48 167//48 20//48
f 101//9 168//9 169//9
f 170//9 171//9 169//9
f 37//49 36//49 172//49
f 37//49 172//49 167//49
f 173//9 174//9 123//9
f 111//9 123//9 174//9
f 52//9 50//9 175//9
f 174//9 175//9 111//9
f 111//9 175//9 50//9
f 176//50 41//50 40//50
f 176//50 40//50 177//50
f 168//9 101//9 178//9
f 179//9 178//9 101//9
f 179//9 85//9 84//9
f 40//51 39//51 177//51
f 36//52 10//52 9//52
f 36//52 9//52 172//52
f 180//53 181//53 58//53
f 180//53 58//53 182//53
f 171//9 183//9 103//9
f 45//9 97//9 104//9
f 184//54 34//54 41//54
f 184//54 41//54 176//54
f 101//9 169//9 171//9
f 180//9 185//9 171//9
f 180//9 171//9 181//9
f 181//9 171//9 186//9
f 186//9 171//9 170//9
f 13//55 35//55 187//55
f 13//55 187//55 14//55
f 114//9 113//9 125//9
f 113//9 173//9 125//9
f 123//9 125//9 173//9
f 179//56 84//56 188//56
f 179//56 188//56 189//56
f 187//57 35//57 34//57
f 187//57 34//57 184//57
f 190//58 171//58 191//58
f 192//59 193//59 170//59
f 129//9 134//9 117//9
f 117//9 114//9 129//9
f 125//9 129//9 114//9
f 15//60 194//60 16//60
f 38//60 16//60 194//60
f 101//61 171//61 190//61
f 195//9 183//9 171//9
f 185//9 195//9 171//9
f 183//9 196//9 103//9
f 196//9 197//9 103//9
f 197//9 161//9 103//9
f 186//59 170//59 193//59
f 108//9 117//9 134//9
f 169//62 192//62 170//62
f 191//9 51//9 190//9
f 159//9 103//9 161//9
f 160//9 103//9 159//9
f 163//9 103//9 160//9
f 164//9 103//9 163//9
f 165//9 104//9 164//9
f 192//62 169//62 198//62
f 136//9 109//9 134//9
f 130//9 199//9 200//9
f 138//9 115//9 136//9
f 52//63 94//63 93//63
f 52//63 93//63 51//63
f 104//9 103//9 164//9
f 104//9 201//9 199//9
f 92//64 105//64 51//64
f 92//64 51//64 93//64
f 67//65 202//65 68//65
f 203//65 68//65 202//65
f 84//66 83//66 203//66
f 83//66 204//66 203//66
f 68//66 203//66 204//66
f 205//67 65//67 64//67
f 205//67 64//67 206//67
f 200//9 207//9 130//9
f 71//9 127//9 131//9
f 156//68 157//68 83//68
f 208//69 61//69 60//69
f 208//69 60//69 209//69
f 83//68 157//68 204//68
f 200//9 199//9 201//9
f 201//9 104//9 165//9
f 131//9 130//9 207//9
f 175//70 210//70 94//70
f 175//70 94//70 52//70
f 196//71 154//71 197//71
f 183//49 33//49 154//49
f 183//49 154//49 196//49
f 174//72 211//72 210//72
f 174//72 210//72 175//72
f 154//71 153//71 197//71
f 195//73 31//73 33//73
f 195//73 33//73 183//73
f 173//74 212//74 211//74
f 173//74 211//74 174//74
f 149//75 148//75 164//75
f 149//75 164//75 163//75
f 158//76 31//76 185//76
f 31//76 195//76 185//76
f 85//19 102//19 92//19
f 153//77 152//77 161//77
f 153//77 161//77 197//77
f 212//78 173//78 113//78
f 212//78 113//78 88//78
f 72//79 71//79 131//79
f 72//79 131//79 162//79
f 201//80 165//80 155//80
f 147//80 155//80 165//80
f 155//81 166//81 200//81
f 155//81 200//81 201//81
f 185//82 180//82 182//82
f 185//82 182//82 158//82
f 32//83 207//83 200//83
f 32//83 200//83 166//83
f 178//84 213//84 168//84
f 32//85 162//85 131//85
f 191//86 103//86 55//86
f 97//86 55//86 103//86
f 214//84 168//84 213//84
f 32//85 131//85 207//85
f 179//87 213//87 178//87
f 46//88 45//88 215//88
f 189//87 213//87 179//87
f 130//89 132//89 199//89
f 216//89 199//89 132//89
f 216//90 104//90 199//90
f 104//90 216//90 215//90
f 203//91 188//91 84//91
f 215//88 45//88 104//88
f 132//9 47//9 216//9
f 103//58 191//58 171//58
f 169//92 168//92 198//92
f 214//92 198//92 168//92
f 144//7 42//7 143//7
f 145//7 42//7 144//7
f 141//7 42//7 145//7
f 55//9 51//9 191//9
f 105//9 190//9 51//9
f 102//18 101//18 217//18
f 157//7 42//7 204//7
f 143//7 42//7 157//7
f 142//7 42//7 141//7
f 43//7 42//7 142//7
f 68//7 204//7 42//7
f 46//9 215//9 216//9
f 181//93 57//93 58//93
f 217//61 101//61 190//61
f 182//7 58//7 32//7
f 182//7 32//7 158//7
f 39//51 218//51 177//51
f 59//94 3//94 219//94
f 2//94 219//94 3//94
f 77//7 44//7 96//7
f 96//7 44//7 43//7
f 73//7 44//7 77//7
f 193//59 56//59 57//59
f 193//59 57//59 186//59
f 217//9 105//9 102//9
f 57//93 181//93 186//93
f 76//7 44//7 73//7
f 80//7 44//7 76//7
f 81//7 44//7 80//7
f 69//7 44//7 81//7
f 69//7 72//7 44//7
f 72//7 162//7 44//7
f 190//9 105//9 217//9
f 39//81 56//81 218//81
f 156//9 83//9 85//9
f 85//9 212//9 156//9
f 87//9 156//9 88//9
f 212//9 88//9 156//9
f 218//81 56//81 193//81
f 219//95 209//95 60//95
f 219//95 60//95 59//95
f 92//9 210//9 85//9
f 98//96 49//96 55//96
f 98//96 55//96 97//96
f 208//12 220//12 62//12
f 208//12 62//12 61//12
f 99//97 50//97 49//97
f 99//97 49//97 98//97
f 212//9 85//9 211//9
f 211//9 85//9 210//9
f 94//9 210//9 92//9
f 220//98 221//98 63//98
f 220//98 63//98 62//98
f 99//21 111//21 50//21
f 140//9 146//9 88//9
f 67//99 66//99 202//99
f 222//99 202//99 66//99
f 85//9 179//9 101//9
f 221//100 206//100 64//100
f 221//100 64//100 63//100
f 146//9 86//9 88//9
f 88//9 89//9 140//9
f 65//101 205//101 222//101
f 65//101 222//101 66//101
f 91//9 140//9 89//9
f 48//102 47//102 106//102
f 139//102 106//102 47//102
f 100//9 91//9 90//9
f 95//9 100//9 107//9
f 90//9 107//9 100//9
f 137//9 135//9 133//9
f 137//9 133//9 128//9
f 137//9 128//9 124//9
f 137//9 124//9 122//9
f 99//9 137//9 112//9
f 122//9 112//9 137//9
f 137//9 99//9 106//9
f 223//9 194//9 224//9
f 223//9 224//9 225//9
f 223//9 225//9 226//9
f 223//9 226//9 227//9
f 228//9 7//9 227//9
f 229//9 7//9 228//9
f 230//9 7//9 229//9
f 231//9 7//9 230//9
f 8//9 7//9 231//9
f 232//9 227//9 7//9
f 223//9 227//9 232//9
f 1//9 224//9 194//9
f 18//9 20//9 15//9
f 20//9 167//9 15//9
f 167//9 172//9 15//9
f 172//9 9//9 15//9
f 9//9 12//9 15//9
f 194//9 15//9 12//9
f 194//9 12//9 14//9
f 194//9 14//9 187//9
f 184//9 194//9 187//9
f 176//9 194//9 184//9
f 177//9 194//9 176//9
f 206//9 221//9 2//9
f 205//9 206//9 2//9
f 219//9 2//9 221//9
f 209//9 219//9 221//9
f 220//9 208//9 221//9
f 209//9 221//9 208//9
f 177//9 218//9 194//9
f 218//9 193//9 194//9
f 192//9 198//9 194//9
f 198//9 214//9 194//9
f 222//9 205//9 2//9
f 222//9 2//9 202//9
f 2//9 1//9 194//9
f 213//9 189//9 194//9
f 189//9 188//9 2//9
f 188//9 203//9 2//9
f 213//9 194//9 214//9
f 2//9 194//9 189//9
f 202//9 2//9 203//9
f 192//9 194//9 193//9
f 232//103 26//103 27//103
f 232//103 27//103 223//103
f 7//104 6//104 26//104
f 7//104 26//104 232//104
f 27//105 38//105 194//105
f 27//105 194//105 223//105
f 231//106 21//106 5//106
f 231//106 5//106 8//106
f 230//107 22//107 21//107
f 230//107 21//107 231//107
f 230//108 229//108 23//108
f 230//108 23//108 22//108
f 224//109 30//109 29//109
f 224//109 29//109 225//109
f 229//110 228//110 24//110
f 229//110 24//110 23//110
f 224//111 1//111 4//111
f 224//111 4//111 30//111
f 228//112 227//112 25//112
f 228//112 25//112 24//112
f 227//113 226//113 28//113
f 227//113 28//113 25//113
f 226//114 225//114 29//114
f 226//114 29//114 28//114
f 132//9 126//9 47//9
f 139//9 47//9 126//9
f 126//9 120//9 139//9
f 120//9 118//9 139//9
f 46//9 216//9 47//9
