# Blender v2.82 (sub 7) OBJ File: ''
# www.blender.org
mtllib 5cathedral-3.mtl
o Cathedral_3
v -0.900000 9.250000 -9.750000
v 1.350000 12.250000 -9.750000
v 3.600000 9.250000 -9.750000
v -2.087000 4.750000 6.430000
v -2.490000 4.750000 5.816000
v -3.614000 4.750000 6.873000
v -3.559000 4.750000 7.337000
v -1.953000 4.750000 7.186000
v -5.284000 4.000000 9.291000
v -5.284000 4.750000 9.291000
v -5.973000 4.750000 8.956000
v -5.973000 4.000000 8.956000
v -4.311000 4.000000 9.403000
v -2.087000 4.000000 6.430000
v -3.776000 4.000000 8.125000
v -4.022000 4.000000 8.323000
v -4.022000 4.750000 8.323000
v -4.311000 4.750000 9.403000
v 4.690000 7.611000 -4.400000
v 4.170000 8.869000 -3.400000
v 4.690000 7.611000 -3.400000
v -2.490000 4.000000 5.816000
v -3.591000 4.000000 9.333000
v -3.591000 4.750000 9.333000
v 5.050000 6.186000 -3.400000
v -4.792000 4.750000 4.633000
v -4.792000 4.000000 4.633000
v -2.227000 4.750000 4.633000
v 0.574880 11.216510 -3.400000
v 0.574880 11.216510 -4.400000
v 0.570000 11.216000 -4.400000
v -1.953000 4.000000 7.186000
v -3.614000 4.000000 6.873000
v -3.559000 4.000000 7.337000
v -2.022000 4.000000 7.756000
v -3.613000 4.000000 7.796000
v -3.778000 4.000000 6.552000
v -2.229000 4.000000 8.303000
v -3.012000 4.000000 9.121000
v -3.012000 4.750000 9.121000
v -3.107000 4.000000 5.407000
v -3.107000 4.750000 5.407000
v -0.900000 9.250000 -4.400000
v -2.563000 4.000000 8.776000
v -2.563000 4.750000 8.776000
v -3.888000 4.000000 5.271000
v -3.888000 4.750000 5.271000
v -4.034000 4.000000 6.365000
v -2.229000 4.750000 8.303000
v 5.290000 4.593000 -3.400000
v 5.370000 3.000000 -3.400000
v 5.370000 3.000000 -4.400000
v 0.570000 11.216000 -3.400000
v -2.227000 4.000000 3.303000
v -2.227000 4.000000 4.633000
v 3.600000 9.250000 1.300000
v 1.350000 12.250000 1.300000
v -0.900000 9.250000 1.300000
v -0.190000 10.713000 -3.400000
v -0.190000 10.713000 -4.400000
v -0.870000 9.959000 -4.400000
v -0.870000 9.959000 -3.400000
v 2.130000 11.216000 -7.400000
v 3.600000 9.250000 -7.400000
v 2.890000 10.713000 -7.400000
v 3.570000 9.959000 -7.400000
v 2.125090 11.216540 -7.400000
v 5.370000 3.000000 -8.400000
v 5.290000 4.593000 -8.400000
v 5.370000 3.000000 -7.400000
v -3.778000 4.750000 6.552000
v -4.034000 4.750000 6.365000
v 2.890000 10.713000 -8.400000
v -2.630000 3.000000 -7.400000
v 5.290000 4.593000 -7.400000
v -1.470000 8.869000 -3.400000
v -1.990000 7.611000 -3.400000
v -2.350000 6.186000 -3.400000
v 3.570000 9.959000 -8.400000
v -6.433000 4.000000 8.450000
v -6.727000 4.000000 7.747000
v -5.113000 4.000000 7.562000
v -4.839000 4.000000 8.178000
v -4.326000 4.000000 8.389000
v -6.727000 4.750000 7.747000
v -6.433000 4.750000 8.450000
v -5.113000 4.750000 7.562000
v 3.600000 9.250000 -3.400000
v -0.900000 9.250000 -3.400000
v -4.362000 4.750000 6.302000
v -4.808000 4.000000 6.421000
v -4.930000 4.000000 5.533000
v -4.362000 4.000000 6.302000
v 5.050000 6.186000 -7.400000
v 4.690000 7.611000 -7.400000
v -2.350000 6.186000 -7.400000
v -1.990000 7.611000 -7.400000
v 2.130000 11.216000 -3.400000
v 2.130000 11.216000 -4.400000
v 2.125090 11.216540 -4.400000
v 2.125090 11.216540 -3.400000
v -2.590000 4.593000 -3.400000
v -6.014000 4.000000 3.303000
v -2.350000 6.186000 -4.400000
v -2.590000 4.593000 -4.400000
v 2.890000 10.713000 -4.400000
v -6.519000 4.000000 6.527000
v -2.630000 3.000000 -3.400000
v -6.014000 4.750000 3.303000
v -4.930000 4.750000 5.533000
v -2.590000 4.593000 -8.400000
v -2.590000 4.593000 -7.400000
v -2.350000 6.186000 -8.400000
v 3.600000 9.250000 -4.400000
v 3.570000 9.959000 -4.400000
v -1.990000 7.611000 -4.400000
v -4.839000 4.750000 8.178000
v -2.630000 3.000000 -8.400000
v -1.990000 7.611000 -8.400000
v 3.570000 9.959000 -3.400000
v 2.890000 10.713000 -3.400000
v -5.161000 4.000000 6.732000
v -4.403000 4.000000 5.337000
v -2.630000 3.000000 -4.400000
v -4.808000 4.750000 6.421000
v -5.161000 4.750000 6.732000
v -4.403000 4.750000 5.337000
v -6.519000 4.750000 6.527000
v 4.170000 8.869000 -7.400000
v 4.690000 7.611000 -8.400000
v 5.050000 6.186000 -8.400000
v 4.170000 8.869000 -8.400000
v 3.600000 9.250000 -8.400000
v 2.125090 11.216540 -8.400000
v -0.900000 9.250000 -8.400000
v -4.326000 4.750000 8.389000
v 4.170000 8.869000 -4.400000
v -0.870000 9.959000 -7.400000
v -0.190000 10.713000 -7.400000
v -0.190000 10.713000 -8.400000
v -0.870000 9.959000 -8.400000
v -1.470000 8.869000 -8.400000
v -3.613000 4.750000 7.796000
v -2.227000 4.750000 3.303000
v 0.570000 11.216000 -7.400000
v 5.290000 4.593000 -4.400000
v 5.050000 6.186000 -4.400000
v -3.776000 4.750000 8.125000
v -2.022000 4.750000 7.756000
v -0.900000 9.250000 -7.400000
v 0.574880 11.216510 -8.400000
v 0.574880 11.216510 -7.400000
v 2.130000 11.216000 -8.400000
v -1.470000 8.869000 -4.400000
v -1.470000 8.869000 -7.400000
v 0.570000 11.216000 -8.400000
vn 0.0000 0.0000 -1.0000
vn 0.0000 1.0000 -0.0000
vn -0.4373 0.0000 0.8993
vn -0.1144 0.0000 0.9934
vn 0.9847 0.0000 -0.1745
vn -0.6270 0.0000 -0.7790
vn 0.9242 0.3820 0.0000
vn 0.8360 0.0000 -0.5487
vn 0.0968 0.0000 0.9953
vn 0.9695 0.2449 0.0000
vn 0.0000 0.0000 1.0000
vn -0.1040 0.9946 0.0000
vn 0.0000 -1.0000 0.0000
vn 0.3438 0.0000 0.9390
vn 0.5525 0.0000 -0.8335
vn 0.6093 0.0000 0.7930
vn 0.1716 0.0000 -0.9852
vn 0.8169 0.0000 0.5768
vn 0.9987 0.0502 0.0000
vn -0.7426 0.6697 0.0000
vn 0.5519 0.8339 0.0000
vn 0.7426 0.6697 0.0000
vn 0.1095 0.9940 0.0000
vn -0.9888 0.1490 0.0000
vn -0.9695 0.2449 0.0000
vn 0.9137 0.0000 -0.4064
vn 0.8760 0.4822 0.0000
vn 0.3804 0.0000 -0.9248
vn 0.8000 0.6000 -0.0000
vn -0.1139 0.0000 -0.9935
vn -0.9242 0.3820 0.0000
vn -0.5519 0.8339 0.0000
vn -0.9880 0.0000 -0.1548
vn 1.0000 0.0000 0.0000
vn -0.8760 0.4822 0.0000
vn -0.9997 0.0251 0.0000
vn -0.8961 0.0000 -0.4439
vn -0.9226 0.0000 0.3858
vn -0.1493 0.0000 0.9888
vn -0.1886 0.0000 0.9820
vn -0.9932 0.0000 -0.1168
vn -0.9930 0.0000 0.1177
vn -0.8000 0.6000 0.0000
vn -0.8905 0.0000 0.4550
vn 0.9353 0.0000 0.3539
vn -0.5899 0.0000 0.8075
vn 0.9928 0.0000 0.1202
vn 0.2578 0.0000 0.9662
vn 0.6611 0.0000 0.7503
vn 0.9884 0.0000 0.1516
vn -0.1271 0.0000 -0.9919
vn 0.9888 0.1490 0.0000
vn -0.3486 0.0000 -0.9373
vn -0.2122 0.0000 -0.9772
vn -0.7399 0.0000 0.6727
usemtl None
s off
f 1//1 2//1 3//1
f 4//2 5//2 6//2
f 6//2 7//2 8//2
f 8//2 4//2 6//2
f 9//3 10//3 11//3
f 9//3 11//3 12//3
f 10//4 9//4 13//4
f 8//5 14//5 4//5
f 15//6 16//6 17//6
f 13//4 18//4 10//4
f 19//7 20//7 21//7
f 22//8 5//8 4//8
f 22//8 4//8 14//8
f 18//9 13//9 23//9
f 18//9 23//9 24//9
f 21//10 25//10 19//10
f 26//11 27//11 28//11
f 29//12 30//12 31//12
f 14//13 32//13 33//13
f 34//13 35//13 36//13
f 37//13 22//13 33//13
f 38//13 36//13 35//13
f 23//14 39//14 40//14
f 23//14 40//14 24//14
f 22//15 41//15 42//15
f 22//15 42//15 5//15
f 30//1 43//1 31//1
f 39//16 44//16 45//16
f 39//16 45//16 40//16
f 41//17 46//17 47//17
f 41//17 47//17 42//17
f 35//13 34//13 32//13
f 34//13 33//13 32//13
f 46//13 41//13 48//13
f 38//18 49//18 45//18
f 38//18 45//18 44//18
f 50//19 51//19 52//19
f 53//12 29//12 31//12
f 54//13 55//13 27//13
f 56//11 57//11 58//11
f 59//20 60//20 61//20
f 59//20 61//20 62//20
f 63//11 64//11 65//11
f 66//11 65//11 64//11
f 67//11 64//11 63//11
f 68//19 69//19 70//19
f 22//13 37//13 41//13
f 14//13 33//13 22//13
f 48//13 41//13 37//13
f 71//2 6//2 5//2
f 42//2 71//2 5//2
f 72//2 71//2 42//2
f 65//21 73//21 63//21
f 74//11 70//11 75//11
f 76//11 77//11 25//11
f 77//11 78//11 25//11
f 79//22 73//22 66//22
f 65//22 66//22 73//22
f 80//13 81//13 82//13
f 83//13 80//13 82//13
f 13//13 9//13 84//13
f 85//2 86//2 87//2
f 88//11 89//11 21//11
f 20//11 88//11 21//11
f 25//11 21//11 89//11
f 90//2 72//2 47//2
f 42//2 47//2 72//2
f 91//13 92//13 93//13
f 48//13 93//13 46//13
f 94//11 95//11 96//11
f 94//11 96//11 75//11
f 97//11 96//11 95//11
f 98//23 99//23 100//23
f 98//23 100//23 101//23
f 89//11 76//11 25//11
f 78//11 102//11 50//11
f 103//13 54//13 27//13
f 104//24 105//24 102//24
f 104//24 102//24 78//24
f 106//21 99//21 98//21
f 107//13 103//13 92//13
f 27//13 92//13 103//13
f 50//11 25//11 78//11
f 51//11 50//11 108//11
f 108//11 50//11 102//11
f 26//2 109//2 110//2
f 111//24 112//24 96//24
f 111//24 96//24 113//24
f 100//1 99//1 114//1
f 99//1 106//1 114//1
f 115//1 114//1 106//1
f 77//25 116//25 104//25
f 77//25 104//25 78//25
f 82//26 87//26 117//26
f 82//26 117//26 83//26
f 118//13 68//13 74//13
f 70//13 74//13 68//13
f 96//25 97//25 119//25
f 96//25 119//25 113//25
f 108//13 52//13 51//13
f 120//22 115//22 121//22
f 106//22 121//22 115//22
f 107//13 92//13 122//13
f 91//13 122//13 92//13
f 92//13 123//13 93//13
f 46//13 93//13 123//13
f 108//13 124//13 52//13
f 120//27 20//27 115//27
f 125//2 110//2 126//2
f 127//2 90//2 47//2
f 125//2 90//2 110//2
f 110//2 90//2 127//2
f 128//2 126//2 110//2
f 129//11 66//11 64//11
f 86//2 11//2 117//2
f 117//2 87//2 86//2
f 79//27 66//27 129//27
f 106//21 98//21 121//21
f 80//13 83//13 12//13
f 9//13 12//13 83//13
f 83//13 84//13 9//13
f 16//13 23//13 84//13
f 84//28 83//28 117//28
f 130//1 131//1 113//1
f 79//1 132//1 133//1
f 57//29 56//29 101//29
f 88//29 101//29 56//29
f 85//30 87//30 81//30
f 82//30 81//30 87//30
f 133//29 3//29 134//29
f 2//29 134//29 3//29
f 133//1 119//1 135//1
f 10//2 18//2 136//2
f 136//2 117//2 10//2
f 11//2 10//2 117//2
f 114//1 19//1 43//1
f 115//1 137//1 114//1
f 23//13 16//13 39//13
f 39//13 15//13 44//13
f 13//13 84//13 23//13
f 15//13 39//13 16//13
f 36//13 44//13 15//13
f 38//13 44//13 36//13
f 138//20 139//20 140//20
f 138//20 140//20 141//20
f 142//31 119//31 97//31
f 49//2 143//2 45//2
f 18//2 24//2 136//2
f 17//2 136//2 24//2
f 24//2 40//2 17//2
f 59//32 53//32 60//32
f 31//32 60//32 53//32
f 118//1 111//1 69//1
f 111//1 113//1 69//1
f 144//1 54//1 103//1
f 144//1 103//1 109//1
f 128//33 109//33 107//33
f 103//33 107//33 109//33
f 68//1 118//1 69//1
f 140//32 139//32 145//32
f 54//34 144//34 28//34
f 105//1 146//1 124//1
f 104//1 146//1 105//1
f 116//1 147//1 104//1
f 128//2 110//2 109//2
f 28//2 144//2 26//2
f 109//2 26//2 144//2
f 131//1 69//1 113//1
f 132//1 130//1 113//1
f 15//6 17//6 148//6
f 61//35 76//35 62//35
f 124//36 108//36 102//36
f 124//36 102//36 105//36
f 40//2 148//2 17//2
f 36//37 15//37 148//37
f 36//37 148//37 143//37
f 141//35 142//35 138//35
f 148//2 45//2 143//2
f 40//2 45//2 148//2
f 80//38 85//38 81//38
f 133//1 132//1 113//1
f 119//1 133//1 113//1
f 142//1 135//1 119//1
f 112//11 75//11 96//11
f 74//11 75//11 112//11
f 115//27 20//27 137//27
f 43//1 61//1 60//1
f 43//1 60//1 31//1
f 118//36 74//36 112//36
f 118//36 112//36 111//36
f 122//39 126//39 128//39
f 122//39 128//39 107//39
f 49//2 149//2 143//2
f 79//27 129//27 132//27
f 58//13 88//13 56//13
f 89//13 88//13 58//13
f 90//40 93//40 48//40
f 139//11 138//11 150//11
f 145//11 139//11 150//11
f 34//41 36//41 143//41
f 34//41 143//41 7//41
f 149//2 8//2 7//2
f 7//2 143//2 149//2
f 135//13 1//13 133//13
f 3//13 133//13 1//13
f 33//42 34//42 7//42
f 33//42 7//42 6//42
f 89//43 58//43 29//43
f 57//43 29//43 58//43
f 37//44 33//44 6//44
f 37//44 6//44 71//44
f 135//43 151//43 1//43
f 2//43 1//43 151//43
f 149//45 49//45 38//45
f 149//45 38//45 35//45
f 150//13 64//13 43//13
f 114//13 43//13 64//13
f 2//43 151//43 152//43
f 2//43 152//43 30//43
f 2//43 30//43 57//43
f 48//46 37//46 71//46
f 48//46 71//46 72//46
f 98//11 88//11 121//11
f 120//11 121//11 88//11
f 101//11 88//11 98//11
f 20//11 120//11 88//11
f 73//1 133//1 153//1
f 79//1 133//1 73//1
f 134//1 153//1 133//1
f 35//47 32//47 8//47
f 35//47 8//47 149//47
f 8//5 32//5 14//5
f 76//31 154//31 116//31
f 76//31 116//31 77//31
f 48//40 72//40 90//40
f 27//11 55//11 28//11
f 97//31 155//31 142//31
f 28//34 55//34 54//34
f 134//23 67//23 153//23
f 63//23 153//23 67//23
f 76//35 61//35 154//35
f 93//48 90//48 125//48
f 93//48 125//48 91//48
f 73//21 153//21 63//21
f 57//43 30//43 29//43
f 152//43 150//43 30//43
f 155//35 138//35 142//35
f 91//49 125//49 126//49
f 91//49 126//49 122//49
f 43//43 30//43 150//43
f 154//1 147//1 116//1
f 61//1 43//1 154//1
f 43//1 147//1 154//1
f 27//50 26//50 92//50
f 97//11 64//11 150//11
f 138//11 155//11 150//11
f 97//11 150//11 155//11
f 129//7 130//7 132//7
f 127//51 47//51 123//51
f 46//51 123//51 47//51
f 26//50 110//50 92//50
f 75//52 69//52 131//52
f 123//53 92//53 110//53
f 123//53 110//53 127//53
f 57//29 100//29 2//29
f 117//28 136//28 84//28
f 19//7 137//7 20//7
f 2//29 67//29 134//29
f 80//38 86//38 85//38
f 129//7 95//7 130//7
f 19//10 25//10 147//10
f 64//29 67//29 114//29
f 16//54 84//54 136//54
f 16//54 136//54 17//54
f 137//1 19//1 114//1
f 147//1 43//1 19//1
f 11//55 86//55 12//55
f 80//55 12//55 86//55
f 50//52 147//52 25//52
f 67//29 2//29 100//29
f 95//11 129//11 97//11
f 64//11 97//11 129//11
f 94//10 131//10 130//10
f 94//10 130//10 95//10
f 114//29 67//29 100//29
f 94//52 75//52 131//52
f 146//19 50//19 52//19
f 101//29 100//29 57//29
f 75//19 70//19 69//19
f 89//11 29//11 53//11
f 146//1 104//1 147//1
f 52//1 124//1 146//1
f 50//52 146//52 147//52
f 53//11 59//11 89//11
f 59//11 62//11 89//11
f 89//11 62//11 76//11
f 151//1 135//1 156//1
f 140//1 156//1 135//1
f 141//1 140//1 135//1
f 142//1 141//1 135//1
f 140//32 145//32 156//32
f 156//12 145//12 151//12
f 152//12 151//12 145//12
f 150//11 152//11 145//11
