# Blender v2.82 (sub 7) OBJ File: ''
# www.blender.org
mtllib base-3.mtl
o Politics_3
v -12.175004 3.000000 1.445000
v -12.396004 3.000000 0.563999
v 28.111523 3.000000 -4.994999
v -1.390003 3.000000 -9.237000
v -1.032003 3.000000 -9.720000
v 25.738625 3.000000 -8.000000
v 8.752996 3.000000 -22.500999
v 8.707996 3.000000 -21.594000
v -2.722004 4.000000 -8.030001
v -2.722004 3.000000 -8.030001
v -2.747004 3.000000 -8.015029
v -2.747004 4.000000 -8.015029
v 3.861996 4.000000 -14.341000
v 25.738625 4.000000 -8.000000
v 4.640995 4.000000 -14.808000
v -11.998004 3.000000 3.250000
v -12.042004 3.000000 4.157000
v 3.040997 4.000000 -13.953000
v -1.794004 4.000000 -8.792000
v -2.239004 3.000000 -8.388000
v -2.239004 4.000000 -8.388000
v -12.175004 4.000000 1.445000
v -12.042004 3.000000 2.343000
v -12.042004 4.000000 2.343000
v 6.651997 4.000000 -16.631001
v 6.651997 3.000000 -16.631001
v 6.042995 3.000000 -15.959000
v 6.042995 4.000000 -15.959000
v -11.998004 4.000000 3.250000
v 2.185997 4.000000 -13.647000
v -0.117004 4.000000 -11.929000
v 5.369995 3.000000 -15.349000
v 5.369995 4.000000 -15.349000
v -0.029003 3.000000 -12.523000
v -0.029003 4.000000 -12.523000
v -0.000004 4.000000 -13.124000
v -0.000004 3.000000 -13.124000
v -16.888004 3.000000 -4.910000
v -17.067863 3.000000 -4.994999
v 4.640995 3.000000 -14.808000
v -12.042004 4.000000 4.157000
v -0.117004 3.000000 -11.929000
v 3.861996 3.000000 -14.341000
v -12.175004 3.000000 5.055000
v -12.175004 4.000000 5.055000
v -1.794004 3.000000 -8.792000
v -0.263004 3.000000 -11.345000
v -0.263004 4.000000 -11.345000
v 3.040997 3.000000 -13.953000
v 8.353996 3.000000 -19.815001
v 8.047997 3.000000 -18.959999
v -12.349345 4.000000 5.750000
v -12.349345 3.000000 5.750000
v -0.466003 3.000000 -10.779000
v -0.466003 4.000000 -10.779000
v 2.185997 3.000000 -13.647000
v -16.888004 4.000000 -4.910000
v -17.067863 4.000000 -4.994999
v -0.723003 3.000000 -10.236000
v -0.723003 4.000000 -10.236000
v -0.007200 4.000000 -13.272906
v 0.406996 4.000000 -13.293000
v 1.304996 3.000000 -13.427000
v 1.304996 4.000000 -13.427000
v -16.110004 3.000000 -4.443001
v -16.110004 4.000000 -4.443001
v 7.659996 3.000000 -18.139000
v 7.192997 3.000000 -17.361000
v 0.406996 3.000000 -13.293000
v -1.032003 4.000000 -9.720000
v -15.380004 3.000000 -3.902000
v -0.007200 3.000000 -13.272906
v -1.390003 4.000000 -9.237000
v -15.380004 4.000000 -3.902000
v -14.707004 3.000000 -3.292999
v -14.098003 3.000000 -2.619999
v -14.707004 4.000000 -3.292999
v 8.574997 4.000000 -24.306000
v 8.353996 3.000000 -25.186001
v 8.574997 3.000000 -24.306000
v 8.353996 4.000000 -19.815001
v 8.574997 4.000000 -20.695999
v -14.098003 4.000000 -2.619999
v -13.090004 3.000000 -1.112000
v -13.557004 3.000000 -1.889999
v -34.341003 4.000000 -0.131001
v -31.373003 3.000000 3.239000
v -32.082005 3.000000 0.355000
v -13.557004 4.000000 -1.889999
v 30.999996 4.000000 0.000000
v 30.999996 3.000000 0.000000
v 28.111435 3.156113 -4.994999
v 28.111435 4.000000 -4.994999
v 8.707996 3.000000 -23.407000
v 8.707996 4.000000 -23.407000
v 27.675758 4.000000 5.750000
v -12.702003 3.000000 -0.291000
v -13.090004 4.000000 -1.112000
v 8.752996 4.000000 -22.500999
v 7.192997 4.000000 -17.361000
v 7.659996 4.000000 -18.139000
v 8.047997 4.000000 -18.959999
v -12.702003 4.000000 -0.291000
v 27.675758 3.000000 5.750000
v 8.707996 4.000000 -21.594000
v -30.000004 3.000000 -1.930000
v -36.848003 3.000000 3.750000
v -34.199005 3.000000 2.110001
v 8.574997 3.000000 -20.695999
v 12.841671 3.000000 -30.747000
v 3.861996 3.000000 -30.660000
v 3.677906 3.000000 -30.747000
v -38.858006 3.000000 -1.103001
v -36.512005 3.000000 0.768000
v 12.841671 4.000000 -30.747000
v 4.640995 4.000000 -30.193001
v 3.861996 4.000000 -30.660000
v 3.677906 4.000000 -30.747000
v 4.640995 3.000000 -30.193001
v -34.626003 3.000000 -4.614000
v -35.825005 3.000000 -1.816999
v 5.369995 4.000000 -29.652000
v 5.369995 3.000000 -29.652000
v 6.042995 4.000000 -29.042999
v 6.042995 3.000000 -29.042999
v -33.088005 3.000000 -2.072001
v 6.651997 4.000000 -28.370001
v 7.192997 4.000000 -27.641001
v 6.651997 3.000000 -28.370001
v 7.659996 4.000000 -26.862000
v -12.396004 4.000000 0.563999
v 7.192997 3.000000 -27.641001
v 8.047997 4.000000 -26.041000
v 8.047997 3.000000 -26.041000
v 7.659996 3.000000 -26.862000
v -11.998004 4.000000 -4.994999
v 8.353996 4.000000 -25.186001
v -2.747004 3.000000 -8.000000
v -2.747004 4.000000 -8.000000
vn 0.0000 -1.0000 -0.0000
vn -0.5138 0.0000 -0.8579
vn 0.0000 1.0000 0.0000
vn -0.6722 0.0000 -0.7404
vn -0.9892 0.0000 0.1465
vn -0.5955 0.0000 -0.8034
vn -0.7410 0.0000 -0.6715
vn -0.9988 0.0000 0.0485
vn -0.6716 0.0000 -0.7409
vn -0.9988 0.0000 -0.0482
vn -0.5959 0.0000 -0.8030
vn -0.9988 0.0000 -0.0485
vn -0.9892 0.0000 -0.1466
vn -0.5142 0.0000 -0.8577
vn -0.9892 0.0000 -0.1465
vn -0.9701 0.0000 -0.2425
vn -0.4273 0.0000 -0.9041
vn -0.9699 0.0000 -0.2433
vn -0.9413 0.0000 -0.3376
vn -0.3370 0.0000 -0.9415
vn -0.4273 0.0000 0.9041
vn -0.9039 0.0000 -0.4278
vn -0.2423 0.0000 -0.9702
vn -0.5147 0.0000 0.8574
vn -0.1476 0.0000 -0.9890
vn -0.8579 0.0000 -0.5138
vn -0.0485 0.0000 -0.9988
vn -0.8034 0.0000 -0.5955
vn -0.5954 0.0000 0.8034
vn -0.9988 0.0000 0.0483
vn -0.7404 0.0000 -0.6722
vn -0.6710 0.0000 0.7415
vn -0.9699 0.0000 0.2436
vn -0.7415 0.0000 0.6710
vn 0.4212 0.9011 -0.1035
vn -0.8034 0.0000 0.5954
vn 0.8657 0.0000 -0.5006
vn -0.9892 0.0000 0.1463
vn 0.8657 0.0000 0.5005
vn -0.8574 0.0000 0.5147
vn -0.9988 0.0000 0.0496
vn 0.8657 0.0005 -0.5006
vn -0.9041 0.0000 0.4273
vn -0.9988 0.0000 -0.0496
vn 0.3310 0.8942 0.3015
vn 0.2373 0.8926 0.3833
vn -0.9415 0.0000 0.3370
vn -0.1640 0.8969 0.4106
vn -0.2727 0.8993 0.3419
vn 0.8699 0.0000 -0.4932
vn -0.4345 0.8993 -0.0490
vn -0.4064 0.8969 -0.1742
vn -0.9415 0.0000 -0.3370
vn -0.1033 0.8927 -0.4386
vn -0.9041 0.0000 -0.4273
vn 0.0206 0.8941 -0.4474
vn 0.3712 0.9010 -0.2246
vn -0.8574 0.0000 -0.5147
vn -0.8034 0.0000 -0.5954
vn 0.0000 0.0000 1.0000
vn -0.5142 0.0000 0.8577
vn -0.5959 0.0000 0.8030
vn 0.0000 0.0000 -1.0000
vn -0.8030 0.0000 0.5959
vn -0.8577 0.0000 0.5142
vn -0.9699 0.0000 0.2433
vn -1.0000 0.0000 0.0000
usemtl None
s off
f 1//1 2//1 3//1
f 4//1 5//1 6//1
f 7//1 6//1 8//1
f 9//2 10//2 11//2
f 9//2 11//2 12//2
f 13//3 14//3 15//3
f 16//1 3//1 17//1
f 18//3 14//3 13//3
f 19//4 20//4 21//4
f 22//5 1//5 23//5
f 22//5 23//5 24//5
f 10//6 21//6 20//6
f 25//7 26//7 27//7
f 25//7 27//7 28//7
f 24//8 23//8 16//8
f 24//8 16//8 29//8
f 30//3 31//3 14//3
f 28//9 27//9 32//9
f 28//9 32//9 33//9
f 34//10 35//10 36//10
f 34//10 36//10 37//10
f 3//1 38//1 39//1
f 33//11 32//11 40//11
f 33//11 40//11 15//11
f 17//12 41//12 29//12
f 17//12 29//12 16//12
f 42//13 31//13 35//13
f 42//13 35//13 34//13
f 15//14 40//14 43//14
f 15//14 43//14 13//14
f 44//15 45//15 41//15
f 44//15 41//15 17//15
f 46//1 4//1 6//1
f 47//16 48//16 31//16
f 47//16 31//16 42//16
f 13//17 43//17 49//17
f 13//17 49//17 18//17
f 50//1 6//1 51//1
f 52//18 45//18 44//18
f 52//18 44//18 53//18
f 54//19 55//19 48//19
f 54//19 48//19 47//19
f 56//20 30//20 18//20
f 56//20 18//20 49//20
f 38//21 57//21 58//21
f 38//21 58//21 39//21
f 59//22 60//22 55//22
f 59//22 55//22 54//22
f 61//3 36//3 62//3
f 36//3 35//3 62//3
f 63//23 64//23 30//23
f 63//23 30//23 56//23
f 65//24 66//24 57//24
f 65//24 57//24 38//24
f 67//1 6//1 68//1
f 26//1 68//1 6//1
f 69//25 62//25 64//25
f 69//25 64//25 63//25
f 5//26 70//26 60//26
f 5//26 60//26 59//26
f 38//1 3//1 65//1
f 71//1 65//1 3//1
f 47//1 6//1 54//1
f 69//1 63//1 34//1
f 72//27 61//27 69//27
f 62//27 69//27 61//27
f 4//28 73//28 70//28
f 4//28 70//28 5//28
f 19//3 14//3 73//3
f 70//3 14//3 60//3
f 71//29 74//29 66//29
f 71//29 66//29 65//29
f 75//1 71//1 3//1
f 37//30 36//30 61//30
f 37//30 61//30 72//30
f 70//3 73//3 14//3
f 46//31 19//31 73//31
f 46//31 73//31 4//31
f 76//1 75//1 3//1
f 75//32 77//32 74//32
f 75//32 74//32 71//32
f 78//33 79//33 80//33
f 20//4 19//4 46//4
f 81//3 14//3 82//3
f 76//34 83//34 77//34
f 76//34 77//34 75//34
f 84//1 85//1 3//1
f 85//1 76//1 3//1
f 64//3 62//3 35//3
f 35//3 31//3 64//3
f 48//3 14//3 31//3
f 18//3 30//3 14//3
f 14//3 48//3 55//3
f 55//3 60//3 14//3
f 86//35 87//35 88//35
f 85//36 89//36 83//36
f 85//36 83//36 76//36
f 90//37 91//37 92//37
f 90//37 92//37 93//37
f 78//38 80//38 94//38
f 78//38 94//38 95//38
f 90//39 96//39 91//39
f 2//1 97//1 3//1
f 97//1 84//1 3//1
f 84//40 98//40 89//40
f 84//40 89//40 85//40
f 95//41 94//41 7//41
f 95//41 7//41 99//41
f 100//3 14//3 101//3
f 102//3 14//3 81//3
f 3//42 92//42 91//42
f 97//43 103//43 98//43
f 97//43 98//43 84//43
f 53//1 44//1 104//1
f 44//1 17//1 104//1
f 91//1 104//1 17//1
f 23//1 3//1 16//1
f 23//1 1//1 3//1
f 91//1 17//1 3//1
f 8//44 105//44 99//44
f 8//44 99//44 7//44
f 91//39 96//39 104//39
f 106//45 86//45 88//45
f 86//46 107//46 108//46
f 25//3 14//3 100//3
f 102//3 101//3 14//3
f 109//15 82//15 105//15
f 109//15 105//15 8//15
f 2//47 103//47 97//47
f 86//48 108//48 87//48
f 110//1 111//1 112//1
f 27//1 26//1 6//1
f 86//49 113//49 114//49
f 50//18 81//18 82//18
f 50//18 82//18 109//18
f 14//50 6//50 115//50
f 110//50 115//50 6//50
f 116//3 115//3 117//3
f 118//3 117//3 115//3
f 111//1 110//1 119//1
f 86//51 114//51 107//51
f 86//52 120//52 121//52
f 51//53 102//53 81//53
f 51//53 81//53 50//53
f 122//3 115//3 116//3
f 32//1 27//1 6//1
f 123//1 119//1 110//1
f 86//54 121//54 113//54
f 124//3 115//3 122//3
f 40//1 32//1 6//1
f 67//55 101//55 102//55
f 67//55 102//55 51//55
f 125//1 123//1 110//1
f 86//56 106//56 126//56
f 107//1 114//1 108//1
f 114//1 121//1 108//1
f 113//1 121//1 114//1
f 121//1 126//1 108//1
f 120//1 126//1 121//1
f 88//1 108//1 126//1
f 106//1 88//1 126//1
f 87//1 108//1 88//1
f 86//57 126//57 120//57
f 127//3 115//3 124//3
f 96//3 90//3 93//3
f 68//58 100//58 101//58
f 68//58 101//58 67//58
f 128//3 115//3 127//3
f 129//1 125//1 110//1
f 26//59 25//59 100//59
f 26//59 100//59 68//59
f 96//60 52//60 53//60
f 130//3 115//3 128//3
f 22//3 96//3 131//3
f 131//3 96//3 103//3
f 132//1 129//1 110//1
f 49//1 43//1 6//1
f 111//21 117//21 118//21
f 111//21 118//21 112//21
f 104//60 96//60 53//60
f 133//3 115//3 130//3
f 24//3 96//3 22//3
f 134//1 135//1 110//1
f 135//1 132//1 110//1
f 119//61 116//61 117//61
f 119//61 117//61 111//61
f 78//3 95//3 115//3
f 29//3 96//3 24//3
f 37//1 72//1 69//1
f 123//62 122//62 116//62
f 123//62 116//62 119//62
f 79//1 134//1 110//1
f 58//63 136//63 39//63
f 133//3 137//3 115//3
f 14//3 115//3 95//3
f 125//32 124//32 122//32
f 125//32 122//32 123//32
f 63//1 56//1 42//1
f 6//1 42//1 56//1
f 56//1 49//1 6//1
f 43//1 40//1 6//1
f 51//1 6//1 67//1
f 6//1 50//1 109//1
f 6//1 109//1 8//1
f 7//1 94//1 6//1
f 6//1 94//1 110//1
f 129//34 127//34 124//34
f 129//34 124//34 125//34
f 99//3 14//3 95//3
f 82//3 14//3 105//3
f 99//3 105//3 14//3
f 64//3 31//3 30//3
f 137//3 78//3 115//3
f 79//1 110//1 80//1
f 80//1 110//1 94//1
f 132//64 128//64 127//64
f 132//64 127//64 129//64
f 138//1 11//1 10//1
f 135//65 130//65 128//65
f 135//65 128//65 132//65
f 139//3 14//3 9//3
f 12//3 139//3 9//3
f 66//3 136//3 57//3
f 58//3 57//3 136//3
f 134//43 133//43 130//43
f 134//43 130//43 135//43
f 21//3 9//3 14//3
f 74//3 136//3 66//3
f 3//63 39//63 136//63
f 79//47 137//47 133//47
f 79//47 133//47 134//47
f 77//3 136//3 74//3
f 138//1 10//1 6//1
f 19//3 21//3 14//3
f 118//63 115//63 112//63
f 93//63 92//63 136//63
f 3//63 136//63 92//63
f 20//1 6//1 10//1
f 46//1 6//1 20//1
f 79//33 78//33 137//33
f 83//3 136//3 77//3
f 103//47 2//47 131//47
f 21//6 10//6 9//6
f 37//1 69//1 34//1
f 89//3 136//3 83//3
f 131//66 2//66 1//66
f 131//66 1//66 22//66
f 98//3 136//3 89//3
f 34//1 63//1 42//1
f 42//1 6//1 47//1
f 103//3 96//3 98//3
f 54//1 6//1 59//1
f 5//1 59//1 6//1
f 41//3 96//3 29//3
f 45//3 96//3 41//3
f 52//3 96//3 45//3
f 136//3 98//3 96//3
f 136//3 96//3 93//3
f 110//63 112//63 115//63
f 28//3 14//3 25//3
f 33//3 14//3 28//3
f 15//3 14//3 33//3
f 138//60 6//60 139//60
f 14//60 139//60 6//60
f 12//67 11//67 138//67
f 12//67 138//67 139//67
