# Blender v2.82 (sub 7) OBJ File: ''
# www.blender.org
mtllib brick-2.mtl
o Undiscovered_Land_-_Tokens_-_Brick-2
v 9.214000 0.001000 -4.952000
v 9.214000 1.101000 -4.952000
v 9.655000 1.101000 -4.020000
v 9.655000 0.001000 -4.020000
v -1.080000 0.001000 10.454000
v -1.080000 1.101000 10.454000
v -2.099001 1.101000 10.302999
v -2.099001 0.001000 10.302999
v 8.684000 0.001000 -5.836000
v 8.684000 1.101000 -5.836000
v -0.049999 0.001000 10.504999
v -0.049999 1.101000 10.504999
v 8.070000 0.001000 -6.664000
v 8.070000 1.101000 -6.664000
v 7.378000 0.001000 -7.428000
v 7.378000 1.101000 -7.428000
v 3.294279 0.799000 -6.387480
v 2.575270 0.799000 -6.376580
v 3.296000 0.179000 -6.392000
v -3.099001 0.001000 -10.052000
v -3.558229 0.001000 -6.270330
v -4.070000 0.001000 -9.705000
v -5.002001 0.001000 -9.264000
v -2.099001 0.001000 -10.302999
v -1.080000 0.001000 -10.454000
v -0.049999 0.001000 -10.505000
v 0.980000 0.001000 -10.454000
v 3.270910 0.001000 -6.375420
v 1.999001 0.001000 -10.302999
v 2.999001 0.001000 -10.052000
v -10.555000 0.001000 0.000000
v -10.555000 1.101000 0.000000
v -10.504000 0.001000 -1.030000
v -10.504000 0.001000 1.030000
v -10.504000 1.101000 1.030000
v -10.353001 0.001000 2.049000
v -10.353001 1.101000 2.049000
v 3.750231 0.001000 -1.395460
v 10.002000 0.001000 -3.049000
v 7.568470 0.001000 -0.246130
v 10.253000 0.001000 -2.049000
v 3.298059 0.001000 -6.375840
v 6.614000 0.001000 -8.120000
v -10.101999 0.001000 3.049000
v -10.101999 1.101000 3.049000
v 6.028860 0.001000 -0.222350
v -9.754999 0.001000 4.020000
v -9.754999 1.101000 4.020000
v -9.313999 0.001000 4.952000
v -9.313999 1.101000 4.952000
v 10.002000 0.001000 3.049000
v 9.655000 0.001000 4.020000
v 7.650340 0.001000 0.652270
v 8.023620 0.001000 4.754230
v -4.070000 1.101000 -9.705000
v 7.378000 1.101000 7.428000
v -3.099001 1.101000 -10.052000
v -8.784000 0.001000 5.836000
v -8.784000 1.101000 5.836000
v -8.170000 0.001000 6.664000
v -8.170000 1.101000 6.664000
v 9.214000 0.001000 4.952000
v 8.684000 0.001000 5.836000
v 8.070000 0.001000 6.664000
v 7.378000 0.001000 7.428000
v 1.085600 0.001000 4.859170
v 6.614000 0.001000 8.120001
v -7.478001 0.001000 7.428000
v 10.404000 0.001000 -1.030000
v 10.455000 0.001000 0.000000
v -7.478001 1.101000 7.428000
v -8.170000 1.101000 -6.664000
v -7.478001 1.101000 -7.428000
v -8.784000 1.101000 -5.836000
v -9.313999 1.101000 -4.952000
v -10.504000 1.101000 -1.030000
v 0.980000 1.101000 10.454000
v -9.754999 1.101000 -4.020000
v 10.404000 0.001000 1.030000
v 10.253000 0.001000 2.049000
v 4.902000 0.001000 9.264000
v 5.786000 0.001000 8.733999
v -7.902941 0.799000 5.002170
v -7.701139 0.799000 2.784240
v -7.584789 0.799000 4.997330
v -0.138790 0.799000 4.884730
v -3.894489 0.799000 -0.065700
v -0.435631 0.799000 1.620580
v -0.593910 0.799000 -0.116240
v 10.002000 1.101000 -3.049000
v 5.786000 1.101000 -8.734000
v -5.886000 0.001000 -8.734000
v -7.900841 0.001000 4.996330
v -7.628950 0.001000 2.008210
v -7.472200 0.001000 4.989800
v -3.277140 0.001000 -1.288290
v 0.716419 0.001000 -0.141040
v -0.136681 0.001000 4.878880
v -0.591690 0.001000 -0.122060
v -2.967140 0.001000 -0.085690
v -4.013950 0.001000 -1.277110
v -7.444281 0.001000 -0.018150
v -7.446289 0.799000 -0.012120
v 3.969999 0.001000 -9.705000
v 4.902000 0.001000 -9.264000
v -10.101999 0.001000 -3.049000
v -9.754999 0.001000 -4.020000
v -0.477779 0.001000 1.127940
v -7.478001 0.001000 -7.428000
v 6.614000 1.101000 8.120001
v -10.353001 1.101000 -2.049000
v 21.716000 1.101000 -5.836000
v -5.886000 1.101000 -8.734000
v -6.714001 1.101000 -8.120000
v -10.101999 1.101000 -3.049000
v 0.714230 0.799000 -0.135170
v 5.427390 0.799000 -0.207310
v 0.559401 0.799000 1.566350
v -9.313999 0.001000 -4.952000
v -8.784000 0.001000 -5.836000
v -8.170000 0.001000 -6.664000
v -6.714001 0.001000 -8.120000
v 5.786000 0.001000 -8.734000
v 0.259710 0.001000 4.871700
v 0.979031 0.799000 4.866610
v 8.021520 0.799000 4.760100
v 0.605221 0.001000 1.081030
v 0.257601 0.799000 4.877550
v 10.002000 1.101000 3.049000
v 9.655000 1.101000 4.020000
v 4.902000 1.101000 -9.264000
v 3.969999 1.101000 -9.705000
v 8.070000 1.101000 6.664000
v 0.980000 0.001000 10.454000
v 1.999001 0.001000 10.302999
v 1.999001 1.101000 10.302999
v 2.999001 0.001000 10.052000
v 2.999001 1.101000 10.052000
v 3.969999 0.001000 9.705000
v 3.969999 1.101000 9.705000
v 6.614000 1.101000 -8.120000
v 4.902000 1.101000 9.264000
v -6.714001 1.101000 8.120001
v -6.714001 0.001000 8.120001
v -5.886000 0.001000 8.733999
v -5.886000 1.101000 8.733999
v -5.002001 0.001000 9.264000
v -5.002001 1.101000 9.264000
v -4.070000 1.101000 9.705000
v -3.099001 1.101000 10.052000
v -4.070000 0.001000 9.705000
v -3.099001 0.001000 10.052000
v 8.684000 1.101000 5.836000
v 9.214000 1.101000 4.952000
v 2.999001 1.101000 -10.052000
v 1.999001 1.101000 -10.302999
v 0.980000 1.101000 -10.454000
v -10.353001 0.001000 -2.049000
v -0.049999 1.101000 -10.505000
v -1.080000 1.101000 -10.454000
v -2.099001 1.101000 -10.302999
v 10.253000 1.101000 2.049000
v 10.404000 1.101000 1.030000
v 10.455000 1.101000 0.000000
v -5.002001 1.101000 -9.264000
v 7.566310 0.799000 -0.240340
v 7.680060 0.799000 1.007770
v 10.404000 1.101000 -1.030000
v 10.253000 1.101000 -2.049000
v 5.786000 1.101000 8.733999
v 3.748119 0.799000 -1.389610
v -3.389721 0.799000 -1.280750
v 3.328680 0.799000 -6.009430
v -3.612480 0.799000 -5.693190
v -4.016060 0.799000 -1.271250
v -3.558640 0.799000 -6.283590
v -3.556999 0.195000 -6.288000
vn 0.9039 0.0000 -0.4277
vn -0.1466 0.0000 0.9892
vn 0.8577 0.0000 -0.5142
vn -0.0495 0.0000 0.9988
vn 0.8032 0.0000 -0.5956
vn 0.7412 0.0000 -0.6713
vn 0.0152 -0.0072 0.9999
vn 0.0000 -1.0000 0.0000
vn -0.9988 0.0000 -0.0495
vn -0.9988 0.0000 0.0495
vn -0.9892 0.0000 0.1466
vn -0.9699 0.0000 0.2434
vn -0.9417 0.0000 0.3365
vn -0.9039 0.0000 0.4277
vn 0.0000 1.0000 0.0000
vn -0.8577 0.0000 0.5142
vn -0.8032 0.0000 0.5956
vn -0.7412 0.0000 0.6713
vn 0.9959 0.0020 0.0906
vn -0.0152 0.0073 -0.9999
vn -0.0151 0.0073 -0.9999
vn 0.0153 -0.0073 0.9999
vn 0.0153 -0.0072 0.9999
vn 0.0151 -0.0075 0.9999
vn 0.9959 0.0018 0.0908
vn -0.9959 -0.0033 0.0906
vn -0.9959 -0.0034 0.0908
vn 0.9959 0.0021 0.0906
vn 0.9959 0.0020 0.0908
vn 0.0495 0.0000 0.9988
vn 0.1466 0.0000 0.9892
vn 0.2434 0.0000 0.9699
vn 0.3365 0.0000 0.9417
vn 0.6713 0.0000 -0.7412
vn 0.4277 0.0000 0.9039
vn -0.6713 0.0000 0.7412
vn -0.5956 0.0000 0.8032
vn -0.5142 0.0000 0.8577
vn -0.4277 0.0000 0.9039
vn 0.7412 0.0000 0.6713
vn 0.5956 0.0000 -0.8032
vn -0.3365 0.0000 0.9417
vn 0.5142 0.0000 -0.8577
vn 0.8032 0.0000 0.5956
vn -0.2434 0.0000 0.9699
vn 0.8577 0.0000 0.5142
vn 0.4277 0.0000 -0.9039
vn 0.3365 0.0000 -0.9417
vn 0.9039 0.0000 0.4277
vn 0.2434 0.0000 -0.9699
vn 0.1466 0.0000 -0.9892
vn 0.0495 0.0000 -0.9988
vn 0.9417 0.0000 0.3365
vn -0.0495 0.0000 -0.9988
vn -0.1466 0.0000 -0.9892
vn -0.2434 0.0000 -0.9699
vn 0.9699 0.0000 0.2434
vn 0.9892 0.0000 0.1466
vn -0.3365 0.0000 -0.9417
vn 0.9988 0.0000 0.0495
vn -0.4277 0.0000 -0.9039
vn 0.9988 0.0000 -0.0495
vn -0.5142 0.0000 -0.8577
vn -0.5956 0.0000 -0.8032
vn 0.0154 -0.0072 0.9999
vn 0.9892 0.0000 -0.1466
vn 0.9699 0.0000 -0.2434
vn 0.9417 0.0000 -0.3365
vn -0.9959 -0.0033 0.0908
vn 0.5142 0.0000 0.8577
vn 0.5956 0.0000 0.8032
vn 0.6713 0.0000 0.7412
vn -0.6713 0.0000 -0.7412
vn -0.7412 0.0000 -0.6713
vn -0.8032 0.0000 -0.5956
vn -0.8577 0.0000 -0.5142
vn -0.9039 0.0000 -0.4277
vn -0.9417 0.0000 -0.3365
vn -0.9699 0.0000 -0.2434
vn -0.9892 0.0000 -0.1466
vn 0.0154 0.0906 0.9958
vn 0.0153 0.0906 0.9958
vn 0.9959 0.0020 0.0909
vn -0.9959 -0.0034 0.0906
vn -0.9959 -0.0033 0.0904
vn 0.0152 -0.0073 0.9999
usemtl None
s off
f 1//1 2//1 3//1
f 1//1 3//1 4//1
f 5//2 6//2 7//2
f 5//2 7//2 8//2
f 9//3 10//3 2//3
f 9//3 2//3 1//3
f 11//4 12//4 6//4
f 11//4 6//4 5//4
f 13//5 14//5 10//5
f 13//5 10//5 9//5
f 15//6 16//6 14//6
f 15//6 14//6 13//6
f 17//7 18//7 19//7
f 20//8 21//8 22//8
f 23//8 22//8 21//8
f 24//8 21//8 20//8
f 25//8 21//8 24//8
f 26//8 21//8 25//8
f 27//8 28//8 26//8
f 29//8 28//8 27//8
f 30//8 28//8 29//8
f 31//9 32//9 33//9
f 34//10 35//10 32//10
f 34//10 32//10 31//10
f 36//11 37//11 35//11
f 36//11 35//11 34//11
f 13//8 38//8 15//8
f 9//8 38//8 13//8
f 1//8 38//8 9//8
f 4//8 38//8 1//8
f 39//8 40//8 4//8
f 41//8 40//8 39//8
f 38//8 42//8 15//8
f 43//8 15//8 42//8
f 44//12 45//12 37//12
f 44//12 37//12 36//12
f 38//8 4//8 46//8
f 47//13 48//13 44//13
f 48//13 45//13 44//13
f 49//14 50//14 48//14
f 49//14 48//14 47//14
f 51//8 52//8 53//8
f 54//8 53//8 52//8
f 55//15 56//15 57//15
f 58//16 59//16 50//16
f 58//16 50//16 49//16
f 60//17 61//17 59//17
f 60//17 59//17 58//17
f 52//8 62//8 54//8
f 62//8 63//8 54//8
f 63//8 64//8 54//8
f 65//8 66//8 64//8
f 67//8 66//8 65//8
f 68//18 61//18 60//18
f 69//8 40//8 41//8
f 69//8 70//8 40//8
f 61//18 68//18 71//18
f 72//15 56//15 73//15
f 74//15 56//15 72//15
f 75//15 56//15 74//15
f 76//15 32//15 77//15
f 78//15 56//15 75//15
f 53//8 40//8 70//8
f 70//8 79//8 53//8
f 79//8 80//8 53//8
f 51//8 53//8 80//8
f 81//8 66//8 82//8
f 82//8 66//8 67//8
f 83//8 84//8 85//8
f 86//8 85//8 84//8
f 87//8 88//8 84//8
f 89//8 88//8 87//8
f 86//8 84//8 88//8
f 90//15 3//15 91//15
f 92//8 23//8 21//8
f 83//19 93//19 84//19
f 94//19 84//19 93//19
f 93//20 83//20 85//20
f 93//20 85//20 95//20
f 96//8 38//8 97//8
f 98//21 95//21 86//21
f 85//21 86//21 95//21
f 46//8 97//8 38//8
f 99//8 100//8 96//8
f 101//8 96//8 100//8
f 100//8 102//8 101//8
f 89//22 87//22 100//22
f 89//23 100//23 99//23
f 46//8 4//8 40//8
f 21//8 26//8 28//8
f 84//8 103//8 87//8
f 104//8 105//8 42//8
f 103//24 102//24 87//24
f 100//24 87//24 102//24
f 32//15 35//15 77//15
f 59//15 77//15 50//15
f 61//15 77//15 59//15
f 84//25 94//25 103//25
f 102//25 103//25 94//25
f 106//8 107//8 101//8
f 28//8 30//8 42//8
f 108//26 98//26 88//26
f 86//26 88//26 98//26
f 49//8 47//8 94//8
f 101//8 102//8 106//8
f 21//8 101//8 109//8
f 76//15 110//15 111//15
f 108//27 88//27 89//27
f 108//27 89//27 99//27
f 113//15 114//15 56//15
f 111//15 110//15 115//15
f 116//8 117//8 118//8
f 119//8 101//8 107//8
f 120//8 101//8 119//8
f 121//8 101//8 120//8
f 109//8 101//8 121//8
f 122//8 21//8 109//8
f 92//8 21//8 122//8
f 104//8 42//8 30//8
f 123//8 43//8 42//8
f 66//20 124//20 125//20
f 123//8 42//8 105//8
f 60//8 58//8 93//8
f 125//21 126//21 66//21
f 93//8 95//8 60//8
f 95//8 98//8 60//8
f 68//8 60//8 98//8
f 118//28 127//28 116//28
f 97//28 116//28 127//28
f 125//8 128//8 118//8
f 58//8 49//8 93//8
f 36//8 34//8 94//8
f 125//20 124//20 128//20
f 129//15 91//15 130//15
f 131//15 132//15 133//15
f 115//15 56//15 78//15
f 118//29 128//29 124//29
f 118//29 124//29 127//29
f 94//8 93//8 49//8
f 12//30 11//30 134//30
f 12//30 134//30 77//30
f 71//15 77//15 61//15
f 77//31 134//31 135//31
f 77//31 135//31 136//31
f 108//8 124//8 98//8
f 137//8 135//8 66//8
f 136//32 135//32 137//32
f 136//32 137//32 138//32
f 50//15 77//15 48//15
f 99//8 96//8 97//8
f 138//33 137//33 139//33
f 138//33 139//33 140//33
f 35//15 37//15 77//15
f 37//15 45//15 77//15
f 45//15 48//15 77//15
f 43//34 141//34 16//34
f 43//34 16//34 15//34
f 140//35 139//35 142//35
f 139//8 137//8 66//8
f 66//8 134//8 124//8
f 54//8 64//8 66//8
f 71//36 68//36 143//36
f 144//36 143//36 68//36
f 145//37 146//37 143//37
f 145//37 143//37 144//37
f 147//38 148//38 146//38
f 147//38 146//38 145//38
f 108//8 99//8 127//8
f 124//8 108//8 127//8
f 97//8 127//8 99//8
f 149//15 150//15 148//15
f 146//15 148//15 150//15
f 143//15 146//15 150//15
f 71//15 143//15 150//15
f 71//15 150//15 7//15
f 71//15 7//15 6//15
f 71//15 6//15 12//15
f 71//15 12//15 77//15
f 136//15 76//15 77//15
f 138//15 76//15 136//15
f 140//15 76//15 138//15
f 142//15 76//15 140//15
f 151//39 149//39 148//39
f 151//39 148//39 147//39
f 56//40 65//40 133//40
f 64//40 133//40 65//40
f 123//41 91//41 141//41
f 123//41 141//41 43//41
f 152//42 150//42 149//42
f 152//42 149//42 151//42
f 105//43 131//43 91//43
f 105//43 91//43 123//43
f 63//44 153//44 133//44
f 63//44 133//44 64//44
f 145//8 98//8 147//8
f 139//8 66//8 81//8
f 8//45 7//45 150//45
f 8//45 150//45 152//45
f 62//46 154//46 153//46
f 62//46 153//46 63//46
f 44//8 36//8 94//8
f 102//8 94//8 34//8
f 131//47 105//47 104//47
f 131//47 104//47 132//47
f 30//48 155//48 132//48
f 30//48 132//48 104//48
f 154//49 52//49 130//49
f 29//50 156//50 155//50
f 29//50 155//50 30//50
f 27//51 157//51 156//51
f 27//51 156//51 29//51
f 158//8 106//8 102//8
f 47//8 44//8 94//8
f 34//8 31//8 102//8
f 33//8 102//8 31//8
f 158//8 102//8 33//8
f 52//49 154//49 62//49
f 26//52 159//52 157//52
f 26//52 157//52 27//52
f 51//53 130//53 52//53
f 25//54 160//54 159//54
f 25//54 159//54 26//54
f 24//55 161//55 160//55
f 24//55 160//55 25//55
f 130//53 51//53 129//53
f 20//56 57//56 161//56
f 20//56 161//56 24//56
f 80//57 162//57 129//57
f 80//57 129//57 51//57
f 79//58 163//58 162//58
f 79//58 162//58 80//58
f 22//59 55//59 57//59
f 22//59 57//59 20//59
f 70//60 164//60 163//60
f 70//60 163//60 79//60
f 23//61 165//61 55//61
f 23//61 55//61 22//61
f 69//62 164//62 70//62
f 92//63 113//63 165//63
f 92//63 165//63 23//63
f 134//8 66//8 135//8
f 11//8 124//8 134//8
f 5//8 98//8 11//8
f 8//8 98//8 5//8
f 152//8 98//8 8//8
f 124//8 11//8 98//8
f 151//8 98//8 152//8
f 147//8 98//8 151//8
f 144//8 98//8 145//8
f 68//8 98//8 144//8
f 92//64 114//64 113//64
f 166//8 167//8 117//8
f 167//8 125//8 117//8
f 126//8 125//8 167//8
f 125//8 118//8 117//8
f 69//62 168//62 164//62
f 166//65 117//65 46//65
f 166//65 46//65 40//65
f 41//66 169//66 168//66
f 41//66 168//66 69//66
f 161//15 57//15 133//15
f 39//67 90//67 169//67
f 39//67 169//67 41//67
f 4//68 3//68 90//68
f 4//68 90//68 39//68
f 46//22 117//22 97//22
f 116//22 97//22 117//22
f 40//27 53//27 166//27
f 167//69 166//69 53//69
f 53//26 54//26 167//26
f 126//26 167//26 54//26
f 54//21 66//21 126//21
f 142//35 139//35 81//35
f 142//70 81//70 82//70
f 142//70 82//70 170//70
f 170//71 82//71 67//71
f 170//71 67//71 110//71
f 155//15 133//15 132//15
f 156//15 133//15 155//15
f 157//15 133//15 156//15
f 159//15 133//15 157//15
f 160//15 133//15 159//15
f 161//15 133//15 160//15
f 56//15 133//15 57//15
f 114//15 73//15 56//15
f 165//15 56//15 55//15
f 65//72 56//72 67//72
f 110//72 67//72 56//72
f 122//64 114//64 92//64
f 109//73 73//73 114//73
f 109//73 114//73 122//73
f 121//74 72//74 73//74
f 121//74 73//74 109//74
f 120//75 74//75 72//75
f 120//75 72//75 121//75
f 119//76 75//76 74//76
f 119//76 74//76 120//76
f 107//77 78//77 75//77
f 107//77 75//77 119//77
f 106//78 115//78 78//78
f 106//78 78//78 107//78
f 2//15 91//15 3//15
f 10//15 91//15 2//15
f 14//15 91//15 10//15
f 16//15 141//15 14//15
f 91//15 14//15 141//15
f 158//79 111//79 115//79
f 158//79 115//79 106//79
f 33//80 76//80 111//80
f 33//80 111//80 158//80
f 33//9 32//9 76//9
f 133//15 153//15 91//15
f 171//8 172//8 173//8
f 174//8 18//8 172//8
f 175//8 174//8 172//8
f 173//8 172//8 18//8
f 176//8 18//8 174//8
f 17//8 173//8 18//8
f 42//81 19//81 28//81
f 21//82 28//82 177//82
f 19//82 177//82 28//82
f 174//83 101//83 177//83
f 175//83 101//83 174//83
f 101//83 21//83 177//83
f 129//15 162//15 91//15
f 91//15 131//15 133//15
f 174//29 177//29 176//29
f 101//20 175//20 172//20
f 101//20 172//20 96//20
f 96//20 172//20 171//20
f 96//20 171//20 38//20
f 173//84 17//84 19//84
f 38//85 171//85 173//85
f 38//85 173//85 19//85
f 38//85 19//85 42//85
f 168//15 91//15 164//15
f 176//86 177//86 18//86
f 19//7 18//7 177//7
f 130//15 91//15 154//15
f 154//15 91//15 153//15
f 170//15 76//15 142//15
f 90//15 91//15 169//15
f 169//15 91//15 168//15
f 163//15 91//15 162//15
f 164//15 91//15 163//15
f 110//15 76//15 170//15
f 56//15 115//15 110//15
f 113//15 56//15 165//15
