# Blender v2.82 (sub 7) OBJ File: ''
# www.blender.org
mtllib brick-3.mtl
o Undiscovered_Land_-_Tokens_-_Brick-3
v 0.608021 0.001000 1.060790
v 0.260799 0.001000 4.869460
v 0.560419 0.830000 1.564800
v 0.258600 0.830000 4.875550
v 3.298420 0.001000 -6.372030
v 3.266550 0.001000 -6.371540
v 3.296000 0.210000 -6.391000
v 0.980070 0.830000 4.864600
v -3.270840 0.001000 -1.289490
v 3.750460 0.001000 -1.395690
v -3.556431 0.001000 -6.266510
v -0.477699 0.001000 1.107090
v -0.589600 0.001000 -0.123060
v -0.591909 0.830000 -0.116920
v -0.434010 0.830000 1.618830
v -3.555000 0.226000 -6.287000
v 2.575600 0.830000 -6.375580
v -0.135590 0.001000 4.876750
v -0.137791 0.830000 4.882820
v 0.715231 0.830000 -0.136170
v 0.717501 0.001000 -0.142270
v -3.610479 0.830000 -5.692420
v -3.387791 0.830000 -1.281670
v -4.014059 0.830000 -1.272170
v 3.328680 0.830000 -6.008500
v 3.748240 0.830000 -1.389610
v -3.891411 0.830000 -0.066720
v -2.928011 0.001000 -0.087480
v 8.022860 0.001000 4.752000
v 8.020660 0.830000 4.758090
v 1.090771 0.001000 4.856870
v -7.698139 0.830000 2.783130
v -7.443291 0.830000 -0.012610
v -7.623150 0.001000 1.977260
v -7.441210 0.001000 -0.018730
v 7.648980 0.001000 0.637660
v 7.679780 0.830000 1.006830
v 7.566310 0.830000 -0.240590
v 7.568550 0.001000 -0.246530
v 5.428220 0.830000 -0.207640
v 6.053030 0.001000 -0.223180
v -7.897751 0.001000 4.994100
v -7.464930 0.001000 4.987560
v -7.581860 0.830000 4.995370
v -7.899940 0.830000 5.000170
v -4.011869 0.001000 -1.278250
v -3.556641 0.830000 -6.282590
v 3.294350 0.830000 -6.386480
vn -0.9959 -0.0020 -0.0908
vn -0.0153 -0.0906 -0.9958
vn 0.0000 1.0000 0.0000
vn 0.0000 -1.0000 0.0000
vn 0.9959 0.0034 -0.0906
vn -0.0152 0.0073 -0.9999
vn 0.9959 0.0033 -0.0904
vn -0.9959 -0.0021 -0.0906
vn -0.0152 0.0074 -0.9999
vn 0.0151 -0.0073 0.9999
vn -0.9959 -0.0018 -0.0908
vn 0.9959 0.0033 -0.0905
vn 0.0152 -0.0073 0.9999
vn 0.9959 0.0033 -0.0906
vn -0.9959 -0.0020 -0.0906
vn -0.0154 0.0071 -0.9999
vn -0.9959 -0.0020 -0.0909
vn -0.9959 -0.0019 -0.0909
vn -0.0152 0.0072 -0.9999
usemtl None
s off
f 1//1 2//1 3//1
f 4//1 3//1 2//1
f 5//2 6//2 7//2
f 4//3 8//3 3//3
f 9//4 6//4 10//4
f 11//4 6//4 9//4
f 5//4 10//4 6//4
f 12//5 13//5 14//5
f 12//5 14//5 15//5
f 7//6 16//6 17//6
f 18//7 12//7 15//7
f 18//7 15//7 19//7
f 3//8 20//8 1//8
f 21//8 1//8 20//8
f 22//3 23//3 17//3
f 24//3 23//3 22//3
f 25//3 17//3 23//3
f 26//3 25//3 23//3
f 27//9 14//9 28//9
f 13//9 28//9 14//9
f 29//10 30//10 31//10
f 8//10 31//10 30//10
f 32//11 33//11 34//11
f 35//11 34//11 33//11
f 29//12 36//12 37//12
f 29//12 37//12 30//12
f 2//13 31//13 8//13
f 2//13 8//13 4//13
f 38//14 37//14 36//14
f 38//14 36//14 39//14
f 33//6 27//6 35//6
f 28//6 35//6 27//6
f 20//6 40//6 21//6
f 41//6 21//6 40//6
f 42//10 43//10 44//10
f 42//10 44//10 45//10
f 10//12 5//12 7//12
f 10//12 7//12 25//12
f 10//12 25//12 26//12
f 19//10 44//10 43//10
f 19//10 43//10 18//10
f 46//13 9//13 23//13
f 46//13 23//13 24//13
f 45//15 32//15 42//15
f 34//15 42//15 32//15
f 39//16 41//16 38//16
f 40//16 38//16 41//16
f 24//17 22//17 46//17
f 1//4 41//4 31//4
f 2//4 1//4 31//4
f 41//4 36//4 31//4
f 41//4 1//4 21//4
f 11//4 9//4 46//4
f 29//4 31//4 36//4
f 39//4 36//4 41//4
f 28//4 13//4 12//4
f 18//4 43//4 12//4
f 28//4 12//4 43//4
f 42//4 34//4 43//4
f 28//4 43//4 34//4
f 28//4 34//4 35//4
f 9//10 10//10 26//10
f 9//10 26//10 23//10
f 30//3 37//3 8//3
f 37//3 40//3 8//3
f 3//3 8//3 40//3
f 38//3 40//3 37//3
f 20//3 3//3 40//3
f 16//1 22//1 47//1
f 17//3 47//3 22//3
f 14//3 27//3 15//3
f 27//3 32//3 15//3
f 33//3 32//3 27//3
f 19//3 15//3 32//3
f 45//3 44//3 32//3
f 19//3 32//3 44//3
f 11//18 46//18 16//18
f 17//19 48//19 7//19
f 22//17 16//17 46//17
f 11//2 16//2 6//2
f 7//2 6//2 16//2
f 7//12 48//12 25//12
f 48//3 17//3 25//3
f 17//6 16//6 47//6
