# Blender v2.82 (sub 7) OBJ File: ''
# www.blender.org
mtllib gold-3.mtl
o Undiscovered_Land_-_Tokens_-_Gold-3
v 1.025000 0.502000 2.859000
v 1.025000 0.000000 2.859000
v 1.001000 0.000000 3.130000
v 1.001000 0.502000 3.130000
v -5.276000 0.000000 2.588000
v -5.753000 0.000000 0.782000
v -5.204000 0.000000 2.328000
v 5.605000 0.502000 0.782000
v 3.887000 0.502000 -1.858270
v 4.036000 0.502000 1.576000
v 3.798000 0.502000 4.222000
v 3.798000 0.000000 4.222000
v 3.551000 0.000000 4.249000
v 3.551000 0.502000 4.249000
v -5.204000 0.000000 3.391000
v -5.667500 0.000000 6.604000
v -5.276000 0.000000 3.130000
v 4.036000 0.502000 4.143000
v 4.036000 0.000000 4.143000
v 3.304000 0.502000 1.497000
v 3.066000 0.502000 1.576000
v -5.087000 0.000000 3.631000
v 4.254000 0.000000 4.015000
v 4.254000 0.502000 4.015000
v -4.929000 0.000000 3.842000
v -4.737000 0.000000 4.015000
v 4.793000 0.502000 2.588000
v 4.793000 0.000000 2.588000
v 4.817000 0.000000 2.859000
v 4.817000 0.502000 2.859000
v 2.847000 0.502000 1.704000
v 2.169000 0.502000 0.782000
v 3.551000 0.502000 1.470000
v 3.798000 0.502000 1.497000
v 4.721000 0.502000 2.328000
v 4.721000 0.000000 2.328000
v 4.446000 0.000000 3.842000
v 4.446000 0.502000 3.842000
v 4.604000 0.502000 3.631000
v 4.604000 0.000000 3.631000
v 0.006000 0.502000 4.222000
v 5.525040 0.502000 6.604000
v 0.243000 0.502000 4.143000
v 4.721000 0.502000 3.391000
v 4.721000 0.000000 3.391000
v -3.549000 0.000000 1.576000
v -1.721000 0.000000 0.782000
v -3.330000 0.000000 1.704000
v 4.793000 0.502000 3.130000
v 4.793000 0.000000 3.130000
v -4.034000 0.000000 1.470000
v -4.281000 0.000000 1.497000
v -3.737000 0.000000 -2.315890
v -0.241000 0.000000 4.249000
v -1.619330 0.000000 6.604000
v -0.488000 0.000000 4.222000
v 0.462000 0.502000 4.015000
v 3.066000 0.502000 4.143000
v 0.654000 0.502000 3.842000
v 2.847000 0.502000 4.015000
v -1.484000 0.000000 2.588000
v -2.863000 0.000000 2.328000
v -1.412000 0.000000 2.328000
v -4.929000 0.000000 1.877000
v -4.737000 0.000000 1.704000
v -4.518000 0.000000 1.576000
v 0.812000 0.502000 3.631000
v 2.655000 0.502000 3.842000
v -4.518000 0.502000 4.143000
v -4.737000 0.502000 4.015000
v -5.667500 0.502000 6.604000
v 2.498000 0.502000 3.631000
v -4.281000 0.502000 4.222000
v -5.300000 0.000000 2.859000
v 2.309000 0.502000 3.130000
v 2.284000 0.502000 2.859000
v 2.309000 0.502000 2.588000
v 1.001000 0.502000 2.588000
v 2.655000 0.502000 1.877000
v -1.619330 0.502000 6.604000
v -5.204000 0.502000 2.328000
v -5.087000 0.502000 2.088000
v -5.753000 0.502000 0.782000
v -3.786000 0.000000 1.497000
v -2.980000 0.000000 3.631000
v -1.137000 0.000000 3.842000
v -1.294000 0.000000 3.631000
v -1.412000 0.000000 3.391000
v -5.276000 0.502000 2.588000
v -0.945000 0.000000 4.015000
v -0.726000 0.000000 4.143000
v -1.294000 0.000000 2.088000
v -2.980000 0.000000 2.088000
v -3.138000 0.000000 1.877000
v -8.304660 0.502000 -3.103000
v -5.300000 0.502000 2.859000
v -5.204000 0.502000 3.391000
v -5.276000 0.502000 3.130000
v -5.087000 0.502000 3.631000
v -8.304660 0.000000 -3.103000
v -4.929000 0.502000 3.842000
v 0.812000 0.000000 2.088000
v 0.654000 0.000000 1.877000
v 2.169000 0.000000 0.782000
v 0.243000 0.000000 1.576000
v 0.223890 0.000000 -2.206960
v 0.462000 0.000000 1.704000
v -3.330000 0.000000 4.015000
v -3.549000 0.000000 4.143000
v -0.241000 0.000000 1.470000
v 0.006000 0.000000 1.497000
v -2.863000 0.502000 2.328000
v -2.791000 0.502000 2.588000
v -1.484000 0.502000 2.588000
v -1.137000 0.000000 1.877000
v -0.945000 0.000000 1.704000
v -0.726000 0.000000 1.576000
v -2.980000 0.502000 2.088000
v -1.412000 0.502000 2.328000
v -3.138000 0.000000 3.842000
v -3.138000 0.502000 1.877000
v -1.721000 0.502000 0.782000
v -3.330000 0.502000 1.704000
v -1.508000 0.000000 2.859000
v -2.791000 0.000000 2.588000
v -2.863000 0.000000 3.391000
v -3.549000 0.502000 1.576000
v -2.791000 0.000000 3.130000
v -1.484000 0.000000 3.130000
v -0.488000 0.000000 1.497000
v -2.767000 0.000000 2.859000
v -4.034000 0.502000 1.470000
v -3.737000 0.502000 -2.315890
v -4.281000 0.502000 1.497000
v 0.929000 0.000000 2.328000
v 2.381000 0.000000 2.328000
v 2.498000 0.000000 2.088000
v 3.304000 0.502000 4.222000
v -3.786000 0.000000 4.222000
v -4.034000 0.000000 4.249000
v -4.281000 0.000000 4.222000
v -4.929000 0.502000 1.877000
v 8.103880 0.000000 -3.057910
v 5.525040 0.000000 6.604000
v 8.103880 0.502000 -3.057910
v -4.518000 0.502000 1.576000
v -4.737000 0.502000 1.704000
v 5.605000 0.000000 0.782000
v 3.887000 0.000000 -1.858270
v 0.223890 0.502000 -2.206960
v 3.304000 0.000000 4.222000
v 3.066000 0.000000 4.143000
v -3.786000 0.502000 1.497000
v -1.508000 0.502000 2.859000
v -4.034000 0.502000 4.249000
v -0.726000 0.502000 4.143000
v -0.945000 0.502000 4.015000
v -0.488000 0.502000 4.222000
v -0.241000 0.502000 4.249000
v -3.786000 0.502000 4.222000
v 1.001000 0.000000 2.588000
v 2.284000 0.000000 2.859000
v -1.294000 0.502000 2.088000
v -8.280940 0.502000 -3.103000
v -8.280940 0.000000 -3.103000
v 2.309000 0.000000 3.130000
v 2.381000 0.000000 3.391000
v -2.767000 0.502000 2.859000
v 1.025000 0.000000 4.249000
v 0.812000 0.000000 3.631000
v 2.498000 0.000000 3.631000
v -3.549000 0.502000 4.143000
v -3.330000 0.502000 4.015000
v 2.847000 0.000000 4.015000
v 2.655000 0.000000 3.842000
v -3.138000 0.502000 3.842000
v -2.980000 0.502000 3.631000
v -1.484000 0.502000 3.130000
v -1.412000 0.502000 3.391000
v -2.863000 0.502000 3.391000
v -1.294000 0.502000 3.631000
v -1.137000 0.502000 3.842000
v -2.791000 0.502000 3.130000
v 0.929000 0.502000 2.328000
v 4.036000 0.000000 1.576000
v 0.812000 0.502000 2.088000
v 3.551000 0.000000 1.470000
v 3.798000 0.000000 1.497000
v 0.654000 0.502000 1.877000
v 0.462000 0.502000 1.704000
v 2.655000 0.000000 1.877000
v 2.847000 0.000000 1.704000
v 0.243000 0.502000 1.576000
v 0.006000 0.502000 1.497000
v -4.518000 0.000000 4.143000
v -0.241000 0.502000 1.470000
v 3.066000 0.000000 1.576000
v 3.304000 0.000000 1.497000
v -0.488000 0.502000 1.497000
v 4.604000 0.000000 2.088000
v 4.446000 0.000000 1.877000
v 4.254000 0.000000 1.704000
v -0.726000 0.502000 1.576000
v -0.945000 0.502000 1.704000
v -5.087000 0.000000 2.088000
v -1.137000 0.502000 1.877000
v 0.006000 0.000000 4.222000
v 0.243000 0.000000 4.143000
v 0.654000 0.000000 3.842000
v 2.381000 0.502000 2.328000
v 0.462000 0.000000 4.015000
v 2.309000 0.000000 2.588000
v 0.929000 0.000000 3.391000
v 2.498000 0.502000 2.088000
v 2.381000 0.502000 3.391000
v 4.604000 0.502000 2.088000
v 4.446000 0.502000 1.877000
v 4.254000 0.502000 1.704000
v 0.929000 0.502000 3.391000
vn -0.9961 0.0000 -0.0882
vn 0.0000 -1.0000 0.0000
vn 0.0000 1.0000 0.0000
vn -0.1087 0.0000 -0.9941
vn -0.3150 0.0000 -0.9491
vn -0.5063 0.0000 -0.8623
vn -0.9961 0.0000 0.0882
vn -0.9637 0.0000 0.2669
vn -0.6694 0.0000 -0.7429
vn -0.8005 0.0000 -0.5994
vn -0.8989 0.0000 -0.4382
vn -0.9640 0.0000 -0.2659
vn 0.9662 0.0000 0.2579
vn 0.8382 0.0000 -0.5454
vn -0.8382 0.0000 -0.5454
vn 0.5046 0.0000 -0.8633
vn 0.3150 0.0000 -0.9491
vn 0.1087 0.0000 -0.9941
vn 0.8023 0.0000 0.5970
vn 0.0000 0.0000 -1.0000
vn 0.8974 0.0000 0.4412
vn 0.9637 0.0000 0.2669
vn 0.9961 0.0000 0.0882
vn 0.9961 0.0000 -0.0882
vn 0.9640 0.0000 -0.2659
vn 0.8974 0.0000 -0.4412
vn 0.8023 0.0000 -0.5970
vn 0.0000 0.0000 1.0000
vn 0.6694 0.0000 -0.7429
vn -0.8989 0.0000 0.4382
vn -0.9650 0.0000 0.2622
vn -0.8005 0.0000 0.5994
vn -0.6694 0.0000 0.7429
vn -0.5046 0.0000 0.8633
vn -0.3162 0.0000 0.9487
vn -0.1087 0.0000 0.9941
vn 0.3162 0.0000 -0.9487
vn 0.1087 0.0000 0.9941
vn -0.1082 0.0000 -0.9941
vn 0.3150 0.0000 0.9491
vn 0.5046 0.0000 0.8633
vn 0.8005 0.0000 0.5994
vn 0.6694 0.0000 0.7429
vn 0.8989 0.0000 0.4382
vn 0.8989 0.0000 -0.4382
vn 0.9958 0.0000 0.0919
vn 0.8005 0.0000 -0.5994
vn 0.9958 0.0000 -0.0919
vn -0.1082 0.0000 0.9941
vn 0.3162 0.0000 0.9487
vn -0.5063 0.0000 0.8623
vn -0.3150 0.0000 0.9491
vn -0.3162 0.0000 -0.9487
vn -0.5046 0.0000 -0.8633
usemtl None
s off
f 1//1 2//1 3//1
f 1//1 3//1 4//1
f 5//2 6//2 7//2
f 8//3 9//3 10//3
f 11//4 12//4 13//4
f 11//4 13//4 14//4
f 15//2 16//2 17//2
f 18//5 19//5 12//5
f 18//5 12//5 11//5
f 20//3 9//3 21//3
f 22//2 16//2 15//2
f 19//6 18//6 23//6
f 24//6 23//6 18//6
f 25//2 16//2 22//2
f 26//2 16//2 25//2
f 27//7 28//7 29//7
f 27//7 29//7 30//7
f 31//3 21//3 32//3
f 33//3 9//3 20//3
f 34//3 9//3 33//3
f 35//8 36//8 28//8
f 35//8 28//8 27//8
f 34//3 10//3 9//3
f 23//9 24//9 37//9
f 38//9 37//9 24//9
f 39//10 40//10 37//10
f 39//10 37//10 38//10
f 41//3 42//3 43//3
f 44//11 45//11 40//11
f 44//11 40//11 39//11
f 46//2 47//2 48//2
f 49//12 50//12 45//12
f 49//12 45//12 44//12
f 30//1 29//1 50//1
f 30//1 50//1 49//1
f 51//2 52//2 53//2
f 54//2 55//2 56//2
f 57//3 43//3 42//3
f 42//3 58//3 57//3
f 59//3 57//3 60//3
f 61//2 62//2 63//2
f 64//2 6//2 65//2
f 65//2 6//2 66//2
f 67//3 59//3 68//3
f 69//3 70//3 71//3
f 68//3 72//3 67//3
f 73//3 69//3 71//3
f 6//2 5//2 74//2
f 75//3 76//3 4//3
f 76//3 77//3 78//3
f 79//3 31//3 32//3
f 42//3 41//3 80//3
f 81//3 82//3 83//3
f 84//2 53//2 46//2
f 52//2 66//2 53//2
f 6//2 53//2 66//2
f 84//2 51//2 53//2
f 47//2 46//2 53//2
f 55//2 85//2 86//2
f 87//2 85//2 88//2
f 83//3 89//3 81//3
f 90//2 55//2 86//2
f 91//2 55//2 90//2
f 42//3 18//3 11//3
f 42//3 11//3 14//3
f 47//2 92//2 93//2
f 94//2 48//2 47//2
f 93//2 94//2 47//2
f 83//3 95//3 96//3
f 97//3 98//3 71//3
f 99//3 97//3 71//3
f 18//3 42//3 24//3
f 16//2 100//2 17//2
f 74//2 17//2 100//2
f 6//2 74//2 100//2
f 71//3 101//3 99//3
f 102//2 103//2 104//2
f 101//3 71//3 70//3
f 105//2 106//2 107//2
f 103//2 107//2 104//2
f 106//2 104//2 107//2
f 108//2 55//2 109//2
f 110//2 106//2 111//2
f 112//3 113//3 114//3
f 38//3 24//3 42//3
f 39//3 38//3 42//3
f 115//2 47//2 116//2
f 116//2 47//2 117//2
f 44//3 39//3 42//3
f 118//3 112//3 119//3
f 44//3 42//3 49//3
f 85//2 55//2 120//2
f 121//3 122//3 123//3
f 92//2 47//2 115//2
f 62//2 93//2 63//2
f 124//2 125//2 61//2
f 126//2 88//2 85//2
f 120//2 55//2 108//2
f 123//3 122//3 127//3
f 128//2 129//2 126//2
f 105//2 111//2 106//2
f 117//2 106//2 130//2
f 110//2 130//2 106//2
f 131//2 124//2 128//2
f 132//3 133//3 134//3
f 8//3 35//3 27//3
f 42//3 8//3 30//3
f 49//3 42//3 30//3
f 27//3 30//3 8//3
f 62//2 61//2 125//2
f 92//2 63//2 93//2
f 135//2 102//2 136//2
f 104//2 137//2 102//2
f 137//2 136//2 102//2
f 14//3 138//3 42//3
f 109//2 55//2 139//2
f 129//2 128//2 124//2
f 88//2 126//2 129//2
f 56//2 55//2 91//2
f 125//2 124//2 131//2
f 106//2 117//2 47//2
f 139//2 55//2 140//2
f 141//2 140//2 16//2
f 82//3 142//3 83//3
f 87//2 86//2 85//2
f 16//2 140//2 55//2
f 143//13 42//13 144//13
f 42//13 143//13 145//13
f 133//3 83//3 146//3
f 146//3 134//3 133//3
f 147//3 146//3 83//3
f 142//3 147//3 83//3
f 8//14 148//14 149//14
f 122//15 150//15 106//15
f 151//2 144//2 152//2
f 132//3 153//3 133//3
f 153//3 127//3 133//3
f 154//3 114//3 113//3
f 122//15 106//15 47//15
f 13//2 144//2 151//2
f 155//3 73//3 71//3
f 71//3 80//3 155//3
f 106//14 32//14 104//14
f 145//3 8//3 42//3
f 156//16 91//16 157//16
f 8//14 149//14 9//14
f 96//3 95//3 98//3
f 89//3 83//3 96//3
f 71//3 98//3 95//3
f 158//17 56//17 91//17
f 158//17 91//17 156//17
f 32//14 106//14 150//14
f 54//18 56//18 158//18
f 54//18 158//18 159//18
f 54//4 159//4 41//4
f 160//3 155//3 80//3
f 2//2 161//2 162//2
f 8//15 145//15 148//15
f 143//15 148//15 145//15
f 115//19 163//19 92//19
f 100//20 95//20 164//20
f 100//20 164//20 165//20
f 166//2 167//2 3//2
f 161//2 135//2 136//2
f 92//21 163//21 119//21
f 92//21 119//21 63//21
f 168//3 154//3 113//3
f 83//3 164//3 95//3
f 169//2 170//2 167//2
f 63//22 119//22 114//22
f 63//22 114//22 61//22
f 171//2 169//2 167//2
f 172//3 80//3 173//3
f 61//23 114//23 154//23
f 61//23 154//23 124//23
f 133//14 47//14 53//14
f 174//2 169//2 175//2
f 173//3 80//3 176//3
f 176//3 80//3 177//3
f 178//24 129//24 124//24
f 178//24 124//24 154//24
f 83//14 165//14 164//14
f 152//2 169//2 174//2
f 179//25 88//25 129//25
f 179//25 129//25 178//25
f 177//3 179//3 180//3
f 181//26 87//26 88//26
f 181//26 88//26 179//26
f 179//3 178//3 180//3
f 182//27 86//27 87//27
f 182//27 87//27 181//27
f 71//28 16//28 80//28
f 55//28 80//28 16//28
f 183//3 180//3 178//3
f 168//3 183//3 154//3
f 157//29 90//29 86//29
f 157//29 86//29 182//29
f 55//28 42//28 80//28
f 157//16 91//16 90//16
f 172//3 160//3 80//3
f 144//28 42//28 55//28
f 184//8 135//8 78//8
f 149//2 148//2 185//2
f 186//30 102//30 135//30
f 186//30 135//30 184//30
f 16//31 71//31 100//31
f 95//31 100//31 71//31
f 187//2 149//2 188//2
f 186//32 103//32 102//32
f 157//3 80//3 156//3
f 133//14 122//14 47//14
f 189//32 103//32 186//32
f 159//3 80//3 41//3
f 83//14 6//14 165//14
f 103//33 189//33 190//33
f 103//33 190//33 107//33
f 133//15 53//15 6//15
f 133//15 6//15 83//15
f 191//2 104//2 192//2
f 193//34 105//34 107//34
f 193//34 107//34 190//34
f 194//35 111//35 105//35
f 194//35 105//35 193//35
f 122//3 118//3 163//3
f 133//3 127//3 122//3
f 26//16 69//16 195//16
f 137//2 104//2 191//2
f 119//3 163//3 118//3
f 196//36 110//36 111//36
f 196//36 111//36 194//36
f 73//37 141//37 195//37
f 73//37 195//37 69//37
f 185//2 188//2 149//2
f 197//2 149//2 198//2
f 192//2 104//2 197//2
f 187//2 198//2 149//2
f 199//38 130//38 110//38
f 199//38 110//38 196//38
f 140//18 141//18 73//18
f 140//18 73//18 155//18
f 139//39 140//39 155//39
f 200//2 201//2 148//2
f 201//2 202//2 148//2
f 202//2 185//2 148//2
f 203//40 117//40 130//40
f 203//40 130//40 199//40
f 204//41 116//41 117//41
f 204//41 117//41 203//41
f 64//42 82//42 205//42
f 181//3 177//3 182//3
f 206//43 115//43 116//43
f 206//43 116//43 204//43
f 54//2 207//2 55//2
f 205//44 82//44 81//44
f 205//44 81//44 7//44
f 157//3 182//3 80//3
f 163//19 115//19 206//19
f 7//22 81//22 89//22
f 7//22 89//22 5//22
f 9//15 149//15 32//15
f 55//2 208//2 169//2
f 209//2 170//2 169//2
f 5//23 89//23 96//23
f 5//23 96//23 74//23
f 32//15 149//15 104//15
f 98//24 17//24 74//24
f 98//24 74//24 96//24
f 97//25 15//25 17//25
f 97//25 17//25 98//25
f 138//17 151//17 152//17
f 138//17 152//17 58//17
f 184//3 210//3 186//3
f 138//18 14//18 151//18
f 13//18 151//18 14//18
f 99//45 22//45 15//45
f 99//45 15//45 97//45
f 190//3 189//3 32//3
f 186//3 32//3 189//3
f 209//2 169//2 211//2
f 162//46 77//46 76//46
f 101//47 25//47 22//47
f 101//47 22//47 99//47
f 75//48 162//48 76//48
f 212//2 162//2 161//2
f 213//2 167//2 170//2
f 193//3 190//3 150//3
f 70//29 26//29 25//29
f 70//29 25//29 101//29
f 137//19 79//19 214//19
f 69//16 26//16 70//16
f 137//44 214//44 210//44
f 137//44 210//44 136//44
f 112//8 62//8 113//8
f 3//2 2//2 162//2
f 213//2 3//2 167//2
f 171//2 175//2 169//2
f 162//2 166//2 3//2
f 136//2 212//2 161//2
f 149//2 197//2 104//2
f 136//22 210//22 77//22
f 136//22 77//22 212//22
f 203//3 122//3 204//3
f 118//30 93//30 62//30
f 118//30 62//30 112//30
f 211//2 169//2 208//2
f 207//2 208//2 55//2
f 212//46 77//46 162//46
f 118//32 94//32 93//32
f 206//3 204//3 122//3
f 163//3 206//3 122//3
f 162//48 75//48 166//48
f 121//32 94//32 118//32
f 166//25 75//25 215//25
f 166//25 215//25 167//25
f 199//3 150//3 203//3
f 196//3 150//3 199//3
f 194//3 150//3 196//3
f 194//3 193//3 150//3
f 122//3 203//3 150//3
f 94//33 121//33 123//33
f 94//33 123//33 48//33
f 167//45 215//45 72//45
f 167//45 72//45 171//45
f 127//34 46//34 48//34
f 127//34 48//34 123//34
f 32//3 150//3 190//3
f 32//3 186//3 214//3
f 78//3 210//3 184//3
f 23//2 144//2 19//2
f 171//27 72//27 68//27
f 171//27 68//27 175//27
f 153//35 84//35 46//35
f 153//35 46//35 127//35
f 60//29 174//29 175//29
f 60//29 175//29 68//29
f 132//49 51//49 84//49
f 132//49 84//49 153//49
f 179//3 177//3 181//3
f 154//3 183//3 178//3
f 121//3 118//3 122//3
f 114//3 119//3 112//3
f 58//16 152//16 174//16
f 58//16 174//16 60//16
f 134//38 52//38 51//38
f 134//38 51//38 132//38
f 159//3 158//3 80//3
f 158//3 156//3 80//3
f 80//3 182//3 177//3
f 36//30 35//30 200//30
f 216//30 200//30 35//30
f 146//50 66//50 52//50
f 146//50 52//50 134//50
f 60//3 57//3 58//3
f 147//41 65//41 66//41
f 147//41 66//41 146//41
f 217//32 200//32 216//32
f 138//3 58//3 42//3
f 200//32 217//32 201//32
f 142//43 64//43 65//43
f 142//43 65//43 147//43
f 23//2 37//2 144//2
f 77//3 210//3 78//3
f 201//33 217//33 218//33
f 201//33 218//33 202//33
f 82//42 64//42 142//42
f 10//51 185//51 202//51
f 10//51 202//51 218//51
f 45//2 50//2 144//2
f 219//3 67//3 215//3
f 215//3 75//3 4//3
f 1//3 4//3 76//3
f 78//3 1//3 76//3
f 160//39 139//39 155//39
f 50//2 29//2 144//2
f 37//2 40//2 144//2
f 32//3 214//3 79//3
f 34//52 188//52 185//52
f 34//52 185//52 10//52
f 172//53 109//53 139//53
f 172//53 139//53 160//53
f 148//2 144//2 29//2
f 33//36 187//36 188//36
f 33//36 188//36 34//36
f 200//2 148//2 36//2
f 143//2 144//2 148//2
f 20//38 198//38 187//38
f 20//38 187//38 33//38
f 113//7 125//7 131//7
f 113//7 131//7 168//7
f 21//40 197//40 198//40
f 21//40 198//40 20//40
f 214//3 186//3 210//3
f 31//41 192//41 197//41
f 31//41 197//41 21//41
f 40//2 45//2 144//2
f 28//2 148//2 29//2
f 36//2 148//2 28//2
f 62//8 125//8 113//8
f 79//43 191//43 192//43
f 79//43 192//43 31//43
f 79//19 137//19 191//19
f 12//2 144//2 13//2
f 12//2 19//2 144//2
f 4//3 219//3 215//3
f 109//54 172//54 108//54
f 173//54 108//54 172//54
f 41//4 207//4 54//4
f 169//2 144//2 55//2
f 169//2 152//2 144//2
f 43//53 208//53 207//53
f 43//53 207//53 41//53
f 72//3 215//3 67//3
f 68//3 59//3 60//3
f 165//2 6//2 100//2
f 43//54 211//54 208//54
f 176//9 120//9 108//9
f 176//9 108//9 173//9
f 78//7 161//7 2//7
f 78//7 2//7 1//7
f 195//2 16//2 26//2
f 141//2 16//2 195//2
f 135//8 161//8 78//8
f 177//10 85//10 120//10
f 177//10 120//10 176//10
f 57//54 211//54 43//54
f 8//3 217//3 216//3
f 8//3 216//3 35//3
f 59//9 209//9 211//9
f 59//9 211//9 57//9
f 180//11 126//11 85//11
f 180//11 85//11 177//11
f 218//3 217//3 8//3
f 67//10 170//10 209//10
f 67//10 209//10 59//10
f 7//2 6//2 205//2
f 64//2 205//2 6//2
f 32//3 21//3 9//3
f 218//3 8//3 10//3
f 219//11 213//11 170//11
f 219//11 170//11 67//11
f 183//12 128//12 126//12
f 183//12 126//12 180//12
f 4//12 3//12 213//12
f 4//12 213//12 219//12
f 168//1 131//1 128//1
f 168//1 128//1 183//1
