# Blender v2.82 (sub 7) OBJ File: ''
# www.blender.org
mtllib ore-2.mtl
o Undiscovered_Land_-_Tokens_-_Ore-2
v 9.214000 0.000000 -4.952000
v 9.655000 0.000000 -4.020000
v 3.269000 0.000000 -3.277000
v -6.714000 0.000000 -8.120000
v -3.270000 0.000000 -5.255000
v -7.478000 0.000000 -7.428000
v -3.270000 0.002000 -5.255000
v -3.276600 0.000000 -5.232940
v -3.271000 0.000000 -0.292000
v -2.161180 0.000000 3.424000
v -5.055080 0.000000 5.678000
v -6.536420 0.002000 5.678000
v 0.023100 0.000000 -3.931240
v 2.207000 0.000000 3.401000
v -5.886000 0.000000 -8.734000
v -5.002000 1.100000 -9.264000
v -5.002000 0.000000 -9.264000
v 3.268810 0.000000 1.693020
v 3.271000 0.002000 1.687000
v 3.271000 0.000000 1.687000
v 6.952000 0.502000 6.502000
v 4.760490 0.502000 5.777000
v 6.566000 0.502000 5.777000
v 4.724440 0.000000 5.678000
v 0.026000 0.000000 -3.941000
v 8.684000 0.000000 5.836000
v 8.684000 1.100000 5.836000
v 8.070000 1.100000 6.664000
v 2.404610 0.000000 4.066300
v 2.721700 0.503000 3.195330
v 3.271000 0.503000 1.687000
v 4.724440 0.502000 5.678000
v 4.760490 0.503000 5.777000
v -6.953000 0.000000 6.502000
v -6.953000 0.502000 6.502000
v 6.952000 0.000000 6.502000
v -5.886000 1.100000 -8.734000
v -2.159980 0.000000 -1.541090
v 0.017280 0.000000 -8.873640
v -5.886000 0.000000 8.734000
v -5.002000 0.000000 9.264000
v -5.002000 1.100000 9.264000
v -5.886000 1.100000 8.734000
v -2.160000 0.000000 -1.541000
v -4.070000 0.000000 9.705000
v -4.070000 1.100000 9.705000
v 4.902000 0.000000 -9.264000
v 3.970000 0.000000 -9.705000
v 3.970000 1.100000 -9.705000
v 4.902000 1.100000 -9.264000
v 2.404610 0.002000 4.066300
v 2.999000 0.000000 -10.052000
v 2.999000 1.100000 -10.052000
v -6.536430 0.000000 5.678000
v -6.953000 0.000000 5.678000
v 2.404580 0.503000 4.066210
v 3.970000 0.000000 9.705000
v 4.902000 0.000000 9.264000
v 4.902000 1.100000 9.264000
v 3.970000 1.100000 9.705000
v 1.999000 0.000000 -10.302999
v 1.999000 1.100000 -10.302999
v -9.314000 0.000000 -4.952000
v -8.784000 0.000000 -5.836000
v 5.786000 0.000000 8.734000
v 5.786000 1.100000 8.734000
v -5.055080 0.502000 5.678000
v 0.980000 0.000000 -10.454000
v 0.980000 1.100000 -10.454000
v 6.614000 0.000000 8.120000
v 6.614000 1.100000 8.120000
v 2.207000 0.503000 3.401000
v -0.050000 0.000000 -10.505000
v -0.050000 1.100000 -10.505000
v 7.378000 0.000000 7.428000
v 7.378000 1.100000 7.428000
v -1.080000 0.000000 -10.454000
v -1.080000 1.100000 -10.454000
v 8.070000 0.000000 6.664000
v -2.099000 0.000000 -10.302999
v -2.099000 1.100000 -10.302999
v -5.084660 0.502000 5.777000
v -3.099000 0.000000 -10.052000
v -3.099000 1.100000 -10.052000
v 0.980000 0.000000 10.454000
v 0.980000 1.100000 10.454000
v -0.050000 1.100000 10.504999
v -0.050000 0.000000 10.504999
v 1.999000 0.000000 10.302999
v 1.999000 1.100000 10.302999
v -4.070000 0.000000 -9.705000
v -4.070000 1.100000 -9.705000
v -3.099000 1.100000 10.052000
v -3.099000 0.000000 10.052000
v -2.099000 0.000000 10.302999
v -2.099000 1.100000 10.302999
v 8.070000 1.100000 -6.664000
v 8.684000 0.000000 -5.836000
v 8.070000 0.000000 -6.664000
v -1.080000 0.000000 10.454000
v -1.080000 1.100000 10.454000
v 4.918000 0.000000 1.250000
v 3.269000 0.503000 -3.277000
v 2.206000 0.000000 -1.563000
v 0.026000 0.000000 -8.903000
v 2.403000 0.000000 -0.898000
v 5.786000 0.000000 -8.734000
v 6.614000 0.000000 -8.120000
v 7.378000 0.000000 -7.428000
v 7.378000 1.100000 -7.428000
v 4.918000 0.503000 1.250000
v 6.614000 1.100000 -8.120000
v 2.999000 0.000000 10.052000
v 2.999000 1.100000 10.052000
v 2.403000 0.503000 -0.898000
v 10.253000 0.000000 2.049000
v 10.002001 0.000000 3.049000
v -6.714000 1.100000 -8.120000
v -6.566000 0.502000 5.777000
v -6.536440 0.502000 5.678000
v -6.566000 0.503000 5.777000
v -7.478000 1.100000 -7.428000
v 2.206000 0.503000 -1.563000
v -8.170000 0.000000 -6.664000
v -8.170000 1.100000 -6.664000
v -6.536440 0.010990 5.678000
v -4.919000 0.503000 0.261000
v 6.566000 0.503000 5.777000
v 6.529960 0.502000 5.678000
v -5.084660 0.503000 5.777000
v -3.271000 0.503000 -0.292000
v 6.529960 0.000000 5.678000
v 9.214000 0.000000 4.952000
v 9.655000 0.000000 4.020000
v 6.952000 0.000000 5.678000
v -2.161120 0.503000 3.424200
v -2.161180 0.002000 3.424000
v 10.002001 0.000000 -3.049000
v 10.253000 0.000000 -2.049000
v 10.403999 0.000000 -1.030000
v -6.953000 0.502000 5.678000
v -3.270000 0.503000 -5.255000
v -2.160000 0.503000 -1.541000
v 10.403999 0.000000 1.030000
v 10.455000 0.000000 0.000000
v -0.700180 0.503000 -1.495290
v 0.026000 0.503000 -8.903000
v 0.026000 0.503000 -3.941000
v -2.154000 0.503000 -1.563000
v -6.714000 0.000000 8.120000
v 0.026000 0.002000 -3.941000
v -2.160000 0.002000 -1.541000
v -8.784000 0.000000 5.836000
v -8.784000 1.100000 5.836000
v -9.314000 1.100000 4.952000
v -8.170000 0.000000 6.664000
v -9.314000 0.000000 4.952000
v -9.755000 0.000000 4.020000
v -10.102000 0.000000 3.049000
v -10.353001 0.000000 2.049000
v -10.504000 0.000000 1.030000
v -10.102000 1.100000 3.049000
v -10.353001 1.100000 2.049000
v 6.952000 0.502000 5.678000
v -9.755000 1.100000 4.020000
v -10.555000 0.000000 0.000000
v -10.504000 0.000000 -1.030000
v -10.353001 0.000000 -2.049000
v -10.102000 0.000000 -3.049000
v -9.755000 0.000000 -4.020000
v -7.478000 0.000000 7.428000
v -8.784000 1.100000 -5.836000
v -9.314000 1.100000 -4.952000
v 9.214000 1.100000 4.952000
v 5.786000 1.100000 -8.734000
v -9.755000 1.100000 -4.020000
v 9.655000 1.100000 4.020000
v -10.102000 1.100000 -3.049000
v 10.002001 1.100000 3.049000
v -10.353001 1.100000 -2.049000
v 10.253000 1.100000 2.049000
v -10.504000 1.100000 -1.030000
v -10.555000 1.100000 0.000000
v 10.403999 1.100000 1.030000
v 0.026000 0.002000 -8.903000
v -10.504000 1.100000 1.030000
v 10.002001 1.100000 -3.049000
v 10.253000 1.100000 -2.049000
v 9.655000 1.100000 -4.020000
v 9.214000 1.100000 -4.952000
v -8.170000 1.100000 6.664000
v 8.684000 1.100000 -5.836000
v -7.478000 1.100000 7.428000
v -6.714000 1.100000 8.120000
v 10.455000 1.100000 0.000000
v 10.403999 1.100000 -1.030000
vn 0.0000 -1.0000 0.0000
vn 0.9580 0.0000 0.2866
vn 0.9581 -0.0047 0.2863
vn -0.5142 0.0000 -0.8577
vn -0.9398 0.0000 -0.3418
vn 0.9396 0.0000 -0.3422
vn 0.8032 0.0000 0.5956
vn -0.9396 0.0000 -0.3422
vn 0.9396 0.0029 -0.3422
vn 0.0000 0.0000 -1.0000
vn -0.5956 0.0000 -0.8032
vn -0.5142 0.0000 0.8577
vn -0.4277 0.0000 0.9039
vn 0.4277 0.0000 -0.9039
vn -0.9396 -0.0009 -0.3422
vn 0.3365 0.0000 -0.9417
vn -0.9396 -0.0001 -0.3422
vn 0.4277 0.0000 0.9039
vn 0.2434 0.0000 -0.9699
vn 0.5142 0.0000 0.8577
vn 0.0000 0.0000 1.0000
vn 0.1466 0.0000 -0.9892
vn 0.5956 0.0000 0.8032
vn 0.9586 0.0000 -0.2847
vn 0.0495 0.0000 -0.9988
vn 0.6713 0.0000 0.7412
vn -0.0495 0.0000 -0.9988
vn 0.7412 0.0000 0.6713
vn -0.1466 0.0000 -0.9892
vn -0.2434 0.0000 -0.9699
vn 0.0495 0.0000 0.9988
vn 0.1466 0.0000 0.9892
vn -0.3365 0.0000 -0.9417
vn -0.4277 0.0000 -0.9039
vn -0.3365 0.0000 0.9417
vn -0.2434 0.0000 0.9699
vn 0.8032 0.0000 -0.5956
vn -0.1466 0.0000 0.9892
vn -0.9396 0.0000 0.3423
vn 0.7412 0.0000 -0.6713
vn -0.0495 0.0000 0.9988
vn 0.6713 0.0000 -0.7412
vn 0.2434 0.0000 0.9699
vn 0.9397 0.0000 0.3421
vn 0.3365 0.0000 0.9417
vn 0.9582 0.0000 0.2861
vn -0.6713 0.0000 -0.7412
vn -0.9588 0.0000 0.2840
vn -0.7412 0.0000 -0.6713
vn -0.9397 0.0000 0.3421
vn -0.9581 0.0060 -0.2863
vn -0.9581 0.0000 -0.2863
vn -0.9397 0.0008 0.3421
vn 0.9581 0.0019 0.2863
vn 0.9581 0.0022 0.2863
vn 0.9581 -0.0050 0.2863
vn 0.9582 0.0000 -0.2862
vn -0.9586 0.0002 -0.2847
vn -0.9586 0.0009 -0.2847
vn -0.9586 0.0000 -0.2847
vn 1.0000 0.0000 0.0000
vn -0.9581 0.0000 0.2864
vn -0.9586 0.0000 -0.2846
vn -0.8577 0.0000 0.5142
vn -0.9586 0.0000 -0.2849
vn -0.9699 0.0000 0.2434
vn -1.0000 0.0000 0.0000
vn -0.9417 0.0000 0.3365
vn 0.9586 0.0000 -0.2848
vn -0.9039 0.0000 0.4277
vn 0.8577 0.0000 0.5142
vn -0.8032 0.0000 -0.5956
vn -0.8577 0.0000 -0.5142
vn 0.0000 1.0000 0.0000
vn -0.9039 0.0000 -0.4277
vn 0.9039 0.0000 0.4277
vn -0.9417 0.0000 -0.3365
vn 0.9417 0.0000 0.3365
vn -0.9699 0.0000 -0.2434
vn 0.9699 0.0000 0.2434
vn -0.9892 0.0000 -0.1466
vn -0.9988 0.0000 -0.0495
vn 0.9892 0.0000 0.1466
vn -0.9586 0.0000 0.2847
vn -0.9988 0.0000 0.0495
vn 0.9762 0.0000 0.2170
vn -0.9892 0.0000 0.1466
vn 0.9699 0.0000 -0.2434
vn 0.9586 -0.0032 0.2846
vn 0.9586 -0.0011 0.2846
vn 0.9417 0.0000 -0.3365
vn 0.9586 0.0000 0.2847
vn 0.9039 0.0000 -0.4277
vn -0.8032 0.0000 0.5956
vn 0.9586 0.0010 0.2846
vn 0.8577 0.0000 -0.5142
vn -0.7412 0.0000 0.6713
vn 0.9648 0.0000 0.2631
vn -0.6713 0.0000 0.7412
vn 0.9581 0.0000 0.2864
vn -0.5956 0.0000 0.8032
vn 0.9988 0.0000 0.0495
vn 0.9988 0.0000 -0.0495
vn 0.9892 0.0000 -0.1466
vn 0.5956 0.0000 -0.8032
vn 0.5142 0.0000 -0.8577
usemtl None
s off
f 1//1 2//1 3//1
f 4//1 5//1 6//1
f 5//2 7//2 8//2
f 9//1 10//1 11//1
f 7//3 12//3 8//3
f 13//1 14//1 10//1
f 15//4 16//4 17//4
f 18//5 19//5 20//5
f 21//1 22//1 23//1
f 19//6 24//6 20//6
f 25//1 14//1 13//1
f 26//7 27//7 28//7
f 14//1 29//1 10//1
f 30//8 31//8 19//8
f 22//6 32//6 33//6
f 31//9 33//9 32//9
f 24//6 19//6 32//6
f 31//6 32//6 19//6
f 34//10 35//10 36//10
f 15//4 37//4 16//4
f 38//1 5//1 39//1
f 4//11 37//11 15//11
f 40//12 41//12 42//12
f 40//12 42//12 43//12
f 44//1 5//1 38//1
f 41//13 45//13 46//13
f 41//13 46//13 42//13
f 47//14 48//14 49//14
f 47//14 49//14 50//14
f 29//8 51//8 18//8
f 19//15 18//15 51//15
f 48//16 52//16 53//16
f 48//16 53//16 49//16
f 54//1 55//1 8//1
f 19//17 51//17 30//17
f 56//17 30//17 51//17
f 57//18 58//18 59//18
f 57//18 59//18 60//18
f 52//19 61//19 62//19
f 52//19 62//19 53//19
f 63//1 64//1 8//1
f 4//1 15//1 5//1
f 58//20 65//20 66//20
f 58//20 66//20 59//20
f 67//21 24//21 32//21
f 61//22 68//22 69//22
f 61//22 69//22 62//22
f 65//23 70//23 71//23
f 65//23 71//23 66//23
f 72//24 51//24 14//24
f 68//25 73//25 74//25
f 68//25 74//25 69//25
f 70//26 75//26 76//26
f 70//26 76//26 71//26
f 18//1 20//1 24//1
f 74//27 73//27 77//27
f 74//27 77//27 78//27
f 75//28 79//28 28//28
f 75//28 28//28 76//28
f 56//24 51//24 72//24
f 14//24 51//24 29//24
f 77//29 80//29 81//29
f 77//29 81//29 78//29
f 79//7 26//7 28//7
f 22//1 82//1 32//1
f 24//1 29//1 18//1
f 80//30 83//30 84//30
f 80//30 84//30 81//30
f 85//31 86//31 87//31
f 85//31 87//31 88//31
f 89//32 90//32 86//32
f 89//32 86//32 85//32
f 83//33 91//33 92//33
f 83//33 92//33 84//33
f 24//1 11//1 29//1
f 11//1 10//1 29//1
f 91//34 17//34 16//34
f 91//34 16//34 92//34
f 46//35 45//35 93//35
f 94//35 93//35 45//35
f 95//36 96//36 93//36
f 95//36 93//36 94//36
f 97//37 98//37 99//37
f 100//38 101//38 96//38
f 100//38 96//38 95//38
f 102//39 103//39 3//39
f 104//1 105//1 3//1
f 106//1 104//1 3//1
f 107//1 108//1 3//1
f 109//40 110//40 97//40
f 109//40 97//40 99//40
f 88//41 87//41 101//41
f 88//41 101//41 100//41
f 103//39 102//39 111//39
f 109//42 108//42 112//42
f 109//42 112//42 110//42
f 90//43 89//43 113//43
f 90//43 113//43 114//43
f 3//44 103//44 115//44
f 3//44 115//44 106//44
f 57//45 60//45 113//45
f 114//45 113//45 60//45
f 116//1 117//1 102//1
f 99//1 98//1 3//1
f 99//1 3//1 109//1
f 37//11 4//11 118//11
f 119//46 120//46 121//46
f 4//47 6//47 122//47
f 4//47 122//47 118//47
f 123//48 104//48 106//48
f 123//48 106//48 115//48
f 6//49 124//49 125//49
f 6//49 125//49 122//49
f 120//46 126//46 127//46
f 121//46 120//46 127//46
f 128//50 129//50 23//50
f 130//51 131//51 67//51
f 130//52 67//52 82//52
f 128//53 111//53 129//53
f 111//50 102//50 129//50
f 132//50 129//50 102//50
f 133//1 102//1 134//1
f 117//1 134//1 102//1
f 26//1 135//1 133//1
f 135//1 102//1 133//1
f 132//1 102//1 135//1
f 131//52 9//52 67//52
f 11//52 67//52 9//52
f 7//54 127//54 12//54
f 126//55 12//55 127//55
f 54//56 8//56 12//56
f 131//57 136//57 137//57
f 131//57 137//57 9//57
f 138//1 139//1 3//1
f 2//1 138//1 3//1
f 102//1 3//1 139//1
f 140//1 102//1 139//1
f 98//1 1//1 3//1
f 141//21 55//21 126//21
f 127//1 142//1 131//1
f 131//1 130//1 127//1
f 143//1 131//1 142//1
f 141//1 120//1 119//1
f 144//1 102//1 145//1
f 145//1 102//1 140//1
f 116//1 102//1 144//1
f 136//1 131//1 143//1
f 12//21 126//21 55//21
f 120//21 141//21 126//21
f 26//1 79//1 135//1
f 36//1 135//1 79//1
f 136//58 146//58 137//58
f 130//1 121//1 127//1
f 9//57 137//57 10//57
f 147//1 123//1 148//1
f 143//1 149//1 146//1
f 136//1 143//1 146//1
f 148//1 146//1 149//1
f 121//10 130//10 119//10
f 82//10 119//10 130//10
f 70//1 65//1 34//1
f 45//1 41//1 34//1
f 41//1 40//1 34//1
f 40//1 150//1 34//1
f 151//59 13//59 137//59
f 10//60 137//60 13//60
f 119//1 82//1 35//1
f 82//1 22//1 35//1
f 21//10 36//10 35//10
f 70//1 34//1 36//1
f 79//1 75//1 36//1
f 70//1 36//1 75//1
f 113//1 34//1 57//1
f 58//1 57//1 34//1
f 67//1 32//1 82//1
f 141//61 35//61 34//61
f 141//61 34//61 55//61
f 100//1 34//1 88//1
f 85//1 88//1 34//1
f 95//1 34//1 100//1
f 94//1 34//1 95//1
f 45//1 34//1 94//1
f 85//1 34//1 89//1
f 147//1 148//1 149//1
f 89//1 34//1 113//1
f 65//1 58//1 34//1
f 142//62 7//62 143//62
f 5//62 152//62 7//62
f 103//1 111//1 115//1
f 30//1 72//1 31//1
f 72//1 115//1 31//1
f 35//1 141//1 119//1
f 44//62 152//62 5//62
f 143//62 7//62 152//62
f 146//63 148//63 151//63
f 153//64 154//64 155//64
f 31//1 115//1 111//1
f 33//1 31//1 111//1
f 33//1 111//1 128//1
f 34//1 156//1 55//1
f 151//58 137//58 146//58
f 30//1 56//1 72//1
f 54//21 12//21 55//21
f 13//65 151//65 25//65
f 72//1 148//1 115//1
f 123//1 115//1 148//1
f 153//1 157//1 55//1
f 158//1 8//1 157//1
f 159//1 8//1 158//1
f 55//1 157//1 8//1
f 160//1 8//1 159//1
f 161//1 8//1 160//1
f 160//66 159//66 162//66
f 160//66 162//66 163//66
f 135//67 36//67 164//67
f 21//67 164//67 36//67
f 159//68 158//68 165//68
f 159//68 165//68 162//68
f 148//69 72//69 151//69
f 25//69 151//69 14//69
f 158//70 157//70 155//70
f 158//70 155//70 165//70
f 21//1 23//1 164//1
f 129//1 164//1 23//1
f 166//1 8//1 161//1
f 166//1 167//1 8//1
f 167//1 168//1 8//1
f 168//1 169//1 8//1
f 169//1 170//1 8//1
f 170//1 63//1 8//1
f 64//1 124//1 8//1
f 124//1 6//1 8//1
f 5//1 8//1 6//1
f 14//69 151//69 72//69
f 157//64 153//64 155//64
f 26//71 133//71 27//71
f 156//1 34//1 171//1
f 150//1 171//1 34//1
f 153//1 55//1 156//1
f 135//21 164//21 129//21
f 135//21 129//21 132//21
f 172//72 125//72 64//72
f 124//72 64//72 125//72
f 21//1 35//1 22//1
f 64//73 63//73 173//73
f 64//73 173//73 172//73
f 174//71 27//71 133//71
f 11//21 24//21 67//21
f 112//74 175//74 174//74
f 63//75 170//75 176//75
f 63//75 176//75 173//75
f 133//76 134//76 177//76
f 133//76 177//76 174//76
f 170//77 169//77 178//77
f 170//77 178//77 176//77
f 74//74 174//74 69//74
f 134//78 117//78 179//78
f 134//78 179//78 177//78
f 169//79 168//79 180//79
f 169//79 180//79 178//79
f 179//80 117//80 116//80
f 179//80 116//80 181//80
f 53//74 62//74 174//74
f 49//74 53//74 174//74
f 168//81 167//81 182//81
f 168//81 182//81 180//81
f 167//82 166//82 183//82
f 167//82 183//82 182//82
f 116//83 144//83 184//83
f 116//83 184//83 181//83
f 147//84 185//84 123//84
f 183//85 166//85 161//85
f 183//85 161//85 186//85
f 69//74 174//74 62//74
f 78//74 174//74 74//74
f 81//74 174//74 78//74
f 84//74 174//74 81//74
f 38//86 152//86 44//86
f 161//87 160//87 163//87
f 161//87 163//87 186//87
f 139//88 138//88 187//88
f 139//88 187//88 188//88
f 50//74 174//74 175//74
f 38//89 39//89 152//89
f 185//90 152//90 39//90
f 138//91 2//91 189//91
f 138//91 189//91 187//91
f 107//1 3//1 47//1
f 108//1 109//1 3//1
f 149//92 185//92 147//92
f 2//93 1//93 190//93
f 2//93 190//93 189//93
f 122//74 125//74 118//74
f 191//94 154//94 156//94
f 153//94 156//94 154//94
f 105//1 61//1 3//1
f 47//1 3//1 48//1
f 185//95 149//95 152//95
f 1//96 98//96 192//96
f 1//96 192//96 190//96
f 156//97 171//97 193//97
f 156//97 193//97 191//97
f 143//98 152//98 149//98
f 189//74 190//74 174//74
f 50//74 49//74 174//74
f 92//74 114//74 84//74
f 42//74 46//74 92//74
f 171//99 150//99 194//99
f 171//99 194//99 193//99
f 97//37 192//37 98//37
f 127//100 7//100 142//100
f 174//74 84//74 27//74
f 43//101 194//101 40//101
f 150//101 40//101 194//101
f 91//1 83//1 5//1
f 17//1 5//1 15//1
f 17//1 91//1 5//1
f 145//102 195//102 184//102
f 145//102 184//102 144//102
f 195//103 145//103 140//103
f 195//103 140//103 196//103
f 177//74 179//74 174//74
f 181//74 174//74 179//74
f 105//1 39//1 80//1
f 80//1 77//1 105//1
f 77//1 73//1 105//1
f 73//1 68//1 105//1
f 68//1 61//1 105//1
f 52//1 3//1 61//1
f 48//1 3//1 52//1
f 39//1 5//1 80//1
f 83//1 80//1 5//1
f 139//104 188//104 140//104
f 196//104 140//104 188//104
f 174//74 181//74 184//74
f 184//74 195//74 174//74
f 174//74 188//74 187//74
f 174//74 187//74 189//74
f 190//74 192//74 174//74
f 192//74 97//74 174//74
f 110//74 112//74 174//74
f 97//74 110//74 174//74
f 196//74 174//74 195//74
f 188//74 174//74 196//74
f 46//74 93//74 92//74
f 23//10 22//10 33//10
f 23//10 33//10 128//10
f 27//74 84//74 28//74
f 66//74 84//74 59//74
f 71//74 84//74 66//74
f 76//74 84//74 71//74
f 28//74 84//74 76//74
f 59//74 84//74 60//74
f 101//74 92//74 96//74
f 87//74 92//74 101//74
f 86//74 92//74 87//74
f 90//74 92//74 86//74
f 114//74 92//74 90//74
f 60//74 84//74 114//74
f 93//74 96//74 92//74
f 125//74 172//74 37//74
f 154//74 191//74 37//74
f 194//74 43//74 92//74
f 92//74 16//74 191//74
f 16//74 37//74 191//74
f 162//74 37//74 163//74
f 165//74 37//74 162//74
f 155//74 37//74 165//74
f 154//74 37//74 155//74
f 178//74 37//74 176//74
f 173//74 176//74 37//74
f 172//74 173//74 37//74
f 180//74 37//74 178//74
f 182//74 37//74 180//74
f 183//74 37//74 182//74
f 186//74 37//74 183//74
f 163//74 37//74 186//74
f 37//74 118//74 125//74
f 92//74 191//74 193//74
f 92//74 193//74 194//74
f 42//74 92//74 43//74
f 105//84 104//84 185//84
f 104//84 123//84 185//84
f 175//105 112//105 107//105
f 108//105 107//105 112//105
f 107//106 47//106 50//106
f 50//106 175//106 107//106
f 105//92 185//92 39//92
