# Blender v2.82 (sub 7) OBJ File: ''
# www.blender.org
mtllib ore-3.mtl
o Undiscovered_Land_-_Tokens_-_Ore-3
v -0.408610 0.000000 -7.440480
v -2.159600 0.000000 -1.545390
v -2.154000 0.502000 -1.563000
v -2.161000 0.502000 -1.541000
v -2.161000 0.000000 -1.541000
v 0.026000 0.000000 -8.904000
v 0.026000 0.502000 -8.904000
v 6.531590 0.000000 5.679000
v 4.724120 0.000000 5.679000
v 4.919000 0.000000 1.250000
v 3.270000 0.000000 -3.277000
v 2.404000 0.000000 -0.898000
v 3.271000 0.000000 1.688000
v 2.404680 0.000000 4.067350
v 2.207000 0.000000 3.402000
v 0.026000 0.502000 -3.942000
v 0.026000 0.000000 -3.942000
v 2.206000 0.000000 -1.563000
v -2.161620 0.502000 3.424300
v 4.724120 0.502000 5.679000
v 3.271000 0.502000 1.688000
v -6.538130 0.000000 5.679000
v -6.538130 0.502000 5.679000
v -6.239450 0.000000 4.679120
v -3.271000 0.502000 -5.256000
v -3.271000 0.000000 -5.256000
v -2.161620 0.000000 3.424300
v -3.272000 0.000000 -0.292000
v -3.272000 0.502000 -0.292000
v -3.599750 0.000000 -4.155920
v 2.206000 0.502000 -1.563000
v 6.954000 0.000000 5.679000
v 6.954000 0.000000 6.504000
v 6.954000 0.502000 5.679000
v 6.531590 0.502000 5.679000
v 6.954000 0.502000 6.504000
v 3.270000 0.502000 -3.277000
v 2.404000 0.502000 -0.898000
v 4.919000 0.502000 1.250000
v 2.207000 0.502000 3.402000
v -5.056050 0.000000 5.679000
v -6.954000 0.000000 6.504000
v -4.920000 0.502000 0.262000
v -5.056050 0.502000 5.679000
v 2.404680 0.502000 4.067350
v -6.954000 0.000000 5.679000
v -6.954000 0.502000 6.504000
v -6.954000 0.502000 5.679000
vn -0.9586 0.0007 -0.2847
vn -0.9529 -0.0000 -0.3032
vn -0.9527 0.0000 -0.3038
vn -0.9586 0.0000 -0.2847
vn 0.0000 -1.0000 0.0000
vn -0.9586 0.0000 0.2847
vn 0.9586 0.0000 0.2847
vn -0.9397 0.0000 0.3421
vn -0.9582 0.0000 -0.2862
vn 0.9581 0.0000 -0.2863
vn -0.9581 0.0000 0.2863
vn 0.9586 0.0000 -0.2847
vn 0.0000 1.0000 0.0000
vn 1.0000 0.0000 0.0000
vn 0.9397 0.0000 -0.3421
vn 0.0000 0.0000 -1.0000
vn 0.9584 0.0000 -0.2854
vn -0.9397 0.0000 -0.3421
vn 0.9396 0.0000 -0.3423
vn -0.9586 0.0000 0.2848
vn 0.9397 0.0000 0.3421
vn -0.9581 0.0000 -0.2863
vn -0.9581 -0.0005 -0.2863
vn 0.9581 0.0000 0.2863
vn -1.0000 0.0000 0.0000
vn 0.0000 0.0000 1.0000
usemtl None
s off
f 1//1 2//1 3//1
f 4//2 3//2 2//2
f 4//3 2//3 5//3
f 6//4 1//4 7//4
f 7//4 1//4 3//4
f 8//5 9//5 10//5
f 11//5 10//5 12//5
f 12//5 10//5 13//5
f 14//5 15//5 13//5
f 16//6 17//6 15//6
f 6//5 18//5 1//5
f 17//7 16//7 19//7
f 18//5 12//5 17//5
f 15//5 17//5 12//5
f 12//5 13//5 15//5
f 13//8 9//8 20//8
f 13//8 20//8 21//8
f 22//9 23//9 24//9
f 17//5 1//5 18//5
f 5//5 2//5 17//5
f 2//5 1//5 17//5
f 25//10 4//10 5//10
f 25//10 5//10 26//10
f 27//5 28//5 5//5
f 27//5 5//5 17//5
f 27//7 17//7 19//7
f 27//11 19//11 28//11
f 29//11 28//11 19//11
f 28//5 30//5 5//5
f 26//5 5//5 30//5
f 18//12 6//12 7//12
f 7//13 16//13 31//13
f 8//5 32//5 33//5
f 34//13 35//13 36//13
f 37//13 38//13 39//13
f 36//14 33//14 34//14
f 21//13 39//13 38//13
f 34//14 33//14 32//14
f 3//13 16//13 7//13
f 8//5 33//5 9//5
f 13//5 10//5 9//5
f 31//13 16//13 38//13
f 16//13 40//13 38//13
f 22//5 41//5 42//5
f 3//13 4//13 16//13
f 19//13 16//13 4//13
f 33//5 42//5 9//5
f 19//13 4//13 29//13
f 20//13 36//13 35//13
f 35//13 39//13 20//13
f 21//13 20//13 39//13
f 9//5 42//5 41//5
f 4//13 25//13 29//13
f 25//13 43//13 29//13
f 23//13 44//13 43//13
f 45//13 21//13 40//13
f 8//15 10//15 39//15
f 34//16 32//16 35//16
f 8//16 35//16 32//16
f 7//12 31//12 18//12
f 22//5 24//5 41//5
f 28//5 41//5 24//5
f 30//5 28//5 24//5
f 35//15 8//15 39//15
f 18//17 31//17 38//17
f 18//17 38//17 12//17
f 22//5 42//5 46//5
f 12//18 38//18 37//18
f 12//18 37//18 11//18
f 10//19 37//19 39//19
f 10//19 11//19 37//19
f 40//20 15//20 14//20
f 40//20 14//20 45//20
f 44//13 47//13 20//13
f 21//21 45//21 13//21
f 14//21 13//21 45//21
f 21//13 38//13 40//13
f 26//22 30//22 25//22
f 43//22 25//22 30//22
f 29//13 43//13 44//13
f 43//23 30//23 24//23
f 23//9 43//9 24//9
f 15//6 40//6 16//6
f 41//16 44//16 9//16
f 20//16 9//16 44//16
f 44//24 41//24 28//24
f 44//24 28//24 29//24
f 36//13 20//13 47//13
f 48//13 47//13 23//13
f 48//25 46//25 42//25
f 48//25 42//25 47//25
f 47//26 42//26 36//26
f 33//26 36//26 42//26
f 23//13 47//13 44//13
f 48//16 23//16 46//16
f 22//16 46//16 23//16
