# Blender v2.82 (sub 7) OBJ File: ''
# www.blender.org
mtllib wheat-1.mtl
o Undiscovered_Land_-_Tokens_-_Wheet-1
v -11.548000 1.100000 4.784000
v -9.753000 1.100000 4.019000
v -11.962000 1.100000 3.629000
v -11.024000 1.100000 5.892000
v -9.312000 1.100000 4.951000
v 12.500000 0.000000 0.000000
v 12.500000 1.100000 0.000000
v 12.440001 1.100000 1.225000
v -11.962000 0.000000 3.629000
v -12.260000 0.000000 2.439000
v -10.100000 0.000000 3.049000
v -10.351000 0.000000 2.049000
v -10.502001 0.000000 1.029000
v -12.440001 0.000000 1.225000
v 12.440001 0.000000 -1.225000
v 12.440001 1.100000 -1.225000
v 3.629000 0.000000 -11.962000
v 4.784000 0.000000 -11.548000
v 3.969000 0.000000 -9.703000
v 4.901000 0.000000 -9.262000
v 5.892000 0.000000 -11.024000
v 5.785000 0.000000 -8.733000
v 12.260000 0.000000 -2.439000
v 12.260000 1.100000 -2.439000
v 11.962000 0.000000 -3.629000
v 11.962000 1.100000 -3.629000
v 6.613000 0.000000 -8.119000
v 6.945000 0.000000 -10.393000
v 11.548000 0.000000 -4.784000
v 11.548000 1.100000 -4.784000
v 4.901000 1.100000 -9.262000
v 4.784000 1.100000 -11.548000
v 3.969000 1.100000 -9.703000
v 7.930000 0.000000 -9.663000
v 11.024000 0.000000 -5.892000
v 11.024000 1.100000 -5.892000
v 5.785000 1.100000 -8.733000
v 5.892000 1.100000 -11.024000
v 10.393000 0.000000 -6.945000
v 10.393000 1.100000 -6.945000
v 7.376000 1.100000 -7.426000
v 7.930000 1.100000 -9.663000
v 6.613000 1.100000 -8.119000
v 3.629000 0.000000 11.962000
v 3.629000 1.100000 11.962000
v 2.438999 1.100000 12.260000
v 8.069000 1.100000 -6.663000
v 8.839000 1.100000 -8.839000
v 6.945000 1.100000 -10.393000
v 9.663000 0.000000 -7.930000
v 9.663000 1.100000 -7.930000
v 4.784000 0.000000 11.548000
v 4.784000 1.100000 11.548000
v 5.892000 0.000000 11.024000
v 5.892000 1.100000 11.024000
v 9.212000 1.100000 -4.951000
v 8.683000 1.100000 -5.835000
v 8.839000 0.000000 -8.839000
v 6.945000 0.000000 10.393000
v 6.945000 1.100000 10.393000
v 9.653000 1.100000 -4.019000
v 7.930000 0.000000 9.663000
v 7.930000 1.100000 9.663000
v 10.000000 1.100000 -3.049000
v 10.251000 1.100000 -2.049000
v 8.839000 0.000000 8.839000
v 8.839000 1.100000 8.839000
v 9.663000 0.000000 7.930000
v 9.663000 1.100000 7.930000
v 10.402000 1.100000 -1.029000
v 10.452000 1.100000 0.000000
v 10.393000 0.000000 6.945000
v 10.393000 1.100000 6.945000
v 11.024000 0.000000 5.892000
v 11.024000 1.100000 5.892000
v 11.548000 0.000000 4.784000
v 11.548000 1.100000 4.784000
v 3.629000 1.100000 -11.962000
v 11.962000 0.000000 3.629000
v 11.962000 1.100000 3.629000
v 12.260000 0.000000 2.439000
v 12.260000 1.100000 2.439000
v 12.440001 0.000000 1.225000
v 10.402000 0.000000 1.029000
v 10.402000 1.100000 1.029000
v 10.452000 0.000000 0.000000
v 10.251000 0.000000 2.049000
v 10.251000 1.100000 2.049000
v 7.376000 0.000000 -7.426000
v 10.000000 0.000000 3.049000
v 10.000000 1.100000 3.049000
v -2.099001 1.100000 -10.301000
v -3.629000 1.100000 -11.962000
v -3.099001 1.100000 -10.050000
v -4.784000 1.100000 -11.548000
v 8.069000 0.000000 -6.663000
v 9.653000 0.000000 4.019000
v 9.653000 1.100000 4.019000
v 0.000000 1.100000 -12.500000
v -1.225000 1.100000 -12.440000
v -0.049999 1.100000 -10.503000
v -1.079000 1.100000 -10.452000
v 8.683000 0.000000 -5.835000
v 9.212000 0.000000 4.951000
v 9.212000 1.100000 4.951000
v 9.212000 0.000000 -4.951000
v 8.683000 0.000000 5.835000
v 8.683000 1.100000 5.835000
v 2.438999 1.100000 -12.260000
v 2.999001 1.100000 -10.050000
v 1.999001 1.100000 -10.301000
v 9.653000 0.000000 -4.019000
v 8.069000 0.000000 6.663000
v 8.069000 1.100000 6.663000
v 7.376000 0.000000 7.426000
v 7.376000 1.100000 7.426000
v 10.000000 0.000000 -3.049000
v 6.613000 0.000000 8.118999
v 6.613000 1.100000 8.118999
v 10.251000 0.000000 -2.049000
v -2.438999 1.100000 -12.260000
v 0.979000 1.100000 -10.452000
v 1.225000 1.100000 -12.440000
v 5.785000 0.000000 8.733000
v 5.785000 1.100000 8.733000
v 4.901000 0.000000 9.262000
v 4.901000 1.100000 9.262000
v 3.969000 0.000000 9.703000
v 3.969000 1.100000 9.703000
v -9.312000 1.100000 -4.951000
v -8.783001 1.100000 -5.835000
v -11.024000 1.100000 -5.892000
v 2.999001 1.100000 10.050000
v 1.225000 0.000000 12.440000
v 1.225000 1.100000 12.440000
v 0.000000 1.100000 12.500000
v 0.000000 0.000000 12.500000
v -10.393000 1.100000 -6.945000
v 2.438999 0.000000 12.260000
v -8.169001 1.100000 -6.663000
v -11.548000 1.100000 -4.784000
v -7.476000 1.100000 -7.426000
v -9.663000 1.100000 -7.930000
v -6.712999 1.100000 -8.119000
v -8.839001 1.100000 -8.839000
v -3.629000 0.000000 11.962000
v -3.629000 1.100000 11.962000
v -4.784000 1.100000 11.548000
v -4.784000 0.000000 11.548000
v -5.000999 1.100000 -9.262000
v -4.069000 1.100000 -9.703000
v -5.892000 1.100000 -11.024000
v -2.438999 0.000000 12.260000
v -2.438999 1.100000 12.260000
v -1.225000 0.000000 12.440000
v -1.225000 1.100000 12.440000
v -0.049999 0.000000 10.502000
v -1.079000 0.000000 10.452000
v -1.079000 1.100000 10.452000
v -0.049999 1.100000 10.502000
v -5.885000 1.100000 -8.733000
v -6.945000 1.100000 -10.393000
v -7.930000 1.100000 -9.663000
v 10.402000 0.000000 -1.029000
v -2.099001 0.000000 10.301000
v -2.099001 1.100000 10.301000
v -3.099001 0.000000 10.050000
v -3.099001 1.100000 10.050000
v -4.069000 0.000000 9.703000
v -4.069000 1.100000 9.703000
v -5.000999 0.000000 -9.262000
v -5.892000 0.000000 -11.024000
v -4.069000 0.000000 -9.703000
v -5.000999 0.000000 9.262000
v -5.000999 1.100000 9.262000
v 2.438999 0.000000 -12.260000
v -10.502001 1.100000 -1.029000
v -10.351000 1.100000 -2.049000
v -12.440001 1.100000 -1.225000
v -11.962000 1.100000 -3.629000
v -12.260000 1.100000 -2.439000
v -10.100000 1.100000 -3.049000
v -9.753000 1.100000 -4.019000
v -12.500000 1.100000 0.000000
v -10.502001 1.100000 1.029000
v -10.552000 1.100000 0.000000
v -12.440001 1.100000 1.225000
v -12.260000 1.100000 2.439000
v -10.351000 1.100000 2.049000
v -4.784000 0.000000 -11.548000
v 1.225000 0.000000 -12.440000
v 0.000000 0.000000 -12.500000
v -5.885000 1.100000 8.733000
v -1.225000 0.000000 -12.440000
v 2.999001 0.000000 10.050000
v -2.438999 0.000000 -12.260000
v -3.629000 0.000000 -11.962000
v 1.999001 0.000000 10.301000
v 1.999001 1.100000 10.301000
v 0.979000 0.000000 10.452000
v 0.979000 1.100000 10.452000
v -5.885000 0.000000 -8.733000
v -3.099001 0.000000 -10.050000
v -2.099001 0.000000 -10.301000
v -11.548000 0.000000 4.784000
v -1.079000 0.000000 -10.452000
v -11.024000 0.000000 5.892000
v -0.049999 0.000000 -10.503000
v 0.979000 0.000000 -10.452000
v -10.393000 0.000000 6.945000
v -10.393000 1.100000 6.945000
v 1.999001 0.000000 -10.301000
v 2.999001 0.000000 -10.050000
v -9.663000 0.000000 7.930000
v -9.663000 1.100000 7.930000
v -8.839001 0.000000 8.839000
v -8.839001 1.100000 8.839000
v -6.945000 0.000000 -10.393000
v -7.930000 0.000000 -9.663000
v -7.930000 0.000000 9.663000
v -7.930000 1.100000 9.663000
v -8.839001 0.000000 -8.839000
v -9.663000 0.000000 -7.930000
v -6.945000 0.000000 10.393000
v -6.945000 1.100000 10.393000
v -10.393000 0.000000 -6.945000
v -5.892000 1.100000 11.024000
v -5.892000 0.000000 11.024000
v -11.024000 0.000000 -5.892000
v -11.548000 0.000000 -4.784000
v -5.885000 0.000000 8.733000
v -11.962000 0.000000 -3.629000
v -12.260000 0.000000 -2.439000
v -6.712999 0.000000 8.118999
v -6.712999 1.100000 8.118999
v -12.440001 0.000000 -1.225000
v -7.476000 0.000000 7.426000
v -7.476000 1.100000 7.426000
v -12.500000 0.000000 0.000000
v -8.169001 0.000000 6.663000
v -8.169001 1.100000 6.663000
v -8.783001 0.000000 5.835000
v -8.783001 1.100000 5.835000
v -10.552000 0.000000 0.000000
v -10.100000 0.000000 -3.049000
v -9.753000 0.000000 -4.019000
v -9.312000 0.000000 -4.951000
v -9.312000 0.000000 4.951000
v -10.502001 0.000000 -1.029000
v -8.783001 0.000000 -5.835000
v -9.753000 0.000000 4.019000
v -10.351000 0.000000 -2.049000
v -10.100000 1.100000 3.049000
v -8.169001 0.000000 -6.663000
v -7.476000 0.000000 -7.426000
v -6.712999 0.000000 -8.119000
vn 0.0000 1.0000 0.0000
vn 0.9988 0.0000 0.0489
vn 0.0000 -1.0000 0.0000
vn 0.9988 0.0000 -0.0489
vn 0.9892 0.0000 -0.1467
vn 0.9700 0.0000 -0.2429
vn 0.9414 0.0000 -0.3374
vn 0.9040 0.0000 -0.4275
vn 0.8578 0.0000 -0.5140
vn 0.2429 0.0000 0.9700
vn 0.8034 0.0000 -0.5954
vn 0.3374 0.0000 0.9414
vn 0.4275 0.0000 0.9040
vn 0.7409 0.0000 -0.6716
vn 0.5140 0.0000 0.8578
vn 0.5954 0.0000 0.8034
vn 0.6716 0.0000 -0.7409
vn 0.6716 0.0000 0.7409
vn 0.7409 0.0000 0.6716
vn 0.5954 0.0000 -0.8034
vn 0.8034 0.0000 0.5954
vn 0.5140 0.0000 -0.8578
vn 0.8578 0.0000 0.5140
vn 0.4275 0.0000 -0.9040
vn 0.9040 0.0000 0.4275
vn 0.3374 0.0000 -0.9414
vn 0.9414 0.0000 0.3374
vn 0.9700 0.0000 0.2429
vn 0.9892 0.0000 0.1467
vn -0.4277 0.0000 0.9039
vn -0.9988 0.0000 -0.0485
vn -0.5135 0.0000 0.8581
vn -0.9892 0.0000 -0.1464
vn -0.5956 0.0000 0.8032
vn -0.6723 0.0000 0.7402
vn -0.9699 0.0000 -0.2434
vn -0.7402 0.0000 0.6723
vn -0.9416 0.0000 -0.3368
vn -0.8032 0.0000 0.5956
vn -0.9039 0.0000 -0.4277
vn -0.8581 0.0000 0.5135
vn -0.8581 0.0000 -0.5135
vn -0.9039 0.0000 0.4277
vn -0.8032 0.0000 -0.5956
vn -0.7402 0.0000 -0.6723
vn -0.9416 0.0000 0.3368
vn -0.6723 0.0000 -0.7402
vn -0.9699 0.0000 0.2434
vn -0.5956 0.0000 -0.8032
vn -0.5135 0.0000 -0.8581
vn -0.4277 0.0000 -0.9039
vn -0.3368 0.0000 -0.9416
vn 0.0489 0.0000 0.9988
vn 0.1467 0.0000 0.9892
vn -0.3374 0.0000 0.9414
vn -0.2429 0.0000 0.9700
vn -0.1467 0.0000 0.9892
vn -0.0489 0.0000 0.9988
vn 0.0485 0.0000 -0.9988
vn -0.9892 0.0000 0.1464
vn 0.1464 0.0000 -0.9892
vn -0.9988 0.0000 0.0485
vn 0.2434 0.0000 -0.9699
vn 0.3368 0.0000 -0.9416
vn 0.4277 0.0000 -0.9039
vn 0.2429 0.0000 -0.9700
vn 0.1467 0.0000 -0.9892
vn 0.0489 0.0000 -0.9988
vn 0.5135 0.0000 -0.8581
vn -0.0489 0.0000 -0.9988
vn -0.1467 0.0000 -0.9892
vn -0.2429 0.0000 -0.9700
vn -0.2434 0.0000 -0.9699
vn -0.3374 0.0000 -0.9414
vn -0.1464 0.0000 -0.9892
vn -0.4275 0.0000 -0.9040
vn -0.0485 0.0000 -0.9988
vn 0.5135 0.0000 0.8581
vn 0.4277 0.0000 0.9039
vn -0.9892 0.0000 0.1467
vn 0.3368 0.0000 0.9416
vn -0.9700 0.0000 0.2429
vn 0.2434 0.0000 0.9699
vn -0.9414 0.0000 0.3374
vn 0.1464 0.0000 0.9892
vn -0.9040 0.0000 0.4275
vn 0.0495 0.0000 0.9988
vn -0.0495 0.0000 0.9988
vn -0.8578 0.0000 0.5140
vn -0.1464 0.0000 0.9892
vn -0.2434 0.0000 0.9699
vn -0.3368 0.0000 0.9416
vn -0.8034 0.0000 0.5954
vn -0.7409 0.0000 0.6716
vn -0.5140 0.0000 -0.8578
vn -0.5954 0.0000 -0.8034
vn -0.6716 0.0000 0.7409
vn -0.6716 0.0000 -0.7409
vn -0.7409 0.0000 -0.6716
vn -0.5954 0.0000 0.8034
vn -0.8034 0.0000 -0.5954
vn -0.5140 0.0000 0.8578
vn -0.4275 0.0000 0.9040
vn -0.8578 0.0000 -0.5140
vn -0.9040 0.0000 -0.4275
vn -0.9414 0.0000 -0.3374
vn -0.9700 0.0000 -0.2429
vn 0.5956 0.0000 -0.8032
vn -0.9892 0.0000 -0.1467
vn 0.6723 0.0000 -0.7402
vn -0.9988 0.0000 -0.0489
vn 0.7402 0.0000 -0.6723
vn -0.9988 0.0000 0.0489
vn 0.8032 0.0000 -0.5956
vn 0.9988 0.0000 -0.0485
vn 0.8581 0.0000 -0.5135
vn 0.9988 0.0000 0.0485
vn 0.9039 0.0000 -0.4277
vn 0.9892 0.0000 0.1464
vn 0.9416 0.0000 -0.3368
vn 0.9699 0.0000 0.2434
vn 0.9699 0.0000 -0.2434
vn 0.9416 0.0000 0.3368
vn 0.9892 0.0000 -0.1464
vn 0.9039 0.0000 0.4277
vn 0.8581 0.0000 0.5135
vn 0.8032 0.0000 0.5956
vn 0.7402 0.0000 0.6723
vn 0.6723 0.0000 0.7402
vn 0.5956 0.0000 0.8032
usemtl None
s off
f 1//1 2//1 3//1
f 4//1 5//1 1//1
f 6//2 7//2 8//2
f 9//3 10//3 11//3
f 12//3 11//3 10//3
f 13//3 12//3 14//3
f 6//4 15//4 16//4
f 6//4 16//4 7//4
f 17//3 18//3 19//3
f 20//3 21//3 22//3
f 15//5 23//5 24//5
f 15//5 24//5 16//5
f 23//6 25//6 26//6
f 23//6 26//6 24//6
f 27//3 22//3 28//3
f 25//7 29//7 30//7
f 25//7 30//7 26//7
f 31//1 32//1 33//1
f 28//3 34//3 27//3
f 29//8 35//8 36//8
f 29//8 36//8 30//8
f 37//1 38//1 31//1
f 35//9 39//9 40//9
f 35//9 40//9 36//9
f 41//1 42//1 43//1
f 44//10 45//10 46//10
f 47//1 48//1 41//1
f 43//1 49//1 37//1
f 39//11 50//11 51//11
f 39//11 51//11 40//11
f 44//12 52//12 53//12
f 44//12 53//12 45//12
f 52//13 54//13 55//13
f 52//13 55//13 53//13
f 56//1 40//1 57//1
f 50//14 58//14 48//14
f 50//14 48//14 51//14
f 54//15 59//15 60//15
f 54//15 60//15 55//15
f 30//1 36//1 61//1
f 59//16 62//16 63//16
f 59//16 63//16 60//16
f 58//17 34//17 42//17
f 58//17 42//17 48//17
f 64//1 65//1 26//1
f 49//1 43//1 42//1
f 62//18 66//18 67//18
f 62//18 67//18 63//18
f 66//19 68//19 69//19
f 66//19 69//19 67//19
f 16//1 24//1 70//1
f 42//1 41//1 48//1
f 49//20 42//20 28//20
f 34//20 28//20 42//20
f 7//1 16//1 71//1
f 48//1 47//1 51//1
f 68//21 72//21 73//21
f 68//21 73//21 69//21
f 21//22 38//22 28//22
f 49//22 28//22 38//22
f 8//1 7//1 71//1
f 51//1 57//1 40//1
f 73//23 72//23 74//23
f 73//23 74//23 75//23
f 21//24 18//24 32//24
f 21//24 32//24 38//24
f 74//25 76//25 77//25
f 74//25 77//25 75//25
f 18//26 17//26 78//26
f 18//26 78//26 32//26
f 76//27 79//27 80//27
f 76//27 80//27 77//27
f 79//28 81//28 82//28
f 79//28 82//28 80//28
f 78//1 33//1 32//1
f 32//1 31//1 38//1
f 57//1 51//1 47//1
f 38//1 37//1 49//1
f 81//29 83//29 8//29
f 81//29 8//29 82//29
f 8//2 83//2 6//2
f 70//1 71//1 16//1
f 65//1 70//1 24//1
f 24//1 26//1 65//1
f 26//1 30//1 64//1
f 61//1 64//1 30//1
f 56//1 61//1 36//1
f 40//1 56//1 36//1
f 20//30 31//30 33//30
f 20//30 33//30 19//30
f 84//31 85//31 86//31
f 71//31 86//31 85//31
f 22//32 37//32 31//32
f 22//32 31//32 20//32
f 87//33 88//33 85//33
f 87//33 85//33 84//33
f 27//34 43//34 37//34
f 27//34 37//34 22//34
f 89//35 41//35 43//35
f 89//35 43//35 27//35
f 90//36 91//36 88//36
f 90//36 88//36 87//36
f 92//1 93//1 94//1
f 93//1 95//1 94//1
f 96//37 47//37 41//37
f 96//37 41//37 89//37
f 97//38 98//38 91//38
f 97//38 91//38 90//38
f 99//1 100//1 101//1
f 102//1 101//1 100//1
f 103//39 57//39 47//39
f 103//39 47//39 96//39
f 104//40 105//40 98//40
f 104//40 98//40 97//40
f 106//41 56//41 57//41
f 106//41 57//41 103//41
f 107//42 108//42 105//42
f 107//42 105//42 104//42
f 78//1 109//1 110//1
f 111//1 110//1 109//1
f 112//43 61//43 56//43
f 112//43 56//43 106//43
f 113//44 114//44 108//44
f 113//44 108//44 107//44
f 78//1 110//1 33//1
f 115//45 116//45 114//45
f 115//45 114//45 113//45
f 117//46 64//46 61//46
f 117//46 61//46 112//46
f 118//47 119//47 116//47
f 118//47 116//47 115//47
f 120//48 65//48 64//48
f 120//48 64//48 117//48
f 121//1 102//1 100//1
f 93//1 92//1 121//1
f 102//1 121//1 92//1
f 99//1 101//1 122//1
f 109//1 123//1 111//1
f 122//1 111//1 123//1
f 99//1 122//1 123//1
f 124//49 125//49 119//49
f 124//49 119//49 118//49
f 34//3 58//3 89//3
f 96//3 89//3 58//3
f 58//3 50//3 96//3
f 126//50 127//50 125//50
f 126//50 125//50 124//50
f 103//3 96//3 50//3
f 50//3 39//3 103//3
f 128//51 129//51 127//51
f 128//51 127//51 126//51
f 106//3 103//3 39//3
f 39//3 35//3 106//3
f 130//1 131//1 132//1
f 128//52 133//52 129//52
f 134//53 135//53 136//53
f 134//53 136//53 137//53
f 112//3 106//3 35//3
f 35//3 29//3 112//3
f 138//1 132//1 131//1
f 139//54 46//54 135//54
f 139//54 135//54 134//54
f 140//1 138//1 131//1
f 132//1 141//1 130//1
f 117//3 112//3 29//3
f 29//3 25//3 117//3
f 46//10 139//10 44//10
f 142//1 143//1 140//1
f 144//1 145//1 142//1
f 146//55 147//55 148//55
f 146//55 148//55 149//55
f 150//1 151//1 152//1
f 153//56 154//56 147//56
f 153//56 147//56 146//56
f 89//3 27//3 34//3
f 18//3 21//3 20//3
f 28//3 22//3 21//3
f 155//57 156//57 154//57
f 155//57 154//57 153//57
f 137//58 136//58 156//58
f 137//58 156//58 155//58
f 157//59 158//59 159//59
f 157//59 159//59 160//59
f 161//1 150//1 162//1
f 145//1 144//1 163//1
f 143//1 142//1 145//1
f 138//1 140//1 143//1
f 161//1 163//1 144//1
f 95//1 152//1 151//1
f 151//1 94//1 95//1
f 164//60 70//60 65//60
f 164//60 65//60 120//60
f 120//3 117//3 25//3
f 25//3 23//3 120//3
f 164//3 120//3 23//3
f 23//3 15//3 164//3
f 86//3 164//3 15//3
f 86//3 15//3 6//3
f 159//61 158//61 165//61
f 159//61 165//61 166//61
f 163//1 161//1 162//1
f 162//1 150//1 152//1
f 86//62 71//62 70//62
f 86//62 70//62 164//62
f 166//63 165//63 167//63
f 166//63 167//63 168//63
f 168//64 167//64 169//64
f 168//64 169//64 170//64
f 171//3 172//3 173//3
f 170//65 169//65 174//65
f 170//65 174//65 175//65
f 17//66 176//66 109//66
f 17//66 109//66 78//66
f 177//1 178//1 179//1
f 180//1 181//1 182//1
f 141//1 180//1 183//1
f 183//1 130//1 141//1
f 182//1 183//1 180//1
f 178//1 182//1 181//1
f 181//1 179//1 178//1
f 179//1 184//1 177//1
f 185//1 186//1 184//1
f 184//1 187//1 185//1
f 188//1 189//1 187//1
f 172//3 190//3 173//3
f 176//67 191//67 123//67
f 176//67 123//67 109//67
f 191//68 192//68 99//68
f 191//68 99//68 123//68
f 175//69 174//69 193//69
f 192//70 194//70 100//70
f 192//70 100//70 99//70
f 88//1 82//1 85//1
f 133//52 128//52 195//52
f 194//71 196//71 121//71
f 194//71 121//71 100//71
f 196//72 197//72 93//72
f 196//72 93//72 121//72
f 133//73 195//73 198//73
f 133//73 198//73 199//73
f 197//74 190//74 95//74
f 197//74 95//74 93//74
f 98//1 77//1 91//1
f 199//75 198//75 200//75
f 199//75 200//75 201//75
f 190//76 172//76 95//76
f 201//77 200//77 157//77
f 201//77 157//77 160//77
f 161//78 202//78 150//78
f 171//78 150//78 202//78
f 173//79 151//79 150//79
f 173//79 150//79 171//79
f 14//80 10//80 188//80
f 14//80 188//80 187//80
f 203//81 94//81 151//81
f 203//81 151//81 173//81
f 10//82 9//82 3//82
f 10//82 3//82 188//82
f 63//1 67//1 116//1
f 204//83 92//83 94//83
f 204//83 94//83 203//83
f 9//84 205//84 1//84
f 9//84 1//84 3//84
f 60//1 63//1 119//1
f 206//85 102//85 92//85
f 206//85 92//85 204//85
f 205//86 207//86 4//86
f 205//86 4//86 1//86
f 125//1 60//1 119//1
f 102//87 206//87 208//87
f 102//87 208//87 101//87
f 209//88 122//88 101//88
f 209//88 101//88 208//88
f 4//89 210//89 211//89
f 212//90 111//90 122//90
f 212//90 122//90 209//90
f 213//91 110//91 111//91
f 213//91 111//91 212//91
f 207//89 210//89 4//89
f 203//3 173//3 190//3
f 127//1 55//1 125//1
f 19//92 33//92 213//92
f 110//92 213//92 33//92
f 190//3 197//3 203//3
f 210//93 214//93 215//93
f 210//93 215//93 211//93
f 172//76 152//76 95//76
f 129//1 53//1 127//1
f 214//94 216//94 217//94
f 214//94 217//94 215//94
f 162//95 152//95 218//95
f 172//95 218//95 152//95
f 218//96 219//96 163//96
f 218//96 163//96 162//96
f 133//1 45//1 129//1
f 53//1 55//1 127//1
f 116//1 119//1 63//1
f 114//1 116//1 67//1
f 67//1 69//1 114//1
f 73//1 108//1 69//1
f 220//97 221//97 217//97
f 220//97 217//97 216//97
f 219//98 222//98 145//98
f 219//98 145//98 163//98
f 192//3 191//3 209//3
f 213//3 212//3 176//3
f 222//99 223//99 143//99
f 222//99 143//99 145//99
f 224//100 225//100 221//100
f 224//100 221//100 220//100
f 223//101 226//101 138//101
f 223//101 138//101 143//101
f 71//1 85//1 8//1
f 91//1 80//1 88//1
f 105//1 75//1 98//1
f 114//1 69//1 108//1
f 108//1 73//1 105//1
f 75//1 105//1 73//1
f 77//1 98//1 75//1
f 80//1 91//1 77//1
f 82//1 88//1 80//1
f 8//1 85//1 82//1
f 225//102 224//102 227//102
f 228//102 227//102 224//102
f 208//3 206//3 194//3
f 197//3 196//3 204//3
f 204//3 203//3 197//3
f 206//3 204//3 196//3
f 196//3 194//3 206//3
f 194//3 192//3 208//3
f 209//3 208//3 192//3
f 212//3 209//3 191//3
f 191//3 176//3 212//3
f 176//3 17//3 213//3
f 19//3 213//3 17//3
f 20//3 19//3 18//3
f 60//1 125//1 55//1
f 228//103 149//103 227//103
f 148//103 227//103 149//103
f 229//104 132//104 226//104
f 138//104 226//104 132//104
f 10//3 14//3 12//3
f 229//105 230//105 141//105
f 229//105 141//105 132//105
f 193//69 174//69 231//69
f 168//1 147//1 166//1
f 230//106 232//106 180//106
f 230//106 180//106 141//106
f 232//107 233//107 181//107
f 232//107 181//107 180//107
f 193//108 231//108 234//108
f 193//108 234//108 235//108
f 175//1 227//1 170//1
f 233//109 236//109 179//109
f 233//109 179//109 181//109
f 235//110 234//110 237//110
f 235//110 237//110 238//110
f 236//111 239//111 184//111
f 236//111 184//111 179//111
f 193//1 225//1 175//1
f 240//112 241//112 238//112
f 240//112 238//112 237//112
f 184//113 239//113 14//113
f 184//113 14//113 187//113
f 242//114 243//114 241//114
f 242//114 241//114 240//114
f 199//1 46//1 133//1
f 186//115 13//115 244//115
f 245//3 232//3 246//3
f 246//3 230//3 247//3
f 136//1 135//1 201//1
f 248//116 5//116 243//116
f 248//116 243//116 242//116
f 249//117 177//117 186//117
f 249//117 186//117 244//117
f 247//3 229//3 250//3
f 156//1 136//1 160//1
f 53//1 129//1 45//1
f 251//118 2//118 5//118
f 251//118 5//118 248//118
f 252//119 178//119 177//119
f 252//119 177//119 249//119
f 11//120 253//120 2//120
f 11//120 2//120 251//120
f 254//3 250//3 226//3
f 245//121 182//121 178//121
f 245//121 178//121 252//121
f 226//3 223//3 254//3
f 255//3 254//3 223//3
f 12//122 189//122 253//122
f 12//122 253//122 11//122
f 46//1 199//1 135//1
f 45//1 133//1 46//1
f 201//1 135//1 199//1
f 201//1 160//1 136//1
f 156//1 160//1 159//1
f 166//1 154//1 159//1
f 170//1 148//1 168//1
f 147//1 168//1 148//1
f 154//1 166//1 147//1
f 156//1 159//1 154//1
f 246//123 183//123 182//123
f 246//123 182//123 245//123
f 13//124 185//124 189//124
f 13//124 189//124 12//124
f 247//125 130//125 183//125
f 247//125 183//125 246//125
f 235//1 221//1 193//1
f 185//115 13//115 186//115
f 250//126 131//126 130//126
f 250//126 130//126 247//126
f 238//1 217//1 235//1
f 223//3 222//3 255//3
f 256//3 255//3 222//3
f 222//3 219//3 256//3
f 202//3 256//3 219//3
f 202//3 219//3 218//3
f 172//3 171//3 218//3
f 202//3 218//3 171//3
f 254//127 140//127 131//127
f 254//127 131//127 250//127
f 255//128 142//128 140//128
f 255//128 140//128 254//128
f 243//1 211//1 241//1
f 5//1 4//1 243//1
f 256//129 144//129 142//129
f 256//129 142//129 255//129
f 245//3 252//3 233//3
f 232//3 245//3 233//3
f 230//3 246//3 232//3
f 236//3 233//3 252//3
f 229//3 247//3 230//3
f 226//3 250//3 229//3
f 252//3 249//3 236//3
f 239//3 236//3 249//3
f 249//3 244//3 239//3
f 244//3 13//3 239//3
f 14//3 239//3 13//3
f 202//130 161//130 144//130
f 202//130 144//130 256//130
f 2//1 1//1 5//1
f 253//1 3//1 2//1
f 225//1 193//1 221//1
f 221//1 235//1 217//1
f 189//1 188//1 253//1
f 185//1 187//1 189//1
f 217//1 238//1 215//1
f 76//3 74//3 97//3
f 107//3 104//3 72//3
f 186//1 177//1 184//1
f 3//1 253//1 188//1
f 211//1 243//1 4//1
f 215//1 241//1 211//1
f 72//3 68//3 107//3
f 113//3 107//3 68//3
f 68//3 66//3 113//3
f 115//3 113//3 66//3
f 66//3 62//3 115//3
f 241//1 215//1 238//1
f 227//1 175//1 225//1
f 148//1 170//1 227//1
f 118//3 115//3 62//3
f 62//3 59//3 118//3
f 124//3 118//3 59//3
f 59//3 54//3 124//3
f 126//3 124//3 54//3
f 54//3 52//3 126//3
f 128//3 126//3 52//3
f 79//3 76//3 90//3
f 97//3 90//3 76//3
f 104//3 97//3 74//3
f 72//3 104//3 74//3
f 81//3 79//3 87//3
f 90//3 87//3 79//3
f 87//3 84//3 81//3
f 83//3 81//3 84//3
f 84//3 86//3 83//3
f 6//3 83//3 86//3
f 128//3 52//3 44//3
f 137//3 155//3 157//3
f 165//3 158//3 153//3
f 128//3 44//3 195//3
f 139//3 134//3 198//3
f 198//3 195//3 139//3
f 146//3 149//3 167//3
f 169//3 167//3 149//3
f 149//3 228//3 169//3
f 167//3 165//3 146//3
f 155//3 153//3 158//3
f 153//3 146//3 165//3
f 158//3 157//3 155//3
f 157//3 200//3 137//3
f 139//3 195//3 44//3
f 200//3 198//3 134//3
f 137//3 200//3 134//3
f 174//3 169//3 228//3
f 231//3 174//3 224//3
f 228//3 224//3 174//3
f 237//3 234//3 216//3
f 216//3 214//3 237//3
f 240//3 237//3 214//3
f 214//3 210//3 240//3
f 242//3 240//3 210//3
f 210//3 207//3 242//3
f 248//3 242//3 207//3
f 207//3 205//3 248//3
f 251//3 248//3 205//3
f 205//3 9//3 251//3
f 11//3 251//3 9//3
f 220//3 216//3 234//3
f 234//3 231//3 220//3
f 224//3 220//3 231//3
