# Blender v2.82 (sub 7) OBJ File: ''
# www.blender.org
mtllib forgottentribe-1.mtl
o Forgotten_Tribe-1
v -7.356000 3.000000 -1.463000
v -7.356000 0.000000 -1.463000
v -7.500000 0.000000 -0.000000
v -7.500000 3.000000 -0.000000
v -6.929000 3.000000 -2.870000
v -6.929000 0.000000 -2.870000
v -6.236000 0.000000 -4.167000
v -5.303000 0.000000 -5.303000
v -4.167000 0.000000 -6.236000
v -2.870000 0.000000 -6.929000
v -1.463000 0.000000 -7.356000
v 0.000000 0.000000 -7.500000
v 1.463000 0.000000 -7.356000
v 2.870000 0.000000 -6.929000
v 4.167000 0.000000 -6.236000
v 5.303000 0.000000 -5.303000
v 6.236000 0.000000 -4.167000
v 6.929000 0.000000 -2.870000
v 7.356000 0.000000 -1.463000
v 7.500000 0.000000 0.000000
v -6.236000 3.000000 -4.167000
v -2.870000 3.000000 -6.929000
v -4.167000 3.000000 -6.236000
v -5.303000 3.000000 -5.303000
v 4.167000 3.000000 -6.236000
v 2.870000 3.000000 -6.929000
v -1.463000 3.000000 -7.356000
v -7.356000 0.000000 1.463000
v 7.356000 0.000000 1.463000
v 6.929000 0.000000 2.870000
v 6.236000 0.000000 4.167000
v 5.303000 0.000000 5.303000
v 4.167000 0.000000 6.236000
v 2.870000 0.000000 6.929000
v 1.463000 0.000000 7.356000
v 0.000000 0.000000 7.500000
v -1.463000 0.000000 7.356000
v -2.870000 0.000000 6.929000
v -4.167000 0.000000 6.236000
v -5.303000 0.000000 5.303000
v -6.236000 0.000000 4.167000
v -6.929000 0.000000 2.870000
v 5.303000 3.000000 -5.303000
v 0.000000 3.000000 -7.500000
v 6.236000 3.000000 -4.167000
v 1.463000 3.000000 -7.356000
v 7.500000 3.000000 -0.000000
v 7.356000 3.000000 -1.463000
v 6.929000 3.000000 -2.870000
v 4.167000 3.000000 6.236000
v 5.303000 3.000000 5.303000
v 7.356000 3.000000 1.463000
v -1.463000 3.000000 7.356000
v -2.870000 3.000000 6.929000
v -7.356000 3.000000 1.463000
v -6.929000 3.000000 2.870000
v -4.167000 3.000000 6.236000
v 2.870000 3.000000 6.929000
v 6.929000 3.000000 2.870000
v -5.303000 3.000000 5.303000
v 1.463000 3.000000 7.356000
v -6.236000 3.000000 4.167000
v 6.236000 3.000000 4.167000
v 0.000000 3.000000 7.500000
vn -0.9952 0.0000 -0.0980
vn -0.9569 0.0000 -0.2904
vn 0.0000 -1.0000 0.0000
vn -0.8820 0.0000 -0.4713
vn -0.4713 0.0000 -0.8820
vn -0.7728 0.0000 -0.6347
vn 0.4713 0.0000 -0.8820
vn -0.2904 0.0000 -0.9569
vn 0.6347 0.0000 -0.7728
vn -0.0980 0.0000 -0.9952
vn -0.6347 0.0000 -0.7728
vn 0.7728 0.0000 -0.6347
vn 0.0980 0.0000 -0.9952
vn 0.9952 0.0000 -0.0980
vn 0.8820 0.0000 -0.4713
vn 0.2904 0.0000 -0.9569
vn 0.9569 0.0000 -0.2904
vn 0.6347 0.0000 0.7728
vn 0.9952 0.0000 0.0980
vn -0.2904 0.0000 0.9569
vn -0.9569 0.0000 0.2904
vn -0.4713 0.0000 0.8820
vn 0.4713 0.0000 0.8820
vn 0.9569 0.0000 0.2904
vn -0.9952 0.0000 0.0980
vn -0.6347 0.0000 0.7728
vn 0.2904 0.0000 0.9569
vn -0.7728 0.0000 0.6347
vn 0.0000 1.0000 0.0000
vn 0.8820 0.0000 0.4713
vn -0.8820 0.0000 0.4713
vn 0.0980 0.0000 0.9952
vn 0.7728 0.0000 0.6347
vn -0.0980 0.0000 0.9952
usemtl None
s off
f 1//1 2//1 3//1
f 1//1 3//1 4//1
f 5//2 6//2 2//2
f 5//2 2//2 1//2
f 3//3 2//3 6//3
f 3//3 6//3 7//3
f 3//3 7//3 8//3
f 3//3 8//3 9//3
f 3//3 9//3 10//3
f 3//3 10//3 11//3
f 3//3 11//3 12//3
f 3//3 12//3 13//3
f 3//3 13//3 14//3
f 3//3 14//3 15//3
f 3//3 15//3 16//3
f 3//3 16//3 17//3
f 3//3 17//3 18//3
f 3//3 18//3 19//3
f 3//3 19//3 20//3
f 21//4 7//4 6//4
f 21//4 6//4 5//4
f 22//5 10//5 9//5
f 22//5 9//5 23//5
f 24//6 8//6 7//6
f 24//6 7//6 21//6
f 25//7 15//7 14//7
f 25//7 14//7 26//7
f 27//8 11//8 10//8
f 27//8 10//8 22//8
f 28//3 3//3 20//3
f 28//3 20//3 29//3
f 28//3 29//3 30//3
f 28//3 30//3 31//3
f 28//3 31//3 32//3
f 28//3 32//3 33//3
f 28//3 33//3 34//3
f 28//3 34//3 35//3
f 28//3 35//3 36//3
f 28//3 36//3 37//3
f 28//3 37//3 38//3
f 28//3 38//3 39//3
f 28//3 39//3 40//3
f 41//3 42//3 40//3
f 28//3 40//3 42//3
f 43//9 16//9 15//9
f 43//9 15//9 25//9
f 44//10 12//10 11//10
f 44//10 11//10 27//10
f 23//11 9//11 8//11
f 23//11 8//11 24//11
f 43//12 45//12 17//12
f 43//12 17//12 16//12
f 46//13 13//13 12//13
f 46//13 12//13 44//13
f 20//14 19//14 47//14
f 48//14 47//14 19//14
f 45//15 49//15 18//15
f 45//15 18//15 17//15
f 26//16 14//16 13//16
f 26//16 13//16 46//16
f 49//17 48//17 19//17
f 49//17 19//17 18//17
f 50//18 33//18 32//18
f 50//18 32//18 51//18
f 52//19 29//19 20//19
f 52//19 20//19 47//19
f 53//20 54//20 38//20
f 53//20 38//20 37//20
f 55//21 28//21 42//21
f 55//21 42//21 56//21
f 54//22 57//22 39//22
f 54//22 39//22 38//22
f 58//23 34//23 33//23
f 58//23 33//23 50//23
f 59//24 30//24 29//24
f 59//24 29//24 52//24
f 4//25 3//25 28//25
f 4//25 28//25 55//25
f 57//26 60//26 40//26
f 57//26 40//26 39//26
f 61//27 35//27 34//27
f 61//27 34//27 58//27
f 62//28 41//28 40//28
f 62//28 40//28 60//28
f 47//29 48//29 49//29
f 47//29 49//29 45//29
f 47//29 45//29 43//29
f 47//29 43//29 25//29
f 47//29 25//29 26//29
f 47//29 26//29 46//29
f 47//29 46//29 44//29
f 47//29 44//29 27//29
f 47//29 27//29 22//29
f 47//29 22//29 23//29
f 47//29 23//29 24//29
f 47//29 24//29 21//29
f 47//29 21//29 5//29
f 47//29 5//29 1//29
f 47//29 1//29 4//29
f 63//30 31//30 30//30
f 63//30 30//30 59//30
f 56//31 42//31 41//31
f 56//31 41//31 62//31
f 64//32 36//32 35//32
f 64//32 35//32 61//32
f 51//33 32//33 31//33
f 51//33 31//33 63//33
f 36//34 64//34 53//34
f 36//34 53//34 37//34
f 4//29 55//29 56//29
f 4//29 56//29 62//29
f 4//29 62//29 60//29
f 4//29 60//29 57//29
f 4//29 57//29 54//29
f 4//29 54//29 53//29
f 4//29 53//29 64//29
f 4//29 64//29 61//29
f 4//29 61//29 58//29
f 4//29 58//29 50//29
f 4//29 50//29 51//29
f 4//29 51//29 63//29
f 4//29 63//29 59//29
f 4//29 59//29 52//29
f 4//29 52//29 47//29
