# Blender v2.82 (sub 7) OBJ File: ''
# www.blender.org
mtllib pirate-1.mtl
o Pirates-1
v -12.021000 0.000000 7.424999
v -13.141000 0.000000 6.660999
v -13.141000 0.000000 -6.661000
v -12.021000 0.000000 -7.425000
v 14.134998 0.000000 5.833000
v 14.134998 0.998000 5.833000
v 13.141001 0.998000 6.660999
v 17.000000 0.000000 0.000000
v 16.917999 0.000000 1.028999
v 16.917999 0.000000 -1.029000
v 16.673000 0.000000 -2.048000
v 16.673000 0.000000 2.048000
v 16.268002 0.000000 -3.048000
v 16.268002 0.000000 3.048000
v 15.706001 0.000000 -4.018000
v 15.706001 0.000000 4.018000
v 14.993000 0.000000 -4.950000
v 14.993000 0.000000 4.950001
v 14.134998 0.000000 -5.833000
v 14.993000 0.998000 4.950001
v 14.134998 0.998000 -5.833000
v 14.993000 0.998000 -4.950000
v 15.706001 0.998000 4.018000
v 16.268002 0.998000 3.048000
v 12.021000 0.000000 -7.425000
v 13.141001 0.000000 -6.661000
v 13.141001 0.000000 6.660999
v 16.673000 0.998000 2.048000
v 16.917999 0.998000 1.028999
v 17.000000 0.998000 0.000000
v 16.917999 0.998000 -1.029000
v 6.506001 0.000000 -9.701000
v 8.014000 0.000000 -9.260000
v 8.014000 0.000000 9.260000
v 9.445000 0.000000 8.730000
v 9.445000 0.000000 -8.730000
v 10.785000 0.000000 -8.117000
v 10.785000 0.000000 8.117001
v 12.021000 0.000000 7.424999
v 15.706001 0.998000 -4.018000
v 16.268002 0.998000 -3.048000
v 16.673000 0.998000 -2.048000
v 13.141001 0.998000 -6.661000
v 0.000000 0.000000 -10.500000
v -1.666000 0.000000 10.448999
v -1.666000 0.000000 -10.448999
v 12.021000 0.998000 -7.425000
v 10.785000 0.998000 -8.117000
v 9.445000 0.998000 -8.730000
v 6.506001 0.000000 9.701000
v 4.934999 0.000000 -10.048000
v 8.014000 0.998000 -9.260000
v -16.673000 0.000000 -2.048000
v -16.917999 0.000000 -1.029000
v -16.917999 0.998000 -1.029000
v -16.673000 0.998000 -2.048000
v 6.506001 0.998000 -9.701000
v 0.000000 0.000000 10.500000
v 4.934999 0.000000 10.048000
v 3.316999 0.000000 -10.298000
v 3.316999 0.000000 10.298000
v 1.666000 0.000000 -10.448999
v 1.666000 0.000000 10.448999
v 4.934999 0.998000 -10.048000
v 3.316999 0.998000 -10.298000
v -3.317000 0.000000 10.298000
v -3.317000 0.000000 -10.298000
v 1.666000 0.998000 -10.448999
v -14.135000 0.998000 5.833000
v -13.141000 0.998000 6.660999
v -14.135000 0.998000 -5.833000
v -13.141000 0.998000 -6.661000
v -14.135000 0.000000 5.833000
v -12.021000 0.998000 7.424999
v -8.014000 0.000000 -9.260000
v -6.506000 0.000000 -9.701000
v -6.506000 0.000000 9.701000
v -4.935000 0.000000 -10.048000
v -4.935000 0.000000 10.048000
v -14.993000 0.998000 -4.950000
v -14.993000 0.998000 4.950001
v -16.917999 0.998000 1.028999
v -16.673000 0.998000 2.048000
v -16.268000 0.998000 -3.048000
v -10.785000 0.000000 8.117001
v -10.785000 0.998000 8.117001
v -16.268000 0.998000 3.048000
v -17.000000 0.998000 0.000000
v -9.445000 0.000000 8.730000
v -9.445000 0.998000 8.730000
v -10.785000 0.000000 -8.117000
v -9.445000 0.000000 -8.730000
v -8.014000 0.000000 9.260000
v -8.014000 0.998000 9.260000
v -17.000000 0.000000 0.000000
v -14.135000 0.000000 -5.833000
v -6.506000 0.998000 9.701000
v -16.917999 0.000000 1.028999
v -4.935000 0.998000 10.048000
v -16.673000 0.000000 2.048000
v -3.317000 0.998000 10.298000
v -16.268000 0.000000 3.048000
v -14.993000 0.000000 4.950001
v -15.706000 0.000000 4.018000
v -14.993000 0.000000 -4.950000
v -15.706000 0.000000 -4.018000
v -16.268000 0.000000 -3.048000
v -15.706000 0.998000 4.018000
v -8.014000 0.998000 -9.260000
v -9.445000 0.998000 -8.730000
v -6.506000 0.998000 -9.701000
v -4.935000 0.998000 -10.048000
v 0.000000 0.998000 -10.500000
v 8.014000 0.998000 9.260000
v -1.666000 0.998000 -10.448999
v 10.785000 0.998000 8.117001
v 9.445000 0.998000 8.730000
v -3.317000 0.998000 -10.298000
v 12.021000 0.998000 7.424999
v -10.785000 0.998000 -8.117000
v 3.316999 0.998000 10.298000
v -1.666000 0.998000 10.448999
v -12.021000 0.998000 -7.425000
v 0.000000 0.998000 10.500000
v 1.666000 0.998000 10.448999
v 4.934999 0.998000 10.048000
v -15.706000 0.998000 -4.018000
v 6.506001 0.998000 9.701000
vn 0.0000 -1.0000 0.0000
vn 0.6400 0.0000 0.7683
vn 0.7172 0.0000 0.6969
vn 0.7172 0.0000 -0.6969
vn 0.7942 0.0000 0.6076
vn 0.8653 0.0000 0.5013
vn 0.9269 0.0000 0.3754
vn 0.9723 0.0000 0.2338
vn 0.9968 0.0000 0.0794
vn 0.9968 0.0000 -0.0794
vn 0.0000 1.0000 0.0000
vn 0.9723 0.0000 -0.2338
vn 0.6400 0.0000 -0.7683
vn 0.9269 0.0000 -0.3754
vn 0.5635 0.0000 -0.8261
vn 0.8653 0.0000 -0.5013
vn 0.4885 0.0000 -0.8726
vn 0.7942 0.0000 -0.6076
vn 0.4160 0.0000 -0.9094
vn 0.3473 0.0000 -0.9377
vn -0.9723 0.0000 -0.2338
vn 0.2807 0.0000 -0.9598
vn 0.2157 0.0000 -0.9765
vn 0.1527 0.0000 -0.9883
vn 0.0911 0.0000 -0.9958
vn -0.6400 0.0000 0.7683
vn -0.5635 0.0000 0.8261
vn -0.4885 0.0000 0.8726
vn -0.4160 0.0000 0.9094
vn -0.3473 0.0000 0.9377
vn -0.9968 0.0000 -0.0794
vn -0.2807 0.0000 0.9598
vn -0.9968 0.0000 0.0794
vn -0.2157 0.0000 0.9765
vn -0.9723 0.0000 0.2338
vn -0.1527 0.0000 0.9883
vn -0.9269 0.0000 0.3754
vn -0.8653 0.0000 0.5013
vn -0.7942 0.0000 0.6076
vn -0.7172 0.0000 0.6969
vn 0.0306 0.0000 -0.9995
vn 0.3473 0.0000 0.9377
vn -0.0306 0.0000 -0.9995
vn 0.4160 0.0000 0.9094
vn -0.0911 0.0000 -0.9958
vn 0.4885 0.0000 0.8726
vn -0.2157 0.0000 -0.9765
vn 0.5635 0.0000 0.8261
vn -0.2807 0.0000 -0.9598
vn -0.3473 0.0000 -0.9377
vn -0.4160 0.0000 -0.9094
vn -0.0911 0.0000 0.9958
vn -0.4885 0.0000 -0.8726
vn -0.0306 0.0000 0.9995
vn -0.5635 0.0000 -0.8261
vn -0.6400 0.0000 -0.7683
vn -0.7172 0.0000 -0.6969
vn 0.0306 0.0000 0.9995
vn -0.7942 0.0000 -0.6076
vn 0.0911 0.0000 0.9958
vn 0.1527 0.0000 0.9883
vn -0.8653 0.0000 -0.5013
vn 0.2157 0.0000 0.9765
vn -0.9269 0.0000 -0.3754
vn 0.2807 0.0000 0.9598
vn -0.1527 0.0000 -0.9883
usemtl None
s off
f 1//1 2//1 3//1
f 3//1 4//1 1//1
f 5//2 6//2 7//2
f 8//1 9//1 10//1
f 11//1 10//1 9//1
f 9//1 12//1 11//1
f 13//1 11//1 12//1
f 12//1 14//1 13//1
f 15//1 13//1 14//1
f 14//1 16//1 15//1
f 17//1 15//1 16//1
f 16//1 18//1 17//1
f 18//1 5//1 17//1
f 19//1 17//1 5//1
f 5//3 18//3 20//3
f 5//3 20//3 6//3
f 19//4 21//4 22//4
f 19//4 22//4 17//4
f 18//5 16//5 23//5
f 18//5 23//5 20//5
f 16//6 14//6 24//6
f 16//6 24//6 23//6
f 25//1 26//1 27//1
f 26//1 19//1 27//1
f 5//1 27//1 19//1
f 14//7 12//7 28//7
f 14//7 28//7 24//7
f 12//8 9//8 29//8
f 12//8 29//8 28//8
f 9//9 8//9 30//9
f 9//9 30//9 29//9
f 8//10 10//10 31//10
f 8//10 31//10 30//10
f 32//1 33//1 34//1
f 35//1 34//1 33//1
f 33//1 36//1 35//1
f 36//1 37//1 35//1
f 38//1 35//1 37//1
f 39//1 38//1 37//1
f 20//11 22//11 6//11
f 23//11 22//11 20//11
f 24//11 40//11 23//11
f 28//11 41//11 24//11
f 29//11 42//11 28//11
f 30//11 31//11 29//11
f 42//11 29//11 31//11
f 41//11 28//11 42//11
f 40//11 24//11 41//11
f 22//11 23//11 40//11
f 21//11 6//11 22//11
f 10//12 11//12 42//12
f 10//12 42//12 31//12
f 43//13 21//13 26//13
f 19//13 26//13 21//13
f 44//1 45//1 46//1
f 13//14 41//14 42//14
f 13//14 42//14 11//14
f 26//15 25//15 47//15
f 26//15 47//15 43//15
f 15//16 40//16 41//16
f 15//16 41//16 13//16
f 25//17 37//17 48//17
f 25//17 48//17 47//17
f 17//18 22//18 40//18
f 17//18 40//18 15//18
f 37//19 36//19 49//19
f 37//19 49//19 48//19
f 27//1 39//1 25//1
f 37//1 25//1 39//1
f 34//1 50//1 32//1
f 51//1 32//1 50//1
f 36//20 52//20 49//20
f 53//21 54//21 55//21
f 53//21 55//21 56//21
f 36//20 33//20 52//20
f 33//22 32//22 57//22
f 33//22 57//22 52//22
f 58//1 45//1 44//1
f 50//1 59//1 51//1
f 60//1 51//1 59//1
f 59//1 61//1 60//1
f 62//1 60//1 63//1
f 61//1 63//1 60//1
f 44//1 62//1 63//1
f 58//1 44//1 63//1
f 32//23 51//23 64//23
f 32//23 64//23 57//23
f 51//24 60//24 65//24
f 51//24 65//24 64//24
f 66//1 67//1 45//1
f 46//1 45//1 67//1
f 60//25 62//25 68//25
f 60//25 68//25 65//25
f 69//11 70//11 71//11
f 72//11 71//11 70//11
f 2//26 70//26 69//26
f 2//26 69//26 73//26
f 1//27 74//27 70//27
f 1//27 70//27 2//27
f 75//1 76//1 77//1
f 76//1 78//1 77//1
f 79//1 77//1 78//1
f 66//1 79//1 78//1
f 67//1 66//1 78//1
f 71//11 80//11 69//11
f 81//11 69//11 80//11
f 82//11 83//11 56//11
f 84//11 56//11 83//11
f 85//28 86//28 74//28
f 85//28 74//28 1//28
f 56//11 55//11 82//11
f 83//11 87//11 84//11
f 88//11 82//11 55//11
f 89//29 90//29 86//29
f 89//29 86//29 85//29
f 89//1 85//1 91//1
f 91//1 92//1 89//1
f 93//1 89//1 92//1
f 92//1 75//1 93//1
f 77//1 93//1 75//1
f 93//30 94//30 90//30
f 93//30 90//30 89//30
f 88//31 55//31 95//31
f 54//31 95//31 55//31
f 4//1 91//1 1//1
f 85//1 1//1 91//1
f 96//1 3//1 2//1
f 77//32 97//32 94//32
f 77//32 94//32 93//32
f 82//33 88//33 95//33
f 82//33 95//33 98//33
f 79//34 99//34 97//34
f 79//34 97//34 77//34
f 98//35 100//35 83//35
f 98//35 83//35 82//35
f 66//36 101//36 99//36
f 66//36 99//36 79//36
f 100//37 102//37 87//37
f 100//37 87//37 83//37
f 103//1 104//1 105//1
f 73//1 103//1 105//1
f 106//1 105//1 104//1
f 107//1 106//1 104//1
f 105//1 96//1 73//1
f 2//1 73//1 96//1
f 108//38 87//38 104//38
f 102//38 104//38 87//38
f 104//39 103//39 81//39
f 104//39 81//39 108//39
f 104//1 102//1 107//1
f 53//1 107//1 102//1
f 102//1 100//1 53//1
f 100//1 98//1 53//1
f 54//1 53//1 98//1
f 95//1 54//1 98//1
f 109//11 110//11 90//11
f 111//11 109//11 94//11
f 94//11 97//11 111//11
f 112//11 111//11 97//11
f 99//11 112//11 97//11
f 101//11 112//11 99//11
f 103//40 73//40 69//40
f 103//40 69//40 81//40
f 62//41 44//41 113//41
f 62//41 113//41 68//41
f 35//42 114//42 34//42
f 44//43 46//43 115//43
f 44//43 115//43 113//43
f 38//44 116//44 117//44
f 38//44 117//44 35//44
f 46//45 118//45 115//45
f 39//46 119//46 116//46
f 39//46 116//46 38//46
f 78//47 76//47 111//47
f 78//47 111//47 112//47
f 27//48 7//48 119//48
f 27//48 119//48 39//48
f 76//49 75//49 109//49
f 76//49 109//49 111//49
f 46//45 67//45 118//45
f 7//2 27//2 5//2
f 75//50 92//50 110//50
f 75//50 110//50 109//50
f 92//51 91//51 120//51
f 92//51 120//51 110//51
f 43//11 7//11 21//11
f 47//11 48//11 119//11
f 64//11 65//11 121//11
f 116//11 119//11 48//11
f 45//52 122//52 101//52
f 45//52 101//52 66//52
f 123//53 120//53 91//53
f 123//53 91//53 4//53
f 58//54 124//54 122//54
f 58//54 122//54 45//54
f 4//55 3//55 72//55
f 4//55 72//55 123//55
f 125//11 121//11 65//11
f 65//11 68//11 125//11
f 68//11 113//11 125//11
f 124//11 125//11 113//11
f 115//11 122//11 113//11
f 121//11 126//11 64//11
f 3//56 96//56 71//56
f 3//56 71//56 72//56
f 7//11 43//11 119//11
f 43//11 47//11 119//11
f 117//11 116//11 48//11
f 6//11 21//11 7//11
f 48//11 49//11 117//11
f 112//11 101//11 118//11
f 96//57 105//57 80//57
f 96//57 80//57 71//57
f 63//58 125//58 124//58
f 63//58 124//58 58//58
f 105//59 106//59 127//59
f 105//59 127//59 80//59
f 61//60 121//60 125//60
f 61//60 125//60 63//60
f 49//11 52//11 114//11
f 128//11 114//11 52//11
f 52//11 57//11 128//11
f 114//11 117//11 49//11
f 57//11 64//11 128//11
f 126//11 128//11 64//11
f 124//11 113//11 122//11
f 59//61 126//61 121//61
f 59//61 121//61 61//61
f 84//62 127//62 106//62
f 84//62 106//62 107//62
f 50//63 128//63 126//63
f 50//63 126//63 59//63
f 101//11 122//11 118//11
f 115//11 118//11 122//11
f 107//64 53//64 56//64
f 107//64 56//64 84//64
f 34//65 114//65 128//65
f 34//65 128//65 50//65
f 123//11 72//11 70//11
f 120//11 123//11 74//11
f 74//11 86//11 120//11
f 86//11 90//11 120//11
f 110//11 120//11 90//11
f 90//11 94//11 109//11
f 35//42 117//42 114//42
f 67//66 78//66 112//66
f 67//66 112//66 118//66
f 127//11 84//11 87//11
f 87//11 108//11 127//11
f 80//11 127//11 108//11
f 108//11 81//11 80//11
f 70//11 74//11 123//11
