# Blender v2.82 (sub 7) OBJ File: ''
# www.blender.org
mtllib citywall-3.mtl
o City-Wall_3
v -3.270000 16.200001 9.545000
v -2.636881 14.857690 10.166941
v -2.592381 14.872400 10.132830
v -3.074001 16.200001 9.441000
v -4.524000 16.200001 9.302000
v -4.669001 16.200001 9.131001
v -5.224230 14.618560 10.003981
v -4.826090 14.814220 10.164909
v -4.348001 16.200001 9.441999
v -4.457891 14.875030 10.313740
v -4.148001 16.200001 9.546000
v -2.329870 14.853830 9.931601
v -2.285170 14.850920 9.897340
v -2.902000 16.200001 9.300000
v -3.932001 16.200001 9.610001
v -1.961670 14.703740 9.649370
v -2.763000 16.200001 9.129000
v -1.994350 14.718790 9.674419
v -1.596231 14.400000 9.369240
v -3.257971 14.518770 10.643030
v -3.720301 14.631820 10.611890
v -3.708000 16.200001 9.632000
v -4.947710 14.868650 -7.258010
v -4.901321 14.871730 -7.223710
v -4.606001 16.200001 -8.062000
v -1.594000 14.400000 9.365000
v -3.484001 16.200001 9.610001
v -3.269550 14.506430 10.651910
v -2.942150 14.744280 10.400940
v -2.907421 14.768770 10.374320
v -4.582371 14.768330 -6.987860
v -4.234001 16.200001 -7.823000
v -1.661261 14.705200 8.903870
v -1.721601 14.851720 8.501249
v -2.580000 16.200001 8.502000
v -3.691301 14.617640 10.623620
v -5.249041 14.598650 9.993950
v -5.497561 14.400000 9.893499
v -3.419521 14.400000 10.733470
v -1.770351 14.869070 8.175920
v -2.606001 16.200001 8.282000
v -2.844551 15.445070 7.170180
v -2.727461 15.384790 7.215330
v -3.374001 14.400000 6.966000
v -4.089870 14.813810 10.462510
v -4.409781 14.647050 -6.860240
v -4.345001 14.751360 -6.910000
v -4.239880 14.877020 -6.962330
v -4.409781 14.400000 -6.860240
v -4.345001 14.400000 -6.910000
v -4.172960 14.957250 -6.995640
v -4.019001 16.200001 -7.762000
v -1.592781 14.400000 9.360820
v -1.877621 14.400000 7.460170
v -2.690701 14.868960 -10.523750
v -2.644651 14.866190 -10.489731
v -3.009991 14.765700 -10.759670
v -3.365570 14.517610 -11.022409
v -2.379181 14.849280 -10.293570
v -2.336330 14.829960 -10.261909
v -2.051371 14.701330 -10.051359
v -2.022421 14.677490 -10.029970
v -1.837811 14.769250 7.725830
v -1.830620 14.781630 7.773750
v -1.778891 14.871910 8.118940
v -3.794500 15.306430 -7.184030
v -3.795000 16.200001 -7.744000
v -2.017830 14.782110 7.421710
v -1.877621 14.617260 7.460170
v -2.622000 14.400000 7.256000
v -5.859001 14.400000 7.642000
v -4.690001 16.200001 7.877000
v -5.854530 14.400000 7.633510
v -3.572001 16.200001 -7.770000
v -3.484070 15.496560 -7.338550
v -3.602091 15.424910 -7.279810
v -3.374001 15.470040 6.966000
v -3.309410 15.478940 6.990910
v -3.141420 15.502250 7.055690
v -3.015980 15.478220 7.104070
v -2.622000 15.330760 7.256000
v -4.920000 16.200001 -8.634001
v -4.855001 16.200001 -8.424000
v -3.796001 18.000000 -8.872999
v -2.406631 15.160950 7.315070
v -2.078220 14.853290 7.405150
v -4.749001 16.200001 -8.230000
v -5.798960 14.677110 8.066080
v -4.793001 16.200001 8.072001
v -5.861441 14.400000 7.650390
v -5.683931 14.866970 8.831329
v -5.793621 14.700610 8.101570
v -4.379000 16.200001 7.565000
v -4.550001 16.200001 7.706000
v -3.726000 18.000000 8.503000
v -4.093000 14.400000 6.601000
v -3.369551 14.400000 10.728550
v -2.993000 14.400000 -7.583000
v -1.679001 14.400000 -9.771999
v -2.672001 16.200001 -9.112000
v -1.677080 14.400000 -9.765820
v -4.318270 14.400000 6.456570
v -5.550631 14.517140 9.718130
v -5.530001 14.400000 9.855370
v -3.435581 15.449980 6.934740
v -2.738001 16.200001 -9.322001
v -1.682911 14.400000 -9.779110
v -3.305000 16.200001 7.460000
v -3.521000 16.200001 7.396000
v -3.477610 14.400000 -11.105200
v -3.526871 14.400000 -11.109159
v -3.773300 14.598520 -11.004499
v -3.755140 15.239440 6.772510
v -3.745001 16.200001 7.375000
v -3.640440 15.315250 6.830740
v -2.844000 16.200001 -9.516001
v -2.987001 16.200001 -9.684999
v -3.161001 16.200001 -9.822001
v -4.093000 14.913390 6.601000
v -4.150000 14.846270 6.564450
v -3.968000 16.200001 7.397000
v -3.105001 16.200001 7.564000
v -3.359001 16.200001 -9.923000
v -4.194181 14.814560 -10.825741
v -4.148230 14.791970 -10.845261
v -4.506281 14.866400 -10.693180
v -4.511070 14.741000 6.604270
v -5.491920 14.701090 7.355710
v -3.574001 16.200001 -9.983999
v -5.616331 14.765600 9.281050
v -5.623480 14.778170 9.233490
v -5.675400 14.869830 8.888050
v -5.733021 14.849190 8.504749
v -5.740911 14.829670 8.452250
v -4.875570 14.822930 -10.536329
v -4.925081 14.814500 -10.515301
v -1.742710 14.718040 -9.269079
v -1.926271 14.400000 -7.879720
v -1.737310 14.703170 -9.309910
v -5.490000 14.400000 -7.659000
v -5.212610 14.851970 -7.453890
v -5.592411 14.400000 -10.231871
v -3.204071 15.574400 -7.477930
v -5.320280 14.619100 -10.347450
v -5.291290 14.633380 -10.359760
v -4.559721 14.875680 -10.670481
v -3.797880 14.618330 -10.994061
v -2.674000 16.200001 8.070000
v -1.899101 14.741610 -8.085369
v -1.893410 14.766140 -8.128410
v -2.843000 16.200001 -8.261999
v -4.854000 16.200001 8.284000
v -4.873001 16.200001 8.504000
v -5.621210 14.400000 -10.196800
v -5.638071 14.508280 -10.069651
v -4.847000 16.200001 8.724000
v -3.797001 16.200001 -10.002001
v -4.021000 16.200001 -9.976000
v -2.783001 16.200001 7.875000
v -4.236000 16.200001 -9.909000
v -4.434000 16.200001 -9.801001
v -5.914001 14.400000 -7.974000
v -5.915401 14.400000 -7.978540
v -5.912621 14.400000 -7.971500
v -2.929001 16.200001 7.704000
v -2.511761 15.258860 7.286240
v -5.854721 14.703120 -8.436081
v -5.569590 14.679590 -7.717850
v -4.318270 14.604320 6.456570
v -4.608000 16.200001 -9.658001
v -5.640011 14.520730 -10.055019
v -4.182001 16.200001 7.461000
v -4.545410 14.765490 6.630580
v -5.540430 14.703600 -7.696290
v -4.750000 16.200001 -9.485001
v -5.750221 14.872070 -9.224020
v -5.742821 14.857460 -9.279800
v -5.801180 14.852070 -8.839769
v -5.849291 14.718320 -8.476999
v -5.698080 14.768710 -9.617201
v -5.692331 14.744040 -9.660521
v -4.856001 16.200001 -9.288000
v -4.921001 16.200001 -9.075001
v -4.943001 16.200001 -8.854000
v -4.816610 14.854540 6.838350
v -4.860981 14.869380 6.872340
v -5.123991 14.852290 7.073830
v -5.168400 14.849120 7.107860
v -2.737001 16.200001 -8.459000
v -1.848650 14.855150 -8.467220
v -3.159000 16.200001 -7.945000
v -3.062241 15.565360 -7.548530
v -2.993000 15.561180 -7.583000
v -2.923431 15.535380 -7.602350
v -5.459450 14.715850 7.330840
v -3.357000 16.200001 -7.838000
v -1.841351 14.869780 -8.522461
v -2.672001 16.200001 -8.671000
v -1.790651 14.850230 -8.906250
v -2.650000 16.200001 -8.892000
v -1.798000 14.853080 -8.850590
v -2.985001 16.200001 -8.087999
v -2.719591 15.397020 -7.659050
v -2.581121 15.303600 -7.697570
v -2.150061 14.892560 -7.817470
v -2.243221 14.981750 -7.791560
v -1.926271 14.625100 -7.879720
v -5.255600 14.832870 -7.485670
vn 0.3965 0.5333 0.7473
vn -0.6468 0.5299 0.5485
vn -0.5284 0.5288 0.6642
vn -0.3918 0.5282 0.7534
vn 0.5376 0.5348 0.6519
vn 0.5358 0.5344 0.6537
vn -0.2412 0.5282 0.8142
vn 0.6550 0.5360 0.5325
vn 0.6551 0.5360 0.5325
vn 0.7469 0.5366 0.3926
vn 0.6084 0.0001 0.7936
vn -0.0830 0.5286 0.8448
vn 0.6534 0.5356 0.5350
vn -0.5251 0.5346 0.6621
vn 0.7468 0.5365 0.3930
vn 0.0829 0.5298 0.8441
vn 0.0826 0.5298 0.8441
vn 0.2460 0.5319 0.8103
vn -0.3844 0.5332 0.7536
vn 0.8416 0.5358 0.0688
vn -0.3748 0.0005 0.9271
vn -0.3748 0.0000 0.9271
vn 0.8391 0.5348 -0.0992
vn 0.3598 0.0000 -0.9330
vn -0.2412 0.5282 0.8141
vn -0.2295 0.5315 0.8154
vn -0.2294 0.5315 0.8154
vn -0.0811 0.5288 0.8449
vn -0.5946 0.0000 0.8041
vn -0.0833 0.5285 0.8448
vn 0.0831 0.5298 0.8440
vn 0.6092 0.0000 0.7930
vn -0.3747 -0.0001 0.9271
vn -0.3748 0.0001 0.9271
vn -0.2312 0.5313 0.8150
vn 0.9890 -0.0000 -0.1482
vn 0.5942 0.0003 -0.8043
vn 0.5943 0.0001 -0.8043
vn 0.5943 -0.0000 -0.8043
vn 0.5942 0.0000 -0.8043
vn 0.5942 0.0001 -0.8043
vn 0.9889 0.0002 -0.1484
vn -0.0679 0.5298 0.8454
vn 0.2645 -0.0000 -0.9644
vn -0.7468 0.5364 -0.3932
vn 0.6084 0.0002 0.7937
vn 0.6084 0.0000 0.7937
vn 0.6084 -0.0000 0.7936
vn 0.6084 0.0002 0.7936
vn 0.0983 0.5292 0.8428
vn 0.0982 0.5292 0.8428
vn 0.0000 -1.0000 0.0000
vn -0.8062 0.5365 0.2495
vn -0.7405 0.5366 0.4046
vn -0.8105 0.5363 -0.2357
vn -0.9889 0.0003 0.1486
vn -0.5376 0.5348 -0.6520
vn -0.6533 0.5359 -0.5348
vn -0.7461 0.5366 -0.3941
vn -0.2312 0.5316 0.8148
vn -0.0679 0.5301 0.8452
vn 0.4456 0.0000 0.8952
vn 0.8059 0.5364 -0.2504
vn 0.0000 -1.0000 0.0004
vn -0.6459 0.5300 0.5495
vn -0.6458 0.5301 0.5495
vn 0.4527 0.0000 -0.8917
vn 0.7394 0.5367 -0.4066
vn 0.7392 0.5366 -0.4069
vn 0.0983 0.5288 0.8430
vn 0.2412 0.5282 -0.8141
vn 0.0679 0.5302 -0.8451
vn 0.0681 0.5301 -0.8452
vn 0.0792 0.5291 -0.8449
vn 0.7407 0.5363 -0.4047
vn 0.0811 0.5288 -0.8449
vn 0.6446 0.5358 -0.5454
vn 0.6447 0.5358 -0.5453
vn 0.5240 0.5346 -0.6631
vn 0.0000 -1.0000 0.0001
vn 0.0944 0.5287 0.8436
vn 0.2407 0.5282 -0.8143
vn 0.0792 0.5287 -0.8451
vn 0.5227 0.5347 -0.6640
vn 0.5227 0.5347 -0.6639
vn -0.0832 0.5301 -0.8438
vn -0.0833 0.5301 -0.8438
vn 0.3917 0.5283 -0.7533
vn 0.3844 0.5332 -0.7536
vn -0.3909 0.0001 -0.9204
vn -0.2444 0.5316 -0.8110
vn -0.6082 -0.0000 -0.7938
vn 0.2412 0.5282 -0.8142
vn 0.2312 0.5316 -0.8148
vn -0.9889 -0.0000 0.1486
vn -0.9889 -0.0003 0.1488
vn -0.9889 -0.0001 0.1486
vn -0.3909 0.0000 -0.9204
vn 0.9914 0.0002 0.1310
vn 0.8392 0.5348 -0.0991
vn -0.5946 -0.0000 0.8040
vn 0.8395 0.5345 -0.0973
vn 0.0000 -1.0000 0.0003
vn 0.8050 0.5333 -0.2601
vn -0.3910 0.0001 -0.9204
vn -0.3909 -0.0001 -0.9204
vn 0.8056 0.5330 -0.2586
vn 0.8057 0.5330 -0.2584
vn 0.7459 0.5314 0.4015
vn 0.2312 0.5315 -0.8149
vn -0.8109 0.5366 -0.2333
vn -0.8411 0.5359 -0.0726
vn 0.7386 0.5315 -0.4147
vn 0.7386 0.5314 -0.4147
vn -0.6554 0.5299 -0.5382
vn -0.8392 0.5348 0.0992
vn 0.0683 0.5301 -0.8452
vn 0.0682 0.5301 -0.8452
vn -0.0978 0.5292 -0.8428
vn -0.0979 0.5292 -0.8428
vn -0.0960 0.5289 -0.8432
vn -0.2560 0.5285 -0.8094
vn -0.3917 0.5283 0.7533
vn -0.2412 0.5283 0.8141
vn 0.7395 0.5312 -0.4134
vn -0.0830 0.5289 0.8446
vn -0.2527 0.5280 -0.8108
vn 0.0829 0.5301 0.8439
vn -0.4065 0.5284 -0.7454
vn 0.0000 -1.0000 -0.0002
vn 0.0000 -1.0000 0.0002
vn 0.2462 0.5315 0.8105
vn -0.8064 0.5365 0.2487
vn -0.4066 0.5284 -0.7453
vn 0.6448 0.5302 -0.5505
vn 0.3966 0.5331 0.7474
vn -0.4052 0.5281 -0.7463
vn -0.8065 0.5365 0.2485
vn 0.5358 0.5346 0.6536
vn 0.6552 0.5358 0.5326
vn -0.0833 0.5298 -0.8440
vn -0.7388 0.5366 0.4077
vn -0.7387 0.5365 0.4081
vn -0.5398 0.5289 -0.6549
vn -0.5389 0.5288 -0.6557
vn 0.8416 0.5358 0.0689
vn 0.5397 -0.0000 -0.8418
vn -0.6555 0.5301 -0.5379
vn -0.2427 0.5313 -0.8116
vn 0.8394 0.5344 -0.0992
vn -0.5945 0.0000 0.8041
vn -0.6555 0.5300 -0.5380
vn -0.2429 0.5314 -0.8116
vn 0.7394 0.5315 -0.4133
vn -0.6553 0.5300 -0.5382
vn -0.9913 -0.0002 -0.1315
vn -0.9913 -0.0000 -0.1315
vn -0.9913 -0.0001 -0.1315
vn -0.9913 0.0002 -0.1315
vn -0.9913 0.0001 -0.1315
vn -0.7467 0.5315 -0.3999
vn 0.6449 0.5300 -0.5506
vn -0.7460 0.5312 -0.4016
vn -0.7461 0.5313 -0.4014
vn 0.6468 0.5299 -0.5485
vn -0.8092 0.5330 -0.2470
vn 0.5274 0.5289 -0.6649
vn -0.8091 0.5330 -0.2475
vn -0.8413 0.5356 -0.0727
vn -0.8410 0.5345 -0.0837
vn -0.8391 0.5348 0.0992
vn -0.3950 0.5332 -0.7482
vn -0.3973 0.5331 -0.7470
vn -0.8091 0.5334 -0.2469
vn -0.8043 0.5332 0.2624
vn -0.3951 0.5327 -0.7484
vn 0.5284 0.5288 -0.6642
vn -0.8395 0.5346 0.0971
vn -0.8408 0.5349 -0.0837
vn -0.5377 0.5348 -0.6518
vn 0.3925 0.5282 -0.7530
vn -0.8045 0.5332 0.2618
vn -0.8045 0.5331 0.2618
vn -0.7394 0.5315 0.4133
vn -0.8397 0.5360 0.0878
vn -0.8397 0.5359 0.0876
vn -0.8397 0.5359 0.0878
vn -0.5356 0.5344 -0.6539
vn -0.8400 0.5357 0.0861
vn -0.6467 0.5301 0.5484
vn 0.8092 0.5330 0.2469
vn -0.8061 0.5366 0.2495
vn -0.6469 0.5299 0.5484
vn 0.4038 0.5282 0.7470
vn 0.4037 0.5282 0.7470
vn -0.6542 0.5358 -0.5337
vn -0.5283 0.5290 0.6641
vn 0.9914 -0.0000 0.1310
vn -0.6533 0.5356 -0.5351
vn 0.8090 0.5329 0.2480
vn 0.8090 0.5329 0.2481
vn -0.6534 0.5356 -0.5350
vn 0.8410 0.5345 0.0837
vn 0.8410 0.5345 0.0839
vn -0.7467 0.5363 -0.3934
vn -0.7464 0.5362 -0.3942
vn 0.8401 0.5358 -0.0842
vn -0.8109 0.5366 -0.2334
vn -0.7407 0.5362 0.4048
vn 0.8402 0.5358 -0.0840
vn 0.8049 0.5368 -0.2530
vn -0.8413 0.5359 -0.0707
vn 0.8060 0.5364 -0.2502
vn -0.6429 0.5359 0.5473
vn 0.4037 0.5280 0.7471
vn 0.3918 0.5282 -0.7534
vn 0.9914 -0.0002 0.1309
vn 0.4051 0.5284 0.7461
vn -0.6081 0.0002 -0.7939
vn -0.6082 -0.0003 -0.7938
vn -0.6081 0.0000 -0.7938
vn -0.6081 0.0001 -0.7939
vn -0.6082 -0.0001 -0.7938
vn 0.5398 0.0000 -0.8418
vn 0.5389 0.5288 0.6557
vn 0.5409 0.5289 0.6540
vn 0.7461 0.5313 0.4014
vn 0.8090 0.5330 0.2480
vn 0.2680 0.0000 0.9634
vn 0.7463 0.5364 0.3942
vn 0.8103 0.5363 0.2362
vn 0.8100 0.5364 0.2369
vn 0.8052 0.5364 -0.2530
vn 0.5390 0.5285 0.6559
vn 0.5390 0.5285 0.6558
vn 0.6568 0.5304 0.5360
vn 0.5228 0.5345 -0.6640
vn 0.3845 0.5330 -0.7537
vn 0.0831 0.5298 0.8441
vn 0.0831 0.5297 0.8441
vn 0.6084 -0.0001 0.7937
vn 0.2461 0.5319 0.8103
vn -0.0979 0.5288 -0.8431
vn 0.2428 0.5313 0.8116
vn 0.3972 0.5334 0.7468
vn -0.2526 0.5283 -0.8106
vn 0.6084 -0.0001 0.7936
vn 0.7466 0.5317 0.3999
vn -0.5388 0.5290 -0.6556
vn -0.6554 0.5302 -0.5379
vn 0.6570 0.5299 0.5362
vn -0.7458 0.5317 -0.4013
vn 0.6546 0.5298 0.5392
vn 0.7460 0.5314 0.4014
vn 0.2560 0.5285 0.8094
vn 0.2561 0.5280 0.8097
vn 0.9914 0.0001 0.1312
vn 0.4457 0.0000 0.8952
vn -0.7408 0.5361 0.4048
vn -0.6428 0.5361 0.5472
vn -0.6427 0.5361 0.5472
vn -0.6456 0.5356 0.5443
vn -0.5239 0.5348 0.6630
vn -0.5944 -0.0001 0.8042
usemtl None
s off
f 1//1 2//1 3//1
f 1//1 3//1 4//1
f 5//2 6//2 7//2
f 5//3 7//3 8//3
f 5//3 8//3 9//3
f 9//4 8//4 10//4
f 9//4 10//4 11//4
f 4//5 3//5 12//5
f 13//6 14//6 12//6
f 4//6 12//6 14//6
f 11//7 10//7 15//7
f 16//8 17//8 18//8
f 14//9 18//9 17//9
f 16//10 19//10 17//10
f 18//11 20//11 16//11
f 21//12 22//12 15//12
f 14//13 13//13 18//13
f 23//14 24//14 25//14
f 17//15 19//15 26//15
f 27//16 22//16 20//16
f 28//17 20//17 22//17
f 29//18 30//18 27//18
f 24//19 31//19 32//19
f 33//20 34//20 35//20
f 36//21 21//21 37//21
f 38//22 39//22 37//22
f 35//23 40//23 41//23
f 42//24 43//24 44//24
f 10//25 45//25 15//25
f 46//26 47//26 31//26
f 47//26 48//26 31//26
f 32//27 31//27 48//27
f 21//28 15//28 45//28
f 31//29 49//29 46//29
f 36//30 22//30 21//30
f 36//31 28//31 22//31
f 49//32 50//32 46//32
f 7//33 37//33 21//33
f 10//34 8//34 45//34
f 8//34 7//34 45//34
f 21//22 45//22 7//22
f 32//35 48//35 51//35
f 32//35 51//35 52//35
f 53//36 54//36 33//36
f 55//37 56//37 57//37
f 58//38 57//38 56//38
f 56//39 59//39 58//39
f 59//40 60//40 58//40
f 60//39 61//39 58//39
f 61//41 62//41 58//41
f 63//42 64//42 54//42
f 64//36 65//36 54//36
f 65//36 40//36 54//36
f 33//36 54//36 34//36
f 52//43 51//43 66//43
f 52//43 66//43 67//43
f 68//44 69//44 70//44
f 71//45 72//45 73//45
f 12//46 20//46 13//46
f 18//47 13//47 20//47
f 3//48 2//48 12//48
f 2//47 30//47 12//47
f 28//49 19//49 20//49
f 19//47 16//47 20//47
f 74//50 67//50 75//50
f 76//51 75//51 67//51
f 73//52 44//52 53//52
f 77//24 78//24 44//24
f 78//24 79//24 44//24
f 80//24 42//24 44//24
f 43//24 81//24 44//24
f 82//53 83//53 84//53
f 85//44 86//44 70//44
f 83//54 87//54 84//54
f 54//52 53//52 70//52
f 70//52 53//52 44//52
f 88//55 89//55 90//55
f 88//56 91//56 92//56
f 93//57 94//57 95//57
f 44//52 73//52 96//52
f 94//58 72//58 95//58
f 24//19 32//19 84//19
f 72//59 89//59 95//59
f 32//60 52//60 84//60
f 39//52 73//52 97//52
f 52//61 67//61 84//61
f 76//62 66//62 98//62
f 99//63 100//63 101//63
f 19//52 73//52 26//52
f 19//52 97//52 73//52
f 53//64 26//64 73//64
f 102//52 96//52 73//52
f 103//65 104//65 38//65
f 38//66 37//66 103//66
f 77//67 44//67 105//67
f 73//52 104//52 71//52
f 106//68 99//68 107//68
f 106//69 107//69 62//69
f 84//70 67//70 74//70
f 38//52 104//52 73//52
f 39//52 38//52 73//52
f 95//71 108//71 109//71
f 58//72 110//72 111//72
f 58//73 111//73 112//73
f 113//74 114//74 115//74
f 109//74 115//74 114//74
f 116//75 106//75 61//75
f 62//75 61//75 106//75
f 105//76 115//76 109//76
f 116//77 60//77 59//77
f 116//77 59//77 117//77
f 60//78 116//78 61//78
f 59//79 56//79 117//79
f 105//67 44//67 115//67
f 90//80 71//80 104//80
f 67//81 66//81 76//81
f 108//82 79//82 78//82
f 95//83 109//83 114//83
f 55//84 118//84 56//84
f 117//85 56//85 118//85
f 119//86 120//86 121//86
f 113//87 119//87 121//87
f 114//86 113//86 121//86
f 108//88 122//88 79//88
f 57//89 123//89 55//89
f 124//90 125//90 126//90
f 80//24 44//24 79//24
f 120//91 127//91 121//91
f 118//89 55//89 123//89
f 113//67 44//67 119//67
f 73//92 128//92 102//92
f 77//93 109//93 78//93
f 108//71 78//71 109//71
f 105//93 109//93 77//93
f 58//94 129//94 57//94
f 90//95 104//95 103//95
f 90//95 103//95 130//95
f 90//95 130//95 131//95
f 131//95 132//95 90//95
f 90//96 132//96 91//96
f 133//97 134//97 91//97
f 134//95 92//95 91//95
f 90//95 91//95 88//95
f 135//98 111//98 136//98
f 137//99 138//99 139//99
f 65//100 41//100 40//100
f 31//101 24//101 49//101
f 140//29 49//29 23//29
f 23//101 49//101 24//101
f 23//29 141//29 140//29
f 62//39 107//39 58//39
f 110//39 58//39 107//39
f 35//102 34//102 40//102
f 101//103 142//103 99//103
f 99//52 142//52 107//52
f 41//104 65//104 64//104
f 40//36 34//36 54//36
f 142//52 111//52 107//52
f 143//62 75//62 98//62
f 142//98 144//98 111//98
f 111//90 144//90 145//90
f 145//98 136//98 111//98
f 146//105 126//105 135//105
f 126//98 125//98 135//98
f 147//98 135//98 125//98
f 112//106 135//106 147//106
f 111//98 135//98 112//98
f 63//107 148//107 64//107
f 41//108 64//108 148//108
f 149//109 150//109 151//109
f 101//52 98//52 142//52
f 123//94 57//94 129//94
f 66//62 51//62 98//62
f 50//62 98//62 47//62
f 51//62 48//62 98//62
f 48//62 47//62 98//62
f 58//73 112//73 129//73
f 47//32 46//32 50//32
f 129//110 84//110 123//110
f 89//111 152//111 95//111
f 152//112 153//112 95//112
f 69//113 68//113 63//113
f 148//114 63//114 68//114
f 142//115 154//115 155//115
f 153//116 156//116 95//116
f 129//117 112//117 147//117
f 129//118 147//118 157//118
f 138//52 98//52 101//52
f 158//119 157//119 124//119
f 125//120 124//120 157//120
f 63//36 54//36 69//36
f 147//121 125//121 157//121
f 50//52 140//52 98//52
f 124//122 126//122 158//122
f 54//44 70//44 69//44
f 142//52 98//52 154//52
f 11//123 95//123 9//123
f 49//52 140//52 50//52
f 140//52 154//52 98//52
f 15//124 95//124 11//124
f 68//125 86//125 148//125
f 15//126 22//126 95//126
f 148//125 86//125 159//125
f 160//127 158//127 146//127
f 126//127 146//127 158//127
f 22//128 27//128 95//128
f 161//129 135//129 136//129
f 162//130 163//130 154//130
f 154//131 164//131 162//131
f 110//52 107//52 111//52
f 140//52 164//52 154//52
f 1//132 95//132 27//132
f 162//133 82//133 163//133
f 160//134 135//134 161//134
f 165//135 159//135 166//135
f 1//136 4//136 95//136
f 146//137 135//137 160//137
f 85//135 166//135 159//135
f 167//138 163//138 82//138
f 4//139 14//139 95//139
f 14//140 17//140 95//140
f 114//141 121//141 95//141
f 168//142 83//142 164//142
f 162//143 164//143 83//143
f 136//144 145//144 161//144
f 169//91 127//91 120//91
f 161//145 145//145 170//145
f 144//145 170//145 145//145
f 33//146 35//146 95//146
f 120//147 96//147 169//147
f 155//148 171//148 170//148
f 172//149 121//149 173//149
f 35//150 41//150 95//150
f 174//151 168//151 140//151
f 164//151 140//151 168//151
f 175//152 170//152 171//152
f 41//108 148//108 95//108
f 121//153 127//153 173//153
f 95//149 121//149 172//149
f 148//154 159//154 95//154
f 144//155 142//155 155//155
f 144//155 155//155 170//155
f 176//156 177//156 178//156
f 179//157 178//157 177//157
f 177//157 180//157 179//157
f 180//158 181//158 179//158
f 167//159 179//159 181//159
f 171//157 163//157 181//157
f 155//160 163//160 171//160
f 154//157 163//157 155//157
f 163//157 167//157 181//157
f 171//161 181//161 175//161
f 86//44 68//44 70//44
f 85//44 70//44 166//44
f 159//162 165//162 95//162
f 175//163 181//163 180//163
f 175//164 180//164 182//164
f 85//165 159//165 86//165
f 183//166 182//166 176//166
f 177//166 176//166 182//166
f 43//167 165//167 81//167
f 166//167 81//167 165//167
f 180//168 177//168 182//168
f 153//169 152//169 133//169
f 134//169 133//169 152//169
f 178//170 184//170 176//170
f 70//24 44//24 81//24
f 132//171 156//171 91//171
f 153//171 91//171 156//171
f 166//44 70//44 81//44
f 95//172 172//172 93//172
f 173//173 185//173 172//173
f 84//174 182//174 183//174
f 132//175 131//175 156//175
f 172//176 185//176 186//176
f 43//177 42//177 165//177
f 165//177 42//177 122//177
f 165//177 122//177 95//177
f 172//176 186//176 93//176
f 133//178 91//178 153//178
f 183//179 184//179 84//179
f 80//88 79//88 122//88
f 94//180 187//180 188//180
f 183//170 176//170 184//170
f 122//181 42//181 80//181
f 95//182 156//182 130//182
f 131//183 130//183 156//183
f 95//184 130//184 6//184
f 184//185 82//185 84//185
f 93//57 187//57 94//57
f 167//186 82//186 179//186
f 184//187 179//187 82//187
f 186//188 187//188 93//188
f 103//184 6//184 130//184
f 178//189 179//189 184//189
f 95//190 6//190 5//190
f 103//66 37//66 6//66
f 189//191 150//191 190//191
f 162//192 83//192 82//192
f 37//193 7//193 6//193
f 191//194 192//194 193//194
f 191//195 193//195 194//195
f 188//196 195//196 94//196
f 9//197 95//197 5//197
f 101//198 139//198 138//198
f 196//195 192//195 191//195
f 72//199 195//199 128//199
f 189//200 190//200 197//200
f 189//201 197//201 198//201
f 94//202 195//202 72//202
f 199//203 200//203 201//203
f 198//203 201//203 200//203
f 198//204 197//204 201//204
f 128//205 73//205 72//205
f 72//206 71//206 89//206
f 200//207 199//207 137//207
f 143//62 98//62 192//62
f 152//111 89//111 92//111
f 88//208 92//208 89//208
f 168//209 174//209 83//209
f 139//210 100//210 137//210
f 200//210 137//210 100//210
f 71//55 90//55 89//55
f 100//211 99//211 106//211
f 92//212 134//212 152//212
f 139//213 101//213 100//213
f 84//214 87//214 25//214
f 84//215 196//215 191//215
f 95//216 122//216 108//216
f 201//217 138//217 199//217
f 201//198 197//198 138//198
f 190//198 138//198 197//198
f 137//198 199//198 138//198
f 150//198 138//198 190//198
f 25//14 24//14 84//14
f 192//218 196//218 143//218
f 128//219 195//219 102//219
f 195//92 188//92 102//92
f 187//220 102//220 188//220
f 187//221 186//221 102//221
f 185//222 102//222 186//222
f 173//92 102//92 185//92
f 127//223 102//223 173//223
f 169//221 102//221 127//221
f 102//147 169//147 96//147
f 119//224 96//224 120//224
f 84//225 191//225 202//225
f 44//67 96//67 119//67
f 113//67 115//67 44//67
f 203//226 191//226 194//226
f 189//227 84//227 151//227
f 198//228 84//228 189//228
f 193//229 98//229 194//229
f 200//203 84//203 198//203
f 100//210 84//210 200//210
f 26//230 95//230 17//230
f 26//231 53//231 95//231
f 33//232 95//232 53//232
f 106//233 84//233 100//233
f 191//234 203//234 202//234
f 204//235 202//235 203//235
f 116//75 84//75 106//75
f 117//77 84//77 116//77
f 205//236 151//236 206//236
f 117//237 118//237 84//237
f 206//236 151//236 202//236
f 118//238 123//238 84//238
f 36//239 39//239 28//239
f 28//240 39//240 97//240
f 36//22 37//22 39//22
f 97//241 19//241 28//241
f 129//118 157//118 84//118
f 1//242 27//242 30//242
f 157//243 158//243 84//243
f 27//244 20//244 29//244
f 30//245 2//245 1//245
f 158//246 160//246 84//246
f 20//47 12//47 29//47
f 29//247 12//247 30//247
f 205//248 149//248 151//248
f 160//134 161//134 84//134
f 161//249 170//249 84//249
f 205//229 206//229 98//229
f 170//250 175//250 84//250
f 202//251 151//251 84//251
f 175//252 182//252 84//252
f 204//253 206//253 202//253
f 207//248 149//248 205//248
f 205//229 98//229 207//229
f 189//254 151//254 150//254
f 196//255 74//255 143//255
f 75//255 143//255 74//255
f 76//62 98//62 75//62
f 84//256 74//256 196//256
f 150//257 149//257 138//257
f 207//198 138//198 149//198
f 193//258 192//258 98//258
f 203//229 194//229 98//229
f 204//229 203//229 98//229
f 204//229 98//229 206//229
f 138//229 207//229 98//229
f 87//259 83//259 174//259
f 25//260 87//260 141//260
f 208//261 141//261 87//261
f 87//262 174//262 208//262
f 141//263 23//263 25//263
f 208//264 140//264 141//264
f 174//101 140//101 208//101
