# Blender v2.82 (sub 7) OBJ File: ''
# www.blender.org
mtllib ship-1.mtl
o Ship-1
v -11.117001 0.798000 2.500999
v -11.471001 0.798000 1.728001
v -11.117001 0.000000 2.500999
v -10.607000 0.798000 3.184000
v -7.858002 0.798000 4.548000
v -8.604000 0.798000 4.457001
v -9.350000 0.798000 4.184000
v -10.018002 0.798000 3.775000
v -10.018002 0.000000 3.775000
v -9.350000 0.000000 4.184000
v -10.018002 0.000000 -3.820000
v -8.604000 0.000000 4.457001
v -7.858002 0.000000 4.548000
v -9.350000 0.000000 -4.230000
v -8.604000 0.000000 -4.502000
v -7.858002 0.000000 -4.548000
v -8.604000 0.798000 -4.502000
v -7.858002 0.798000 -4.548000
v 7.850999 0.000000 -4.548000
v 7.850999 0.798000 -4.548000
v 7.850999 0.000000 -4.543000
v 7.850999 0.798000 -4.543000
v 8.558000 0.000000 -4.457000
v 7.850999 0.000000 4.546000
v 7.850999 0.000000 4.548000
v 7.850999 0.798000 4.548000
v 7.850999 0.798000 4.546000
v 8.558000 0.798000 -4.457000
v 9.303999 0.798000 -4.184000
v 9.971999 0.798000 -3.775000
v 9.971999 0.000000 -3.775000
v 9.303999 0.000000 -4.184000
v 11.424999 0.000000 1.774000
v 10.560999 0.000000 -3.184000
v 11.070999 0.000000 -2.501000
v 11.424999 0.000000 -1.728001
v 11.699999 0.000000 0.000000
v 11.660999 0.000000 0.910000
v 11.660999 0.798000 0.910000
v 11.699999 0.798000 0.000000
v 11.424999 0.798000 1.774000
v 8.558000 0.798000 4.503000
v 8.558000 0.000000 4.503000
v 9.303999 0.000000 4.230000
v 9.971999 0.000000 3.820000
v 9.303999 0.798000 4.230000
v 9.971999 0.798000 3.820000
v 10.560999 0.798000 3.229000
v 11.070999 0.798000 2.546999
v 11.070999 0.000000 2.546999
v 10.560999 0.000000 3.229000
v 11.660999 0.798000 -0.864000
v 11.660999 0.000000 -0.864000
v 11.424999 0.798000 -1.728001
v 11.070999 0.798000 -2.501000
v 10.560999 0.798000 -3.184000
v -9.350000 0.798000 -4.230000
v -10.018002 0.798000 -3.820000
v -10.607000 0.798000 -3.229000
v -11.117001 0.798000 -2.547000
v -11.471001 0.798000 -1.774000
v -11.117001 0.000000 -2.547000
v -11.471001 0.000000 -1.774000
v -11.706001 0.798000 -0.910000
v -11.706001 0.000000 -0.910000
v -11.746000 0.798000 0.000000
v -11.746000 0.000000 0.000000
v -11.706001 0.798000 0.864000
v -11.706001 0.000000 0.864000
v -11.471001 0.000000 1.728001
v -10.607000 0.000000 -3.229000
v -10.607000 0.000000 3.184000
vn -0.9092 0.0000 0.4164
vn -0.8013 0.0000 0.5983
vn 0.0000 1.0000 0.0000
vn -0.5222 0.0000 0.8528
vn 0.0000 -1.0000 0.0000
vn -0.3437 0.0000 0.9391
vn -0.0615 0.0000 -0.9981
vn 0.0000 0.0000 -1.0000
vn 1.0000 0.0000 0.0000
vn 0.1208 0.0000 -0.9927
vn 0.0000 0.0000 1.0000
vn 0.5222 0.0000 -0.8528
vn 0.9647 0.0000 0.2635
vn 0.9991 0.0000 0.0428
vn 0.0607 0.0000 0.9982
vn 0.5231 0.0000 0.8523
vn 0.3437 0.0000 0.9391
vn 0.9092 0.0000 0.4164
vn 0.8008 0.0000 0.5989
vn 0.7083 0.0000 0.7059
vn 0.9990 0.0000 -0.0451
vn 0.9647 0.0000 -0.2635
vn 0.9092 0.0000 -0.4164
vn 0.8013 0.0000 -0.5983
vn 0.7083 0.0000 -0.7059
vn 0.3437 0.0000 -0.9391
vn -0.9092 0.0000 -0.4164
vn -0.9649 0.0000 -0.2625
vn -0.9990 0.0000 -0.0439
vn -0.9989 0.0000 0.0462
vn -0.9649 0.0000 0.2625
vn -0.7083 0.0000 -0.7059
vn -0.8008 0.0000 -0.5989
vn -0.5231 0.0000 -0.8523
vn -0.3426 0.0000 -0.9395
vn -0.1211 0.0000 0.9926
vn -0.7083 0.0000 0.7059
usemtl None
s off
f 1//1 2//1 3//1
f 3//2 4//2 1//2
f 1//3 4//3 5//3
f 6//3 5//3 4//3
f 7//3 6//3 4//3
f 7//3 4//3 8//3
f 7//4 8//4 9//4
f 7//4 9//4 10//4
f 10//5 9//5 11//5
f 10//5 11//5 12//5
f 6//6 10//6 12//6
f 13//5 12//5 11//5
f 11//5 14//5 13//5
f 14//5 15//5 13//5
f 16//5 13//5 15//5
f 16//7 15//7 17//7
f 16//7 17//7 18//7
f 19//8 16//8 18//8
f 18//8 20//8 19//8
f 20//9 21//9 19//9
f 20//9 22//9 21//9
f 22//10 23//10 21//10
f 23//5 24//5 21//5
f 13//5 21//5 24//5
f 13//5 24//5 25//5
f 25//11 26//11 13//11
f 26//11 5//11 13//11
f 26//3 27//3 5//3
f 27//3 22//3 5//3
f 18//3 5//3 22//3
f 28//3 22//3 27//3
f 29//3 28//3 27//3
f 29//3 27//3 30//3
f 29//12 30//12 31//12
f 29//12 31//12 32//12
f 33//5 32//5 31//5
f 33//5 31//5 34//5
f 33//5 34//5 35//5
f 33//5 35//5 36//5
f 33//5 36//5 37//5
f 33//5 37//5 38//5
f 39//13 33//13 38//13
f 38//14 40//14 39//14
f 40//3 27//3 39//3
f 39//3 27//3 41//3
f 42//3 41//3 27//3
f 43//15 42//15 27//15
f 43//15 27//15 24//15
f 43//5 24//5 32//5
f 44//5 43//5 32//5
f 44//5 32//5 45//5
f 45//16 46//16 44//16
f 46//17 42//17 44//17
f 45//16 47//16 46//16
f 41//3 46//3 47//3
f 41//3 47//3 48//3
f 41//3 48//3 49//3
f 41//18 49//18 50//18
f 41//18 50//18 33//18
f 50//19 49//19 48//19
f 50//19 48//19 51//19
f 51//5 32//5 50//5
f 51//20 48//20 47//20
f 51//20 47//20 45//20
f 45//5 32//5 51//5
f 43//17 44//17 42//17
f 46//3 41//3 42//3
f 52//3 27//3 40//3
f 53//21 52//21 40//21
f 53//21 40//21 37//21
f 36//22 52//22 53//22
f 36//22 54//22 52//22
f 54//3 27//3 52//3
f 55//3 27//3 54//3
f 35//23 55//23 54//23
f 56//3 27//3 55//3
f 34//24 56//24 55//24
f 30//25 56//25 34//25
f 39//13 41//13 33//13
f 38//14 37//14 40//14
f 53//5 37//5 36//5
f 35//23 54//23 36//23
f 34//24 55//24 35//24
f 33//5 50//5 32//5
f 30//25 34//25 31//25
f 30//3 27//3 56//3
f 32//26 28//26 29//26
f 32//26 23//26 28//26
f 27//9 26//9 25//9
f 27//9 25//9 24//9
f 32//5 24//5 23//5
f 22//10 28//10 23//10
f 20//3 18//3 22//3
f 19//5 21//5 16//5
f 18//3 17//3 5//3
f 17//3 57//3 5//3
f 57//3 58//3 5//3
f 58//3 59//3 5//3
f 59//3 60//3 5//3
f 61//3 5//3 60//3
f 61//27 60//27 62//27
f 61//27 62//27 63//27
f 63//28 64//28 61//28
f 63//28 65//28 64//28
f 66//29 64//29 65//29
f 66//29 65//29 67//29
f 68//30 66//30 67//30
f 68//30 67//30 69//30
f 69//31 2//31 68//31
f 2//3 5//3 68//3
f 69//31 70//31 2//31
f 70//5 69//5 71//5
f 3//5 70//5 71//5
f 72//5 3//5 71//5
f 11//5 72//5 71//5
f 11//32 71//32 59//32
f 69//5 67//5 71//5
f 62//5 71//5 67//5
f 66//3 68//3 5//3
f 66//3 5//3 64//3
f 65//5 63//5 67//5
f 62//5 67//5 63//5
f 71//33 62//33 60//33
f 61//3 64//3 5//3
f 71//33 60//33 59//33
f 11//32 59//32 58//32
f 14//34 58//34 57//34
f 57//35 17//35 15//35
f 21//5 13//5 16//5
f 57//35 15//35 14//35
f 14//34 11//34 58//34
f 12//36 13//36 5//36
f 9//5 72//5 11//5
f 72//37 9//37 8//37
f 72//37 8//37 4//37
f 6//6 7//6 10//6
f 12//36 5//36 6//36
f 3//2 72//2 4//2
f 70//1 3//1 2//1
f 1//3 5//3 2//3
