# Blender v2.82 (sub 7) OBJ File: ''
# www.blender.org
mtllib ship-2.mtl
o Ship-2
v 9.296999 0.802000 4.230000
v 9.520459 1.403240 4.092850
v 9.296999 1.449330 4.230000
v 8.551000 0.802000 4.503000
v 9.296999 0.802000 -4.184000
v 9.964999 0.802000 3.820000
v 9.739869 1.358000 3.958179
v 9.964999 1.369680 3.820000
v 10.553999 0.802000 3.229000
v 10.553999 1.395460 3.229000
v 10.762339 1.403130 2.950390
v 11.665959 1.387680 -0.598961
v 11.692999 1.401900 0.000000
v 11.692999 0.802000 0.000000
v 11.653999 0.802000 -0.864000
v 11.653999 1.381390 -0.864000
v 11.487919 1.358000 -1.472031
v 11.417999 1.397140 -1.728001
v 11.183229 1.499870 -2.240660
v 11.417999 0.802000 -1.728001
v 11.063999 0.802000 -2.501000
v 11.063999 1.552060 -2.501000
v 10.974459 1.585000 -2.620910
v 10.553999 0.802000 -3.184000
v 10.553999 2.006800 -3.184000
v 10.140400 1.778000 -3.599000
v 10.507999 2.049460 -3.230160
v 7.517779 1.778000 4.548000
v 7.843999 1.959730 4.546000
v 7.843999 1.960090 4.548000
v 7.843999 0.802000 4.548000
v 7.265969 1.695890 4.548000
v 6.429369 1.423000 4.548000
v 9.246109 1.423000 -4.202621
v 8.551000 1.372750 -4.457000
v 8.523029 1.370870 -4.460400
v 6.229609 1.410080 4.548000
v 8.331419 1.358000 -4.483710
v 5.423999 1.358000 4.548000
v 7.843999 1.488300 -4.543000
v 7.663759 1.535080 -4.548000
v 5.275129 1.396300 4.548000
v 7.469549 1.585000 -4.548000
v 4.541009 1.585000 4.548000
v 6.464689 1.913560 -2.882760
v 4.437389 1.657640 4.548000
v 4.072729 1.913610 4.548000
v 4.186090 1.358000 4.548000
v 3.829780 1.778000 4.548000
v 3.577970 1.695890 4.548000
v 2.741369 1.423000 4.548000
v 5.669279 1.423000 -4.548000
v 5.844679 1.480210 -4.548000
v 7.843999 0.802000 -4.548000
v 4.857339 1.370490 -4.548000
v 4.664109 1.358000 -4.548000
v 0.915998 0.802000 -4.548000
v 3.975769 1.535080 -4.548000
v 1.735999 1.358000 4.548000
v 2.541609 1.410080 4.548000
v 0.915998 0.802000 4.548000
v 1.587130 1.396300 4.548000
v 0.853010 1.585000 4.548000
v 0.749390 1.657640 4.548000
v 1.808949 1.791390 0.664339
v 3.781549 1.585000 -4.548000
v 3.487000 1.791470 -4.548000
v 3.462890 1.778000 -4.548000
v 2.549679 1.480210 -4.548000
v 0.534779 1.778000 4.548000
v 0.558800 1.791420 4.548000
v 0.282980 1.695890 4.548000
v 2.374279 1.423000 -4.548000
v -0.553631 1.423000 4.548000
v 1.562339 1.370490 -4.548000
v 1.369109 1.358000 -4.548000
v -0.753391 1.410080 4.548000
v -1.559000 1.358000 4.548000
v -3.849430 1.423000 4.548000
v -4.049191 1.410080 4.548000
v -4.854000 1.358000 4.548000
v -1.925890 1.358000 -4.548000
v -2.615021 1.535080 -4.548000
v -5.003040 1.396300 4.548000
v -2.809221 1.585000 -4.548000
v -4.041321 1.480210 -4.548000
v -3.128111 1.778000 -4.548000
v -6.056221 1.778000 4.548000
v -6.031870 1.791600 4.548000
v -3.103870 1.791540 -4.548000
v -5.737131 1.585000 4.548000
v -6.308031 1.695890 4.548000
v -7.144630 1.423000 4.548000
v -7.865002 0.802000 4.548000
v -7.344391 1.410080 4.548000
v -7.865002 1.376420 4.548000
v -8.139231 1.358000 4.514549
v -5.221891 1.358000 -4.548000
v -5.910240 1.535080 -4.548000
v -8.285400 1.397080 4.496719
v -6.104450 1.585000 -4.548000
v -8.611000 1.484060 4.457001
v -8.962301 1.585000 4.328440
v -8.214651 2.048200 -0.046181
v -9.357000 1.894270 4.184000
v -9.357000 0.802000 4.184000
v -9.944881 1.778000 3.824049
v -10.025002 1.746730 3.775000
v -10.025002 0.802000 3.775000
v -10.194672 1.673520 3.604750
v -10.614000 1.492560 3.184000
v -10.614000 0.802000 3.184000
v -10.763021 1.423000 2.984430
v -10.990450 1.401950 2.679850
v -11.124001 0.802000 2.500999
v -11.124001 1.389590 2.500999
v -9.217920 1.371650 -4.280710
v -11.410971 1.358000 1.874371
v -9.357000 1.363720 -4.230000
v -9.467270 1.358000 -4.162320
v -9.357000 0.802000 -4.230000
v -10.025002 0.802000 -3.820000
v -10.025002 1.472990 -3.820000
v -10.294392 1.519850 -3.549690
v -11.478001 1.387330 1.728001
v -11.478001 0.802000 1.728001
v -11.580940 1.445100 1.349529
v -11.713001 0.802000 0.864000
v -11.713001 1.519300 0.864000
v -11.745100 1.585000 0.170620
v -11.753000 0.802000 0.000000
v -11.713001 0.802000 -0.910000
v -11.753000 1.629040 0.000000
v -11.713001 1.806330 -0.910000
v -11.478001 0.802000 -1.774000
v -11.478001 1.836550 -1.774000
v -11.124001 1.762820 -2.547000
v -10.678610 1.585000 -3.142600
v -11.124001 0.802000 -2.547000
v -10.614000 0.802000 -3.229000
v -10.614000 1.575530 -3.229000
v -8.611000 0.802000 -4.502000
v -8.611000 1.406300 -4.502000
v -8.347462 1.423000 -4.518250
v -7.865002 0.802000 -4.548000
v -8.167120 1.480660 -4.529370
v -7.865002 1.577210 -4.548000
v -7.249241 1.778000 -4.548000
v -7.104660 1.858700 -4.548000
v -6.765341 2.048260 -4.548000
v -9.540470 2.048230 4.071659
v -5.028660 1.370490 -4.548000
v -4.216721 1.423000 -4.548000
v -1.732861 1.370490 -4.548000
v -0.920891 1.423000 -4.548000
v -3.012791 1.695890 4.548000
v -0.745481 1.480210 -4.548000
v -2.760981 1.778000 4.548000
v 0.167759 1.778000 -4.548000
v -2.736752 1.791520 4.548000
v 0.191528 1.791260 -4.548000
v -2.442131 1.585000 4.548000
v 0.485779 1.585000 -4.548000
v -1.708040 1.396300 4.548000
v 0.679979 1.535080 -4.548000
v 7.843999 0.802000 -4.543000
v 7.843999 0.802000 4.546000
v 8.551000 0.802000 -4.457000
v 8.551000 1.676370 4.503000
v 8.008069 2.049510 4.536020
v 8.698759 1.585000 4.448931
v -8.611000 0.802000 4.457001
v 7.843999 1.488710 -4.548000
v 6.757889 1.778000 -4.548000
v 7.000790 1.913580 -4.548000
v 9.296999 1.441560 -4.184000
v 9.422779 1.490670 -4.106990
v 9.964999 0.802000 -3.775000
v 9.964999 1.702330 -3.775000
v 11.653999 0.802000 0.910000
v 11.417999 0.802000 1.774000
v 11.653999 1.418320 0.910000
v 11.417999 1.421040 1.774000
v 11.063999 1.414240 2.546999
v 11.063999 0.802000 2.546999
vn 0.5231 0.0000 0.8523
vn 0.3437 0.0000 0.9391
vn 0.0000 -1.0000 0.0000
vn 0.7083 0.0000 0.7059
vn 0.8009 0.0000 0.5989
vn -0.0645 0.9977 -0.0208
vn 0.9990 0.0000 -0.0451
vn 0.9647 0.0000 -0.2635
vn 0.2481 0.9654 0.0799
vn 0.9092 0.0000 -0.4164
vn 0.8013 0.0000 -0.5983
vn 0.2482 0.9654 0.0799
vn 0.7083 0.0000 -0.7059
vn -0.4815 0.8626 -0.1550
vn -0.4815 0.8626 -0.1552
vn 0.0000 0.0000 1.0000
vn -0.3086 0.9460 -0.0993
vn 0.2483 0.9654 0.0799
vn 0.2484 0.9654 0.0799
vn 0.5644 0.8052 0.1817
vn 0.5645 0.8052 0.1817
vn 0.5649 0.8048 0.1819
vn 0.0000 0.0000 -1.0000
vn -0.3085 0.9460 -0.0993
vn -0.4817 0.8625 -0.1551
vn -0.4818 0.8624 -0.1551
vn -0.0646 0.9977 -0.0208
vn -0.4818 0.8625 -0.1551
vn -0.1211 0.0000 0.9926
vn -0.3437 0.0000 0.9391
vn -0.5222 0.0000 0.8528
vn -0.5221 0.0000 0.8529
vn -0.7083 0.0000 0.7059
vn -0.8013 0.0000 0.5983
vn -0.5231 0.0000 -0.8523
vn -0.7083 0.0000 -0.7059
vn 0.2480 0.9655 0.0799
vn -0.9092 0.0000 0.4164
vn -0.9649 0.0000 0.2625
vn -0.9989 0.0000 0.0462
vn -0.9990 0.0000 -0.0439
vn -0.9649 0.0000 -0.2625
vn -0.9092 0.0000 -0.4164
vn -0.8008 0.0000 -0.5989
vn 0.2484 0.9653 0.0800
vn -0.9989 0.0000 0.0463
vn -0.3426 0.0000 -0.9395
vn -0.0615 0.0000 -0.9981
vn -0.3086 0.9460 -0.0994
vn -0.4814 0.8627 -0.1550
vn -0.4813 0.8628 -0.1550
vn 0.3437 0.0000 -0.9391
vn 0.1208 -0.0000 -0.9927
vn 1.0000 0.0000 0.0000
vn 0.0607 0.0000 0.9982
vn 0.3436 0.0000 0.9391
vn -0.3084 0.9460 -0.0993
vn 0.5649 0.8048 0.1818
vn 0.2484 0.9654 0.0792
vn 0.1207 0.0000 -0.9927
vn 0.3436 0.0000 -0.9391
vn 0.5222 0.0000 -0.8528
vn 0.9647 0.0000 0.2635
vn 0.9092 0.0000 0.4164
vn 0.8008 0.0000 0.5989
vn 0.9991 0.0000 0.0428
usemtl None
s off
f 1//1 2//1 3//1
f 1//2 3//2 4//2
f 4//3 5//3 1//3
f 1//3 5//3 6//3
f 1//1 6//1 7//1
f 8//1 7//1 6//1
f 6//4 9//4 8//4
f 10//4 8//4 9//4
f 10//5 9//5 11//5
f 11//6 12//6 10//6
f 12//6 11//6 13//6
f 13//7 14//7 12//7
f 14//7 15//7 12//7
f 16//7 12//7 15//7
f 16//8 15//8 17//8
f 16//6 17//6 7//6
f 7//9 17//9 2//9
f 17//9 18//9 2//9
f 19//9 2//9 18//9
f 18//10 20//10 19//10
f 19//10 20//10 21//10
f 22//10 19//10 21//10
f 21//11 23//11 22//11
f 23//12 2//12 22//12
f 23//11 21//11 24//11
f 25//11 23//11 24//11
f 24//13 26//13 25//13
f 27//13 25//13 26//13
f 26//14 28//14 27//14
f 29//14 27//14 28//14
f 30//15 29//15 28//15
f 30//16 28//16 31//16
f 28//16 32//16 31//16
f 33//16 31//16 32//16
f 33//17 32//17 34//17
f 34//6 35//6 33//6
f 35//6 36//6 33//6
f 37//6 33//6 36//6
f 36//6 38//6 37//6
f 39//6 37//6 38//6
f 38//18 40//18 39//18
f 40//18 41//18 39//18
f 42//19 39//19 41//19
f 41//12 43//12 42//12
f 44//12 42//12 43//12
f 43//20 45//20 44//20
f 46//21 44//21 45//21
f 46//22 45//22 47//22
f 46//16 47//16 48//16
f 47//16 49//16 48//16
f 49//16 50//16 48//16
f 51//16 48//16 50//16
f 52//17 51//17 50//17
f 53//17 52//17 50//17
f 52//23 53//23 54//23
f 52//23 54//23 55//23
f 56//23 55//23 54//23
f 54//23 57//23 56//23
f 56//23 57//23 58//23
f 56//18 58//18 59//18
f 59//6 60//6 56//6
f 59//16 61//16 60//16
f 60//16 61//16 51//16
f 60//6 51//6 55//6
f 59//16 62//16 61//16
f 62//16 63//16 61//16
f 64//16 61//16 63//16
f 65//21 64//21 63//21
f 63//20 66//20 65//20
f 67//20 65//20 66//20
f 68//23 67//23 66//23
f 68//23 66//23 69//23
f 68//24 69//24 70//24
f 70//25 65//25 68//25
f 65//26 70//26 71//26
f 71//16 70//16 64//16
f 72//24 70//24 69//24
f 69//17 73//17 72//17
f 74//17 72//17 73//17
f 75//6 74//6 73//6
f 75//23 73//23 57//23
f 75//23 57//23 76//23
f 77//6 75//6 76//6
f 76//6 78//6 77//6
f 77//16 78//16 61//16
f 77//16 61//16 74//16
f 78//16 79//16 61//16
f 79//16 80//16 61//16
f 81//16 61//16 80//16
f 81//27 80//27 82//27
f 82//9 83//9 81//9
f 84//9 81//9 83//9
f 85//12 84//12 83//12
f 85//23 83//23 86//23
f 87//23 85//23 86//23
f 86//24 88//24 87//24
f 88//25 89//25 87//25
f 90//28 87//28 89//28
f 89//20 91//20 90//20
f 85//20 90//20 91//20
f 91//16 89//16 88//16
f 88//16 92//16 91//16
f 92//16 93//16 91//16
f 94//16 91//16 93//16
f 93//16 95//16 94//16
f 94//16 95//16 96//16
f 97//29 94//29 96//29
f 97//6 96//6 98//6
f 98//18 99//18 97//18
f 100//18 97//18 99//18
f 99//12 101//12 100//12
f 102//12 100//12 101//12
f 103//12 102//12 101//12
f 103//20 101//20 104//20
f 103//20 104//20 105//20
f 103//30 105//30 106//30
f 105//31 107//31 106//31
f 107//32 108//32 106//32
f 109//31 106//31 108//31
f 108//33 110//33 109//33
f 110//33 111//33 109//33
f 112//33 109//33 111//33
f 111//34 113//34 112//34
f 113//34 114//34 112//34
f 115//34 112//34 114//34
f 116//34 115//34 114//34
f 114//6 117//6 116//6
f 118//6 116//6 117//6
f 117//6 119//6 118//6
f 120//6 118//6 119//6
f 119//35 121//35 120//35
f 121//35 122//35 120//35
f 123//35 120//35 122//35
f 123//36 122//36 124//36
f 124//9 118//9 123//9
f 118//37 124//37 125//37
f 126//38 118//38 125//38
f 125//39 127//39 126//39
f 128//39 126//39 127//39
f 128//39 127//39 129//39
f 129//40 130//40 128//40
f 128//40 130//40 131//40
f 131//3 94//3 128//3
f 132//3 94//3 131//3
f 132//41 131//41 133//41
f 132//41 133//41 134//41
f 135//42 132//42 134//42
f 135//42 134//42 136//42
f 137//43 135//43 136//43
f 137//20 136//20 133//20
f 137//20 133//20 138//20
f 137//44 138//44 139//44
f 139//44 138//44 140//44
f 140//3 94//3 139//3
f 135//3 139//3 94//3
f 140//3 122//3 94//3
f 141//44 140//44 138//44
f 141//45 138//45 127//45
f 124//45 141//45 127//45
f 141//36 124//36 140//36
f 130//21 138//21 133//21
f 137//43 139//43 135//43
f 136//20 134//20 133//20
f 135//3 94//3 132//3
f 133//46 131//46 130//46
f 130//45 129//45 138//45
f 129//45 127//45 138//45
f 128//3 94//3 126//3
f 126//3 94//3 115//3
f 126//38 115//38 118//38
f 127//9 125//9 124//9
f 122//36 140//36 124//36
f 121//3 94//3 122//3
f 142//3 94//3 121//3
f 142//47 121//47 117//47
f 143//47 142//47 117//47
f 143//48 144//48 142//48
f 145//48 142//48 144//48
f 144//48 146//48 145//48
f 147//48 145//48 146//48
f 146//24 110//24 147//24
f 147//24 110//24 148//24
f 147//23 148//23 145//23
f 101//23 145//23 148//23
f 148//23 149//23 101//23
f 150//23 101//23 149//23
f 150//26 149//26 104//26
f 149//14 148//14 104//14
f 107//14 104//14 148//14
f 151//14 104//14 107//14
f 144//49 113//49 146//49
f 143//6 114//6 144//6
f 142//3 145//3 94//3
f 57//3 94//3 145//3
f 98//23 57//23 145//23
f 98//23 152//23 57//23
f 153//23 57//23 152//23
f 93//6 153//6 152//6
f 82//23 57//23 153//23
f 153//23 86//23 82//23
f 86//17 153//17 92//17
f 82//23 154//23 57//23
f 155//23 57//23 154//23
f 155//6 154//6 79//6
f 79//17 156//17 155//17
f 156//24 157//24 155//24
f 156//24 158//24 157//24
f 159//24 157//24 158//24
f 158//50 160//50 159//50
f 161//51 159//51 160//51
f 162//20 161//20 160//20
f 162//20 163//20 161//20
f 162//12 164//12 163//12
f 165//12 163//12 164//12
f 165//9 164//9 78//9
f 165//23 57//23 163//23
f 163//23 57//23 157//23
f 162//16 79//16 164//16
f 163//23 159//23 161//23
f 160//16 158//16 162//16
f 159//23 163//23 157//23
f 158//16 156//16 162//16
f 79//16 162//16 156//16
f 155//23 157//23 57//23
f 95//6 152//6 98//6
f 61//3 94//3 57//3
f 57//3 166//3 61//3
f 167//3 61//3 166//3
f 166//3 168//3 167//3
f 5//3 167//3 168//3
f 5//52 168//52 35//52
f 168//53 166//53 38//53
f 31//3 61//3 167//3
f 167//54 29//54 31//54
f 29//55 167//55 169//55
f 170//55 29//55 169//55
f 169//21 25//21 170//21
f 171//20 25//20 169//20
f 169//56 4//56 171//56
f 169//55 167//55 4//55
f 31//16 48//16 61//16
f 31//16 39//16 48//16
f 120//9 123//9 118//9
f 119//47 117//47 121//47
f 117//6 114//6 143//6
f 116//38 118//38 115//38
f 115//3 94//3 112//3
f 172//3 112//3 94//3
f 172//3 106//3 112//3
f 102//30 106//30 172//30
f 113//6 144//6 114//6
f 113//24 111//24 146//24
f 110//17 146//17 111//17
f 108//24 148//24 110//24
f 109//3 112//3 106//3
f 107//57 148//57 108//57
f 107//31 105//31 151//31
f 151//20 105//20 104//20
f 150//20 104//20 101//20
f 106//30 102//30 103//30
f 102//29 172//29 100//29
f 99//23 145//23 101//23
f 97//29 100//29 172//29
f 98//23 145//23 99//23
f 172//29 94//29 97//29
f 95//6 98//6 96//6
f 152//6 95//6 93//6
f 94//16 84//16 91//16
f 93//17 92//17 153//17
f 86//24 92//24 88//24
f 90//23 85//23 87//23
f 85//12 91//12 84//12
f 94//16 81//16 84//16
f 83//23 82//23 86//23
f 154//27 82//27 80//27
f 94//16 61//16 81//16
f 80//6 79//6 154//6
f 78//16 164//16 79//16
f 76//9 165//9 78//9
f 76//23 57//23 165//23
f 75//6 77//6 74//6
f 74//16 61//16 72//16
f 73//23 69//23 58//23
f 72//16 61//16 70//16
f 66//23 58//23 69//23
f 58//9 66//9 62//9
f 67//26 68//26 65//26
f 71//58 64//58 65//58
f 64//16 70//16 61//16
f 63//12 62//12 66//12
f 62//19 59//19 58//19
f 57//23 73//23 58//23
f 54//3 166//3 57//3
f 54//54 40//54 166//54
f 173//54 40//54 54//54
f 41//23 173//23 54//23
f 60//6 55//6 56//6
f 174//23 54//23 53//23
f 174//24 53//24 49//24
f 174//14 49//14 45//14
f 175//14 174//14 45//14
f 175//23 43//23 174//23
f 54//23 174//23 43//23
f 52//6 55//6 51//6
f 51//16 61//16 48//16
f 50//24 49//24 53//24
f 47//14 45//14 49//14
f 46//16 48//16 44//16
f 175//20 45//20 43//20
f 44//16 48//16 42//16
f 41//23 54//23 43//23
f 39//16 42//16 48//16
f 173//59 41//59 40//59
f 40//60 38//60 166//60
f 37//16 39//16 31//16
f 38//53 36//53 168//53
f 35//60 168//60 36//60
f 5//52 35//52 34//52
f 5//61 34//61 176//61
f 176//62 177//62 5//62
f 177//62 178//62 5//62
f 14//3 5//3 178//3
f 14//3 178//3 24//3
f 179//13 24//13 178//13
f 14//3 180//3 5//3
f 181//3 5//3 180//3
f 180//63 182//63 181//63
f 183//63 181//63 182//63
f 182//6 13//6 183//6
f 183//6 13//6 184//6
f 183//64 184//64 181//64
f 185//64 181//64 184//64
f 184//65 11//65 185//65
f 182//66 180//66 13//66
f 185//3 5//3 181//3
f 9//3 5//3 185//3
f 178//62 177//62 179//62
f 177//24 32//24 179//24
f 26//24 179//24 32//24
f 177//17 176//17 32//17
f 34//17 32//17 176//17
f 33//16 37//16 31//16
f 30//54 31//54 29//54
f 170//14 27//14 29//14
f 28//24 26//24 32//24
f 27//20 170//20 25//20
f 179//13 26//13 24//13
f 23//21 25//21 171//21
f 171//12 3//12 23//12
f 14//3 24//3 21//3
f 14//3 21//3 20//3
f 19//12 22//12 2//12
f 18//8 17//8 20//8
f 15//8 20//8 17//8
f 16//6 7//6 12//6
f 14//3 20//3 15//3
f 14//66 13//66 180//66
f 184//6 13//6 11//6
f 185//65 11//65 9//65
f 10//6 12//6 8//6
f 8//6 12//6 7//6
f 6//3 5//3 9//3
f 167//3 5//3 4//3
f 171//2 4//2 3//2
f 2//9 23//9 3//9
f 1//1 7//1 2//1
